<?xml version="1.0" encoding="UTF-8" standalone="no"?>
<!DOCTYPE svg PUBLIC "-//W3C//DTD SVG 1.1//EN"
 "http://www.w3.org/Graphics/SVG/1.1/DTD/svg11.dtd">
<!-- Generated by graphviz version 2.40.1 (20161225.0304)
 -->
<!-- Title: G33114336 Pages: 1 -->
<svg width="574pt" height="476pt"
 viewBox="0.00 0.00 574.15 476.00" xmlns="http://www.w3.org/2000/svg" xmlns:xlink="http://www.w3.org/1999/xlink">
<g id="graph0" class="graph" transform="scale(1 1) rotate(0) translate(4 472)">
<title>G33114336</title>
<polygon fill="#ffffff" stroke="transparent" points="-4,4 -4,-472 570.151,-472 570.151,4 -4,4"/>
<!-- N33114336 -->
<g id="node1" class="node">
<title>N33114336</title>
<ellipse fill="none" stroke="#000000" cx="230.151" cy="-450" rx="27" ry="18"/>
<text text-anchor="middle" x="230.151" y="-445.8" font-family="Times,serif" font-size="14.00" fill="#000000">s</text>
</g>
<!-- N33114337 -->
<g id="node2" class="node">
<title>N33114337</title>
<ellipse fill="none" stroke="#000000" cx="230.151" cy="-378" rx="27" ry="18"/>
<text text-anchor="middle" x="230.151" y="-373.8" font-family="Times,serif" font-size="14.00" fill="#000000">add</text>
</g>
<!-- N33114336&#45;&gt;N33114337 -->
<g id="edge1" class="edge">
<title>N33114336&#45;&gt;N33114337</title>
<path fill="none" stroke="#000000" d="M230.151,-431.8314C230.151,-424.131 230.151,-414.9743 230.151,-406.4166"/>
<polygon fill="#000000" stroke="#000000" points="233.6511,-406.4132 230.151,-396.4133 226.6511,-406.4133 233.6511,-406.4132"/>
</g>
<!-- N33114338 -->
<g id="node3" class="node">
<title>N33114338</title>
<ellipse fill="none" stroke="#000000" cx="191.151" cy="-306" rx="27" ry="18"/>
<text text-anchor="middle" x="191.151" y="-301.8" font-family="Times,serif" font-size="14.00" fill="#000000">add</text>
</g>
<!-- N33114337&#45;&gt;N33114338 -->
<g id="edge2" class="edge">
<title>N33114337&#45;&gt;N33114338</title>
<path fill="none" stroke="#000000" d="M220.9085,-360.937C216.1972,-352.2393 210.3693,-341.4799 205.1231,-331.7948"/>
<polygon fill="#000000" stroke="#000000" points="208.1675,-330.0664 200.3271,-322.9405 202.0124,-333.4005 208.1675,-330.0664"/>
</g>
<!-- N33114351 -->
<g id="node16" class="node">
<title>N33114351</title>
<ellipse fill="none" stroke="#000000" cx="311.151" cy="-306" rx="27" ry="18"/>
<text text-anchor="middle" x="311.151" y="-301.8" font-family="Times,serif" font-size="14.00" fill="#000000">add</text>
</g>
<!-- N33114337&#45;&gt;N33114351 -->
<g id="edge15" class="edge">
<title>N33114337&#45;&gt;N33114351</title>
<path fill="none" stroke="#000000" d="M246.5425,-363.4297C258.1803,-353.0851 273.9937,-339.0286 287.0629,-327.4116"/>
<polygon fill="#000000" stroke="#000000" points="289.6349,-329.8082 294.7838,-320.5486 284.9844,-324.5763 289.6349,-329.8082"/>
</g>
<!-- N33114360 -->
<g id="node4" class="node">
<title>N33114360</title>
<ellipse fill="none" stroke="#000000" cx="113.151" cy="-234" rx="32.5309" ry="18"/>
<text text-anchor="middle" x="113.151" y="-229.8" font-family="Times,serif" font-size="14.00" fill="#000000">8.280</text>
</g>
<!-- N33114338&#45;&gt;N33114360 -->
<g id="edge3" class="edge">
<title>N33114338&#45;&gt;N33114360</title>
<path fill="none" stroke="#000000" d="M174.9893,-291.0816C164.2276,-281.1477 149.8837,-267.9072 137.7201,-256.6793"/>
<polygon fill="#000000" stroke="#000000" points="139.8234,-253.8575 130.1013,-249.6465 135.0754,-259.0012 139.8234,-253.8575"/>
</g>
<!-- N33114340 -->
<g id="node5" class="node">
<title>N33114340</title>
<ellipse fill="none" stroke="#000000" cx="191.151" cy="-234" rx="27" ry="18"/>
<text text-anchor="middle" x="191.151" y="-229.8" font-family="Times,serif" font-size="14.00" fill="#000000">add</text>
</g>
<!-- N33114338&#45;&gt;N33114340 -->
<g id="edge4" class="edge">
<title>N33114338&#45;&gt;N33114340</title>
<path fill="none" stroke="#000000" d="M191.151,-287.8314C191.151,-280.131 191.151,-270.9743 191.151,-262.4166"/>
<polygon fill="#000000" stroke="#000000" points="194.6511,-262.4132 191.151,-252.4133 187.6511,-262.4133 194.6511,-262.4132"/>
</g>
<!-- N33114341 -->
<g id="node6" class="node">
<title>N33114341</title>
<ellipse fill="none" stroke="#000000" cx="113.151" cy="-162" rx="27" ry="18"/>
<text text-anchor="middle" x="113.151" y="-157.8" font-family="Times,serif" font-size="14.00" fill="#000000">add</text>
</g>
<!-- N33114340&#45;&gt;N33114341 -->
<g id="edge5" class="edge">
<title>N33114340&#45;&gt;N33114341</title>
<path fill="none" stroke="#000000" d="M174.9893,-219.0816C163.8295,-208.7802 148.8176,-194.923 136.3795,-183.4417"/>
<polygon fill="#000000" stroke="#000000" points="138.7471,-180.864 129.025,-176.653 133.9991,-186.0076 138.7471,-180.864"/>
</g>
<!-- N33114346 -->
<g id="node11" class="node">
<title>N33114346</title>
<ellipse fill="none" stroke="#000000" cx="191.151" cy="-162" rx="27" ry="18"/>
<text text-anchor="middle" x="191.151" y="-157.8" font-family="Times,serif" font-size="14.00" fill="#000000">add</text>
</g>
<!-- N33114340&#45;&gt;N33114346 -->
<g id="edge10" class="edge">
<title>N33114340&#45;&gt;N33114346</title>
<path fill="none" stroke="#000000" d="M191.151,-215.8314C191.151,-208.131 191.151,-198.9743 191.151,-190.4166"/>
<polygon fill="#000000" stroke="#000000" points="194.6511,-190.4132 191.151,-180.4133 187.6511,-190.4133 194.6511,-190.4132"/>
</g>
<!-- N33114342 -->
<g id="node7" class="node">
<title>N33114342</title>
<ellipse fill="none" stroke="#000000" cx="40.151" cy="-90" rx="27" ry="18"/>
<text text-anchor="middle" x="40.151" y="-85.8" font-family="Times,serif" font-size="14.00" fill="#000000">d</text>
</g>
<!-- N33114341&#45;&gt;N33114342 -->
<g id="edge6" class="edge">
<title>N33114341&#45;&gt;N33114342</title>
<path fill="none" stroke="#000000" d="M98.0253,-147.0816C87.8165,-137.0125 74.1632,-123.5463 62.6817,-112.2221"/>
<polygon fill="#000000" stroke="#000000" points="65.0858,-109.6773 55.5084,-105.147 60.1703,-114.6611 65.0858,-109.6773"/>
</g>
<!-- N33114343 -->
<g id="node8" class="node">
<title>N33114343</title>
<ellipse fill="none" stroke="#000000" cx="113.151" cy="-90" rx="28.4127" ry="18"/>
<text text-anchor="middle" x="113.151" y="-85.8" font-family="Times,serif" font-size="14.00" fill="#000000">mod</text>
</g>
<!-- N33114341&#45;&gt;N33114343 -->
<g id="edge7" class="edge">
<title>N33114341&#45;&gt;N33114343</title>
<path fill="none" stroke="#000000" d="M113.151,-143.8314C113.151,-136.131 113.151,-126.9743 113.151,-118.4166"/>
<polygon fill="#000000" stroke="#000000" points="116.6511,-118.4132 113.151,-108.4133 109.6511,-118.4133 116.6511,-118.4132"/>
</g>
<!-- N33114344 -->
<g id="node9" class="node">
<title>N33114344</title>
<ellipse fill="none" stroke="#000000" cx="31.151" cy="-18" rx="31.3027" ry="18"/>
<text text-anchor="middle" x="31.151" y="-13.8" font-family="Times,serif" font-size="14.00" fill="#000000">&#45;9.97</text>
</g>
<!-- N33114343&#45;&gt;N33114344 -->
<g id="edge8" class="edge">
<title>N33114343&#45;&gt;N33114344</title>
<path fill="none" stroke="#000000" d="M96.557,-75.4297C84.9306,-65.2212 69.1875,-51.3979 56.0601,-39.8714"/>
<polygon fill="#000000" stroke="#000000" points="58.1084,-37.0122 48.2847,-33.0442 53.4898,-42.2723 58.1084,-37.0122"/>
</g>
<!-- N33114345 -->
<g id="node10" class="node">
<title>N33114345</title>
<ellipse fill="none" stroke="#000000" cx="113.151" cy="-18" rx="32.5309" ry="18"/>
<text text-anchor="middle" x="113.151" y="-13.8" font-family="Times,serif" font-size="14.00" fill="#000000">8.280</text>
</g>
<!-- N33114343&#45;&gt;N33114345 -->
<g id="edge9" class="edge">
<title>N33114343&#45;&gt;N33114345</title>
<path fill="none" stroke="#000000" d="M113.151,-71.8314C113.151,-64.131 113.151,-54.9743 113.151,-46.4166"/>
<polygon fill="#000000" stroke="#000000" points="116.6511,-46.4132 113.151,-36.4133 109.6511,-46.4133 116.6511,-46.4132"/>
</g>
<!-- N33114347 -->
<g id="node12" class="node">
<title>N33114347</title>
<ellipse fill="none" stroke="#000000" cx="191.151" cy="-90" rx="27" ry="18"/>
<text text-anchor="middle" x="191.151" y="-85.8" font-family="Times,serif" font-size="14.00" fill="#000000">mul</text>
</g>
<!-- N33114346&#45;&gt;N33114347 -->
<g id="edge11" class="edge">
<title>N33114346&#45;&gt;N33114347</title>
<path fill="none" stroke="#000000" d="M191.151,-143.8314C191.151,-136.131 191.151,-126.9743 191.151,-118.4166"/>
<polygon fill="#000000" stroke="#000000" points="194.6511,-118.4132 191.151,-108.4133 187.6511,-118.4133 194.6511,-118.4132"/>
</g>
<!-- N33114350 -->
<g id="node15" class="node">
<title>N33114350</title>
<ellipse fill="none" stroke="#000000" cx="263.151" cy="-90" rx="27" ry="18"/>
<text text-anchor="middle" x="263.151" y="-85.8" font-family="Times,serif" font-size="14.00" fill="#000000">w</text>
</g>
<!-- N33114346&#45;&gt;N33114350 -->
<g id="edge14" class="edge">
<title>N33114346&#45;&gt;N33114350</title>
<path fill="none" stroke="#000000" d="M206.4203,-146.7307C216.348,-136.803 229.4663,-123.6847 240.5873,-112.5637"/>
<polygon fill="#000000" stroke="#000000" points="243.3074,-114.7933 247.9036,-105.2473 238.3576,-109.8436 243.3074,-114.7933"/>
</g>
<!-- N33114348 -->
<g id="node13" class="node">
<title>N33114348</title>
<ellipse fill="none" stroke="#000000" cx="191.151" cy="-18" rx="27" ry="18"/>
<text text-anchor="middle" x="191.151" y="-13.8" font-family="Times,serif" font-size="14.00" fill="#000000">d</text>
</g>
<!-- N33114347&#45;&gt;N33114348 -->
<g id="edge12" class="edge">
<title>N33114347&#45;&gt;N33114348</title>
<path fill="none" stroke="#000000" d="M191.151,-71.8314C191.151,-64.131 191.151,-54.9743 191.151,-46.4166"/>
<polygon fill="#000000" stroke="#000000" points="194.6511,-46.4132 191.151,-36.4133 187.6511,-46.4133 194.6511,-46.4132"/>
</g>
<!-- N33114349 -->
<g id="node14" class="node">
<title>N33114349</title>
<ellipse fill="none" stroke="#000000" cx="263.151" cy="-18" rx="27" ry="18"/>
<text text-anchor="middle" x="263.151" y="-13.8" font-family="Times,serif" font-size="14.00" fill="#000000">d</text>
</g>
<!-- N33114347&#45;&gt;N33114349 -->
<g id="edge13" class="edge">
<title>N33114347&#45;&gt;N33114349</title>
<path fill="none" stroke="#000000" d="M206.4203,-74.7307C216.348,-64.803 229.4663,-51.6847 240.5873,-40.5637"/>
<polygon fill="#000000" stroke="#000000" points="243.3074,-42.7933 247.9036,-33.2473 238.3576,-37.8436 243.3074,-42.7933"/>
</g>
<!-- N33114352 -->
<g id="node17" class="node">
<title>N33114352</title>
<ellipse fill="none" stroke="#000000" cx="311.151" cy="-234" rx="27" ry="18"/>
<text text-anchor="middle" x="311.151" y="-229.8" font-family="Times,serif" font-size="14.00" fill="#000000">add</text>
</g>
<!-- N33114351&#45;&gt;N33114352 -->
<g id="edge16" class="edge">
<title>N33114351&#45;&gt;N33114352</title>
<path fill="none" stroke="#000000" d="M311.151,-287.8314C311.151,-280.131 311.151,-270.9743 311.151,-262.4166"/>
<polygon fill="#000000" stroke="#000000" points="314.6511,-262.4132 311.151,-252.4133 307.6511,-262.4133 314.6511,-262.4132"/>
</g>
<!-- N33114355 -->
<g id="node20" class="node">
<title>N33114355</title>
<ellipse fill="none" stroke="#000000" cx="431.151" cy="-234" rx="27" ry="18"/>
<text text-anchor="middle" x="431.151" y="-229.8" font-family="Times,serif" font-size="14.00" fill="#000000">mul</text>
</g>
<!-- N33114351&#45;&gt;N33114355 -->
<g id="edge19" class="edge">
<title>N33114351&#45;&gt;N33114355</title>
<path fill="none" stroke="#000000" d="M331.2363,-293.9488C350.7052,-282.2675 380.4355,-264.4293 402.4074,-251.2461"/>
<polygon fill="#000000" stroke="#000000" points="404.2259,-254.2367 411.0001,-246.0905 400.6244,-248.2343 404.2259,-254.2367"/>
</g>
<!-- N33114353 -->
<g id="node18" class="node">
<title>N33114353</title>
<ellipse fill="none" stroke="#000000" cx="269.151" cy="-162" rx="32.5309" ry="18"/>
<text text-anchor="middle" x="269.151" y="-157.8" font-family="Times,serif" font-size="14.00" fill="#000000">3.514</text>
</g>
<!-- N33114352&#45;&gt;N33114353 -->
<g id="edge17" class="edge">
<title>N33114352&#45;&gt;N33114353</title>
<path fill="none" stroke="#000000" d="M301.1975,-216.937C296.1974,-208.3654 290.0293,-197.7914 284.4439,-188.2165"/>
<polygon fill="#000000" stroke="#000000" points="287.3867,-186.3149 279.3247,-179.4407 281.3402,-189.842 287.3867,-186.3149"/>
</g>
<!-- N33114354 -->
<g id="node19" class="node">
<title>N33114354</title>
<ellipse fill="none" stroke="#000000" cx="353.151" cy="-162" rx="32.5309" ry="18"/>
<text text-anchor="middle" x="353.151" y="-157.8" font-family="Times,serif" font-size="14.00" fill="#000000">2.989</text>
</g>
<!-- N33114352&#45;&gt;N33114354 -->
<g id="edge18" class="edge">
<title>N33114352&#45;&gt;N33114354</title>
<path fill="none" stroke="#000000" d="M321.1044,-216.937C326.1045,-208.3654 332.2727,-197.7914 337.858,-188.2165"/>
<polygon fill="#000000" stroke="#000000" points="340.9617,-189.842 342.9772,-179.4407 334.9152,-186.3149 340.9617,-189.842"/>
</g>
<!-- N33114356 -->
<g id="node21" class="node">
<title>N33114356</title>
<ellipse fill="none" stroke="#000000" cx="431.151" cy="-162" rx="27" ry="18"/>
<text text-anchor="middle" x="431.151" y="-157.8" font-family="Times,serif" font-size="14.00" fill="#000000">w</text>
</g>
<!-- N33114355&#45;&gt;N33114356 -->
<g id="edge20" class="edge">
<title>N33114355&#45;&gt;N33114356</title>
<path fill="none" stroke="#000000" d="M431.151,-215.8314C431.151,-208.131 431.151,-198.9743 431.151,-190.4166"/>
<polygon fill="#000000" stroke="#000000" points="434.6511,-190.4132 431.151,-180.4133 427.6511,-190.4133 434.6511,-190.4132"/>
</g>
<!-- N33114357 -->
<g id="node22" class="node">
<title>N33114357</title>
<ellipse fill="none" stroke="#000000" cx="503.151" cy="-162" rx="27" ry="18"/>
<text text-anchor="middle" x="503.151" y="-157.8" font-family="Times,serif" font-size="14.00" fill="#000000">add</text>
</g>
<!-- N33114355&#45;&gt;N33114357 -->
<g id="edge21" class="edge">
<title>N33114355&#45;&gt;N33114357</title>
<path fill="none" stroke="#000000" d="M446.4203,-218.7307C456.348,-208.803 469.4663,-195.6847 480.5873,-184.5637"/>
<polygon fill="#000000" stroke="#000000" points="483.3074,-186.7933 487.9036,-177.2473 478.3576,-181.8436 483.3074,-186.7933"/>
</g>
<!-- N33114358 -->
<g id="node23" class="node">
<title>N33114358</title>
<ellipse fill="none" stroke="#000000" cx="467.151" cy="-90" rx="27" ry="18"/>
<text text-anchor="middle" x="467.151" y="-85.8" font-family="Times,serif" font-size="14.00" fill="#000000">d</text>
</g>
<!-- N33114357&#45;&gt;N33114358 -->
<g id="edge22" class="edge">
<title>N33114357&#45;&gt;N33114358</title>
<path fill="none" stroke="#000000" d="M494.4364,-144.5708C490.1913,-136.0807 484.9974,-125.6929 480.2847,-116.2674"/>
<polygon fill="#000000" stroke="#000000" points="483.388,-114.6477 475.7853,-107.2687 477.127,-117.7782 483.388,-114.6477"/>
</g>
<!-- N33114359 -->
<g id="node24" class="node">
<title>N33114359</title>
<ellipse fill="none" stroke="#000000" cx="539.151" cy="-90" rx="27" ry="18"/>
<text text-anchor="middle" x="539.151" y="-85.8" font-family="Times,serif" font-size="14.00" fill="#000000">w</text>
</g>
<!-- N33114357&#45;&gt;N33114359 -->
<g id="edge23" class="edge">
<title>N33114357&#45;&gt;N33114359</title>
<path fill="none" stroke="#000000" d="M511.8656,-144.5708C516.1106,-136.0807 521.3045,-125.6929 526.0173,-116.2674"/>
<polygon fill="#000000" stroke="#000000" points="529.1749,-117.7782 530.5166,-107.2687 522.9139,-114.6477 529.1749,-117.7782"/>
</g>
</g>
</svg>
