<?xml version="1.0" encoding="UTF-8" standalone="no"?>
<!DOCTYPE svg PUBLIC "-//W3C//DTD SVG 1.1//EN"
 "http://www.w3.org/Graphics/SVG/1.1/DTD/svg11.dtd">
<!-- Generated by graphviz version 2.40.1 (20161225.0304)
 -->
<!-- Title: G91107 Pages: 1 -->
<svg width="578pt" height="332pt"
 viewBox="0.00 0.00 577.87 332.00" xmlns="http://www.w3.org/2000/svg" xmlns:xlink="http://www.w3.org/1999/xlink">
<g id="graph0" class="graph" transform="scale(1 1) rotate(0) translate(4 328)">
<title>G91107</title>
<polygon fill="#ffffff" stroke="transparent" points="-4,4 -4,-328 573.8723,-328 573.8723,4 -4,4"/>
<!-- N91107 -->
<g id="node1" class="node">
<title>N91107</title>
<ellipse fill="#d3d3d3" stroke="#000000" cx="283.9362" cy="-306" rx="42.301" ry="18"/>
<text text-anchor="middle" x="283.9362" y="-301.8" font-family="Times,serif" font-size="14.00" fill="#000000">N91107</text>
</g>
<!-- N91108 -->
<g id="node2" class="node">
<title>N91108</title>
<ellipse fill="#d3d3d3" stroke="#000000" cx="283.9362" cy="-234" rx="27" ry="18"/>
<text text-anchor="middle" x="283.9362" y="-229.8" font-family="Times,serif" font-size="14.00" fill="#000000">mul</text>
</g>
<!-- N91107&#45;&gt;N91108 -->
<g id="edge1" class="edge">
<title>N91107&#45;&gt;N91108</title>
<path fill="none" stroke="#000000" d="M283.9362,-287.8314C283.9362,-280.131 283.9362,-270.9743 283.9362,-262.4166"/>
<polygon fill="#000000" stroke="#000000" points="287.4363,-262.4132 283.9362,-252.4133 280.4363,-262.4133 287.4363,-262.4132"/>
</g>
<!-- N91109 -->
<g id="node3" class="node">
<title>N91109</title>
<ellipse fill="#d3d3d3" stroke="#000000" cx="210.9362" cy="-162" rx="27" ry="18"/>
<text text-anchor="middle" x="210.9362" y="-157.8" font-family="Times,serif" font-size="14.00" fill="#000000">div</text>
</g>
<!-- N91108&#45;&gt;N91109 -->
<g id="edge2" class="edge">
<title>N91108&#45;&gt;N91109</title>
<path fill="none" stroke="#000000" d="M268.8105,-219.0816C258.6017,-209.0125 244.9484,-195.5463 233.4669,-184.2221"/>
<polygon fill="#000000" stroke="#000000" points="235.871,-181.6773 226.2936,-177.147 230.9555,-186.6611 235.871,-181.6773"/>
</g>
<!-- N91116 -->
<g id="node10" class="node">
<title>N91116</title>
<ellipse fill="#d3d3d3" stroke="#000000" cx="356.9362" cy="-162" rx="27" ry="18"/>
<text text-anchor="middle" x="356.9362" y="-157.8" font-family="Times,serif" font-size="14.00" fill="#000000">add</text>
</g>
<!-- N91108&#45;&gt;N91116 -->
<g id="edge9" class="edge">
<title>N91108&#45;&gt;N91116</title>
<path fill="none" stroke="#000000" d="M299.0618,-219.0816C309.2707,-209.0125 322.9239,-195.5463 334.4054,-184.2221"/>
<polygon fill="#000000" stroke="#000000" points="336.9168,-186.6611 341.5787,-177.147 332.0013,-181.6773 336.9168,-186.6611"/>
</g>
<!-- N91110 -->
<g id="node4" class="node">
<title>N91110</title>
<ellipse fill="#d3d3d3" stroke="#000000" cx="100.9362" cy="-90" rx="27" ry="18"/>
<text text-anchor="middle" x="100.9362" y="-85.8" font-family="Times,serif" font-size="14.00" fill="#000000">mul</text>
</g>
<!-- N91109&#45;&gt;N91110 -->
<g id="edge3" class="edge">
<title>N91109&#45;&gt;N91110</title>
<path fill="none" stroke="#000000" d="M191.5236,-149.2936C174.1942,-137.9507 148.6044,-121.201 129.039,-108.3946"/>
<polygon fill="#000000" stroke="#000000" points="130.8085,-105.3698 120.5247,-102.8216 126.9749,-111.2267 130.8085,-105.3698"/>
</g>
<!-- N91113 -->
<g id="node7" class="node">
<title>N91113</title>
<ellipse fill="none" stroke="#000000" cx="210.9362" cy="-90" rx="27" ry="18"/>
<text text-anchor="middle" x="210.9362" y="-85.8" font-family="Times,serif" font-size="14.00" fill="#000000">add</text>
</g>
<!-- N91109&#45;&gt;N91113 -->
<g id="edge6" class="edge">
<title>N91109&#45;&gt;N91113</title>
<path fill="none" stroke="#000000" d="M210.9362,-143.8314C210.9362,-136.131 210.9362,-126.9743 210.9362,-118.4166"/>
<polygon fill="#000000" stroke="#000000" points="214.4363,-118.4132 210.9362,-108.4133 207.4363,-118.4133 214.4363,-118.4132"/>
</g>
<!-- N91111 -->
<g id="node5" class="node">
<title>N91111</title>
<ellipse fill="#d3d3d3" stroke="#000000" cx="27.9362" cy="-18" rx="27.8725" ry="18"/>
<text text-anchor="middle" x="27.9362" y="-13.8" font-family="Times,serif" font-size="14.00" fill="#000000">0.35</text>
</g>
<!-- N91110&#45;&gt;N91111 -->
<g id="edge4" class="edge">
<title>N91110&#45;&gt;N91111</title>
<path fill="none" stroke="#000000" d="M85.8105,-75.0816C75.6017,-65.0125 61.9484,-51.5463 50.4669,-40.2221"/>
<polygon fill="#000000" stroke="#000000" points="52.871,-37.6773 43.2936,-33.147 47.9555,-42.6611 52.871,-37.6773"/>
</g>
<!-- N91112 -->
<g id="node6" class="node">
<title>N91112</title>
<ellipse fill="#d3d3d3" stroke="#000000" cx="100.9362" cy="-18" rx="27" ry="18"/>
<text text-anchor="middle" x="100.9362" y="-13.8" font-family="Times,serif" font-size="14.00" fill="#000000">d</text>
</g>
<!-- N91110&#45;&gt;N91112 -->
<g id="edge5" class="edge">
<title>N91110&#45;&gt;N91112</title>
<path fill="none" stroke="#000000" d="M100.9362,-71.8314C100.9362,-64.131 100.9362,-54.9743 100.9362,-46.4166"/>
<polygon fill="#000000" stroke="#000000" points="104.4363,-46.4132 100.9362,-36.4133 97.4363,-46.4133 104.4363,-46.4132"/>
</g>
<!-- N91138 -->
<g id="node8" class="node">
<title>N91138</title>
<ellipse fill="none" stroke="#000000" stroke-dasharray="5,2" cx="173.9362" cy="-18" rx="27.8725" ry="18"/>
<text text-anchor="middle" x="173.9362" y="-13.8" font-family="Times,serif" font-size="14.00" fill="#000000">0.69</text>
</g>
<!-- N91113&#45;&gt;N91138 -->
<g id="edge7" class="edge">
<title>N91113&#45;&gt;N91138</title>
<path fill="none" stroke="#000000" d="M202.1677,-72.937C197.8082,-64.4537 192.4409,-54.0092 187.5609,-44.513"/>
<polygon fill="#000000" stroke="#000000" points="190.5825,-42.7352 182.8987,-35.4407 184.3565,-45.9348 190.5825,-42.7352"/>
</g>
<!-- N91115 -->
<g id="node9" class="node">
<title>N91115</title>
<ellipse fill="#d3d3d3" stroke="#000000" cx="247.9362" cy="-18" rx="27.8725" ry="18"/>
<text text-anchor="middle" x="247.9362" y="-13.8" font-family="Times,serif" font-size="14.00" fill="#000000">0.83</text>
</g>
<!-- N91113&#45;&gt;N91115 -->
<g id="edge8" class="edge">
<title>N91113&#45;&gt;N91115</title>
<path fill="none" stroke="#000000" d="M219.7046,-72.937C224.0641,-64.4537 229.4314,-54.0092 234.3114,-44.513"/>
<polygon fill="#000000" stroke="#000000" points="237.5159,-45.9348 238.9736,-35.4407 231.2898,-42.7352 237.5159,-45.9348"/>
</g>
<!-- N91117 -->
<g id="node11" class="node">
<title>N91117</title>
<ellipse fill="#d3d3d3" stroke="#000000" cx="356.9362" cy="-90" rx="27" ry="18"/>
<text text-anchor="middle" x="356.9362" y="-85.8" font-family="Times,serif" font-size="14.00" fill="#000000">add</text>
</g>
<!-- N91116&#45;&gt;N91117 -->
<g id="edge10" class="edge">
<title>N91116&#45;&gt;N91117</title>
<path fill="none" stroke="#000000" d="M356.9362,-143.8314C356.9362,-136.131 356.9362,-126.9743 356.9362,-118.4166"/>
<polygon fill="#000000" stroke="#000000" points="360.4363,-118.4132 356.9362,-108.4133 353.4363,-118.4133 360.4363,-118.4132"/>
</g>
<!-- N91120 -->
<g id="node14" class="node">
<title>N91120</title>
<ellipse fill="#d3d3d3" stroke="#000000" cx="467.9362" cy="-90" rx="27" ry="18"/>
<text text-anchor="middle" x="467.9362" y="-85.8" font-family="Times,serif" font-size="14.00" fill="#000000">div</text>
</g>
<!-- N91116&#45;&gt;N91120 -->
<g id="edge13" class="edge">
<title>N91116&#45;&gt;N91120</title>
<path fill="none" stroke="#000000" d="M376.5252,-149.2936C394.1201,-137.8807 420.1537,-120.994 439.9428,-108.1579"/>
<polygon fill="#000000" stroke="#000000" points="442.058,-110.9577 448.5429,-102.5794 438.2486,-105.085 442.058,-110.9577"/>
</g>
<!-- N91118 -->
<g id="node12" class="node">
<title>N91118</title>
<ellipse fill="#d3d3d3" stroke="#000000" cx="320.9362" cy="-18" rx="27" ry="18"/>
<text text-anchor="middle" x="320.9362" y="-13.8" font-family="Times,serif" font-size="14.00" fill="#000000">1</text>
</g>
<!-- N91117&#45;&gt;N91118 -->
<g id="edge11" class="edge">
<title>N91117&#45;&gt;N91118</title>
<path fill="none" stroke="#000000" d="M348.2216,-72.5708C343.9765,-64.0807 338.7826,-53.6929 334.0699,-44.2674"/>
<polygon fill="#000000" stroke="#000000" points="337.1732,-42.6477 329.5705,-35.2687 330.9122,-45.7782 337.1732,-42.6477"/>
</g>
<!-- N91119 -->
<g id="node13" class="node">
<title>N91119</title>
<ellipse fill="#d3d3d3" stroke="#000000" cx="393.9362" cy="-18" rx="27.8725" ry="18"/>
<text text-anchor="middle" x="393.9362" y="-13.8" font-family="Times,serif" font-size="14.00" fill="#000000">0.91</text>
</g>
<!-- N91117&#45;&gt;N91119 -->
<g id="edge12" class="edge">
<title>N91117&#45;&gt;N91119</title>
<path fill="none" stroke="#000000" d="M365.7046,-72.937C370.0641,-64.4537 375.4314,-54.0092 380.3114,-44.513"/>
<polygon fill="#000000" stroke="#000000" points="383.5159,-45.9348 384.9736,-35.4407 377.2898,-42.7352 383.5159,-45.9348"/>
</g>
<!-- N91121 -->
<g id="node15" class="node">
<title>N91121</title>
<ellipse fill="#d3d3d3" stroke="#000000" cx="467.9362" cy="-18" rx="27.8725" ry="18"/>
<text text-anchor="middle" x="467.9362" y="-13.8" font-family="Times,serif" font-size="14.00" fill="#000000">0.33</text>
</g>
<!-- N91120&#45;&gt;N91121 -->
<g id="edge14" class="edge">
<title>N91120&#45;&gt;N91121</title>
<path fill="none" stroke="#000000" d="M467.9362,-71.8314C467.9362,-64.131 467.9362,-54.9743 467.9362,-46.4166"/>
<polygon fill="#000000" stroke="#000000" points="471.4363,-46.4132 467.9362,-36.4133 464.4363,-46.4133 471.4363,-46.4132"/>
</g>
<!-- N91122 -->
<g id="node16" class="node">
<title>N91122</title>
<ellipse fill="#d3d3d3" stroke="#000000" cx="541.9362" cy="-18" rx="27.8725" ry="18"/>
<text text-anchor="middle" x="541.9362" y="-13.8" font-family="Times,serif" font-size="14.00" fill="#000000">0.69</text>
</g>
<!-- N91120&#45;&gt;N91122 -->
<g id="edge15" class="edge">
<title>N91120&#45;&gt;N91122</title>
<path fill="none" stroke="#000000" d="M483.269,-75.0816C493.6177,-65.0125 507.458,-51.5463 519.0968,-40.2221"/>
<polygon fill="#000000" stroke="#000000" points="521.6418,-42.6292 526.3684,-33.147 516.7603,-37.6121 521.6418,-42.6292"/>
</g>
</g>
</svg>
