<?xml version="1.0" encoding="UTF-8" standalone="no"?>
<!DOCTYPE svg PUBLIC "-//W3C//DTD SVG 1.1//EN"
 "http://www.w3.org/Graphics/SVG/1.1/DTD/svg11.dtd">
<!-- Generated by graphviz version 2.40.1 (20161225.0304)
 -->
<!-- Title: G509240 Pages: 1 -->
<svg width="4585pt" height="476pt"
 viewBox="0.00 0.00 4584.92 476.00" xmlns="http://www.w3.org/2000/svg" xmlns:xlink="http://www.w3.org/1999/xlink">
<g id="graph0" class="graph" transform="scale(1 1) rotate(0) translate(4 472)">
<title>G509240</title>
<polygon fill="#ffffff" stroke="transparent" points="-4,4 -4,-472 4580.9211,-472 4580.9211,4 -4,4"/>
<!-- N509240 -->
<g id="node1" class="node">
<title>N509240</title>
<ellipse fill="none" stroke="#000000" cx="3184" cy="-450" rx="27" ry="18"/>
</g>
<!-- N509241 -->
<g id="node2" class="node">
<title>N509241</title>
<ellipse fill="none" stroke="#000000" cx="2394" cy="-378" rx="27" ry="18"/>
<text text-anchor="middle" x="2394" y="-373.8" font-family="Times,serif" font-size="14.00" fill="#000000">sub</text>
</g>
<!-- N509240&#45;&gt;N509241 -->
<g id="edge1" class="edge">
<title>N509240&#45;&gt;N509241</title>
<path fill="none" stroke="#000000" d="M3156.8064,-447.5216C3038.4619,-436.7358 2568.128,-393.8699 2431.4368,-381.412"/>
<polygon fill="#000000" stroke="#000000" points="2431.3556,-377.8901 2421.0792,-380.468 2430.7202,-384.8613 2431.3556,-377.8901"/>
</g>
<!-- N509295 -->
<g id="node56" class="node">
<title>N509295</title>
<ellipse fill="none" stroke="#000000" cx="3652" cy="-378" rx="27" ry="18"/>
<text text-anchor="middle" x="3652" y="-373.8" font-family="Times,serif" font-size="14.00" fill="#000000">add</text>
</g>
<!-- N509240&#45;&gt;N509295 -->
<g id="edge55" class="edge">
<title>N509240&#45;&gt;N509295</title>
<path fill="none" stroke="#000000" d="M3210.5026,-445.9227C3289.6455,-433.7468 3524.3911,-397.6321 3615.3849,-383.6331"/>
<polygon fill="#000000" stroke="#000000" points="3616.1472,-387.0571 3625.4987,-382.0771 3615.0828,-380.1385 3616.1472,-387.0571"/>
</g>
<!-- N509242 -->
<g id="node3" class="node">
<title>N509242</title>
<ellipse fill="none" stroke="#000000" cx="907" cy="-306" rx="27" ry="18"/>
<text text-anchor="middle" x="907" y="-301.8" font-family="Times,serif" font-size="14.00" fill="#000000">gt</text>
</g>
<!-- N509241&#45;&gt;N509242 -->
<g id="edge2" class="edge">
<title>N509241&#45;&gt;N509242</title>
<path fill="none" stroke="#000000" d="M2366.921,-376.6888C2186.0444,-367.9309 1153.9077,-317.9552 944.1824,-307.8004"/>
<polygon fill="#000000" stroke="#000000" points="944.1552,-304.295 933.9976,-307.3072 943.8166,-311.2868 944.1552,-304.295"/>
</g>
<!-- N509267 -->
<g id="node28" class="node">
<title>N509267</title>
<ellipse fill="none" stroke="#000000" cx="2394" cy="-306" rx="27" ry="18"/>
<text text-anchor="middle" x="2394" y="-301.8" font-family="Times,serif" font-size="14.00" fill="#000000">mul</text>
</g>
<!-- N509241&#45;&gt;N509267 -->
<g id="edge27" class="edge">
<title>N509241&#45;&gt;N509267</title>
<path fill="none" stroke="#000000" d="M2394,-359.8314C2394,-352.131 2394,-342.9743 2394,-334.4166"/>
<polygon fill="#000000" stroke="#000000" points="2397.5001,-334.4132 2394,-324.4133 2390.5001,-334.4133 2397.5001,-334.4132"/>
</g>
<!-- N509243 -->
<g id="node4" class="node">
<title>N509243</title>
<ellipse fill="none" stroke="#000000" cx="303" cy="-234" rx="27" ry="18"/>
<text text-anchor="middle" x="303" y="-229.8" font-family="Times,serif" font-size="14.00" fill="#000000">mul</text>
</g>
<!-- N509242&#45;&gt;N509243 -->
<g id="edge3" class="edge">
<title>N509242&#45;&gt;N509243</title>
<path fill="none" stroke="#000000" d="M880.2675,-302.8133C783.5054,-291.2788 451.3766,-251.6873 339.854,-238.3932"/>
<polygon fill="#000000" stroke="#000000" points="340.1094,-234.8989 329.7654,-237.1906 339.2808,-241.8497 340.1094,-234.8989"/>
</g>
<!-- N509252 -->
<g id="node13" class="node">
<title>N509252</title>
<ellipse fill="none" stroke="#000000" cx="907" cy="-234" rx="27" ry="18"/>
<text text-anchor="middle" x="907" y="-229.8" font-family="Times,serif" font-size="14.00" fill="#000000">add</text>
</g>
<!-- N509242&#45;&gt;N509252 -->
<g id="edge12" class="edge">
<title>N509242&#45;&gt;N509252</title>
<path fill="none" stroke="#000000" d="M907,-287.8314C907,-280.131 907,-270.9743 907,-262.4166"/>
<polygon fill="#000000" stroke="#000000" points="910.5001,-262.4132 907,-252.4133 903.5001,-262.4133 910.5001,-262.4132"/>
</g>
<!-- N509244 -->
<g id="node5" class="node">
<title>N509244</title>
<ellipse fill="none" stroke="#000000" cx="163" cy="-162" rx="45.2497" ry="18"/>
<text text-anchor="middle" x="163" y="-157.8" font-family="Times,serif" font-size="14.00" fill="#000000">domingo</text>
</g>
<!-- N509243&#45;&gt;N509244 -->
<g id="edge4" class="edge">
<title>N509243&#45;&gt;N509244</title>
<path fill="none" stroke="#000000" d="M281.4318,-222.9078C259.7768,-211.771 225.9928,-194.3963 200.0407,-181.0495"/>
<polygon fill="#000000" stroke="#000000" points="201.3644,-177.7945 190.8707,-176.3335 198.1629,-184.0196 201.3644,-177.7945"/>
</g>
<!-- N509248 -->
<g id="node9" class="node">
<title>N509248</title>
<ellipse fill="none" stroke="#000000" cx="303" cy="-162" rx="27" ry="18"/>
<text text-anchor="middle" x="303" y="-157.8" font-family="Times,serif" font-size="14.00" fill="#000000">mul</text>
</g>
<!-- N509243&#45;&gt;N509248 -->
<g id="edge8" class="edge">
<title>N509243&#45;&gt;N509248</title>
<path fill="none" stroke="#000000" d="M303,-215.8314C303,-208.131 303,-198.9743 303,-190.4166"/>
<polygon fill="#000000" stroke="#000000" points="306.5001,-190.4132 303,-180.4133 299.5001,-190.4133 306.5001,-190.4132"/>
</g>
<!-- N509245 -->
<g id="node6" class="node">
<title>N509245</title>
<ellipse fill="none" stroke="#000000" cx="63" cy="-90" rx="28.4127" ry="18"/>
<text text-anchor="middle" x="63" y="-85.8" font-family="Times,serif" font-size="14.00" fill="#000000">mod</text>
</g>
<!-- N509244&#45;&gt;N509245 -->
<g id="edge5" class="edge">
<title>N509244&#45;&gt;N509245</title>
<path fill="none" stroke="#000000" d="M140.8068,-146.0209C125.8534,-135.2544 106.0347,-120.985 90.1421,-109.5423"/>
<polygon fill="#000000" stroke="#000000" points="91.933,-106.5189 81.7725,-103.5162 87.8428,-112.1997 91.933,-106.5189"/>
</g>
<!-- N509246 -->
<g id="node7" class="node">
<title>N509246</title>
<ellipse fill="none" stroke="#000000" cx="27" cy="-18" rx="27" ry="18"/>
<text text-anchor="middle" x="27" y="-13.8" font-family="Times,serif" font-size="14.00" fill="#000000">w</text>
</g>
<!-- N509245&#45;&gt;N509246 -->
<g id="edge6" class="edge">
<title>N509245&#45;&gt;N509246</title>
<path fill="none" stroke="#000000" d="M54.2854,-72.5708C50.0403,-64.0807 44.8464,-53.6929 40.1337,-44.2674"/>
<polygon fill="#000000" stroke="#000000" points="43.237,-42.6477 35.6343,-35.2687 36.976,-45.7782 43.237,-42.6477"/>
</g>
<!-- N509247 -->
<g id="node8" class="node">
<title>N509247</title>
<ellipse fill="none" stroke="#000000" cx="99" cy="-18" rx="27" ry="18"/>
<text text-anchor="middle" x="99" y="-13.8" font-family="Times,serif" font-size="14.00" fill="#000000">w</text>
</g>
<!-- N509245&#45;&gt;N509247 -->
<g id="edge7" class="edge">
<title>N509245&#45;&gt;N509247</title>
<path fill="none" stroke="#000000" d="M71.7146,-72.5708C75.9597,-64.0807 81.1536,-53.6929 85.8663,-44.2674"/>
<polygon fill="#000000" stroke="#000000" points="89.024,-45.7782 90.3657,-35.2687 82.763,-42.6477 89.024,-45.7782"/>
</g>
<!-- N509249 -->
<g id="node10" class="node">
<title>N509249</title>
<ellipse fill="none" stroke="#000000" cx="203" cy="-90" rx="93.8423" ry="18"/>
<text text-anchor="middle" x="203" y="-85.8" font-family="Times,serif" font-size="14.00" fill="#000000">&#45;7.718482577449675</text>
</g>
<!-- N509248&#45;&gt;N509249 -->
<g id="edge9" class="edge">
<title>N509248&#45;&gt;N509249</title>
<path fill="none" stroke="#000000" d="M284.1908,-148.4574C270.5079,-138.6057 251.6364,-125.0182 235.5307,-113.4221"/>
<polygon fill="#000000" stroke="#000000" points="237.5632,-110.5727 227.4028,-107.57 233.4731,-116.2535 237.5632,-110.5727"/>
</g>
<!-- N509250 -->
<g id="node11" class="node">
<title>N509250</title>
<ellipse fill="none" stroke="#000000" cx="353" cy="-90" rx="37.7025" ry="18"/>
<text text-anchor="middle" x="353" y="-85.8" font-family="Times,serif" font-size="14.00" fill="#000000">sabado</text>
</g>
<!-- N509248&#45;&gt;N509250 -->
<g id="edge10" class="edge">
<title>N509248&#45;&gt;N509250</title>
<path fill="none" stroke="#000000" d="M314.3458,-145.6621C320.4964,-136.8052 328.2376,-125.6579 335.1738,-115.6697"/>
<polygon fill="#000000" stroke="#000000" points="338.1727,-117.4874 341.0019,-107.2773 332.4231,-113.4946 338.1727,-117.4874"/>
</g>
<!-- N509251 -->
<g id="node12" class="node">
<title>N509251</title>
<ellipse fill="none" stroke="#000000" cx="289" cy="-18" rx="27" ry="18"/>
<text text-anchor="middle" x="289" y="-13.8" font-family="Times,serif" font-size="14.00" fill="#000000">d</text>
</g>
<!-- N509250&#45;&gt;N509251 -->
<g id="edge11" class="edge">
<title>N509250&#45;&gt;N509251</title>
<path fill="none" stroke="#000000" d="M338.1563,-73.3008C329.6817,-63.7669 318.9279,-51.6689 309.6409,-41.221"/>
<polygon fill="#000000" stroke="#000000" points="312.1467,-38.7718 302.887,-33.6229 306.9148,-43.4223 312.1467,-38.7718"/>
</g>
<!-- N509253 -->
<g id="node14" class="node">
<title>N509253</title>
<ellipse fill="none" stroke="#000000" cx="768" cy="-162" rx="27" ry="18"/>
<text text-anchor="middle" x="768" y="-157.8" font-family="Times,serif" font-size="14.00" fill="#000000">gt</text>
</g>
<!-- N509252&#45;&gt;N509253 -->
<g id="edge13" class="edge">
<title>N509252&#45;&gt;N509253</title>
<path fill="none" stroke="#000000" d="M885.5859,-222.9078C862.39,-210.8927 825.1773,-191.617 798.8347,-177.9719"/>
<polygon fill="#000000" stroke="#000000" points="800.1568,-174.7151 789.6675,-173.2234 796.9371,-180.9308 800.1568,-174.7151"/>
</g>
<!-- N509260 -->
<g id="node21" class="node">
<title>N509260</title>
<ellipse fill="none" stroke="#000000" cx="1084" cy="-162" rx="27" ry="18"/>
<text text-anchor="middle" x="1084" y="-157.8" font-family="Times,serif" font-size="14.00" fill="#000000">add</text>
</g>
<!-- N509252&#45;&gt;N509260 -->
<g id="edge20" class="edge">
<title>N509252&#45;&gt;N509260</title>
<path fill="none" stroke="#000000" d="M930.1397,-224.5873C961.1464,-211.9743 1016.3379,-189.5236 1051.5038,-175.2188"/>
<polygon fill="#000000" stroke="#000000" points="1052.9105,-178.4251 1060.8547,-171.4151 1050.2729,-171.9411 1052.9105,-178.4251"/>
</g>
<!-- N509254 -->
<g id="node15" class="node">
<title>N509254</title>
<ellipse fill="none" stroke="#000000" cx="500" cy="-90" rx="27" ry="18"/>
<text text-anchor="middle" x="500" y="-85.8" font-family="Times,serif" font-size="14.00" fill="#000000">lt</text>
</g>
<!-- N509253&#45;&gt;N509254 -->
<g id="edge14" class="edge">
<title>N509253&#45;&gt;N509254</title>
<path fill="none" stroke="#000000" d="M742.7872,-155.2264C694.8013,-142.3347 590.2395,-114.2435 535.3138,-99.4873"/>
<polygon fill="#000000" stroke="#000000" points="535.9067,-96.0225 525.341,-96.808 534.0905,-102.7828 535.9067,-96.0225"/>
</g>
<!-- N509257 -->
<g id="node18" class="node">
<title>N509257</title>
<ellipse fill="none" stroke="#000000" cx="768" cy="-90" rx="27" ry="18"/>
<text text-anchor="middle" x="768" y="-85.8" font-family="Times,serif" font-size="14.00" fill="#000000">mul</text>
</g>
<!-- N509253&#45;&gt;N509257 -->
<g id="edge17" class="edge">
<title>N509253&#45;&gt;N509257</title>
<path fill="none" stroke="#000000" d="M768,-143.8314C768,-136.131 768,-126.9743 768,-118.4166"/>
<polygon fill="#000000" stroke="#000000" points="771.5001,-118.4132 768,-108.4133 764.5001,-118.4133 771.5001,-118.4132"/>
</g>
<!-- N509255 -->
<g id="node16" class="node">
<title>N509255</title>
<ellipse fill="none" stroke="#000000" cx="361" cy="-18" rx="27" ry="18"/>
<text text-anchor="middle" x="361" y="-13.8" font-family="Times,serif" font-size="14.00" fill="#000000">w</text>
</g>
<!-- N509254&#45;&gt;N509255 -->
<g id="edge15" class="edge">
<title>N509254&#45;&gt;N509255</title>
<path fill="none" stroke="#000000" d="M478.5859,-78.9078C455.39,-66.8927 418.1773,-47.617 391.8347,-33.9719"/>
<polygon fill="#000000" stroke="#000000" points="393.1568,-30.7151 382.6675,-29.2234 389.9371,-36.9308 393.1568,-30.7151"/>
</g>
<!-- N509256 -->
<g id="node17" class="node">
<title>N509256</title>
<ellipse fill="none" stroke="#000000" cx="500" cy="-18" rx="93.8423" ry="18"/>
<text text-anchor="middle" x="500" y="-13.8" font-family="Times,serif" font-size="14.00" fill="#000000">&#45;7.847817306824427</text>
</g>
<!-- N509254&#45;&gt;N509256 -->
<g id="edge16" class="edge">
<title>N509254&#45;&gt;N509256</title>
<path fill="none" stroke="#000000" d="M500,-71.8314C500,-64.131 500,-54.9743 500,-46.4166"/>
<polygon fill="#000000" stroke="#000000" points="503.5001,-46.4132 500,-36.4133 496.5001,-46.4133 503.5001,-46.4132"/>
</g>
<!-- N509258 -->
<g id="node19" class="node">
<title>N509258</title>
<ellipse fill="none" stroke="#000000" cx="701" cy="-18" rx="89.1853" ry="18"/>
<text text-anchor="middle" x="701" y="-13.8" font-family="Times,serif" font-size="14.00" fill="#000000">&#45;9.70930916079304</text>
</g>
<!-- N509257&#45;&gt;N509258 -->
<g id="edge18" class="edge">
<title>N509257&#45;&gt;N509258</title>
<path fill="none" stroke="#000000" d="M753.462,-74.3771C745.0586,-65.3466 734.2817,-53.7654 724.6839,-43.4514"/>
<polygon fill="#000000" stroke="#000000" points="727.0077,-40.8107 717.6331,-35.8744 721.8832,-45.5794 727.0077,-40.8107"/>
</g>
<!-- N509259 -->
<g id="node20" class="node">
<title>N509259</title>
<ellipse fill="none" stroke="#000000" cx="835" cy="-18" rx="27" ry="18"/>
<text text-anchor="middle" x="835" y="-13.8" font-family="Times,serif" font-size="14.00" fill="#000000">d</text>
</g>
<!-- N509257&#45;&gt;N509259 -->
<g id="edge19" class="edge">
<title>N509257&#45;&gt;N509259</title>
<path fill="none" stroke="#000000" d="M782.538,-74.3771C791.5812,-64.659 803.3732,-51.987 813.4864,-41.1191"/>
<polygon fill="#000000" stroke="#000000" points="816.2403,-43.2975 820.4904,-33.5924 811.1158,-38.5288 816.2403,-43.2975"/>
</g>
<!-- N509261 -->
<g id="node22" class="node">
<title>N509261</title>
<ellipse fill="none" stroke="#000000" cx="1084" cy="-90" rx="27" ry="18"/>
<text text-anchor="middle" x="1084" y="-85.8" font-family="Times,serif" font-size="14.00" fill="#000000">lt</text>
</g>
<!-- N509260&#45;&gt;N509261 -->
<g id="edge21" class="edge">
<title>N509260&#45;&gt;N509261</title>
<path fill="none" stroke="#000000" d="M1084,-143.8314C1084,-136.131 1084,-126.9743 1084,-118.4166"/>
<polygon fill="#000000" stroke="#000000" points="1087.5001,-118.4132 1084,-108.4133 1080.5001,-118.4133 1087.5001,-118.4132"/>
</g>
<!-- N509264 -->
<g id="node25" class="node">
<title>N509264</title>
<ellipse fill="none" stroke="#000000" cx="1329" cy="-90" rx="27" ry="18"/>
<text text-anchor="middle" x="1329" y="-85.8" font-family="Times,serif" font-size="14.00" fill="#000000">div</text>
</g>
<!-- N509260&#45;&gt;N509264 -->
<g id="edge24" class="edge">
<title>N509260&#45;&gt;N509264</title>
<path fill="none" stroke="#000000" d="M1108.8402,-154.7C1152.7715,-141.7896 1244.2546,-114.9048 1294.3572,-100.1808"/>
<polygon fill="#000000" stroke="#000000" points="1295.4867,-103.4969 1304.0941,-97.3193 1293.5129,-96.7809 1295.4867,-103.4969"/>
</g>
<!-- N509262 -->
<g id="node23" class="node">
<title>N509262</title>
<ellipse fill="none" stroke="#000000" cx="979" cy="-18" rx="98.9998" ry="18"/>
<text text-anchor="middle" x="979" y="-13.8" font-family="Times,serif" font-size="14.00" fill="#000000">&#45;7.0142792058472425</text>
</g>
<!-- N509261&#45;&gt;N509262 -->
<g id="edge22" class="edge">
<title>N509261&#45;&gt;N509262</title>
<path fill="none" stroke="#000000" d="M1064.7414,-76.7941C1050.3224,-66.9068 1030.2203,-53.1225 1013.1044,-41.3859"/>
<polygon fill="#000000" stroke="#000000" points="1014.6987,-38.2353 1004.472,-35.4665 1010.7399,-44.0084 1014.6987,-38.2353"/>
</g>
<!-- N509263 -->
<g id="node24" class="node">
<title>N509263</title>
<ellipse fill="none" stroke="#000000" cx="1190" cy="-18" rx="93.8423" ry="18"/>
<text text-anchor="middle" x="1190" y="-13.8" font-family="Times,serif" font-size="14.00" fill="#000000">&#45;4.758052614764332</text>
</g>
<!-- N509261&#45;&gt;N509263 -->
<g id="edge23" class="edge">
<title>N509261&#45;&gt;N509263</title>
<path fill="none" stroke="#000000" d="M1102.9507,-77.1278C1117.6892,-67.1168 1138.5197,-52.9677 1156.1085,-41.0206"/>
<polygon fill="#000000" stroke="#000000" points="1158.1361,-43.8745 1164.4417,-35.3603 1154.2029,-38.084 1158.1361,-43.8745"/>
</g>
<!-- N509265 -->
<g id="node26" class="node">
<title>N509265</title>
<ellipse fill="none" stroke="#000000" cx="1329" cy="-18" rx="27" ry="18"/>
<text text-anchor="middle" x="1329" y="-13.8" font-family="Times,serif" font-size="14.00" fill="#000000">w</text>
</g>
<!-- N509264&#45;&gt;N509265 -->
<g id="edge25" class="edge">
<title>N509264&#45;&gt;N509265</title>
<path fill="none" stroke="#000000" d="M1329,-71.8314C1329,-64.131 1329,-54.9743 1329,-46.4166"/>
<polygon fill="#000000" stroke="#000000" points="1332.5001,-46.4132 1329,-36.4133 1325.5001,-46.4133 1332.5001,-46.4132"/>
</g>
<!-- N509266 -->
<g id="node27" class="node">
<title>N509266</title>
<ellipse fill="none" stroke="#000000" cx="1465" cy="-18" rx="90.9131" ry="18"/>
<text text-anchor="middle" x="1465" y="-13.8" font-family="Times,serif" font-size="14.00" fill="#000000">1.867785630758089</text>
</g>
<!-- N509264&#45;&gt;N509266 -->
<g id="edge26" class="edge">
<title>N509264&#45;&gt;N509266</title>
<path fill="none" stroke="#000000" d="M1350.25,-78.75C1369.9245,-68.3341 1399.7189,-52.5606 1424.0172,-39.6968"/>
<polygon fill="#000000" stroke="#000000" points="1425.8278,-42.6985 1433.0281,-34.9263 1422.5526,-36.512 1425.8278,-42.6985"/>
</g>
<!-- N509268 -->
<g id="node29" class="node">
<title>N509268</title>
<ellipse fill="none" stroke="#000000" cx="2183" cy="-234" rx="27" ry="18"/>
<text text-anchor="middle" x="2183" y="-229.8" font-family="Times,serif" font-size="14.00" fill="#000000">add</text>
</g>
<!-- N509267&#45;&gt;N509268 -->
<g id="edge28" class="edge">
<title>N509267&#45;&gt;N509268</title>
<path fill="none" stroke="#000000" d="M2369.7956,-297.7407C2332.2154,-284.9171 2259.7159,-260.1779 2216.9302,-245.5781"/>
<polygon fill="#000000" stroke="#000000" points="2217.8407,-242.1907 2207.2462,-242.2736 2215.58,-248.8156 2217.8407,-242.1907"/>
</g>
<!-- N509282 -->
<g id="node43" class="node">
<title>N509282</title>
<ellipse fill="none" stroke="#000000" cx="2638" cy="-234" rx="27" ry="18"/>
<text text-anchor="middle" x="2638" y="-229.8" font-family="Times,serif" font-size="14.00" fill="#000000">sub</text>
</g>
<!-- N509267&#45;&gt;N509282 -->
<g id="edge42" class="edge">
<title>N509267&#45;&gt;N509282</title>
<path fill="none" stroke="#000000" d="M2418.7388,-298.7C2462.4908,-285.7896 2553.6005,-258.9048 2603.4986,-244.1808"/>
<polygon fill="#000000" stroke="#000000" points="2604.5952,-247.5064 2613.1957,-241.3193 2602.614,-240.7926 2604.5952,-247.5064"/>
</g>
<!-- N509269 -->
<g id="node30" class="node">
<title>N509269</title>
<ellipse fill="none" stroke="#000000" cx="1885" cy="-162" rx="27" ry="18"/>
<text text-anchor="middle" x="1885" y="-157.8" font-family="Times,serif" font-size="14.00" fill="#000000">div</text>
</g>
<!-- N509268&#45;&gt;N509269 -->
<g id="edge29" class="edge">
<title>N509268&#45;&gt;N509269</title>
<path fill="none" stroke="#000000" d="M2157.5927,-227.8613C2104.5041,-215.0345 1981.699,-185.3635 1920.7058,-170.6269"/>
<polygon fill="#000000" stroke="#000000" points="1921.3086,-167.1719 1910.7663,-168.2254 1919.6646,-173.9761 1921.3086,-167.1719"/>
</g>
<!-- N509275 -->
<g id="node36" class="node">
<title>N509275</title>
<ellipse fill="none" stroke="#000000" cx="2183" cy="-162" rx="27" ry="18"/>
<text text-anchor="middle" x="2183" y="-157.8" font-family="Times,serif" font-size="14.00" fill="#000000">add</text>
</g>
<!-- N509268&#45;&gt;N509275 -->
<g id="edge35" class="edge">
<title>N509268&#45;&gt;N509275</title>
<path fill="none" stroke="#000000" d="M2183,-215.8314C2183,-208.131 2183,-198.9743 2183,-190.4166"/>
<polygon fill="#000000" stroke="#000000" points="2186.5001,-190.4132 2183,-180.4133 2179.5001,-190.4133 2186.5001,-190.4132"/>
</g>
<!-- N509270 -->
<g id="node31" class="node">
<title>N509270</title>
<ellipse fill="none" stroke="#000000" cx="1802" cy="-90" rx="27" ry="18"/>
<text text-anchor="middle" x="1802" y="-85.8" font-family="Times,serif" font-size="14.00" fill="#000000">sub</text>
</g>
<!-- N509269&#45;&gt;N509270 -->
<g id="edge30" class="edge">
<title>N509269&#45;&gt;N509270</title>
<path fill="none" stroke="#000000" d="M1868.2037,-147.4297C1856.2002,-137.017 1839.8613,-122.8435 1826.4189,-111.1827"/>
<polygon fill="#000000" stroke="#000000" points="1828.3354,-108.2118 1818.4881,-104.3029 1823.7485,-113.4996 1828.3354,-108.2118"/>
</g>
<!-- N509273 -->
<g id="node34" class="node">
<title>N509273</title>
<ellipse fill="none" stroke="#000000" cx="1885" cy="-90" rx="37.7025" ry="18"/>
<text text-anchor="middle" x="1885" y="-85.8" font-family="Times,serif" font-size="14.00" fill="#000000">sabado</text>
</g>
<!-- N509269&#45;&gt;N509273 -->
<g id="edge33" class="edge">
<title>N509269&#45;&gt;N509273</title>
<path fill="none" stroke="#000000" d="M1885,-143.8314C1885,-136.131 1885,-126.9743 1885,-118.4166"/>
<polygon fill="#000000" stroke="#000000" points="1888.5001,-118.4132 1885,-108.4133 1881.5001,-118.4133 1888.5001,-118.4132"/>
</g>
<!-- N509271 -->
<g id="node32" class="node">
<title>N509271</title>
<ellipse fill="none" stroke="#000000" cx="1668" cy="-18" rx="93.8423" ry="18"/>
<text text-anchor="middle" x="1668" y="-13.8" font-family="Times,serif" font-size="14.00" fill="#000000">&#45;5.618389480772281</text>
</g>
<!-- N509270&#45;&gt;N509271 -->
<g id="edge31" class="edge">
<title>N509270&#45;&gt;N509271</title>
<path fill="none" stroke="#000000" d="M1780.7673,-78.5914C1761.3977,-68.1839 1732.2526,-52.5238 1708.4447,-39.7315"/>
<polygon fill="#000000" stroke="#000000" points="1710.0785,-36.6361 1699.6129,-34.9861 1706.7653,-42.8024 1710.0785,-36.6361"/>
</g>
<!-- N509272 -->
<g id="node33" class="node">
<title>N509272</title>
<ellipse fill="none" stroke="#000000" cx="1807" cy="-18" rx="27" ry="18"/>
<text text-anchor="middle" x="1807" y="-13.8" font-family="Times,serif" font-size="14.00" fill="#000000">w</text>
</g>
<!-- N509270&#45;&gt;N509272 -->
<g id="edge32" class="edge">
<title>N509270&#45;&gt;N509272</title>
<path fill="none" stroke="#000000" d="M1803.2617,-71.8314C1803.7965,-64.131 1804.4323,-54.9743 1805.0266,-46.4166"/>
<polygon fill="#000000" stroke="#000000" points="1808.52,-46.6317 1805.7213,-36.4133 1801.5368,-46.1467 1808.52,-46.6317"/>
</g>
<!-- N509274 -->
<g id="node35" class="node">
<title>N509274</title>
<ellipse fill="none" stroke="#000000" cx="1879" cy="-18" rx="27" ry="18"/>
<text text-anchor="middle" x="1879" y="-13.8" font-family="Times,serif" font-size="14.00" fill="#000000">w</text>
</g>
<!-- N509273&#45;&gt;N509274 -->
<g id="edge34" class="edge">
<title>N509273&#45;&gt;N509274</title>
<path fill="none" stroke="#000000" d="M1883.4859,-71.8314C1882.8442,-64.131 1882.0812,-54.9743 1881.3681,-46.4166"/>
<polygon fill="#000000" stroke="#000000" points="1884.8529,-46.088 1880.5344,-36.4133 1877.8771,-46.6694 1884.8529,-46.088"/>
</g>
<!-- N509276 -->
<g id="node37" class="node">
<title>N509276</title>
<ellipse fill="none" stroke="#000000" cx="2147" cy="-90" rx="27" ry="18"/>
<text text-anchor="middle" x="2147" y="-85.8" font-family="Times,serif" font-size="14.00" fill="#000000">div</text>
</g>
<!-- N509275&#45;&gt;N509276 -->
<g id="edge36" class="edge">
<title>N509275&#45;&gt;N509276</title>
<path fill="none" stroke="#000000" d="M2174.2854,-144.5708C2170.0403,-136.0807 2164.8464,-125.6929 2160.1337,-116.2674"/>
<polygon fill="#000000" stroke="#000000" points="2163.237,-114.6477 2155.6343,-107.2687 2156.976,-117.7782 2163.237,-114.6477"/>
</g>
<!-- N509279 -->
<g id="node40" class="node">
<title>N509279</title>
<ellipse fill="none" stroke="#000000" cx="2219" cy="-90" rx="27" ry="18"/>
<text text-anchor="middle" x="2219" y="-85.8" font-family="Times,serif" font-size="14.00" fill="#000000">add</text>
</g>
<!-- N509275&#45;&gt;N509279 -->
<g id="edge39" class="edge">
<title>N509275&#45;&gt;N509279</title>
<path fill="none" stroke="#000000" d="M2191.7146,-144.5708C2195.9597,-136.0807 2201.1536,-125.6929 2205.8663,-116.2674"/>
<polygon fill="#000000" stroke="#000000" points="2209.024,-117.7782 2210.3657,-107.2687 2202.763,-114.6477 2209.024,-117.7782"/>
</g>
<!-- N509277 -->
<g id="node38" class="node">
<title>N509277</title>
<ellipse fill="none" stroke="#000000" cx="2013" cy="-18" rx="89.1853" ry="18"/>
<text text-anchor="middle" x="2013" y="-13.8" font-family="Times,serif" font-size="14.00" fill="#000000">&#45;7.12266221778759</text>
</g>
<!-- N509276&#45;&gt;N509277 -->
<g id="edge37" class="edge">
<title>N509276&#45;&gt;N509277</title>
<path fill="none" stroke="#000000" d="M2125.7673,-78.5914C2106.3323,-68.1487 2077.0556,-52.4179 2053.2036,-39.6019"/>
<polygon fill="#000000" stroke="#000000" points="2054.8251,-36.5 2044.3595,-34.8499 2051.5119,-42.6662 2054.8251,-36.5"/>
</g>
<!-- N509278 -->
<g id="node39" class="node">
<title>N509278</title>
<ellipse fill="none" stroke="#000000" cx="2147" cy="-18" rx="27" ry="18"/>
<text text-anchor="middle" x="2147" y="-13.8" font-family="Times,serif" font-size="14.00" fill="#000000">w</text>
</g>
<!-- N509276&#45;&gt;N509278 -->
<g id="edge38" class="edge">
<title>N509276&#45;&gt;N509278</title>
<path fill="none" stroke="#000000" d="M2147,-71.8314C2147,-64.131 2147,-54.9743 2147,-46.4166"/>
<polygon fill="#000000" stroke="#000000" points="2150.5001,-46.4132 2147,-36.4133 2143.5001,-46.4133 2150.5001,-46.4132"/>
</g>
<!-- N509280 -->
<g id="node41" class="node">
<title>N509280</title>
<ellipse fill="none" stroke="#000000" cx="2219" cy="-18" rx="27" ry="18"/>
<text text-anchor="middle" x="2219" y="-13.8" font-family="Times,serif" font-size="14.00" fill="#000000">w</text>
</g>
<!-- N509279&#45;&gt;N509280 -->
<g id="edge40" class="edge">
<title>N509279&#45;&gt;N509280</title>
<path fill="none" stroke="#000000" d="M2219,-71.8314C2219,-64.131 2219,-54.9743 2219,-46.4166"/>
<polygon fill="#000000" stroke="#000000" points="2222.5001,-46.4132 2219,-36.4133 2215.5001,-46.4133 2222.5001,-46.4132"/>
</g>
<!-- N509281 -->
<g id="node42" class="node">
<title>N509281</title>
<ellipse fill="none" stroke="#000000" cx="2360" cy="-18" rx="95.5696" ry="18"/>
<text text-anchor="middle" x="2360" y="-13.8" font-family="Times,serif" font-size="14.00" fill="#000000">0.7273168058571642</text>
</g>
<!-- N509279&#45;&gt;N509281 -->
<g id="edge41" class="edge">
<title>N509279&#45;&gt;N509281</title>
<path fill="none" stroke="#000000" d="M2240.7222,-78.9078C2261.1559,-68.4736 2292.3124,-52.5639 2317.6584,-39.6212"/>
<polygon fill="#000000" stroke="#000000" points="2319.3885,-42.6677 2326.7029,-35.0028 2316.2051,-36.4335 2319.3885,-42.6677"/>
</g>
<!-- N509283 -->
<g id="node44" class="node">
<title>N509283</title>
<ellipse fill="none" stroke="#000000" cx="2638" cy="-162" rx="28.4127" ry="18"/>
<text text-anchor="middle" x="2638" y="-157.8" font-family="Times,serif" font-size="14.00" fill="#000000">mod</text>
</g>
<!-- N509282&#45;&gt;N509283 -->
<g id="edge43" class="edge">
<title>N509282&#45;&gt;N509283</title>
<path fill="none" stroke="#000000" d="M2638,-215.8314C2638,-208.131 2638,-198.9743 2638,-190.4166"/>
<polygon fill="#000000" stroke="#000000" points="2641.5001,-190.4132 2638,-180.4133 2634.5001,-190.4133 2641.5001,-190.4132"/>
</g>
<!-- N509288 -->
<g id="node49" class="node">
<title>N509288</title>
<ellipse fill="none" stroke="#000000" cx="2940" cy="-162" rx="27" ry="18"/>
<text text-anchor="middle" x="2940" y="-157.8" font-family="Times,serif" font-size="14.00" fill="#000000">lt</text>
</g>
<!-- N509282&#45;&gt;N509288 -->
<g id="edge48" class="edge">
<title>N509282&#45;&gt;N509288</title>
<path fill="none" stroke="#000000" d="M2663.4881,-227.9234C2717.2588,-215.1039 2842.4225,-185.2635 2904.2005,-170.535"/>
<polygon fill="#000000" stroke="#000000" points="2905.3441,-173.8605 2914.2598,-168.1367 2903.7207,-167.0513 2905.3441,-173.8605"/>
</g>
<!-- N509284 -->
<g id="node45" class="node">
<title>N509284</title>
<ellipse fill="none" stroke="#000000" cx="2570" cy="-90" rx="27" ry="18"/>
<text text-anchor="middle" x="2570" y="-85.8" font-family="Times,serif" font-size="14.00" fill="#000000">lt</text>
</g>
<!-- N509283&#45;&gt;N509284 -->
<g id="edge44" class="edge">
<title>N509283&#45;&gt;N509284</title>
<path fill="none" stroke="#000000" d="M2623.245,-146.3771C2614.0668,-136.659 2602.0989,-123.987 2591.8347,-113.1191"/>
<polygon fill="#000000" stroke="#000000" points="2594.137,-110.4594 2584.7262,-105.5924 2589.0479,-115.2658 2594.137,-110.4594"/>
</g>
<!-- N509287 -->
<g id="node48" class="node">
<title>N509287</title>
<ellipse fill="none" stroke="#000000" cx="2706" cy="-90" rx="90.9131" ry="18"/>
<text text-anchor="middle" x="2706" y="-85.8" font-family="Times,serif" font-size="14.00" fill="#000000">8.855446125159627</text>
</g>
<!-- N509283&#45;&gt;N509287 -->
<g id="edge47" class="edge">
<title>N509283&#45;&gt;N509287</title>
<path fill="none" stroke="#000000" d="M2652.755,-146.3771C2661.3674,-137.2581 2672.4362,-125.5381 2682.2488,-115.1484"/>
<polygon fill="#000000" stroke="#000000" points="2684.797,-117.5477 2689.1187,-107.8744 2679.7078,-112.7413 2684.797,-117.5477"/>
</g>
<!-- N509285 -->
<g id="node46" class="node">
<title>N509285</title>
<ellipse fill="none" stroke="#000000" cx="2501" cy="-18" rx="27" ry="18"/>
<text text-anchor="middle" x="2501" y="-13.8" font-family="Times,serif" font-size="14.00" fill="#000000">w</text>
</g>
<!-- N509284&#45;&gt;N509285 -->
<g id="edge45" class="edge">
<title>N509284&#45;&gt;N509285</title>
<path fill="none" stroke="#000000" d="M2555.3669,-74.7307C2545.8529,-64.803 2533.2812,-51.6847 2522.6235,-40.5637"/>
<polygon fill="#000000" stroke="#000000" points="2525.0581,-38.0456 2515.612,-33.2473 2520.0041,-42.8889 2525.0581,-38.0456"/>
</g>
<!-- N509286 -->
<g id="node47" class="node">
<title>N509286</title>
<ellipse fill="none" stroke="#000000" cx="2640" cy="-18" rx="93.8423" ry="18"/>
<text text-anchor="middle" x="2640" y="-13.8" font-family="Times,serif" font-size="14.00" fill="#000000">&#45;9.966586290713373</text>
</g>
<!-- N509284&#45;&gt;N509286 -->
<g id="edge46" class="edge">
<title>N509284&#45;&gt;N509286</title>
<path fill="none" stroke="#000000" d="M2584.8452,-74.7307C2593.7584,-65.5628 2605.317,-53.674 2615.5488,-43.1498"/>
<polygon fill="#000000" stroke="#000000" points="2618.2465,-45.396 2622.7079,-35.7862 2613.2276,-40.5164 2618.2465,-45.396"/>
</g>
<!-- N509289 -->
<g id="node50" class="node">
<title>N509289</title>
<ellipse fill="none" stroke="#000000" cx="2940" cy="-90" rx="27" ry="18"/>
<text text-anchor="middle" x="2940" y="-85.8" font-family="Times,serif" font-size="14.00" fill="#000000">div</text>
</g>
<!-- N509288&#45;&gt;N509289 -->
<g id="edge49" class="edge">
<title>N509288&#45;&gt;N509289</title>
<path fill="none" stroke="#000000" d="M2940,-143.8314C2940,-136.131 2940,-126.9743 2940,-118.4166"/>
<polygon fill="#000000" stroke="#000000" points="2943.5001,-118.4132 2940,-108.4133 2936.5001,-118.4133 2943.5001,-118.4132"/>
</g>
<!-- N509292 -->
<g id="node53" class="node">
<title>N509292</title>
<ellipse fill="none" stroke="#000000" cx="3175" cy="-90" rx="27" ry="18"/>
<text text-anchor="middle" x="3175" y="-85.8" font-family="Times,serif" font-size="14.00" fill="#000000">add</text>
</g>
<!-- N509288&#45;&gt;N509292 -->
<g id="edge52" class="edge">
<title>N509288&#45;&gt;N509292</title>
<path fill="none" stroke="#000000" d="M2964.705,-154.4308C3006.8415,-141.5209 3092.6899,-115.2184 3140.6449,-100.5258"/>
<polygon fill="#000000" stroke="#000000" points="3141.7374,-103.8517 3150.2734,-97.5758 3139.6868,-97.1588 3141.7374,-103.8517"/>
</g>
<!-- N509290 -->
<g id="node51" class="node">
<title>N509290</title>
<ellipse fill="none" stroke="#000000" cx="2841" cy="-18" rx="89.1853" ry="18"/>
<text text-anchor="middle" x="2841" y="-13.8" font-family="Times,serif" font-size="14.00" fill="#000000">&#45;7.93623057056787</text>
</g>
<!-- N509289&#45;&gt;N509290 -->
<g id="edge50" class="edge">
<title>N509289&#45;&gt;N509290</title>
<path fill="none" stroke="#000000" d="M2921.3789,-76.4574C2907.9571,-66.6961 2889.4924,-53.2672 2873.645,-41.7418"/>
<polygon fill="#000000" stroke="#000000" points="2875.3048,-38.6212 2865.1588,-35.57 2871.1875,-44.2823 2875.3048,-38.6212"/>
</g>
<!-- N509291 -->
<g id="node52" class="node">
<title>N509291</title>
<ellipse fill="none" stroke="#000000" cx="3039" cy="-18" rx="90.9131" ry="18"/>
<text text-anchor="middle" x="3039" y="-13.8" font-family="Times,serif" font-size="14.00" fill="#000000">9.623483509356578</text>
</g>
<!-- N509289&#45;&gt;N509291 -->
<g id="edge51" class="edge">
<title>N509289&#45;&gt;N509291</title>
<path fill="none" stroke="#000000" d="M2958.6211,-76.4574C2972.0429,-66.6961 2990.5076,-53.2672 3006.355,-41.7418"/>
<polygon fill="#000000" stroke="#000000" points="3008.8125,-44.2823 3014.8412,-35.57 3004.6952,-38.6212 3008.8125,-44.2823"/>
</g>
<!-- N509293 -->
<g id="node54" class="node">
<title>N509293</title>
<ellipse fill="none" stroke="#000000" cx="3175" cy="-18" rx="27" ry="18"/>
<text text-anchor="middle" x="3175" y="-13.8" font-family="Times,serif" font-size="14.00" fill="#000000">w</text>
</g>
<!-- N509292&#45;&gt;N509293 -->
<g id="edge53" class="edge">
<title>N509292&#45;&gt;N509293</title>
<path fill="none" stroke="#000000" d="M3175,-71.8314C3175,-64.131 3175,-54.9743 3175,-46.4166"/>
<polygon fill="#000000" stroke="#000000" points="3178.5001,-46.4132 3175,-36.4133 3171.5001,-46.4133 3178.5001,-46.4132"/>
</g>
<!-- N509294 -->
<g id="node55" class="node">
<title>N509294</title>
<ellipse fill="none" stroke="#000000" cx="3247" cy="-18" rx="27" ry="18"/>
<text text-anchor="middle" x="3247" y="-13.8" font-family="Times,serif" font-size="14.00" fill="#000000">d</text>
</g>
<!-- N509292&#45;&gt;N509294 -->
<g id="edge54" class="edge">
<title>N509292&#45;&gt;N509294</title>
<path fill="none" stroke="#000000" d="M3190.2693,-74.7307C3200.197,-64.803 3213.3153,-51.6847 3224.4363,-40.5637"/>
<polygon fill="#000000" stroke="#000000" points="3227.1564,-42.7933 3231.7527,-33.2473 3222.2067,-37.8436 3227.1564,-42.7933"/>
</g>
<!-- N509296 -->
<g id="node57" class="node">
<title>N509296</title>
<ellipse fill="none" stroke="#000000" cx="3652" cy="-306" rx="27" ry="18"/>
<text text-anchor="middle" x="3652" y="-301.8" font-family="Times,serif" font-size="14.00" fill="#000000">sub</text>
</g>
<!-- N509295&#45;&gt;N509296 -->
<g id="edge56" class="edge">
<title>N509295&#45;&gt;N509296</title>
<path fill="none" stroke="#000000" d="M3652,-359.8314C3652,-352.131 3652,-342.9743 3652,-334.4166"/>
<polygon fill="#000000" stroke="#000000" points="3655.5001,-334.4132 3652,-324.4133 3648.5001,-334.4133 3655.5001,-334.4132"/>
</g>
<!-- N509309 -->
<g id="node70" class="node">
<title>N509309</title>
<ellipse fill="none" stroke="#000000" cx="3876" cy="-306" rx="28.4127" ry="18"/>
<text text-anchor="middle" x="3876" y="-301.8" font-family="Times,serif" font-size="14.00" fill="#000000">mod</text>
</g>
<!-- N509295&#45;&gt;N509309 -->
<g id="edge69" class="edge">
<title>N509295&#45;&gt;N509309</title>
<path fill="none" stroke="#000000" d="M3676.3983,-370.1577C3716.1408,-357.3833 3795.0079,-332.0332 3840.8098,-317.3111"/>
<polygon fill="#000000" stroke="#000000" points="3842.1539,-320.5555 3850.6032,-314.1633 3840.0118,-313.8913 3842.1539,-320.5555"/>
</g>
<!-- N509297 -->
<g id="node58" class="node">
<title>N509297</title>
<ellipse fill="none" stroke="#000000" cx="3577" cy="-234" rx="64.8254" ry="18"/>
<text text-anchor="middle" x="3577" y="-229.8" font-family="Times,serif" font-size="14.00" fill="#000000">diaDeSemana</text>
</g>
<!-- N509296&#45;&gt;N509297 -->
<g id="edge57" class="edge">
<title>N509296&#45;&gt;N509297</title>
<path fill="none" stroke="#000000" d="M3636.46,-291.0816C3626.6988,-281.7108 3613.8727,-269.3978 3602.6325,-258.6072"/>
<polygon fill="#000000" stroke="#000000" points="3604.7992,-255.8354 3595.1614,-251.4349 3599.9514,-260.8851 3604.7992,-255.8354"/>
</g>
<!-- N509303 -->
<g id="node64" class="node">
<title>N509303</title>
<ellipse fill="none" stroke="#000000" cx="3727" cy="-234" rx="27" ry="18"/>
<text text-anchor="middle" x="3727" y="-229.8" font-family="Times,serif" font-size="14.00" fill="#000000">sub</text>
</g>
<!-- N509296&#45;&gt;N509303 -->
<g id="edge63" class="edge">
<title>N509296&#45;&gt;N509303</title>
<path fill="none" stroke="#000000" d="M3667.54,-291.0816C3678.099,-280.945 3692.2444,-267.3654 3704.0892,-255.9944"/>
<polygon fill="#000000" stroke="#000000" points="3706.6898,-258.3495 3711.4799,-248.8993 3701.8421,-253.2998 3706.6898,-258.3495"/>
</g>
<!-- N509298 -->
<g id="node59" class="node">
<title>N509298</title>
<ellipse fill="none" stroke="#000000" cx="3536" cy="-162" rx="27" ry="18"/>
<text text-anchor="middle" x="3536" y="-157.8" font-family="Times,serif" font-size="14.00" fill="#000000">div</text>
</g>
<!-- N509297&#45;&gt;N509298 -->
<g id="edge58" class="edge">
<title>N509297&#45;&gt;N509298</title>
<path fill="none" stroke="#000000" d="M3566.8652,-216.2022C3562.0276,-207.7071 3556.1451,-197.3767 3550.8182,-188.0223"/>
<polygon fill="#000000" stroke="#000000" points="3553.7258,-186.0551 3545.7359,-179.0972 3547.6429,-189.519 3553.7258,-186.0551"/>
</g>
<!-- N509299 -->
<g id="node60" class="node">
<title>N509299</title>
<ellipse fill="none" stroke="#000000" cx="3383" cy="-90" rx="27" ry="18"/>
<text text-anchor="middle" x="3383" y="-85.8" font-family="Times,serif" font-size="14.00" fill="#000000">add</text>
</g>
<!-- N509298&#45;&gt;N509299 -->
<g id="edge59" class="edge">
<title>N509298&#45;&gt;N509299</title>
<path fill="none" stroke="#000000" d="M3513.4727,-151.855C3489.8412,-141.1538 3451.665,-123.6996 3419,-108 3417.2523,-107.16 3415.4605,-106.2906 3413.6546,-105.4081"/>
<polygon fill="#000000" stroke="#000000" points="3415.1642,-102.2501 3404.6481,-100.961 3412.065,-108.5267 3415.1642,-102.2501"/>
</g>
<!-- N509302 -->
<g id="node63" class="node">
<title>N509302</title>
<ellipse fill="none" stroke="#000000" cx="3536" cy="-90" rx="108.3131" ry="18"/>
<text text-anchor="middle" x="3536" y="-85.8" font-family="Times,serif" font-size="14.00" fill="#000000">&#45;0.030802556689479843</text>
</g>
<!-- N509298&#45;&gt;N509302 -->
<g id="edge62" class="edge">
<title>N509298&#45;&gt;N509302</title>
<path fill="none" stroke="#000000" d="M3536,-143.8314C3536,-136.131 3536,-126.9743 3536,-118.4166"/>
<polygon fill="#000000" stroke="#000000" points="3539.5001,-118.4132 3536,-108.4133 3532.5001,-118.4133 3539.5001,-118.4132"/>
</g>
<!-- N509300 -->
<g id="node61" class="node">
<title>N509300</title>
<ellipse fill="none" stroke="#000000" cx="3383" cy="-18" rx="90.9131" ry="18"/>
<text text-anchor="middle" x="3383" y="-13.8" font-family="Times,serif" font-size="14.00" fill="#000000">4.322984196696611</text>
</g>
<!-- N509299&#45;&gt;N509300 -->
<g id="edge60" class="edge">
<title>N509299&#45;&gt;N509300</title>
<path fill="none" stroke="#000000" d="M3383,-71.8314C3383,-64.131 3383,-54.9743 3383,-46.4166"/>
<polygon fill="#000000" stroke="#000000" points="3386.5001,-46.4132 3383,-36.4133 3379.5001,-46.4133 3386.5001,-46.4132"/>
</g>
<!-- N509301 -->
<g id="node62" class="node">
<title>N509301</title>
<ellipse fill="none" stroke="#000000" cx="3586" cy="-18" rx="93.8423" ry="18"/>
<text text-anchor="middle" x="3586" y="-13.8" font-family="Times,serif" font-size="14.00" fill="#000000">&#45;9.229430507310031</text>
</g>
<!-- N509299&#45;&gt;N509301 -->
<g id="edge61" class="edge">
<title>N509299&#45;&gt;N509301</title>
<path fill="none" stroke="#000000" d="M3404.4576,-78.6104C3409.1866,-76.287 3414.2138,-73.9573 3419,-72 3452.8667,-58.1504 3491.7048,-45.4125 3523.3995,-35.7906"/>
<polygon fill="#000000" stroke="#000000" points="3524.424,-39.1374 3532.993,-32.9067 3522.4088,-32.4338 3524.424,-39.1374"/>
</g>
<!-- N509304 -->
<g id="node65" class="node">
<title>N509304</title>
<ellipse fill="none" stroke="#000000" cx="3727" cy="-162" rx="45.2497" ry="18"/>
<text text-anchor="middle" x="3727" y="-157.8" font-family="Times,serif" font-size="14.00" fill="#000000">domingo</text>
</g>
<!-- N509303&#45;&gt;N509304 -->
<g id="edge64" class="edge">
<title>N509303&#45;&gt;N509304</title>
<path fill="none" stroke="#000000" d="M3727,-215.8314C3727,-208.131 3727,-198.9743 3727,-190.4166"/>
<polygon fill="#000000" stroke="#000000" points="3730.5001,-190.4132 3727,-180.4133 3723.5001,-190.4133 3730.5001,-190.4132"/>
</g>
<!-- N509307 -->
<g id="node68" class="node">
<title>N509307</title>
<ellipse fill="none" stroke="#000000" cx="3837" cy="-162" rx="45.2497" ry="18"/>
<text text-anchor="middle" x="3837" y="-157.8" font-family="Times,serif" font-size="14.00" fill="#000000">domingo</text>
</g>
<!-- N509303&#45;&gt;N509307 -->
<g id="edge67" class="edge">
<title>N509303&#45;&gt;N509307</title>
<path fill="none" stroke="#000000" d="M3746.4126,-221.2936C3762.4925,-210.7685 3785.6847,-195.5882 3804.5766,-183.2226"/>
<polygon fill="#000000" stroke="#000000" points="3806.7333,-185.9941 3813.1835,-177.589 3802.8997,-180.1371 3806.7333,-185.9941"/>
</g>
<!-- N509305 -->
<g id="node66" class="node">
<title>N509305</title>
<ellipse fill="none" stroke="#000000" cx="3727" cy="-90" rx="64.8254" ry="18"/>
<text text-anchor="middle" x="3727" y="-85.8" font-family="Times,serif" font-size="14.00" fill="#000000">diaDeSemana</text>
</g>
<!-- N509304&#45;&gt;N509305 -->
<g id="edge65" class="edge">
<title>N509304&#45;&gt;N509305</title>
<path fill="none" stroke="#000000" d="M3727,-143.8314C3727,-136.131 3727,-126.9743 3727,-118.4166"/>
<polygon fill="#000000" stroke="#000000" points="3730.5001,-118.4132 3727,-108.4133 3723.5001,-118.4133 3730.5001,-118.4132"/>
</g>
<!-- N509306 -->
<g id="node67" class="node">
<title>N509306</title>
<ellipse fill="none" stroke="#000000" cx="3726" cy="-18" rx="27" ry="18"/>
<text text-anchor="middle" x="3726" y="-13.8" font-family="Times,serif" font-size="14.00" fill="#000000">d</text>
</g>
<!-- N509305&#45;&gt;N509306 -->
<g id="edge66" class="edge">
<title>N509305&#45;&gt;N509306</title>
<path fill="none" stroke="#000000" d="M3726.7477,-71.8314C3726.6407,-64.131 3726.5135,-54.9743 3726.3947,-46.4166"/>
<polygon fill="#000000" stroke="#000000" points="3729.8944,-46.3637 3726.2557,-36.4133 3722.8951,-46.4609 3729.8944,-46.3637"/>
</g>
<!-- N509308 -->
<g id="node69" class="node">
<title>N509308</title>
<ellipse fill="none" stroke="#000000" cx="3837" cy="-90" rx="27" ry="18"/>
<text text-anchor="middle" x="3837" y="-85.8" font-family="Times,serif" font-size="14.00" fill="#000000">d</text>
</g>
<!-- N509307&#45;&gt;N509308 -->
<g id="edge68" class="edge">
<title>N509307&#45;&gt;N509308</title>
<path fill="none" stroke="#000000" d="M3837,-143.8314C3837,-136.131 3837,-126.9743 3837,-118.4166"/>
<polygon fill="#000000" stroke="#000000" points="3840.5001,-118.4132 3837,-108.4133 3833.5001,-118.4133 3840.5001,-118.4132"/>
</g>
<!-- N509326 -->
<g id="node71" class="node">
<title>N509326</title>
<ellipse fill="none" stroke="#000000" cx="3876" cy="-234" rx="93.8423" ry="18"/>
<text text-anchor="middle" x="3876" y="-229.8" font-family="Times,serif" font-size="14.00" fill="#000000">&#45;5.688165856674572</text>
</g>
<!-- N509309&#45;&gt;N509326 -->
<g id="edge70" class="edge">
<title>N509309&#45;&gt;N509326</title>
<path fill="none" stroke="#000000" d="M3876,-287.8314C3876,-280.131 3876,-270.9743 3876,-262.4166"/>
<polygon fill="#000000" stroke="#000000" points="3879.5001,-262.4132 3876,-252.4133 3872.5001,-262.4133 3879.5001,-262.4132"/>
</g>
<!-- N509318 -->
<g id="node72" class="node">
<title>N509318</title>
<ellipse fill="none" stroke="#000000" cx="4038" cy="-234" rx="45.2497" ry="18"/>
<text text-anchor="middle" x="4038" y="-229.8" font-family="Times,serif" font-size="14.00" fill="#000000">domingo</text>
</g>
<!-- N509309&#45;&gt;N509318 -->
<g id="edge71" class="edge">
<title>N509309&#45;&gt;N509318</title>
<path fill="none" stroke="#000000" d="M3899.2107,-295.6842C3925.0582,-284.1963 3967.2876,-265.4278 3998.387,-251.6058"/>
<polygon fill="#000000" stroke="#000000" points="3999.9342,-254.7483 4007.6508,-247.4885 3997.0912,-248.3516 3999.9342,-254.7483"/>
</g>
<!-- N509319 -->
<g id="node73" class="node">
<title>N509319</title>
<ellipse fill="none" stroke="#000000" cx="4059" cy="-162" rx="27" ry="18"/>
<text text-anchor="middle" x="4059" y="-157.8" font-family="Times,serif" font-size="14.00" fill="#000000">sub</text>
</g>
<!-- N509318&#45;&gt;N509319 -->
<g id="edge72" class="edge">
<title>N509318&#45;&gt;N509319</title>
<path fill="none" stroke="#000000" d="M4043.2992,-215.8314C4045.6048,-207.9266 4048.3579,-198.4872 4050.9102,-189.7365"/>
<polygon fill="#000000" stroke="#000000" points="4054.3352,-190.4934 4053.7753,-179.9134 4047.6152,-188.5334 4054.3352,-190.4934"/>
</g>
<!-- N509320 -->
<g id="node74" class="node">
<title>N509320</title>
<ellipse fill="none" stroke="#000000" cx="4059" cy="-90" rx="27" ry="18"/>
<text text-anchor="middle" x="4059" y="-85.8" font-family="Times,serif" font-size="14.00" fill="#000000">lt</text>
</g>
<!-- N509319&#45;&gt;N509320 -->
<g id="edge73" class="edge">
<title>N509319&#45;&gt;N509320</title>
<path fill="none" stroke="#000000" d="M4059,-143.8314C4059,-136.131 4059,-126.9743 4059,-118.4166"/>
<polygon fill="#000000" stroke="#000000" points="4062.5001,-118.4132 4059,-108.4133 4055.5001,-118.4133 4062.5001,-118.4132"/>
</g>
<!-- N509323 -->
<g id="node77" class="node">
<title>N509323</title>
<ellipse fill="none" stroke="#000000" cx="4277" cy="-90" rx="27" ry="18"/>
<text text-anchor="middle" x="4277" y="-85.8" font-family="Times,serif" font-size="14.00" fill="#000000">gt</text>
</g>
<!-- N509319&#45;&gt;N509323 -->
<g id="edge76" class="edge">
<title>N509319&#45;&gt;N509323</title>
<path fill="none" stroke="#000000" d="M4083.5836,-153.8806C4122.5298,-141.0177 4198.5239,-115.9187 4242.7756,-101.3035"/>
<polygon fill="#000000" stroke="#000000" points="4244.1084,-104.5493 4252.5062,-98.0897 4241.9131,-97.9025 4244.1084,-104.5493"/>
</g>
<!-- N509321 -->
<g id="node75" class="node">
<title>N509321</title>
<ellipse fill="none" stroke="#000000" cx="3860" cy="-18" rx="89.1853" ry="18"/>
<text text-anchor="middle" x="3860" y="-13.8" font-family="Times,serif" font-size="14.00" fill="#000000">&#45;9.95397449872927</text>
</g>
<!-- N509320&#45;&gt;N509321 -->
<g id="edge74" class="edge">
<title>N509320&#45;&gt;N509321</title>
<path fill="none" stroke="#000000" d="M4034.996,-81.3151C4005.0088,-70.4655 3952.8278,-51.5859 3913.2273,-37.2581"/>
<polygon fill="#000000" stroke="#000000" points="3914.3022,-33.925 3903.7079,-33.8139 3911.9206,-40.5074 3914.3022,-33.925"/>
</g>
<!-- N509322 -->
<g id="node76" class="node">
<title>N509322</title>
<ellipse fill="none" stroke="#000000" cx="4066" cy="-18" rx="98.9998" ry="18"/>
<text text-anchor="middle" x="4066" y="-13.8" font-family="Times,serif" font-size="14.00" fill="#000000">&#45;2.9343107318324257</text>
</g>
<!-- N509320&#45;&gt;N509322 -->
<g id="edge75" class="edge">
<title>N509320&#45;&gt;N509322</title>
<path fill="none" stroke="#000000" d="M4060.7664,-71.8314C4061.515,-64.131 4062.4053,-54.9743 4063.2373,-46.4166"/>
<polygon fill="#000000" stroke="#000000" points="4066.7256,-46.7051 4064.2098,-36.4133 4059.7585,-46.0276 4066.7256,-46.7051"/>
</g>
<!-- N509324 -->
<g id="node78" class="node">
<title>N509324</title>
<ellipse fill="none" stroke="#000000" cx="4277" cy="-18" rx="93.8423" ry="18"/>
<text text-anchor="middle" x="4277" y="-13.8" font-family="Times,serif" font-size="14.00" fill="#000000">&#45;5.688165856674572</text>
</g>
<!-- N509323&#45;&gt;N509324 -->
<g id="edge77" class="edge">
<title>N509323&#45;&gt;N509324</title>
<path fill="none" stroke="#000000" d="M4277,-71.8314C4277,-64.131 4277,-54.9743 4277,-46.4166"/>
<polygon fill="#000000" stroke="#000000" points="4280.5001,-46.4132 4277,-36.4133 4273.5001,-46.4133 4280.5001,-46.4132"/>
</g>
<!-- N509325 -->
<g id="node79" class="node">
<title>N509325</title>
<ellipse fill="none" stroke="#000000" cx="4483" cy="-18" rx="93.8423" ry="18"/>
<text text-anchor="middle" x="4483" y="-13.8" font-family="Times,serif" font-size="14.00" fill="#000000">&#45;5.688165856674572</text>
</g>
<!-- N509323&#45;&gt;N509325 -->
<g id="edge78" class="edge">
<title>N509323&#45;&gt;N509325</title>
<path fill="none" stroke="#000000" d="M4301.034,-81.5998C4331.9849,-70.782 4386.7103,-51.6547 4428.0868,-37.193"/>
<polygon fill="#000000" stroke="#000000" points="4429.4764,-40.415 4437.7616,-33.8115 4427.1667,-33.807 4429.4764,-40.415"/>
</g>
</g>
</svg>
