<?xml version="1.0" encoding="UTF-8" standalone="no"?>
<!DOCTYPE svg PUBLIC "-//W3C//DTD SVG 1.1//EN"
 "http://www.w3.org/Graphics/SVG/1.1/DTD/svg11.dtd">
<!-- Generated by graphviz version 2.40.1 (20161225.0304)
 -->
<!-- Title: G1603460 Pages: 1 -->
<svg width="422pt" height="332pt"
 viewBox="0.00 0.00 422.49 332.00" xmlns="http://www.w3.org/2000/svg" xmlns:xlink="http://www.w3.org/1999/xlink">
<g id="graph0" class="graph" transform="scale(1 1) rotate(0) translate(4 328)">
<title>G1603460</title>
<polygon fill="#ffffff" stroke="transparent" points="-4,4 -4,-328 418.4928,-328 418.4928,4 -4,4"/>
<!-- N1603460 -->
<g id="node1" class="node">
<title>N1603460</title>
<ellipse fill="#d3d3d3" stroke="#000000" cx="202.4928" cy="-306" rx="59.0998" ry="18"/>
<text text-anchor="middle" x="202.4928" y="-301.8" font-family="Times,serif" font-size="14.00" fill="#000000">N1603460...</text>
</g>
<!-- N1603461 -->
<g id="node2" class="node">
<title>N1603461</title>
<ellipse fill="none" stroke="#000000" stroke-dasharray="5,2" cx="202.4928" cy="-234" rx="27" ry="18"/>
<text text-anchor="middle" x="202.4928" y="-229.8" font-family="Times,serif" font-size="14.00" fill="#000000">add</text>
</g>
<!-- N1603460&#45;&gt;N1603461 -->
<g id="edge1" class="edge">
<title>N1603460&#45;&gt;N1603461</title>
<path fill="none" stroke="#000000" d="M202.4928,-287.8314C202.4928,-280.131 202.4928,-270.9743 202.4928,-262.4166"/>
<polygon fill="#000000" stroke="#000000" points="205.9929,-262.4132 202.4928,-252.4133 198.9929,-262.4133 205.9929,-262.4132"/>
</g>
<!-- N1603454 -->
<g id="node3" class="node">
<title>N1603454</title>
<ellipse fill="none" stroke="#000000" cx="153.4928" cy="-162" rx="27" ry="18"/>
<text text-anchor="middle" x="153.4928" y="-157.8" font-family="Times,serif" font-size="14.00" fill="#000000">sub</text>
</g>
<!-- N1603461&#45;&gt;N1603454 -->
<g id="edge2" class="edge">
<title>N1603461&#45;&gt;N1603454</title>
<path fill="none" stroke="#000000" d="M191.128,-217.3008C185.0054,-208.3043 177.329,-197.0247 170.5086,-187.0029"/>
<polygon fill="#000000" stroke="#000000" points="173.3157,-184.9066 164.7959,-178.6087 167.5287,-188.845 173.3157,-184.9066"/>
</g>
<!-- N1603463 -->
<g id="node8" class="node">
<title>N1603463</title>
<ellipse fill="#d3d3d3" stroke="#000000" cx="252.4928" cy="-162" rx="27" ry="18"/>
<text text-anchor="middle" x="252.4928" y="-157.8" font-family="Times,serif" font-size="14.00" fill="#000000">sub</text>
</g>
<!-- N1603461&#45;&gt;N1603463 -->
<g id="edge7" class="edge">
<title>N1603461&#45;&gt;N1603463</title>
<path fill="none" stroke="#000000" d="M213.8385,-217.6621C220.0783,-208.6768 227.955,-197.3343 234.9676,-187.2362"/>
<polygon fill="#000000" stroke="#000000" points="238.0157,-188.983 240.8449,-178.7729 232.2661,-184.9902 238.0157,-188.983"/>
</g>
<!-- N1603455 -->
<g id="node4" class="node">
<title>N1603455</title>
<ellipse fill="#d3d3d3" stroke="#000000" cx="54.4928" cy="-90" rx="54.4855" ry="18"/>
<text text-anchor="middle" x="54.4928" y="-85.8" font-family="Times,serif" font-size="14.00" fill="#000000">0.268677...</text>
</g>
<!-- N1603454&#45;&gt;N1603455 -->
<g id="edge3" class="edge">
<title>N1603454&#45;&gt;N1603455</title>
<path fill="none" stroke="#000000" d="M134.8716,-148.4574C120.944,-138.3282 101.5861,-124.2497 85.3575,-112.447"/>
<polygon fill="#000000" stroke="#000000" points="87.3475,-109.5666 77.2015,-106.5154 83.2302,-115.2278 87.3475,-109.5666"/>
</g>
<!-- N1603456 -->
<g id="node5" class="node">
<title>N1603456</title>
<ellipse fill="#d3d3d3" stroke="#000000" cx="153.4928" cy="-90" rx="27" ry="18"/>
<text text-anchor="middle" x="153.4928" y="-85.8" font-family="Times,serif" font-size="14.00" fill="#000000">mul</text>
</g>
<!-- N1603454&#45;&gt;N1603456 -->
<g id="edge4" class="edge">
<title>N1603454&#45;&gt;N1603456</title>
<path fill="none" stroke="#000000" d="M153.4928,-143.8314C153.4928,-136.131 153.4928,-126.9743 153.4928,-118.4166"/>
<polygon fill="#000000" stroke="#000000" points="156.9929,-118.4132 153.4928,-108.4133 149.9929,-118.4133 156.9929,-118.4132"/>
</g>
<!-- N1603457 -->
<g id="node6" class="node">
<title>N1603457</title>
<ellipse fill="#d3d3d3" stroke="#000000" cx="117.4928" cy="-18" rx="27" ry="18"/>
<text text-anchor="middle" x="117.4928" y="-13.8" font-family="Times,serif" font-size="14.00" fill="#000000">y</text>
</g>
<!-- N1603456&#45;&gt;N1603457 -->
<g id="edge5" class="edge">
<title>N1603456&#45;&gt;N1603457</title>
<path fill="none" stroke="#000000" d="M144.7782,-72.5708C140.5331,-64.0807 135.3392,-53.6929 130.6265,-44.2674"/>
<polygon fill="#000000" stroke="#000000" points="133.7298,-42.6477 126.1271,-35.2687 127.4688,-45.7782 133.7298,-42.6477"/>
</g>
<!-- N1603458 -->
<g id="node7" class="node">
<title>N1603458</title>
<ellipse fill="#d3d3d3" stroke="#000000" cx="189.4928" cy="-18" rx="27" ry="18"/>
<text text-anchor="middle" x="189.4928" y="-13.8" font-family="Times,serif" font-size="14.00" fill="#000000">y</text>
</g>
<!-- N1603456&#45;&gt;N1603458 -->
<g id="edge6" class="edge">
<title>N1603456&#45;&gt;N1603458</title>
<path fill="none" stroke="#000000" d="M162.2074,-72.5708C166.4524,-64.0807 171.6463,-53.6929 176.3591,-44.2674"/>
<polygon fill="#000000" stroke="#000000" points="179.5167,-45.7782 180.8584,-35.2687 173.2557,-42.6477 179.5167,-45.7782"/>
</g>
<!-- N1603464 -->
<g id="node9" class="node">
<title>N1603464</title>
<ellipse fill="#d3d3d3" stroke="#000000" cx="252.4928" cy="-90" rx="54.4855" ry="18"/>
<text text-anchor="middle" x="252.4928" y="-85.8" font-family="Times,serif" font-size="14.00" fill="#000000">0.740342...</text>
</g>
<!-- N1603463&#45;&gt;N1603464 -->
<g id="edge8" class="edge">
<title>N1603463&#45;&gt;N1603464</title>
<path fill="none" stroke="#000000" d="M252.4928,-143.8314C252.4928,-136.131 252.4928,-126.9743 252.4928,-118.4166"/>
<polygon fill="#000000" stroke="#000000" points="255.9929,-118.4132 252.4928,-108.4133 248.9929,-118.4133 255.9929,-118.4132"/>
</g>
<!-- N1603465 -->
<g id="node10" class="node">
<title>N1603465</title>
<ellipse fill="#d3d3d3" stroke="#000000" cx="351.4928" cy="-90" rx="27" ry="18"/>
<text text-anchor="middle" x="351.4928" y="-85.8" font-family="Times,serif" font-size="14.00" fill="#000000">mul</text>
</g>
<!-- N1603463&#45;&gt;N1603465 -->
<g id="edge9" class="edge">
<title>N1603463&#45;&gt;N1603465</title>
<path fill="none" stroke="#000000" d="M271.1139,-148.4574C286.1862,-137.4956 307.6182,-121.9088 324.5615,-109.5864"/>
<polygon fill="#000000" stroke="#000000" points="326.9263,-112.1943 332.9551,-103.4819 322.8091,-106.5331 326.9263,-112.1943"/>
</g>
<!-- N1603466 -->
<g id="node11" class="node">
<title>N1603466</title>
<ellipse fill="#d3d3d3" stroke="#000000" cx="315.4928" cy="-18" rx="27" ry="18"/>
<text text-anchor="middle" x="315.4928" y="-13.8" font-family="Times,serif" font-size="14.00" fill="#000000">x</text>
</g>
<!-- N1603465&#45;&gt;N1603466 -->
<g id="edge10" class="edge">
<title>N1603465&#45;&gt;N1603466</title>
<path fill="none" stroke="#000000" d="M342.7782,-72.5708C338.5331,-64.0807 333.3392,-53.6929 328.6265,-44.2674"/>
<polygon fill="#000000" stroke="#000000" points="331.7298,-42.6477 324.1271,-35.2687 325.4688,-45.7782 331.7298,-42.6477"/>
</g>
<!-- N1603467 -->
<g id="node12" class="node">
<title>N1603467</title>
<ellipse fill="#d3d3d3" stroke="#000000" cx="387.4928" cy="-18" rx="27" ry="18"/>
<text text-anchor="middle" x="387.4928" y="-13.8" font-family="Times,serif" font-size="14.00" fill="#000000">x</text>
</g>
<!-- N1603465&#45;&gt;N1603467 -->
<g id="edge11" class="edge">
<title>N1603465&#45;&gt;N1603467</title>
<path fill="none" stroke="#000000" d="M360.2074,-72.5708C364.4524,-64.0807 369.6463,-53.6929 374.3591,-44.2674"/>
<polygon fill="#000000" stroke="#000000" points="377.5167,-45.7782 378.8584,-35.2687 371.2557,-42.6477 377.5167,-45.7782"/>
</g>
</g>
</svg>
