<?xml version="1.0" encoding="UTF-8" standalone="no"?>
<!DOCTYPE svg PUBLIC "-//W3C//DTD SVG 1.1//EN"
 "http://www.w3.org/Graphics/SVG/1.1/DTD/svg11.dtd">
<!-- Generated by graphviz version 2.40.1 (20161225.0304)
 -->
<!-- Title: G2681410 Pages: 1 -->
<svg width="350pt" height="332pt"
 viewBox="0.00 0.00 350.00 332.00" xmlns="http://www.w3.org/2000/svg" xmlns:xlink="http://www.w3.org/1999/xlink">
<g id="graph0" class="graph" transform="scale(1 1) rotate(0) translate(4 328)">
<title>G2681410</title>
<polygon fill="#ffffff" stroke="transparent" points="-4,4 -4,-328 346,-328 346,4 -4,4"/>
<!-- N2681410 -->
<g id="node1" class="node">
<title>N2681410</title>
<ellipse fill="#d3d3d3" stroke="#000000" cx="207" cy="-306" rx="59.0998" ry="18"/>
<text text-anchor="middle" x="207" y="-301.8" font-family="Times,serif" font-size="14.00" fill="#000000">N2681410...</text>
</g>
<!-- N2681411 -->
<g id="node2" class="node">
<title>N2681411</title>
<ellipse fill="#d3d3d3" stroke="#000000" cx="207" cy="-234" rx="27" ry="18"/>
<text text-anchor="middle" x="207" y="-229.8" font-family="Times,serif" font-size="14.00" fill="#000000">sub</text>
</g>
<!-- N2681410&#45;&gt;N2681411 -->
<g id="edge1" class="edge">
<title>N2681410&#45;&gt;N2681411</title>
<path fill="none" stroke="#000000" d="M207,-287.8314C207,-280.131 207,-270.9743 207,-262.4166"/>
<polygon fill="#000000" stroke="#000000" points="210.5001,-262.4132 207,-252.4133 203.5001,-262.4133 210.5001,-262.4132"/>
</g>
<!-- N2681412 -->
<g id="node3" class="node">
<title>N2681412</title>
<ellipse fill="#d3d3d3" stroke="#000000" cx="171" cy="-162" rx="27" ry="18"/>
<text text-anchor="middle" x="171" y="-157.8" font-family="Times,serif" font-size="14.00" fill="#000000">sub</text>
</g>
<!-- N2681411&#45;&gt;N2681412 -->
<g id="edge2" class="edge">
<title>N2681411&#45;&gt;N2681412</title>
<path fill="none" stroke="#000000" d="M198.2854,-216.5708C194.0403,-208.0807 188.8464,-197.6929 184.1337,-188.2674"/>
<polygon fill="#000000" stroke="#000000" points="187.237,-186.6477 179.6343,-179.2687 180.976,-189.7782 187.237,-186.6477"/>
</g>
<!-- N2681419 -->
<g id="node10" class="node">
<title>N2681419</title>
<ellipse fill="#d3d3d3" stroke="#000000" cx="243" cy="-162" rx="27" ry="18"/>
<text text-anchor="middle" x="243" y="-157.8" font-family="Times,serif" font-size="14.00" fill="#000000">mul</text>
</g>
<!-- N2681411&#45;&gt;N2681419 -->
<g id="edge9" class="edge">
<title>N2681411&#45;&gt;N2681419</title>
<path fill="none" stroke="#000000" d="M215.7146,-216.5708C219.9597,-208.0807 225.1536,-197.6929 229.8663,-188.2674"/>
<polygon fill="#000000" stroke="#000000" points="233.024,-189.7782 234.3657,-179.2687 226.763,-186.6477 233.024,-189.7782"/>
</g>
<!-- N2681413 -->
<g id="node4" class="node">
<title>N2681413</title>
<ellipse fill="#d3d3d3" stroke="#000000" cx="99" cy="-90" rx="27" ry="18"/>
<text text-anchor="middle" x="99" y="-85.8" font-family="Times,serif" font-size="14.00" fill="#000000">div</text>
</g>
<!-- N2681412&#45;&gt;N2681413 -->
<g id="edge3" class="edge">
<title>N2681412&#45;&gt;N2681413</title>
<path fill="none" stroke="#000000" d="M155.7307,-146.7307C145.803,-136.803 132.6847,-123.6847 121.5637,-112.5637"/>
<polygon fill="#000000" stroke="#000000" points="123.7933,-109.8436 114.2473,-105.2473 118.8436,-114.7933 123.7933,-109.8436"/>
</g>
<!-- N2681416 -->
<g id="node7" class="node">
<title>N2681416</title>
<ellipse fill="none" stroke="#000000" cx="171" cy="-90" rx="27" ry="18"/>
<text text-anchor="middle" x="171" y="-85.8" font-family="Times,serif" font-size="14.00" fill="#000000">mul</text>
</g>
<!-- N2681412&#45;&gt;N2681416 -->
<g id="edge6" class="edge">
<title>N2681412&#45;&gt;N2681416</title>
<path fill="none" stroke="#000000" d="M171,-143.8314C171,-136.131 171,-126.9743 171,-118.4166"/>
<polygon fill="#000000" stroke="#000000" points="174.5001,-118.4132 171,-108.4133 167.5001,-118.4133 174.5001,-118.4132"/>
</g>
<!-- N2681414 -->
<g id="node5" class="node">
<title>N2681414</title>
<ellipse fill="#d3d3d3" stroke="#000000" cx="27" cy="-18" rx="27" ry="18"/>
<text text-anchor="middle" x="27" y="-13.8" font-family="Times,serif" font-size="14.00" fill="#000000">y</text>
</g>
<!-- N2681413&#45;&gt;N2681414 -->
<g id="edge4" class="edge">
<title>N2681413&#45;&gt;N2681414</title>
<path fill="none" stroke="#000000" d="M83.7307,-74.7307C73.803,-64.803 60.6847,-51.6847 49.5637,-40.5637"/>
<polygon fill="#000000" stroke="#000000" points="51.7933,-37.8436 42.2473,-33.2473 46.8436,-42.7933 51.7933,-37.8436"/>
</g>
<!-- N2681415 -->
<g id="node6" class="node">
<title>N2681415</title>
<ellipse fill="#d3d3d3" stroke="#000000" cx="99" cy="-18" rx="27" ry="18"/>
<text text-anchor="middle" x="99" y="-13.8" font-family="Times,serif" font-size="14.00" fill="#000000">y</text>
</g>
<!-- N2681413&#45;&gt;N2681415 -->
<g id="edge5" class="edge">
<title>N2681413&#45;&gt;N2681415</title>
<path fill="none" stroke="#000000" d="M99,-71.8314C99,-64.131 99,-54.9743 99,-46.4166"/>
<polygon fill="#000000" stroke="#000000" points="102.5001,-46.4132 99,-36.4133 95.5001,-46.4133 102.5001,-46.4132"/>
</g>
<!-- N2681429 -->
<g id="node8" class="node">
<title>N2681429</title>
<ellipse fill="none" stroke="#000000" stroke-dasharray="5,2" cx="171" cy="-18" rx="27" ry="18"/>
<text text-anchor="middle" x="171" y="-13.8" font-family="Times,serif" font-size="14.00" fill="#000000">y</text>
</g>
<!-- N2681416&#45;&gt;N2681429 -->
<g id="edge7" class="edge">
<title>N2681416&#45;&gt;N2681429</title>
<path fill="none" stroke="#000000" d="M171,-71.8314C171,-64.131 171,-54.9743 171,-46.4166"/>
<polygon fill="#000000" stroke="#000000" points="174.5001,-46.4132 171,-36.4133 167.5001,-46.4133 174.5001,-46.4132"/>
</g>
<!-- N2681418 -->
<g id="node9" class="node">
<title>N2681418</title>
<ellipse fill="#d3d3d3" stroke="#000000" cx="243" cy="-18" rx="27" ry="18"/>
<text text-anchor="middle" x="243" y="-13.8" font-family="Times,serif" font-size="14.00" fill="#000000">y</text>
</g>
<!-- N2681416&#45;&gt;N2681418 -->
<g id="edge8" class="edge">
<title>N2681416&#45;&gt;N2681418</title>
<path fill="none" stroke="#000000" d="M186.2693,-74.7307C196.197,-64.803 209.3153,-51.6847 220.4363,-40.5637"/>
<polygon fill="#000000" stroke="#000000" points="223.1564,-42.7933 227.7527,-33.2473 218.2067,-37.8436 223.1564,-42.7933"/>
</g>
<!-- N2681420 -->
<g id="node11" class="node">
<title>N2681420</title>
<ellipse fill="#d3d3d3" stroke="#000000" cx="243" cy="-90" rx="27" ry="18"/>
<text text-anchor="middle" x="243" y="-85.8" font-family="Times,serif" font-size="14.00" fill="#000000">x</text>
</g>
<!-- N2681419&#45;&gt;N2681420 -->
<g id="edge10" class="edge">
<title>N2681419&#45;&gt;N2681420</title>
<path fill="none" stroke="#000000" d="M243,-143.8314C243,-136.131 243,-126.9743 243,-118.4166"/>
<polygon fill="#000000" stroke="#000000" points="246.5001,-118.4132 243,-108.4133 239.5001,-118.4133 246.5001,-118.4132"/>
</g>
<!-- N2681421 -->
<g id="node12" class="node">
<title>N2681421</title>
<ellipse fill="#d3d3d3" stroke="#000000" cx="315" cy="-90" rx="27" ry="18"/>
<text text-anchor="middle" x="315" y="-85.8" font-family="Times,serif" font-size="14.00" fill="#000000">x</text>
</g>
<!-- N2681419&#45;&gt;N2681421 -->
<g id="edge11" class="edge">
<title>N2681419&#45;&gt;N2681421</title>
<path fill="none" stroke="#000000" d="M258.2693,-146.7307C268.197,-136.803 281.3153,-123.6847 292.4363,-112.5637"/>
<polygon fill="#000000" stroke="#000000" points="295.1564,-114.7933 299.7527,-105.2473 290.2067,-109.8436 295.1564,-114.7933"/>
</g>
</g>
</svg>
