<?xml version="1.0" encoding="UTF-8" standalone="no"?>
<!DOCTYPE svg PUBLIC "-//W3C//DTD SVG 1.1//EN"
 "http://www.w3.org/Graphics/SVG/1.1/DTD/svg11.dtd">
<!-- Generated by graphviz version 2.40.1 (20161225.0304)
 -->
<!-- Title: G315931 Pages: 1 -->
<svg width="485pt" height="692pt"
 viewBox="0.00 0.00 485.00 692.00" xmlns="http://www.w3.org/2000/svg" xmlns:xlink="http://www.w3.org/1999/xlink">
<g id="graph0" class="graph" transform="scale(1 1) rotate(0) translate(4 688)">
<title>G315931</title>
<polygon fill="#ffffff" stroke="transparent" points="-4,4 -4,-688 481,-688 481,4 -4,4"/>
<!-- N315931 -->
<g id="node1" class="node">
<title>N315931</title>
<ellipse fill="#d3d3d3" stroke="#000000" cx="414" cy="-666" rx="44.629" ry="18"/>
<text text-anchor="middle" x="414" y="-661.8" font-family="Times,serif" font-size="14.00" fill="#000000">N3159...</text>
</g>
<!-- N315932 -->
<g id="node2" class="node">
<title>N315932</title>
<ellipse fill="#d3d3d3" stroke="#000000" cx="414" cy="-594" rx="27" ry="18"/>
<text text-anchor="middle" x="414" y="-589.8" font-family="Times,serif" font-size="14.00" fill="#000000">add</text>
</g>
<!-- N315931&#45;&gt;N315932 -->
<g id="edge1" class="edge">
<title>N315931&#45;&gt;N315932</title>
<path fill="none" stroke="#000000" d="M414,-647.8314C414,-640.131 414,-630.9743 414,-622.4166"/>
<polygon fill="#000000" stroke="#000000" points="417.5001,-622.4132 414,-612.4133 410.5001,-622.4133 417.5001,-622.4132"/>
</g>
<!-- N315933 -->
<g id="node3" class="node">
<title>N315933</title>
<ellipse fill="#d3d3d3" stroke="#000000" cx="378" cy="-522" rx="27" ry="18"/>
<text text-anchor="middle" x="378" y="-517.8" font-family="Times,serif" font-size="14.00" fill="#000000">add</text>
</g>
<!-- N315932&#45;&gt;N315933 -->
<g id="edge2" class="edge">
<title>N315932&#45;&gt;N315933</title>
<path fill="none" stroke="#000000" d="M405.2854,-576.5708C401.0403,-568.0807 395.8464,-557.6929 391.1337,-548.2674"/>
<polygon fill="#000000" stroke="#000000" points="394.237,-546.6477 386.6343,-539.2687 387.976,-549.7782 394.237,-546.6477"/>
</g>
<!-- N315960 -->
<g id="node25" class="node">
<title>N315960</title>
<ellipse fill="#d3d3d3" stroke="#000000" cx="450" cy="-522" rx="27" ry="18"/>
<text text-anchor="middle" x="450" y="-517.8" font-family="Times,serif" font-size="14.00" fill="#000000">SIN</text>
</g>
<!-- N315932&#45;&gt;N315960 -->
<g id="edge24" class="edge">
<title>N315932&#45;&gt;N315960</title>
<path fill="none" stroke="#000000" d="M422.7146,-576.5708C426.9597,-568.0807 432.1536,-557.6929 436.8663,-548.2674"/>
<polygon fill="#000000" stroke="#000000" points="440.024,-549.7782 441.3657,-539.2687 433.763,-546.6477 440.024,-549.7782"/>
</g>
<!-- N315934 -->
<g id="node4" class="node">
<title>N315934</title>
<ellipse fill="#d3d3d3" stroke="#000000" cx="306" cy="-450" rx="27" ry="18"/>
<text text-anchor="middle" x="306" y="-445.8" font-family="Times,serif" font-size="14.00" fill="#000000">add</text>
</g>
<!-- N315933&#45;&gt;N315934 -->
<g id="edge3" class="edge">
<title>N315933&#45;&gt;N315934</title>
<path fill="none" stroke="#000000" d="M362.7307,-506.7307C352.803,-496.803 339.6847,-483.6847 328.5637,-472.5637"/>
<polygon fill="#000000" stroke="#000000" points="330.7933,-469.8436 321.2473,-465.2473 325.8436,-474.7933 330.7933,-469.8436"/>
</g>
<!-- N315957 -->
<g id="node22" class="node">
<title>N315957</title>
<ellipse fill="#d3d3d3" stroke="#000000" cx="378" cy="-450" rx="27" ry="18"/>
<text text-anchor="middle" x="378" y="-445.8" font-family="Times,serif" font-size="14.00" fill="#000000">SIN</text>
</g>
<!-- N315933&#45;&gt;N315957 -->
<g id="edge21" class="edge">
<title>N315933&#45;&gt;N315957</title>
<path fill="none" stroke="#000000" d="M378,-503.8314C378,-496.131 378,-486.9743 378,-478.4166"/>
<polygon fill="#000000" stroke="#000000" points="381.5001,-478.4132 378,-468.4133 374.5001,-478.4133 381.5001,-478.4132"/>
</g>
<!-- N315935 -->
<g id="node5" class="node">
<title>N315935</title>
<ellipse fill="#d3d3d3" stroke="#000000" cx="228" cy="-378" rx="27" ry="18"/>
<text text-anchor="middle" x="228" y="-373.8" font-family="Times,serif" font-size="14.00" fill="#000000">SIN</text>
</g>
<!-- N315934&#45;&gt;N315935 -->
<g id="edge4" class="edge">
<title>N315934&#45;&gt;N315935</title>
<path fill="none" stroke="#000000" d="M289.8383,-435.0816C278.6786,-424.7802 263.6666,-410.923 251.2285,-399.4417"/>
<polygon fill="#000000" stroke="#000000" points="253.5961,-396.864 243.8741,-392.653 248.8481,-402.0076 253.5961,-396.864"/>
</g>
<!-- N315953 -->
<g id="node18" class="node">
<title>N315953</title>
<ellipse fill="#d3d3d3" stroke="#000000" cx="306" cy="-378" rx="27" ry="18"/>
<text text-anchor="middle" x="306" y="-373.8" font-family="Times,serif" font-size="14.00" fill="#000000">SIN</text>
</g>
<!-- N315934&#45;&gt;N315953 -->
<g id="edge17" class="edge">
<title>N315934&#45;&gt;N315953</title>
<path fill="none" stroke="#000000" d="M306,-431.8314C306,-424.131 306,-414.9743 306,-406.4166"/>
<polygon fill="#000000" stroke="#000000" points="309.5001,-406.4132 306,-396.4133 302.5001,-406.4133 309.5001,-406.4132"/>
</g>
<!-- N315936 -->
<g id="node6" class="node">
<title>N315936</title>
<ellipse fill="#d3d3d3" stroke="#000000" cx="221" cy="-306" rx="27" ry="18"/>
<text text-anchor="middle" x="221" y="-301.8" font-family="Times,serif" font-size="14.00" fill="#000000">mul</text>
</g>
<!-- N315935&#45;&gt;N315936 -->
<g id="edge5" class="edge">
<title>N315935&#45;&gt;N315936</title>
<path fill="none" stroke="#000000" d="M226.2336,-359.8314C225.485,-352.131 224.5947,-342.9743 223.7627,-334.4166"/>
<polygon fill="#000000" stroke="#000000" points="227.2415,-334.0276 222.7902,-324.4133 220.2744,-334.7051 227.2415,-334.0276"/>
</g>
<!-- N315937 -->
<g id="node7" class="node">
<title>N315937</title>
<ellipse fill="#d3d3d3" stroke="#000000" cx="136" cy="-234" rx="27" ry="18"/>
<text text-anchor="middle" x="136" y="-229.8" font-family="Times,serif" font-size="14.00" fill="#000000">add</text>
</g>
<!-- N315936&#45;&gt;N315937 -->
<g id="edge6" class="edge">
<title>N315936&#45;&gt;N315937</title>
<path fill="none" stroke="#000000" d="M204.2067,-291.7751C191.7499,-281.2234 174.5734,-266.674 160.5741,-254.8157"/>
<polygon fill="#000000" stroke="#000000" points="162.6511,-251.9881 152.7584,-248.1953 158.1266,-257.3295 162.6511,-251.9881"/>
</g>
<!-- N315952 -->
<g id="node17" class="node">
<title>N315952</title>
<ellipse fill="#d3d3d3" stroke="#000000" cx="221" cy="-234" rx="40.0147" ry="18"/>
<text text-anchor="middle" x="221" y="-229.8" font-family="Times,serif" font-size="14.00" fill="#000000">0.708...</text>
</g>
<!-- N315936&#45;&gt;N315952 -->
<g id="edge16" class="edge">
<title>N315936&#45;&gt;N315952</title>
<path fill="none" stroke="#000000" d="M221,-287.8314C221,-280.131 221,-270.9743 221,-262.4166"/>
<polygon fill="#000000" stroke="#000000" points="224.5001,-262.4132 221,-252.4133 217.5001,-262.4133 224.5001,-262.4132"/>
</g>
<!-- N315938 -->
<g id="node8" class="node">
<title>N315938</title>
<ellipse fill="#d3d3d3" stroke="#000000" cx="99" cy="-162" rx="27" ry="18"/>
<text text-anchor="middle" x="99" y="-157.8" font-family="Times,serif" font-size="14.00" fill="#000000">add</text>
</g>
<!-- N315937&#45;&gt;N315938 -->
<g id="edge7" class="edge">
<title>N315937&#45;&gt;N315938</title>
<path fill="none" stroke="#000000" d="M127.2315,-216.937C122.8721,-208.4537 117.5047,-198.0092 112.6247,-188.513"/>
<polygon fill="#000000" stroke="#000000" points="115.6463,-186.7352 107.9626,-179.4407 109.4203,-189.9348 115.6463,-186.7352"/>
</g>
<!-- N315943 -->
<g id="node13" class="node">
<title>N315943</title>
<ellipse fill="none" stroke="#000000" cx="174" cy="-162" rx="27" ry="18"/>
<text text-anchor="middle" x="174" y="-157.8" font-family="Times,serif" font-size="14.00" fill="#000000">add</text>
</g>
<!-- N315937&#45;&gt;N315943 -->
<g id="edge12" class="edge">
<title>N315937&#45;&gt;N315943</title>
<path fill="none" stroke="#000000" d="M145.0055,-216.937C149.4828,-208.4537 154.9952,-198.0092 160.007,-188.513"/>
<polygon fill="#000000" stroke="#000000" points="163.2229,-189.9182 164.7952,-179.4407 157.0322,-186.6509 163.2229,-189.9182"/>
</g>
<!-- N315939 -->
<g id="node9" class="node">
<title>N315939</title>
<ellipse fill="#d3d3d3" stroke="#000000" cx="27" cy="-90" rx="27" ry="18"/>
<text text-anchor="middle" x="27" y="-85.8" font-family="Times,serif" font-size="14.00" fill="#000000">SIN</text>
</g>
<!-- N315938&#45;&gt;N315939 -->
<g id="edge8" class="edge">
<title>N315938&#45;&gt;N315939</title>
<path fill="none" stroke="#000000" d="M83.7307,-146.7307C73.803,-136.803 60.6847,-123.6847 49.5637,-112.5637"/>
<polygon fill="#000000" stroke="#000000" points="51.7933,-109.8436 42.2473,-105.2473 46.8436,-114.7933 51.7933,-109.8436"/>
</g>
<!-- N315941 -->
<g id="node11" class="node">
<title>N315941</title>
<ellipse fill="#d3d3d3" stroke="#000000" cx="99" cy="-90" rx="27" ry="18"/>
<text text-anchor="middle" x="99" y="-85.8" font-family="Times,serif" font-size="14.00" fill="#000000">SIN</text>
</g>
<!-- N315938&#45;&gt;N315941 -->
<g id="edge10" class="edge">
<title>N315938&#45;&gt;N315941</title>
<path fill="none" stroke="#000000" d="M99,-143.8314C99,-136.131 99,-126.9743 99,-118.4166"/>
<polygon fill="#000000" stroke="#000000" points="102.5001,-118.4132 99,-108.4133 95.5001,-118.4133 102.5001,-118.4132"/>
</g>
<!-- N315940 -->
<g id="node10" class="node">
<title>N315940</title>
<ellipse fill="#d3d3d3" stroke="#000000" cx="27" cy="-18" rx="27" ry="18"/>
<text text-anchor="middle" x="27" y="-13.8" font-family="Times,serif" font-size="14.00" fill="#000000">x</text>
</g>
<!-- N315939&#45;&gt;N315940 -->
<g id="edge9" class="edge">
<title>N315939&#45;&gt;N315940</title>
<path fill="none" stroke="#000000" d="M27,-71.8314C27,-64.131 27,-54.9743 27,-46.4166"/>
<polygon fill="#000000" stroke="#000000" points="30.5001,-46.4132 27,-36.4133 23.5001,-46.4133 30.5001,-46.4132"/>
</g>
<!-- N315942 -->
<g id="node12" class="node">
<title>N315942</title>
<ellipse fill="#d3d3d3" stroke="#000000" cx="99" cy="-18" rx="27" ry="18"/>
<text text-anchor="middle" x="99" y="-13.8" font-family="Times,serif" font-size="14.00" fill="#000000">x</text>
</g>
<!-- N315941&#45;&gt;N315942 -->
<g id="edge11" class="edge">
<title>N315941&#45;&gt;N315942</title>
<path fill="none" stroke="#000000" d="M99,-71.8314C99,-64.131 99,-54.9743 99,-46.4166"/>
<polygon fill="#000000" stroke="#000000" points="102.5001,-46.4132 99,-36.4133 95.5001,-46.4133 102.5001,-46.4132"/>
</g>
<!-- N315944 -->
<g id="node14" class="node">
<title>N315944</title>
<ellipse fill="#d3d3d3" stroke="#000000" cx="174" cy="-90" rx="29.6339" ry="18"/>
<text text-anchor="middle" x="174" y="-85.8" font-family="Times,serif" font-size="14.00" fill="#000000">COS</text>
</g>
<!-- N315943&#45;&gt;N315944 -->
<g id="edge13" class="edge">
<title>N315943&#45;&gt;N315944</title>
<path fill="none" stroke="#000000" d="M174,-143.8314C174,-136.131 174,-126.9743 174,-118.4166"/>
<polygon fill="#000000" stroke="#000000" points="177.5001,-118.4132 174,-108.4133 170.5001,-118.4133 177.5001,-118.4132"/>
</g>
<!-- N315924 -->
<g id="node16" class="node">
<title>N315924</title>
<ellipse fill="none" stroke="#000000" stroke-dasharray="5,2" cx="262" cy="-90" rx="40.0147" ry="18"/>
<text text-anchor="middle" x="262" y="-85.8" font-family="Times,serif" font-size="14.00" fill="#000000">0.105...</text>
</g>
<!-- N315943&#45;&gt;N315924 -->
<g id="edge15" class="edge">
<title>N315943&#45;&gt;N315924</title>
<path fill="none" stroke="#000000" d="M191.386,-147.7751C203.6963,-137.703 220.4586,-123.9884 234.5626,-112.4488"/>
<polygon fill="#000000" stroke="#000000" points="236.9825,-114.9911 242.5058,-105.9498 232.5498,-109.5734 236.9825,-114.9911"/>
</g>
<!-- N315945 -->
<g id="node15" class="node">
<title>N315945</title>
<ellipse fill="#d3d3d3" stroke="#000000" cx="174" cy="-18" rx="27" ry="18"/>
<text text-anchor="middle" x="174" y="-13.8" font-family="Times,serif" font-size="14.00" fill="#000000">x</text>
</g>
<!-- N315944&#45;&gt;N315945 -->
<g id="edge14" class="edge">
<title>N315944&#45;&gt;N315945</title>
<path fill="none" stroke="#000000" d="M174,-71.8314C174,-64.131 174,-54.9743 174,-46.4166"/>
<polygon fill="#000000" stroke="#000000" points="177.5001,-46.4132 174,-36.4133 170.5001,-46.4133 177.5001,-46.4132"/>
</g>
<!-- N315954 -->
<g id="node19" class="node">
<title>N315954</title>
<ellipse fill="#d3d3d3" stroke="#000000" cx="306" cy="-306" rx="27" ry="18"/>
<text text-anchor="middle" x="306" y="-301.8" font-family="Times,serif" font-size="14.00" fill="#000000">add</text>
</g>
<!-- N315953&#45;&gt;N315954 -->
<g id="edge18" class="edge">
<title>N315953&#45;&gt;N315954</title>
<path fill="none" stroke="#000000" d="M306,-359.8314C306,-352.131 306,-342.9743 306,-334.4166"/>
<polygon fill="#000000" stroke="#000000" points="309.5001,-334.4132 306,-324.4133 302.5001,-334.4133 309.5001,-334.4132"/>
</g>
<!-- N315955 -->
<g id="node20" class="node">
<title>N315955</title>
<ellipse fill="#d3d3d3" stroke="#000000" cx="306" cy="-234" rx="27" ry="18"/>
<text text-anchor="middle" x="306" y="-229.8" font-family="Times,serif" font-size="14.00" fill="#000000">x</text>
</g>
<!-- N315954&#45;&gt;N315955 -->
<g id="edge19" class="edge">
<title>N315954&#45;&gt;N315955</title>
<path fill="none" stroke="#000000" d="M306,-287.8314C306,-280.131 306,-270.9743 306,-262.4166"/>
<polygon fill="#000000" stroke="#000000" points="309.5001,-262.4132 306,-252.4133 302.5001,-262.4133 309.5001,-262.4132"/>
</g>
<!-- N315956 -->
<g id="node21" class="node">
<title>N315956</title>
<ellipse fill="#d3d3d3" stroke="#000000" cx="391" cy="-234" rx="40.0147" ry="18"/>
<text text-anchor="middle" x="391" y="-229.8" font-family="Times,serif" font-size="14.00" fill="#000000">0.611...</text>
</g>
<!-- N315954&#45;&gt;N315956 -->
<g id="edge20" class="edge">
<title>N315954&#45;&gt;N315956</title>
<path fill="none" stroke="#000000" d="M322.7933,-291.7751C334.6839,-281.703 350.8748,-267.9884 364.4979,-256.4488"/>
<polygon fill="#000000" stroke="#000000" points="366.8021,-259.084 372.1704,-249.9498 362.2777,-253.7426 366.8021,-259.084"/>
</g>
<!-- N315958 -->
<g id="node23" class="node">
<title>N315958</title>
<ellipse fill="#d3d3d3" stroke="#000000" cx="378" cy="-378" rx="27" ry="18"/>
<text text-anchor="middle" x="378" y="-373.8" font-family="Times,serif" font-size="14.00" fill="#000000">SIN</text>
</g>
<!-- N315957&#45;&gt;N315958 -->
<g id="edge22" class="edge">
<title>N315957&#45;&gt;N315958</title>
<path fill="none" stroke="#000000" d="M378,-431.8314C378,-424.131 378,-414.9743 378,-406.4166"/>
<polygon fill="#000000" stroke="#000000" points="381.5001,-406.4132 378,-396.4133 374.5001,-406.4133 381.5001,-406.4132"/>
</g>
<!-- N315959 -->
<g id="node24" class="node">
<title>N315959</title>
<ellipse fill="#d3d3d3" stroke="#000000" cx="378" cy="-306" rx="27" ry="18"/>
<text text-anchor="middle" x="378" y="-301.8" font-family="Times,serif" font-size="14.00" fill="#000000">x</text>
</g>
<!-- N315958&#45;&gt;N315959 -->
<g id="edge23" class="edge">
<title>N315958&#45;&gt;N315959</title>
<path fill="none" stroke="#000000" d="M378,-359.8314C378,-352.131 378,-342.9743 378,-334.4166"/>
<polygon fill="#000000" stroke="#000000" points="381.5001,-334.4132 378,-324.4133 374.5001,-334.4133 381.5001,-334.4132"/>
</g>
<!-- N315961 -->
<g id="node26" class="node">
<title>N315961</title>
<ellipse fill="#d3d3d3" stroke="#000000" cx="450" cy="-450" rx="27" ry="18"/>
<text text-anchor="middle" x="450" y="-445.8" font-family="Times,serif" font-size="14.00" fill="#000000">x</text>
</g>
<!-- N315960&#45;&gt;N315961 -->
<g id="edge25" class="edge">
<title>N315960&#45;&gt;N315961</title>
<path fill="none" stroke="#000000" d="M450,-503.8314C450,-496.131 450,-486.9743 450,-478.4166"/>
<polygon fill="#000000" stroke="#000000" points="453.5001,-478.4132 450,-468.4133 446.5001,-478.4133 453.5001,-478.4132"/>
</g>
</g>
</svg>
