<?xml version="1.0" encoding="UTF-8" standalone="no"?>
<!DOCTYPE svg PUBLIC "-//W3C//DTD SVG 1.1//EN"
 "http://www.w3.org/Graphics/SVG/1.1/DTD/svg11.dtd">
<!-- Generated by graphviz version 2.40.1 (20161225.0304)
 -->
<!-- Title: G436 Pages: 1 -->
<svg width="332pt" height="332pt"
 viewBox="0.00 0.00 332.49 332.00" xmlns="http://www.w3.org/2000/svg" xmlns:xlink="http://www.w3.org/1999/xlink">
<g id="graph0" class="graph" transform="scale(1 1) rotate(0) translate(4 328)">
<title>G436</title>
<polygon fill="#ffffff" stroke="transparent" points="-4,4 -4,-328 328.4928,-328 328.4928,4 -4,4"/>
<!-- N436 -->
<g id="node1" class="node">
<title>N436</title>
<ellipse fill="#d3d3d3" stroke="#000000" cx="189.4928" cy="-306" rx="32.4865" ry="18"/>
<text text-anchor="middle" x="189.4928" y="-301.8" font-family="Times,serif" font-size="14.00" fill="#000000">N436</text>
</g>
<!-- N437 -->
<g id="node2" class="node">
<title>N437</title>
<ellipse fill="#d3d3d3" stroke="#000000" cx="189.4928" cy="-234" rx="27" ry="18"/>
<text text-anchor="middle" x="189.4928" y="-229.8" font-family="Times,serif" font-size="14.00" fill="#000000">mul</text>
</g>
<!-- N436&#45;&gt;N437 -->
<g id="edge1" class="edge">
<title>N436&#45;&gt;N437</title>
<path fill="none" stroke="#000000" d="M189.4928,-287.8314C189.4928,-280.131 189.4928,-270.9743 189.4928,-262.4166"/>
<polygon fill="#000000" stroke="#000000" points="192.9929,-262.4132 189.4928,-252.4133 185.9929,-262.4133 192.9929,-262.4132"/>
</g>
<!-- N438 -->
<g id="node3" class="node">
<title>N438</title>
<ellipse fill="#d3d3d3" stroke="#000000" cx="153.4928" cy="-162" rx="27" ry="18"/>
<text text-anchor="middle" x="153.4928" y="-157.8" font-family="Times,serif" font-size="14.00" fill="#000000">mul</text>
</g>
<!-- N437&#45;&gt;N438 -->
<g id="edge2" class="edge">
<title>N437&#45;&gt;N438</title>
<path fill="none" stroke="#000000" d="M180.7782,-216.5708C176.5331,-208.0807 171.3392,-197.6929 166.6265,-188.2674"/>
<polygon fill="#000000" stroke="#000000" points="169.7298,-186.6477 162.1271,-179.2687 163.4688,-189.7782 169.7298,-186.6477"/>
</g>
<!-- N441 -->
<g id="node6" class="node">
<title>N441</title>
<ellipse fill="none" stroke="#000000" cx="225.4928" cy="-162" rx="27" ry="18"/>
<text text-anchor="middle" x="225.4928" y="-157.8" font-family="Times,serif" font-size="14.00" fill="#000000">mul</text>
</g>
<!-- N437&#45;&gt;N441 -->
<g id="edge5" class="edge">
<title>N437&#45;&gt;N441</title>
<path fill="none" stroke="#000000" d="M198.2074,-216.5708C202.4524,-208.0807 207.6463,-197.6929 212.3591,-188.2674"/>
<polygon fill="#000000" stroke="#000000" points="215.5167,-189.7782 216.8584,-179.2687 209.2557,-186.6477 215.5167,-189.7782"/>
</g>
<!-- N439 -->
<g id="node4" class="node">
<title>N439</title>
<ellipse fill="#d3d3d3" stroke="#000000" cx="54.4928" cy="-90" rx="54.4855" ry="18"/>
<text text-anchor="middle" x="54.4928" y="-85.8" font-family="Times,serif" font-size="14.00" fill="#000000">0.432410...</text>
</g>
<!-- N438&#45;&gt;N439 -->
<g id="edge3" class="edge">
<title>N438&#45;&gt;N439</title>
<path fill="none" stroke="#000000" d="M134.8716,-148.4574C120.944,-138.3282 101.5861,-124.2497 85.3575,-112.447"/>
<polygon fill="#000000" stroke="#000000" points="87.3475,-109.5666 77.2015,-106.5154 83.2302,-115.2278 87.3475,-109.5666"/>
</g>
<!-- N440 -->
<g id="node5" class="node">
<title>N440</title>
<ellipse fill="#d3d3d3" stroke="#000000" cx="153.4928" cy="-90" rx="27" ry="18"/>
<text text-anchor="middle" x="153.4928" y="-85.8" font-family="Times,serif" font-size="14.00" fill="#000000">x</text>
</g>
<!-- N438&#45;&gt;N440 -->
<g id="edge4" class="edge">
<title>N438&#45;&gt;N440</title>
<path fill="none" stroke="#000000" d="M153.4928,-143.8314C153.4928,-136.131 153.4928,-126.9743 153.4928,-118.4166"/>
<polygon fill="#000000" stroke="#000000" points="156.9929,-118.4132 153.4928,-108.4133 149.9929,-118.4133 156.9929,-118.4132"/>
</g>
<!-- N446 -->
<g id="node7" class="node">
<title>N446</title>
<ellipse fill="none" stroke="#000000" stroke-dasharray="5,2" cx="225.4928" cy="-90" rx="27" ry="18"/>
<text text-anchor="middle" x="225.4928" y="-85.8" font-family="Times,serif" font-size="14.00" fill="#000000">mul</text>
</g>
<!-- N441&#45;&gt;N446 -->
<g id="edge6" class="edge">
<title>N441&#45;&gt;N446</title>
<path fill="none" stroke="#000000" d="M225.4928,-143.8314C225.4928,-136.131 225.4928,-126.9743 225.4928,-118.4166"/>
<polygon fill="#000000" stroke="#000000" points="228.9929,-118.4132 225.4928,-108.4133 221.9929,-118.4133 228.9929,-118.4132"/>
</g>
<!-- N443 -->
<g id="node10" class="node">
<title>N443</title>
<ellipse fill="#d3d3d3" stroke="#000000" cx="297.4928" cy="-90" rx="27" ry="18"/>
<text text-anchor="middle" x="297.4928" y="-85.8" font-family="Times,serif" font-size="14.00" fill="#000000">x</text>
</g>
<!-- N441&#45;&gt;N443 -->
<g id="edge9" class="edge">
<title>N441&#45;&gt;N443</title>
<path fill="none" stroke="#000000" d="M240.7621,-146.7307C250.6898,-136.803 263.8081,-123.6847 274.9291,-112.5637"/>
<polygon fill="#000000" stroke="#000000" points="277.6492,-114.7933 282.2454,-105.2473 272.6994,-109.8436 277.6492,-114.7933"/>
</g>
<!-- N447 -->
<g id="node8" class="node">
<title>N447</title>
<ellipse fill="#d3d3d3" stroke="#000000" cx="175.4928" cy="-18" rx="54.4855" ry="18"/>
<text text-anchor="middle" x="175.4928" y="-13.8" font-family="Times,serif" font-size="14.00" fill="#000000">0.432410...</text>
</g>
<!-- N446&#45;&gt;N447 -->
<g id="edge7" class="edge">
<title>N446&#45;&gt;N447</title>
<path fill="none" stroke="#000000" d="M214.147,-73.6621C208.0855,-64.9336 200.4793,-53.9805 193.621,-44.1047"/>
<polygon fill="#000000" stroke="#000000" points="196.4231,-42.0035 187.8443,-35.7862 190.6735,-45.9963 196.4231,-42.0035"/>
</g>
<!-- N448 -->
<g id="node9" class="node">
<title>N448</title>
<ellipse fill="#d3d3d3" stroke="#000000" cx="274.4928" cy="-18" rx="27" ry="18"/>
<text text-anchor="middle" x="274.4928" y="-13.8" font-family="Times,serif" font-size="14.00" fill="#000000">x</text>
</g>
<!-- N446&#45;&gt;N448 -->
<g id="edge8" class="edge">
<title>N446&#45;&gt;N448</title>
<path fill="none" stroke="#000000" d="M236.8575,-73.3008C242.9801,-64.3043 250.6565,-53.0247 257.4769,-43.0029"/>
<polygon fill="#000000" stroke="#000000" points="260.4569,-44.845 263.1896,-34.6087 254.6699,-40.9066 260.4569,-44.845"/>
</g>
</g>
</svg>
