<?xml version="1.0" encoding="UTF-8" standalone="no"?>
<!DOCTYPE svg PUBLIC "-//W3C//DTD SVG 1.1//EN"
 "http://www.w3.org/Graphics/SVG/1.1/DTD/svg11.dtd">
<!-- Generated by graphviz version 2.40.1 (20161225.0304)
 -->
<!-- Title: G2145909 Pages: 1 -->
<svg width="965pt" height="1196pt"
 viewBox="0.00 0.00 964.99 1196.00" xmlns="http://www.w3.org/2000/svg" xmlns:xlink="http://www.w3.org/1999/xlink">
<g id="graph0" class="graph" transform="scale(1 1) rotate(0) translate(4 1192)">
<title>G2145909</title>
<polygon fill="#ffffff" stroke="transparent" points="-4,4 -4,-1192 960.9855,-1192 960.9855,4 -4,4"/>
<!-- N2145909 -->
<g id="node1" class="node">
<title>N2145909</title>
<ellipse fill="#d3d3d3" stroke="#000000" cx="560.4928" cy="-1170" rx="59.0998" ry="18"/>
<text text-anchor="middle" x="560.4928" y="-1165.8" font-family="Times,serif" font-size="14.00" fill="#000000">N2145909...</text>
</g>
<!-- N2145910 -->
<g id="node2" class="node">
<title>N2145910</title>
<ellipse fill="#d3d3d3" stroke="#000000" cx="560.4928" cy="-1098" rx="27" ry="18"/>
<text text-anchor="middle" x="560.4928" y="-1093.8" font-family="Times,serif" font-size="14.00" fill="#000000">add</text>
</g>
<!-- N2145909&#45;&gt;N2145910 -->
<g id="edge1" class="edge">
<title>N2145909&#45;&gt;N2145910</title>
<path fill="none" stroke="#000000" d="M560.4928,-1151.8314C560.4928,-1144.131 560.4928,-1134.9743 560.4928,-1126.4166"/>
<polygon fill="#000000" stroke="#000000" points="563.9929,-1126.4132 560.4928,-1116.4133 556.9929,-1126.4133 563.9929,-1126.4132"/>
</g>
<!-- N2145911 -->
<g id="node3" class="node">
<title>N2145911</title>
<ellipse fill="#d3d3d3" stroke="#000000" cx="511.4928" cy="-1026" rx="27" ry="18"/>
<text text-anchor="middle" x="511.4928" y="-1021.8" font-family="Times,serif" font-size="14.00" fill="#000000">sub</text>
</g>
<!-- N2145910&#45;&gt;N2145911 -->
<g id="edge2" class="edge">
<title>N2145910&#45;&gt;N2145911</title>
<path fill="none" stroke="#000000" d="M549.128,-1081.3008C543.0054,-1072.3043 535.329,-1061.0247 528.5086,-1051.0029"/>
<polygon fill="#000000" stroke="#000000" points="531.3157,-1048.9066 522.7959,-1042.6087 525.5287,-1052.845 531.3157,-1048.9066"/>
</g>
<!-- N2145918 -->
<g id="node10" class="node">
<title>N2145918</title>
<ellipse fill="#d3d3d3" stroke="#000000" cx="610.4928" cy="-1026" rx="27" ry="18"/>
<text text-anchor="middle" x="610.4928" y="-1021.8" font-family="Times,serif" font-size="14.00" fill="#000000">sub</text>
</g>
<!-- N2145910&#45;&gt;N2145918 -->
<g id="edge9" class="edge">
<title>N2145910&#45;&gt;N2145918</title>
<path fill="none" stroke="#000000" d="M571.8385,-1081.6621C578.0783,-1072.6768 585.955,-1061.3343 592.9676,-1051.2362"/>
<polygon fill="#000000" stroke="#000000" points="596.0157,-1052.983 598.8449,-1042.7729 590.2661,-1048.9902 596.0157,-1052.983"/>
</g>
<!-- N2145912 -->
<g id="node4" class="node">
<title>N2145912</title>
<ellipse fill="#d3d3d3" stroke="#000000" cx="412.4928" cy="-954" rx="27" ry="18"/>
<text text-anchor="middle" x="412.4928" y="-949.8" font-family="Times,serif" font-size="14.00" fill="#000000">add</text>
</g>
<!-- N2145911&#45;&gt;N2145912 -->
<g id="edge3" class="edge">
<title>N2145911&#45;&gt;N2145912</title>
<path fill="none" stroke="#000000" d="M492.8716,-1012.4574C477.7993,-1001.4956 456.3673,-985.9088 439.424,-973.5864"/>
<polygon fill="#000000" stroke="#000000" points="441.1764,-970.5331 431.0304,-967.4819 437.0592,-976.1943 441.1764,-970.5331"/>
</g>
<!-- N2145915 -->
<g id="node7" class="node">
<title>N2145915</title>
<ellipse fill="#d3d3d3" stroke="#000000" cx="511.4928" cy="-954" rx="27" ry="18"/>
<text text-anchor="middle" x="511.4928" y="-949.8" font-family="Times,serif" font-size="14.00" fill="#000000">mul</text>
</g>
<!-- N2145911&#45;&gt;N2145915 -->
<g id="edge6" class="edge">
<title>N2145911&#45;&gt;N2145915</title>
<path fill="none" stroke="#000000" d="M511.4928,-1007.8314C511.4928,-1000.131 511.4928,-990.9743 511.4928,-982.4166"/>
<polygon fill="#000000" stroke="#000000" points="514.9929,-982.4132 511.4928,-972.4133 507.9929,-982.4133 514.9929,-982.4132"/>
</g>
<!-- N2145913 -->
<g id="node5" class="node">
<title>N2145913</title>
<ellipse fill="#d3d3d3" stroke="#000000" cx="285.4928" cy="-882" rx="54.4855" ry="18"/>
<text text-anchor="middle" x="285.4928" y="-877.8" font-family="Times,serif" font-size="14.00" fill="#000000">0.736641...</text>
</g>
<!-- N2145912&#45;&gt;N2145913 -->
<g id="edge4" class="edge">
<title>N2145912&#45;&gt;N2145913</title>
<path fill="none" stroke="#000000" d="M391.8054,-942.2717C373.0255,-931.6249 344.8943,-915.6765 322.2861,-902.8592"/>
<polygon fill="#000000" stroke="#000000" points="323.7202,-899.6489 313.2948,-897.7618 320.2678,-905.7384 323.7202,-899.6489"/>
</g>
<!-- N2145914 -->
<g id="node6" class="node">
<title>N2145914</title>
<ellipse fill="#d3d3d3" stroke="#000000" cx="412.4928" cy="-882" rx="54.4855" ry="18"/>
<text text-anchor="middle" x="412.4928" y="-877.8" font-family="Times,serif" font-size="14.00" fill="#000000">0.609743...</text>
</g>
<!-- N2145912&#45;&gt;N2145914 -->
<g id="edge5" class="edge">
<title>N2145912&#45;&gt;N2145914</title>
<path fill="none" stroke="#000000" d="M412.4928,-935.8314C412.4928,-928.131 412.4928,-918.9743 412.4928,-910.4166"/>
<polygon fill="#000000" stroke="#000000" points="415.9929,-910.4132 412.4928,-900.4133 408.9929,-910.4133 415.9929,-910.4132"/>
</g>
<!-- N2145916 -->
<g id="node8" class="node">
<title>N2145916</title>
<ellipse fill="#d3d3d3" stroke="#000000" cx="511.4928" cy="-882" rx="27" ry="18"/>
<text text-anchor="middle" x="511.4928" y="-877.8" font-family="Times,serif" font-size="14.00" fill="#000000">x</text>
</g>
<!-- N2145915&#45;&gt;N2145916 -->
<g id="edge7" class="edge">
<title>N2145915&#45;&gt;N2145916</title>
<path fill="none" stroke="#000000" d="M511.4928,-935.8314C511.4928,-928.131 511.4928,-918.9743 511.4928,-910.4166"/>
<polygon fill="#000000" stroke="#000000" points="514.9929,-910.4132 511.4928,-900.4133 507.9929,-910.4133 514.9929,-910.4132"/>
</g>
<!-- N2145917 -->
<g id="node9" class="node">
<title>N2145917</title>
<ellipse fill="#d3d3d3" stroke="#000000" cx="583.4928" cy="-882" rx="27" ry="18"/>
<text text-anchor="middle" x="583.4928" y="-877.8" font-family="Times,serif" font-size="14.00" fill="#000000">x</text>
</g>
<!-- N2145915&#45;&gt;N2145917 -->
<g id="edge8" class="edge">
<title>N2145915&#45;&gt;N2145917</title>
<path fill="none" stroke="#000000" d="M526.7621,-938.7307C536.6898,-928.803 549.8081,-915.6847 560.9291,-904.5637"/>
<polygon fill="#000000" stroke="#000000" points="563.6492,-906.7933 568.2454,-897.2473 558.6994,-901.8436 563.6492,-906.7933"/>
</g>
<!-- N2145919 -->
<g id="node11" class="node">
<title>N2145919</title>
<ellipse fill="#d3d3d3" stroke="#000000" cx="610.4928" cy="-954" rx="54.4855" ry="18"/>
<text text-anchor="middle" x="610.4928" y="-949.8" font-family="Times,serif" font-size="14.00" fill="#000000">0.986672...</text>
</g>
<!-- N2145918&#45;&gt;N2145919 -->
<g id="edge10" class="edge">
<title>N2145918&#45;&gt;N2145919</title>
<path fill="none" stroke="#000000" d="M610.4928,-1007.8314C610.4928,-1000.131 610.4928,-990.9743 610.4928,-982.4166"/>
<polygon fill="#000000" stroke="#000000" points="613.9929,-982.4132 610.4928,-972.4133 606.9929,-982.4133 613.9929,-982.4132"/>
</g>
<!-- N2145920 -->
<g id="node12" class="node">
<title>N2145920</title>
<ellipse fill="#d3d3d3" stroke="#000000" cx="709.4928" cy="-954" rx="27" ry="18"/>
<text text-anchor="middle" x="709.4928" y="-949.8" font-family="Times,serif" font-size="14.00" fill="#000000">sub</text>
</g>
<!-- N2145918&#45;&gt;N2145920 -->
<g id="edge11" class="edge">
<title>N2145918&#45;&gt;N2145920</title>
<path fill="none" stroke="#000000" d="M629.1139,-1012.4574C644.1862,-1001.4956 665.6182,-985.9088 682.5615,-973.5864"/>
<polygon fill="#000000" stroke="#000000" points="684.9263,-976.1943 690.9551,-967.4819 680.8091,-970.5331 684.9263,-976.1943"/>
</g>
<!-- N2145921 -->
<g id="node13" class="node">
<title>N2145921</title>
<ellipse fill="#d3d3d3" stroke="#000000" cx="682.4928" cy="-882" rx="27" ry="18"/>
<text text-anchor="middle" x="682.4928" y="-877.8" font-family="Times,serif" font-size="14.00" fill="#000000">add</text>
</g>
<!-- N2145920&#45;&gt;N2145921 -->
<g id="edge12" class="edge">
<title>N2145920&#45;&gt;N2145921</title>
<path fill="none" stroke="#000000" d="M702.8186,-936.2022C699.7451,-928.0064 696.0312,-918.1024 692.6232,-909.0145"/>
<polygon fill="#000000" stroke="#000000" points="695.8786,-907.7274 689.0901,-899.593 689.3243,-910.1853 695.8786,-907.7274"/>
</g>
<!-- N2146124 -->
<g id="node64" class="node">
<title>N2146124</title>
<ellipse fill="#d3d3d3" stroke="#000000" cx="781.4928" cy="-882" rx="54.4855" ry="18"/>
<text text-anchor="middle" x="781.4928" y="-877.8" font-family="Times,serif" font-size="14.00" fill="#000000">0.277602...</text>
</g>
<!-- N2145920&#45;&gt;N2146124 -->
<g id="edge63" class="edge">
<title>N2145920&#45;&gt;N2146124</title>
<path fill="none" stroke="#000000" d="M724.7621,-938.7307C734.1531,-929.3396 746.3992,-917.0936 757.109,-906.3838"/>
<polygon fill="#000000" stroke="#000000" points="759.6279,-908.8147 764.2241,-899.2687 754.6781,-903.8649 759.6279,-908.8147"/>
</g>
<!-- N2145922 -->
<g id="node14" class="node">
<title>N2145922</title>
<ellipse fill="#d3d3d3" stroke="#000000" cx="633.4928" cy="-810" rx="27" ry="18"/>
<text text-anchor="middle" x="633.4928" y="-805.8" font-family="Times,serif" font-size="14.00" fill="#000000">add</text>
</g>
<!-- N2145921&#45;&gt;N2145922 -->
<g id="edge13" class="edge">
<title>N2145921&#45;&gt;N2145922</title>
<path fill="none" stroke="#000000" d="M671.128,-865.3008C665.0054,-856.3043 657.329,-845.0247 650.5086,-835.0029"/>
<polygon fill="#000000" stroke="#000000" points="653.3157,-832.9066 644.7959,-826.6087 647.5287,-836.845 653.3157,-832.9066"/>
</g>
<!-- N2146121 -->
<g id="node61" class="node">
<title>N2146121</title>
<ellipse fill="#d3d3d3" stroke="#000000" cx="732.4928" cy="-810" rx="27" ry="18"/>
<text text-anchor="middle" x="732.4928" y="-805.8" font-family="Times,serif" font-size="14.00" fill="#000000">sub</text>
</g>
<!-- N2145921&#45;&gt;N2146121 -->
<g id="edge60" class="edge">
<title>N2145921&#45;&gt;N2146121</title>
<path fill="none" stroke="#000000" d="M693.8385,-865.6621C700.0783,-856.6768 707.955,-845.3343 714.9676,-835.2362"/>
<polygon fill="#000000" stroke="#000000" points="718.0157,-836.983 720.8449,-826.7729 712.2661,-832.9902 718.0157,-836.983"/>
</g>
<!-- N2145923 -->
<g id="node15" class="node">
<title>N2145923</title>
<ellipse fill="#d3d3d3" stroke="#000000" cx="534.4928" cy="-738" rx="27" ry="18"/>
<text text-anchor="middle" x="534.4928" y="-733.8" font-family="Times,serif" font-size="14.00" fill="#000000">sub</text>
</g>
<!-- N2145922&#45;&gt;N2145923 -->
<g id="edge14" class="edge">
<title>N2145922&#45;&gt;N2145923</title>
<path fill="none" stroke="#000000" d="M614.8716,-796.4574C599.7993,-785.4956 578.3673,-769.9088 561.424,-757.5864"/>
<polygon fill="#000000" stroke="#000000" points="563.1764,-754.5331 553.0304,-751.4819 559.0592,-760.1943 563.1764,-754.5331"/>
</g>
<!-- N2145926 -->
<g id="node18" class="node">
<title>N2145926</title>
<ellipse fill="#d3d3d3" stroke="#000000" cx="633.4928" cy="-738" rx="27" ry="18"/>
<text text-anchor="middle" x="633.4928" y="-733.8" font-family="Times,serif" font-size="14.00" fill="#000000">sub</text>
</g>
<!-- N2145922&#45;&gt;N2145926 -->
<g id="edge17" class="edge">
<title>N2145922&#45;&gt;N2145926</title>
<path fill="none" stroke="#000000" d="M633.4928,-791.8314C633.4928,-784.131 633.4928,-774.9743 633.4928,-766.4166"/>
<polygon fill="#000000" stroke="#000000" points="636.9929,-766.4132 633.4928,-756.4133 629.9929,-766.4133 636.9929,-766.4132"/>
</g>
<!-- N2145924 -->
<g id="node16" class="node">
<title>N2145924</title>
<ellipse fill="#d3d3d3" stroke="#000000" cx="407.4928" cy="-666" rx="54.4855" ry="18"/>
<text text-anchor="middle" x="407.4928" y="-661.8" font-family="Times,serif" font-size="14.00" fill="#000000">0.986672...</text>
</g>
<!-- N2145923&#45;&gt;N2145924 -->
<g id="edge15" class="edge">
<title>N2145923&#45;&gt;N2145924</title>
<path fill="none" stroke="#000000" d="M513.8054,-726.2717C495.0255,-715.6249 466.8943,-699.6765 444.2861,-686.8592"/>
<polygon fill="#000000" stroke="#000000" points="445.7202,-683.6489 435.2948,-681.7618 442.2678,-689.7384 445.7202,-683.6489"/>
</g>
<!-- N2145925 -->
<g id="node17" class="node">
<title>N2145925</title>
<ellipse fill="#d3d3d3" stroke="#000000" cx="534.4928" cy="-666" rx="54.4855" ry="18"/>
<text text-anchor="middle" x="534.4928" y="-661.8" font-family="Times,serif" font-size="14.00" fill="#000000">0.779468...</text>
</g>
<!-- N2145923&#45;&gt;N2145925 -->
<g id="edge16" class="edge">
<title>N2145923&#45;&gt;N2145925</title>
<path fill="none" stroke="#000000" d="M534.4928,-719.8314C534.4928,-712.131 534.4928,-702.9743 534.4928,-694.4166"/>
<polygon fill="#000000" stroke="#000000" points="537.9929,-694.4132 534.4928,-684.4133 530.9929,-694.4133 537.9929,-694.4132"/>
</g>
<!-- N2145927 -->
<g id="node19" class="node">
<title>N2145927</title>
<ellipse fill="#d3d3d3" stroke="#000000" cx="633.4928" cy="-666" rx="27" ry="18"/>
<text text-anchor="middle" x="633.4928" y="-661.8" font-family="Times,serif" font-size="14.00" fill="#000000">mul</text>
</g>
<!-- N2145926&#45;&gt;N2145927 -->
<g id="edge18" class="edge">
<title>N2145926&#45;&gt;N2145927</title>
<path fill="none" stroke="#000000" d="M633.4928,-719.8314C633.4928,-712.131 633.4928,-702.9743 633.4928,-694.4166"/>
<polygon fill="#000000" stroke="#000000" points="636.9929,-694.4132 633.4928,-684.4133 629.9929,-694.4133 636.9929,-694.4132"/>
</g>
<!-- N2145964 -->
<g id="node56" class="node">
<title>N2145964</title>
<ellipse fill="none" stroke="#000000" cx="775.4928" cy="-666" rx="27" ry="18"/>
<text text-anchor="middle" x="775.4928" y="-661.8" font-family="Times,serif" font-size="14.00" fill="#000000">sub</text>
</g>
<!-- N2145926&#45;&gt;N2145964 -->
<g id="edge55" class="edge">
<title>N2145926&#45;&gt;N2145964</title>
<path fill="none" stroke="#000000" d="M655.0595,-727.0647C678.9342,-714.9593 717.6134,-695.3473 744.6778,-681.6245"/>
<polygon fill="#000000" stroke="#000000" points="746.3869,-684.6822 753.7231,-677.0382 743.2212,-678.4389 746.3869,-684.6822"/>
</g>
<!-- N2145928 -->
<g id="node20" class="node">
<title>N2145928</title>
<ellipse fill="#d3d3d3" stroke="#000000" cx="322.4928" cy="-594" rx="27" ry="18"/>
<text text-anchor="middle" x="322.4928" y="-589.8" font-family="Times,serif" font-size="14.00" fill="#000000">add</text>
</g>
<!-- N2145927&#45;&gt;N2145928 -->
<g id="edge19" class="edge">
<title>N2145927&#45;&gt;N2145928</title>
<path fill="none" stroke="#000000" d="M612.5821,-654.3605C607.7337,-651.9977 602.519,-649.7147 597.4928,-648 514.8207,-619.7961 412.8549,-604.5928 359.3156,-598.0266"/>
<polygon fill="#000000" stroke="#000000" points="359.6181,-594.5379 349.2736,-596.8272 358.7879,-601.4885 359.6181,-594.5379"/>
</g>
<!-- N2145957 -->
<g id="node49" class="node">
<title>N2145957</title>
<ellipse fill="#d3d3d3" stroke="#000000" cx="633.4928" cy="-594" rx="27" ry="18"/>
<text text-anchor="middle" x="633.4928" y="-589.8" font-family="Times,serif" font-size="14.00" fill="#000000">sub</text>
</g>
<!-- N2145927&#45;&gt;N2145957 -->
<g id="edge48" class="edge">
<title>N2145927&#45;&gt;N2145957</title>
<path fill="none" stroke="#000000" d="M633.4928,-647.8314C633.4928,-640.131 633.4928,-630.9743 633.4928,-622.4166"/>
<polygon fill="#000000" stroke="#000000" points="636.9929,-622.4132 633.4928,-612.4133 629.9929,-622.4133 636.9929,-622.4132"/>
</g>
<!-- N2145929 -->
<g id="node21" class="node">
<title>N2145929</title>
<ellipse fill="#d3d3d3" stroke="#000000" cx="181.4928" cy="-522" rx="27" ry="18"/>
<text text-anchor="middle" x="181.4928" y="-517.8" font-family="Times,serif" font-size="14.00" fill="#000000">sub</text>
</g>
<!-- N2145928&#45;&gt;N2145929 -->
<g id="edge20" class="edge">
<title>N2145928&#45;&gt;N2145929</title>
<path fill="none" stroke="#000000" d="M300.7705,-582.9078C276.9995,-570.7694 238.7167,-551.2207 211.9522,-537.5538"/>
<polygon fill="#000000" stroke="#000000" points="213.5061,-534.4174 203.0083,-532.9867 210.3226,-540.6516 213.5061,-534.4174"/>
</g>
<!-- N2145932 -->
<g id="node24" class="node">
<title>N2145932</title>
<ellipse fill="#d3d3d3" stroke="#000000" cx="322.4928" cy="-522" rx="27" ry="18"/>
<text text-anchor="middle" x="322.4928" y="-517.8" font-family="Times,serif" font-size="14.00" fill="#000000">sub</text>
</g>
<!-- N2145928&#45;&gt;N2145932 -->
<g id="edge23" class="edge">
<title>N2145928&#45;&gt;N2145932</title>
<path fill="none" stroke="#000000" d="M322.4928,-575.8314C322.4928,-568.131 322.4928,-558.9743 322.4928,-550.4166"/>
<polygon fill="#000000" stroke="#000000" points="325.9929,-550.4132 322.4928,-540.4133 318.9929,-550.4133 325.9929,-550.4132"/>
</g>
<!-- N2145930 -->
<g id="node22" class="node">
<title>N2145930</title>
<ellipse fill="#d3d3d3" stroke="#000000" cx="54.4928" cy="-450" rx="54.4855" ry="18"/>
<text text-anchor="middle" x="54.4928" y="-445.8" font-family="Times,serif" font-size="14.00" fill="#000000">0.986672...</text>
</g>
<!-- N2145929&#45;&gt;N2145930 -->
<g id="edge21" class="edge">
<title>N2145929&#45;&gt;N2145930</title>
<path fill="none" stroke="#000000" d="M160.8054,-510.2717C142.0255,-499.6249 113.8943,-483.6765 91.2861,-470.8592"/>
<polygon fill="#000000" stroke="#000000" points="92.7202,-467.6489 82.2948,-465.7618 89.2678,-473.7384 92.7202,-467.6489"/>
</g>
<!-- N2145931 -->
<g id="node23" class="node">
<title>N2145931</title>
<ellipse fill="#d3d3d3" stroke="#000000" cx="181.4928" cy="-450" rx="54.4855" ry="18"/>
<text text-anchor="middle" x="181.4928" y="-445.8" font-family="Times,serif" font-size="14.00" fill="#000000">0.779468...</text>
</g>
<!-- N2145929&#45;&gt;N2145931 -->
<g id="edge22" class="edge">
<title>N2145929&#45;&gt;N2145931</title>
<path fill="none" stroke="#000000" d="M181.4928,-503.8314C181.4928,-496.131 181.4928,-486.9743 181.4928,-478.4166"/>
<polygon fill="#000000" stroke="#000000" points="184.9929,-478.4132 181.4928,-468.4133 177.9929,-478.4133 184.9929,-478.4132"/>
</g>
<!-- N2145933 -->
<g id="node25" class="node">
<title>N2145933</title>
<ellipse fill="#d3d3d3" stroke="#000000" cx="280.4928" cy="-450" rx="27" ry="18"/>
<text text-anchor="middle" x="280.4928" y="-445.8" font-family="Times,serif" font-size="14.00" fill="#000000">mul</text>
</g>
<!-- N2145932&#45;&gt;N2145933 -->
<g id="edge24" class="edge">
<title>N2145932&#45;&gt;N2145933</title>
<path fill="none" stroke="#000000" d="M312.5393,-504.937C307.4657,-496.2393 301.1894,-485.4799 295.5397,-475.7948"/>
<polygon fill="#000000" stroke="#000000" points="298.4367,-473.8148 290.3747,-466.9405 292.3903,-477.3419 298.4367,-473.8148"/>
</g>
<!-- N2145938 -->
<g id="node30" class="node">
<title>N2145938</title>
<ellipse fill="#d3d3d3" stroke="#000000" cx="365.4928" cy="-450" rx="27" ry="18"/>
<text text-anchor="middle" x="365.4928" y="-445.8" font-family="Times,serif" font-size="14.00" fill="#000000">sub</text>
</g>
<!-- N2145932&#45;&gt;N2145938 -->
<g id="edge29" class="edge">
<title>N2145932&#45;&gt;N2145938</title>
<path fill="none" stroke="#000000" d="M332.6832,-504.937C337.8776,-496.2393 344.3034,-485.4799 350.0875,-475.7948"/>
<polygon fill="#000000" stroke="#000000" points="353.253,-477.3206 355.3755,-466.9405 347.2431,-473.7314 353.253,-477.3206"/>
</g>
<!-- N2145934 -->
<g id="node26" class="node">
<title>N2145934</title>
<ellipse fill="#d3d3d3" stroke="#000000" cx="177.4928" cy="-378" rx="54.4855" ry="18"/>
<text text-anchor="middle" x="177.4928" y="-373.8" font-family="Times,serif" font-size="14.00" fill="#000000">0.090042...</text>
</g>
<!-- N2145933&#45;&gt;N2145934 -->
<g id="edge25" class="edge">
<title>N2145933&#45;&gt;N2145934</title>
<path fill="none" stroke="#000000" d="M261.601,-436.7941C247.0609,-426.6302 226.6299,-412.3483 209.5457,-400.4059"/>
<polygon fill="#000000" stroke="#000000" points="211.1671,-397.269 200.9657,-394.4083 207.1565,-403.0062 211.1671,-397.269"/>
</g>
<!-- N2145935 -->
<g id="node27" class="node">
<title>N2145935</title>
<ellipse fill="#d3d3d3" stroke="#000000" cx="276.4928" cy="-378" rx="27" ry="18"/>
<text text-anchor="middle" x="276.4928" y="-373.8" font-family="Times,serif" font-size="14.00" fill="#000000">mul</text>
</g>
<!-- N2145933&#45;&gt;N2145935 -->
<g id="edge26" class="edge">
<title>N2145933&#45;&gt;N2145935</title>
<path fill="none" stroke="#000000" d="M279.4834,-431.8314C279.0556,-424.131 278.5469,-414.9743 278.0715,-406.4166"/>
<polygon fill="#000000" stroke="#000000" points="281.5651,-406.2037 277.5157,-396.4133 274.5759,-406.592 281.5651,-406.2037"/>
</g>
<!-- N2145936 -->
<g id="node28" class="node">
<title>N2145936</title>
<ellipse fill="#d3d3d3" stroke="#000000" cx="197.4928" cy="-306" rx="27" ry="18"/>
<text text-anchor="middle" x="197.4928" y="-301.8" font-family="Times,serif" font-size="14.00" fill="#000000">x</text>
</g>
<!-- N2145935&#45;&gt;N2145936 -->
<g id="edge27" class="edge">
<title>N2145935&#45;&gt;N2145936</title>
<path fill="none" stroke="#000000" d="M260.5059,-363.4297C249.1555,-353.0851 233.7325,-339.0286 220.9861,-327.4116"/>
<polygon fill="#000000" stroke="#000000" points="223.2044,-324.6978 213.4558,-320.5486 218.4891,-329.8715 223.2044,-324.6978"/>
</g>
<!-- N2145937 -->
<g id="node29" class="node">
<title>N2145937</title>
<ellipse fill="#d3d3d3" stroke="#000000" cx="269.4928" cy="-306" rx="27" ry="18"/>
<text text-anchor="middle" x="269.4928" y="-301.8" font-family="Times,serif" font-size="14.00" fill="#000000">x</text>
</g>
<!-- N2145935&#45;&gt;N2145937 -->
<g id="edge28" class="edge">
<title>N2145935&#45;&gt;N2145937</title>
<path fill="none" stroke="#000000" d="M274.7264,-359.8314C273.9777,-352.131 273.0875,-342.9743 272.2555,-334.4166"/>
<polygon fill="#000000" stroke="#000000" points="275.7343,-334.0276 271.2829,-324.4133 268.7671,-334.7051 275.7343,-334.0276"/>
</g>
<!-- N2145939 -->
<g id="node31" class="node">
<title>N2145939</title>
<ellipse fill="#d3d3d3" stroke="#000000" cx="368.4928" cy="-378" rx="27" ry="18"/>
<text text-anchor="middle" x="368.4928" y="-373.8" font-family="Times,serif" font-size="14.00" fill="#000000">add</text>
</g>
<!-- N2145938&#45;&gt;N2145939 -->
<g id="edge30" class="edge">
<title>N2145938&#45;&gt;N2145939</title>
<path fill="none" stroke="#000000" d="M366.2498,-431.8314C366.5706,-424.131 366.9522,-414.9743 367.3087,-406.4166"/>
<polygon fill="#000000" stroke="#000000" points="370.8061,-406.5503 367.7255,-396.4133 363.8122,-406.2589 370.8061,-406.5503"/>
</g>
<!-- N2145942 -->
<g id="node34" class="node">
<title>N2145942</title>
<ellipse fill="#d3d3d3" stroke="#000000" cx="594.4928" cy="-378" rx="27" ry="18"/>
<text text-anchor="middle" x="594.4928" y="-373.8" font-family="Times,serif" font-size="14.00" fill="#000000">mul</text>
</g>
<!-- N2145938&#45;&gt;N2145942 -->
<g id="edge33" class="edge">
<title>N2145938&#45;&gt;N2145942</title>
<path fill="none" stroke="#000000" d="M386.5096,-438.6526C391.3524,-436.2747 396.5381,-433.9117 401.4928,-432 454.9811,-411.3626 519.5715,-394.9202 558.8125,-385.8224"/>
<polygon fill="#000000" stroke="#000000" points="559.731,-389.2028 568.6992,-383.5616 558.1705,-382.3789 559.731,-389.2028"/>
</g>
<!-- N2145940 -->
<g id="node32" class="node">
<title>N2145940</title>
<ellipse fill="#d3d3d3" stroke="#000000" cx="368.4928" cy="-306" rx="54.4855" ry="18"/>
<text text-anchor="middle" x="368.4928" y="-301.8" font-family="Times,serif" font-size="14.00" fill="#000000">0.078646...</text>
</g>
<!-- N2145939&#45;&gt;N2145940 -->
<g id="edge31" class="edge">
<title>N2145939&#45;&gt;N2145940</title>
<path fill="none" stroke="#000000" d="M368.4928,-359.8314C368.4928,-352.131 368.4928,-342.9743 368.4928,-334.4166"/>
<polygon fill="#000000" stroke="#000000" points="371.9929,-334.4132 368.4928,-324.4133 364.9929,-334.4133 371.9929,-334.4132"/>
</g>
<!-- N2145941 -->
<g id="node33" class="node">
<title>N2145941</title>
<ellipse fill="#d3d3d3" stroke="#000000" cx="495.4928" cy="-306" rx="54.4855" ry="18"/>
<text text-anchor="middle" x="495.4928" y="-301.8" font-family="Times,serif" font-size="14.00" fill="#000000">0.768931...</text>
</g>
<!-- N2145939&#45;&gt;N2145941 -->
<g id="edge32" class="edge">
<title>N2145939&#45;&gt;N2145941</title>
<path fill="none" stroke="#000000" d="M389.1802,-366.2717C407.96,-355.6249 436.0912,-339.6765 458.6994,-326.8592"/>
<polygon fill="#000000" stroke="#000000" points="460.7177,-329.7384 467.6908,-321.7618 457.2653,-323.6489 460.7177,-329.7384"/>
</g>
<!-- N2145943 -->
<g id="node35" class="node">
<title>N2145943</title>
<ellipse fill="#d3d3d3" stroke="#000000" cx="594.4928" cy="-306" rx="27" ry="18"/>
<text text-anchor="middle" x="594.4928" y="-301.8" font-family="Times,serif" font-size="14.00" fill="#000000">add</text>
</g>
<!-- N2145942&#45;&gt;N2145943 -->
<g id="edge34" class="edge">
<title>N2145942&#45;&gt;N2145943</title>
<path fill="none" stroke="#000000" d="M594.4928,-359.8314C594.4928,-352.131 594.4928,-342.9743 594.4928,-334.4166"/>
<polygon fill="#000000" stroke="#000000" points="597.9929,-334.4132 594.4928,-324.4133 590.9929,-334.4133 597.9929,-334.4132"/>
</g>
<!-- N2145946 -->
<g id="node38" class="node">
<title>N2145946</title>
<ellipse fill="#d3d3d3" stroke="#000000" cx="693.4928" cy="-306" rx="27" ry="18"/>
<text text-anchor="middle" x="693.4928" y="-301.8" font-family="Times,serif" font-size="14.00" fill="#000000">mul</text>
</g>
<!-- N2145942&#45;&gt;N2145946 -->
<g id="edge37" class="edge">
<title>N2145942&#45;&gt;N2145946</title>
<path fill="none" stroke="#000000" d="M613.1139,-364.4574C628.1862,-353.4956 649.6182,-337.9088 666.5615,-325.5864"/>
<polygon fill="#000000" stroke="#000000" points="668.9263,-328.1943 674.9551,-319.4819 664.8091,-322.5331 668.9263,-328.1943"/>
</g>
<!-- N2145944 -->
<g id="node36" class="node">
<title>N2145944</title>
<ellipse fill="#d3d3d3" stroke="#000000" cx="467.4928" cy="-234" rx="54.4855" ry="18"/>
<text text-anchor="middle" x="467.4928" y="-229.8" font-family="Times,serif" font-size="14.00" fill="#000000">0.078646...</text>
</g>
<!-- N2145943&#45;&gt;N2145944 -->
<g id="edge35" class="edge">
<title>N2145943&#45;&gt;N2145944</title>
<path fill="none" stroke="#000000" d="M573.8054,-294.2717C555.0255,-283.6249 526.8943,-267.6765 504.2861,-254.8592"/>
<polygon fill="#000000" stroke="#000000" points="505.7202,-251.6489 495.2948,-249.7618 502.2678,-257.7384 505.7202,-251.6489"/>
</g>
<!-- N2145945 -->
<g id="node37" class="node">
<title>N2145945</title>
<ellipse fill="#d3d3d3" stroke="#000000" cx="594.4928" cy="-234" rx="54.4855" ry="18"/>
<text text-anchor="middle" x="594.4928" y="-229.8" font-family="Times,serif" font-size="14.00" fill="#000000">0.768931...</text>
</g>
<!-- N2145943&#45;&gt;N2145945 -->
<g id="edge36" class="edge">
<title>N2145943&#45;&gt;N2145945</title>
<path fill="none" stroke="#000000" d="M594.4928,-287.8314C594.4928,-280.131 594.4928,-270.9743 594.4928,-262.4166"/>
<polygon fill="#000000" stroke="#000000" points="597.9929,-262.4132 594.4928,-252.4133 590.9929,-262.4133 597.9929,-262.4132"/>
</g>
<!-- N2145947 -->
<g id="node39" class="node">
<title>N2145947</title>
<ellipse fill="#d3d3d3" stroke="#000000" cx="693.4928" cy="-234" rx="27" ry="18"/>
<text text-anchor="middle" x="693.4928" y="-229.8" font-family="Times,serif" font-size="14.00" fill="#000000">sub</text>
</g>
<!-- N2145946&#45;&gt;N2145947 -->
<g id="edge38" class="edge">
<title>N2145946&#45;&gt;N2145947</title>
<path fill="none" stroke="#000000" d="M693.4928,-287.8314C693.4928,-280.131 693.4928,-270.9743 693.4928,-262.4166"/>
<polygon fill="#000000" stroke="#000000" points="696.9929,-262.4132 693.4928,-252.4133 689.9929,-262.4133 696.9929,-262.4132"/>
</g>
<!-- N2145950 -->
<g id="node42" class="node">
<title>N2145950</title>
<ellipse fill="#d3d3d3" stroke="#000000" cx="792.4928" cy="-234" rx="27" ry="18"/>
<text text-anchor="middle" x="792.4928" y="-229.8" font-family="Times,serif" font-size="14.00" fill="#000000">mul</text>
</g>
<!-- N2145946&#45;&gt;N2145950 -->
<g id="edge41" class="edge">
<title>N2145946&#45;&gt;N2145950</title>
<path fill="none" stroke="#000000" d="M712.1139,-292.4574C727.1862,-281.4956 748.6182,-265.9088 765.5615,-253.5864"/>
<polygon fill="#000000" stroke="#000000" points="767.9263,-256.1943 773.9551,-247.4819 763.8091,-250.5331 767.9263,-256.1943"/>
</g>
<!-- N2145948 -->
<g id="node40" class="node">
<title>N2145948</title>
<ellipse fill="#d3d3d3" stroke="#000000" cx="566.4928" cy="-162" rx="54.4855" ry="18"/>
<text text-anchor="middle" x="566.4928" y="-157.8" font-family="Times,serif" font-size="14.00" fill="#000000">0.986672...</text>
</g>
<!-- N2145947&#45;&gt;N2145948 -->
<g id="edge39" class="edge">
<title>N2145947&#45;&gt;N2145948</title>
<path fill="none" stroke="#000000" d="M672.8054,-222.2717C654.0255,-211.6249 625.8943,-195.6765 603.2861,-182.8592"/>
<polygon fill="#000000" stroke="#000000" points="604.7202,-179.6489 594.2948,-177.7618 601.2678,-185.7384 604.7202,-179.6489"/>
</g>
<!-- N2145949 -->
<g id="node41" class="node">
<title>N2145949</title>
<ellipse fill="#d3d3d3" stroke="#000000" cx="693.4928" cy="-162" rx="54.4855" ry="18"/>
<text text-anchor="middle" x="693.4928" y="-157.8" font-family="Times,serif" font-size="14.00" fill="#000000">0.779468...</text>
</g>
<!-- N2145947&#45;&gt;N2145949 -->
<g id="edge40" class="edge">
<title>N2145947&#45;&gt;N2145949</title>
<path fill="none" stroke="#000000" d="M693.4928,-215.8314C693.4928,-208.131 693.4928,-198.9743 693.4928,-190.4166"/>
<polygon fill="#000000" stroke="#000000" points="696.9929,-190.4132 693.4928,-180.4133 689.9929,-190.4133 696.9929,-190.4132"/>
</g>
<!-- N2145951 -->
<g id="node43" class="node">
<title>N2145951</title>
<ellipse fill="#d3d3d3" stroke="#000000" cx="792.4928" cy="-162" rx="27" ry="18"/>
<text text-anchor="middle" x="792.4928" y="-157.8" font-family="Times,serif" font-size="14.00" fill="#000000">mul</text>
</g>
<!-- N2145950&#45;&gt;N2145951 -->
<g id="edge42" class="edge">
<title>N2145950&#45;&gt;N2145951</title>
<path fill="none" stroke="#000000" d="M792.4928,-215.8314C792.4928,-208.131 792.4928,-198.9743 792.4928,-190.4166"/>
<polygon fill="#000000" stroke="#000000" points="795.9929,-190.4132 792.4928,-180.4133 788.9929,-190.4133 795.9929,-190.4132"/>
</g>
<!-- N2145956 -->
<g id="node48" class="node">
<title>N2145956</title>
<ellipse fill="#d3d3d3" stroke="#000000" cx="864.4928" cy="-162" rx="27" ry="18"/>
<text text-anchor="middle" x="864.4928" y="-157.8" font-family="Times,serif" font-size="14.00" fill="#000000">x</text>
</g>
<!-- N2145950&#45;&gt;N2145956 -->
<g id="edge47" class="edge">
<title>N2145950&#45;&gt;N2145956</title>
<path fill="none" stroke="#000000" d="M807.7621,-218.7307C817.6898,-208.803 830.8081,-195.6847 841.9291,-184.5637"/>
<polygon fill="#000000" stroke="#000000" points="844.6492,-186.7933 849.2454,-177.2473 839.6994,-181.8436 844.6492,-186.7933"/>
</g>
<!-- N2145952 -->
<g id="node44" class="node">
<title>N2145952</title>
<ellipse fill="#d3d3d3" stroke="#000000" cx="756.4928" cy="-90" rx="27" ry="18"/>
<text text-anchor="middle" x="756.4928" y="-85.8" font-family="Times,serif" font-size="14.00" fill="#000000">mul</text>
</g>
<!-- N2145951&#45;&gt;N2145952 -->
<g id="edge43" class="edge">
<title>N2145951&#45;&gt;N2145952</title>
<path fill="none" stroke="#000000" d="M783.7782,-144.5708C779.5331,-136.0807 774.3392,-125.6929 769.6265,-116.2674"/>
<polygon fill="#000000" stroke="#000000" points="772.7298,-114.6477 765.1271,-107.2687 766.4688,-117.7782 772.7298,-114.6477"/>
</g>
<!-- N2145955 -->
<g id="node47" class="node">
<title>N2145955</title>
<ellipse fill="#d3d3d3" stroke="#000000" cx="828.4928" cy="-90" rx="27" ry="18"/>
<text text-anchor="middle" x="828.4928" y="-85.8" font-family="Times,serif" font-size="14.00" fill="#000000">x</text>
</g>
<!-- N2145951&#45;&gt;N2145955 -->
<g id="edge46" class="edge">
<title>N2145951&#45;&gt;N2145955</title>
<path fill="none" stroke="#000000" d="M801.2074,-144.5708C805.4524,-136.0807 810.6463,-125.6929 815.3591,-116.2674"/>
<polygon fill="#000000" stroke="#000000" points="818.5167,-117.7782 819.8584,-107.2687 812.2557,-114.6477 818.5167,-117.7782"/>
</g>
<!-- N2145953 -->
<g id="node45" class="node">
<title>N2145953</title>
<ellipse fill="#d3d3d3" stroke="#000000" cx="693.4928" cy="-18" rx="54.4855" ry="18"/>
<text text-anchor="middle" x="693.4928" y="-13.8" font-family="Times,serif" font-size="14.00" fill="#000000">0.414917...</text>
</g>
<!-- N2145952&#45;&gt;N2145953 -->
<g id="edge44" class="edge">
<title>N2145952&#45;&gt;N2145953</title>
<path fill="none" stroke="#000000" d="M742.8227,-74.3771C734.8057,-65.2148 724.4912,-53.4268 715.3682,-43.0005"/>
<polygon fill="#000000" stroke="#000000" points="717.9009,-40.5799 708.6818,-35.3589 712.6329,-45.1895 717.9009,-40.5799"/>
</g>
<!-- N2145954 -->
<g id="node46" class="node">
<title>N2145954</title>
<ellipse fill="#d3d3d3" stroke="#000000" cx="820.4928" cy="-18" rx="54.4855" ry="18"/>
<text text-anchor="middle" x="820.4928" y="-13.8" font-family="Times,serif" font-size="14.00" fill="#000000">0.190620...</text>
</g>
<!-- N2145952&#45;&gt;N2145954 -->
<g id="edge45" class="edge">
<title>N2145952&#45;&gt;N2145954</title>
<path fill="none" stroke="#000000" d="M770.3798,-74.3771C778.5241,-65.2148 789.0023,-53.4268 798.2701,-43.0005"/>
<polygon fill="#000000" stroke="#000000" points="801.0349,-45.1583 805.0626,-35.3589 795.803,-40.5077 801.0349,-45.1583"/>
</g>
<!-- N2145958 -->
<g id="node50" class="node">
<title>N2145958</title>
<ellipse fill="#d3d3d3" stroke="#000000" cx="591.4928" cy="-522" rx="27" ry="18"/>
<text text-anchor="middle" x="591.4928" y="-517.8" font-family="Times,serif" font-size="14.00" fill="#000000">add</text>
</g>
<!-- N2145957&#45;&gt;N2145958 -->
<g id="edge49" class="edge">
<title>N2145957&#45;&gt;N2145958</title>
<path fill="none" stroke="#000000" d="M623.5393,-576.937C618.4657,-568.2393 612.1894,-557.4799 606.5397,-547.7948"/>
<polygon fill="#000000" stroke="#000000" points="609.4367,-545.8148 601.3747,-538.9405 603.3903,-549.3419 609.4367,-545.8148"/>
</g>
<!-- N2145961 -->
<g id="node53" class="node">
<title>N2145961</title>
<ellipse fill="#d3d3d3" stroke="#000000" cx="676.4928" cy="-522" rx="27" ry="18"/>
<text text-anchor="middle" x="676.4928" y="-517.8" font-family="Times,serif" font-size="14.00" fill="#000000">mul</text>
</g>
<!-- N2145957&#45;&gt;N2145961 -->
<g id="edge52" class="edge">
<title>N2145957&#45;&gt;N2145961</title>
<path fill="none" stroke="#000000" d="M643.6832,-576.937C648.8776,-568.2393 655.3034,-557.4799 661.0875,-547.7948"/>
<polygon fill="#000000" stroke="#000000" points="664.253,-549.3206 666.3755,-538.9405 658.2431,-545.7314 664.253,-549.3206"/>
</g>
<!-- N2145959 -->
<g id="node51" class="node">
<title>N2145959</title>
<ellipse fill="#d3d3d3" stroke="#000000" cx="464.4928" cy="-450" rx="54.4855" ry="18"/>
<text text-anchor="middle" x="464.4928" y="-445.8" font-family="Times,serif" font-size="14.00" fill="#000000">0.736641...</text>
</g>
<!-- N2145958&#45;&gt;N2145959 -->
<g id="edge50" class="edge">
<title>N2145958&#45;&gt;N2145959</title>
<path fill="none" stroke="#000000" d="M570.8054,-510.2717C552.0255,-499.6249 523.8943,-483.6765 501.2861,-470.8592"/>
<polygon fill="#000000" stroke="#000000" points="502.7202,-467.6489 492.2948,-465.7618 499.2678,-473.7384 502.7202,-467.6489"/>
</g>
<!-- N2145960 -->
<g id="node52" class="node">
<title>N2145960</title>
<ellipse fill="#d3d3d3" stroke="#000000" cx="591.4928" cy="-450" rx="54.4855" ry="18"/>
<text text-anchor="middle" x="591.4928" y="-445.8" font-family="Times,serif" font-size="14.00" fill="#000000">0.609743...</text>
</g>
<!-- N2145958&#45;&gt;N2145960 -->
<g id="edge51" class="edge">
<title>N2145958&#45;&gt;N2145960</title>
<path fill="none" stroke="#000000" d="M591.4928,-503.8314C591.4928,-496.131 591.4928,-486.9743 591.4928,-478.4166"/>
<polygon fill="#000000" stroke="#000000" points="594.9929,-478.4132 591.4928,-468.4133 587.9929,-478.4133 594.9929,-478.4132"/>
</g>
<!-- N2145962 -->
<g id="node54" class="node">
<title>N2145962</title>
<ellipse fill="#d3d3d3" stroke="#000000" cx="690.4928" cy="-450" rx="27" ry="18"/>
<text text-anchor="middle" x="690.4928" y="-445.8" font-family="Times,serif" font-size="14.00" fill="#000000">x</text>
</g>
<!-- N2145961&#45;&gt;N2145962 -->
<g id="edge53" class="edge">
<title>N2145961&#45;&gt;N2145962</title>
<path fill="none" stroke="#000000" d="M680.0255,-503.8314C681.5626,-495.9266 683.398,-486.4872 685.0995,-477.7365"/>
<polygon fill="#000000" stroke="#000000" points="688.5365,-478.3976 687.0096,-467.9134 681.6652,-477.0615 688.5365,-478.3976"/>
</g>
<!-- N2145963 -->
<g id="node55" class="node">
<title>N2145963</title>
<ellipse fill="#d3d3d3" stroke="#000000" cx="762.4928" cy="-450" rx="27" ry="18"/>
<text text-anchor="middle" x="762.4928" y="-445.8" font-family="Times,serif" font-size="14.00" fill="#000000">x</text>
</g>
<!-- N2145961&#45;&gt;N2145963 -->
<g id="edge54" class="edge">
<title>N2145961&#45;&gt;N2145963</title>
<path fill="none" stroke="#000000" d="M693.4836,-507.7751C706.087,-497.2234 723.4655,-482.674 737.6295,-470.8157"/>
<polygon fill="#000000" stroke="#000000" points="740.1164,-473.2984 745.5372,-464.1953 735.6228,-467.9311 740.1164,-473.2984"/>
</g>
<!-- N2145965 -->
<g id="node57" class="node">
<title>N2145965</title>
<ellipse fill="#d3d3d3" stroke="#000000" cx="775.4928" cy="-594" rx="27" ry="18"/>
<text text-anchor="middle" x="775.4928" y="-589.8" font-family="Times,serif" font-size="14.00" fill="#000000">add</text>
</g>
<!-- N2145964&#45;&gt;N2145965 -->
<g id="edge56" class="edge">
<title>N2145964&#45;&gt;N2145965</title>
<path fill="none" stroke="#000000" d="M775.4928,-647.8314C775.4928,-640.131 775.4928,-630.9743 775.4928,-622.4166"/>
<polygon fill="#000000" stroke="#000000" points="778.9929,-622.4132 775.4928,-612.4133 771.9929,-622.4133 778.9929,-622.4132"/>
</g>
<!-- N2146272 -->
<g id="node60" class="node">
<title>N2146272</title>
<ellipse fill="none" stroke="#000000" stroke-dasharray="5,2" cx="874.4928" cy="-594" rx="54.4855" ry="18"/>
<text text-anchor="middle" x="874.4928" y="-589.8" font-family="Times,serif" font-size="14.00" fill="#000000">0.078646...</text>
</g>
<!-- N2145964&#45;&gt;N2146272 -->
<g id="edge59" class="edge">
<title>N2145964&#45;&gt;N2146272</title>
<path fill="none" stroke="#000000" d="M794.1139,-652.4574C808.0415,-642.3282 827.3994,-628.2497 843.6281,-616.447"/>
<polygon fill="#000000" stroke="#000000" points="845.7553,-619.2278 851.784,-610.5154 841.638,-613.5666 845.7553,-619.2278"/>
</g>
<!-- N2145966 -->
<g id="node58" class="node">
<title>N2145966</title>
<ellipse fill="#d3d3d3" stroke="#000000" cx="775.4928" cy="-522" rx="54.4855" ry="18"/>
<text text-anchor="middle" x="775.4928" y="-517.8" font-family="Times,serif" font-size="14.00" fill="#000000">0.078646...</text>
</g>
<!-- N2145965&#45;&gt;N2145966 -->
<g id="edge57" class="edge">
<title>N2145965&#45;&gt;N2145966</title>
<path fill="none" stroke="#000000" d="M775.4928,-575.8314C775.4928,-568.131 775.4928,-558.9743 775.4928,-550.4166"/>
<polygon fill="#000000" stroke="#000000" points="778.9929,-550.4132 775.4928,-540.4133 771.9929,-550.4133 778.9929,-550.4132"/>
</g>
<!-- N2145967 -->
<g id="node59" class="node">
<title>N2145967</title>
<ellipse fill="#d3d3d3" stroke="#000000" cx="902.4928" cy="-522" rx="54.4855" ry="18"/>
<text text-anchor="middle" x="902.4928" y="-517.8" font-family="Times,serif" font-size="14.00" fill="#000000">0.768931...</text>
</g>
<!-- N2145965&#45;&gt;N2145967 -->
<g id="edge58" class="edge">
<title>N2145965&#45;&gt;N2145967</title>
<path fill="none" stroke="#000000" d="M796.1802,-582.2717C814.96,-571.6249 843.0912,-555.6765 865.6994,-542.8592"/>
<polygon fill="#000000" stroke="#000000" points="867.7177,-545.7384 874.6908,-537.7618 864.2653,-539.6489 867.7177,-545.7384"/>
</g>
<!-- N2146122 -->
<g id="node62" class="node">
<title>N2146122</title>
<ellipse fill="#d3d3d3" stroke="#000000" cx="732.4928" cy="-738" rx="54.4855" ry="18"/>
<text text-anchor="middle" x="732.4928" y="-733.8" font-family="Times,serif" font-size="14.00" fill="#000000">0.986672...</text>
</g>
<!-- N2146121&#45;&gt;N2146122 -->
<g id="edge61" class="edge">
<title>N2146121&#45;&gt;N2146122</title>
<path fill="none" stroke="#000000" d="M732.4928,-791.8314C732.4928,-784.131 732.4928,-774.9743 732.4928,-766.4166"/>
<polygon fill="#000000" stroke="#000000" points="735.9929,-766.4132 732.4928,-756.4133 728.9929,-766.4133 735.9929,-766.4132"/>
</g>
<!-- N2146123 -->
<g id="node63" class="node">
<title>N2146123</title>
<ellipse fill="#d3d3d3" stroke="#000000" cx="859.4928" cy="-738" rx="54.4855" ry="18"/>
<text text-anchor="middle" x="859.4928" y="-733.8" font-family="Times,serif" font-size="14.00" fill="#000000">0.779468...</text>
</g>
<!-- N2146121&#45;&gt;N2146123 -->
<g id="edge62" class="edge">
<title>N2146121&#45;&gt;N2146123</title>
<path fill="none" stroke="#000000" d="M753.1802,-798.2717C771.96,-787.6249 800.0912,-771.6765 822.6994,-758.8592"/>
<polygon fill="#000000" stroke="#000000" points="824.7177,-761.7384 831.6908,-753.7618 821.2653,-755.6489 824.7177,-761.7384"/>
</g>
</g>
</svg>
