<?xml version="1.0" encoding="UTF-8" standalone="no"?>
<!DOCTYPE svg PUBLIC "-//W3C//DTD SVG 1.1//EN"
 "http://www.w3.org/Graphics/SVG/1.1/DTD/svg11.dtd">
<!-- Generated by graphviz version 2.40.1 (20161225.0304)
 -->
<!-- Title: G9050 Pages: 1 -->
<svg width="1434pt" height="548pt"
 viewBox="0.00 0.00 1434.01 548.00" xmlns="http://www.w3.org/2000/svg" xmlns:xlink="http://www.w3.org/1999/xlink">
<g id="graph0" class="graph" transform="scale(1 1) rotate(0) translate(4 544)">
<title>G9050</title>
<polygon fill="#ffffff" stroke="transparent" points="-4,4 -4,-544 1430.0147,-544 1430.0147,4 -4,4"/>
<!-- N9050 -->
<g id="node1" class="node">
<title>N9050</title>
<ellipse fill="#d3d3d3" stroke="#000000" cx="720.0073" cy="-522" rx="44.629" ry="18"/>
<text text-anchor="middle" x="720.0073" y="-517.8" font-family="Times,serif" font-size="14.00" fill="#000000">N9050...</text>
</g>
<!-- N9051 -->
<g id="node2" class="node">
<title>N9051</title>
<ellipse fill="#d3d3d3" stroke="#000000" cx="720.0073" cy="-450" rx="27" ry="18"/>
<text text-anchor="middle" x="720.0073" y="-445.8" font-family="Times,serif" font-size="14.00" fill="#000000">mul</text>
</g>
<!-- N9050&#45;&gt;N9051 -->
<g id="edge1" class="edge">
<title>N9050&#45;&gt;N9051</title>
<path fill="none" stroke="#000000" d="M720.0073,-503.8314C720.0073,-496.131 720.0073,-486.9743 720.0073,-478.4166"/>
<polygon fill="#000000" stroke="#000000" points="723.5074,-478.4132 720.0073,-468.4133 716.5074,-478.4133 723.5074,-478.4132"/>
</g>
<!-- N9052 -->
<g id="node3" class="node">
<title>N9052</title>
<ellipse fill="#d3d3d3" stroke="#000000" cx="513.0073" cy="-378" rx="27" ry="18"/>
<text text-anchor="middle" x="513.0073" y="-373.8" font-family="Times,serif" font-size="14.00" fill="#000000">add</text>
</g>
<!-- N9051&#45;&gt;N9052 -->
<g id="edge2" class="edge">
<title>N9051&#45;&gt;N9052</title>
<path fill="none" stroke="#000000" d="M695.8567,-441.5998C658.9303,-428.7558 588.3265,-404.198 546.4815,-389.6432"/>
<polygon fill="#000000" stroke="#000000" points="547.599,-386.3263 537.0042,-386.3467 545.2993,-392.9377 547.599,-386.3263"/>
</g>
<!-- N9135 -->
<g id="node32" class="node">
<title>N9135</title>
<ellipse fill="#d3d3d3" stroke="#000000" cx="953.0073" cy="-378" rx="27" ry="18"/>
<text text-anchor="middle" x="953.0073" y="-373.8" font-family="Times,serif" font-size="14.00" fill="#000000">add</text>
</g>
<!-- N9051&#45;&gt;N9135 -->
<g id="edge31" class="edge">
<title>N9051&#45;&gt;N9135</title>
<path fill="none" stroke="#000000" d="M744.9424,-442.2947C786.7227,-429.3841 870.9477,-403.3575 918.4253,-388.6863"/>
<polygon fill="#000000" stroke="#000000" points="919.7307,-391.9463 928.2515,-385.6499 917.6639,-385.2583 919.7307,-391.9463"/>
</g>
<!-- N9053 -->
<g id="node4" class="node">
<title>N9053</title>
<ellipse fill="#d3d3d3" stroke="#000000" cx="391.0073" cy="-306" rx="27" ry="18"/>
<text text-anchor="middle" x="391.0073" y="-301.8" font-family="Times,serif" font-size="14.00" fill="#000000">SIN</text>
</g>
<!-- N9052&#45;&gt;N9053 -->
<g id="edge3" class="edge">
<title>N9052&#45;&gt;N9053</title>
<path fill="none" stroke="#000000" d="M492.5873,-365.9488C472.7939,-354.2675 442.568,-336.4293 420.23,-323.2461"/>
<polygon fill="#000000" stroke="#000000" points="421.885,-320.1589 411.494,-318.0905 418.3272,-326.1873 421.885,-320.1589"/>
</g>
<!-- N9089 -->
<g id="node16" class="node">
<title>N9089</title>
<ellipse fill="#d3d3d3" stroke="#000000" cx="513.0073" cy="-306" rx="27" ry="18"/>
<text text-anchor="middle" x="513.0073" y="-301.8" font-family="Times,serif" font-size="14.00" fill="#000000">sub</text>
</g>
<!-- N9052&#45;&gt;N9089 -->
<g id="edge15" class="edge">
<title>N9052&#45;&gt;N9089</title>
<path fill="none" stroke="#000000" d="M513.0073,-359.8314C513.0073,-352.131 513.0073,-342.9743 513.0073,-334.4166"/>
<polygon fill="#000000" stroke="#000000" points="516.5074,-334.4132 513.0073,-324.4133 509.5074,-334.4133 516.5074,-334.4132"/>
</g>
<!-- N9054 -->
<g id="node5" class="node">
<title>N9054</title>
<ellipse fill="#d3d3d3" stroke="#000000" cx="292.0073" cy="-234" rx="27" ry="18"/>
<text text-anchor="middle" x="292.0073" y="-229.8" font-family="Times,serif" font-size="14.00" fill="#000000">sub</text>
</g>
<!-- N9053&#45;&gt;N9054 -->
<g id="edge4" class="edge">
<title>N9053&#45;&gt;N9054</title>
<path fill="none" stroke="#000000" d="M372.3862,-292.4574C357.3139,-281.4956 335.8819,-265.9088 318.9386,-253.5864"/>
<polygon fill="#000000" stroke="#000000" points="320.691,-250.5331 310.545,-247.4819 316.5738,-256.1943 320.691,-250.5331"/>
</g>
<!-- N9055 -->
<g id="node6" class="node">
<title>N9055</title>
<ellipse fill="#d3d3d3" stroke="#000000" cx="151.0073" cy="-162" rx="27" ry="18"/>
<text text-anchor="middle" x="151.0073" y="-157.8" font-family="Times,serif" font-size="14.00" fill="#000000">add</text>
</g>
<!-- N9054&#45;&gt;N9055 -->
<g id="edge5" class="edge">
<title>N9054&#45;&gt;N9055</title>
<path fill="none" stroke="#000000" d="M270.2851,-222.9078C246.514,-210.7694 208.2313,-191.2207 181.4668,-177.5538"/>
<polygon fill="#000000" stroke="#000000" points="183.0207,-174.4174 172.5229,-172.9867 179.8372,-180.6516 183.0207,-174.4174"/>
</g>
<!-- N9075 -->
<g id="node12" class="node">
<title>N9075</title>
<ellipse fill="#d3d3d3" stroke="#000000" cx="292.0073" cy="-162" rx="27" ry="18"/>
<text text-anchor="middle" x="292.0073" y="-157.8" font-family="Times,serif" font-size="14.00" fill="#000000">mul</text>
</g>
<!-- N9054&#45;&gt;N9075 -->
<g id="edge11" class="edge">
<title>N9054&#45;&gt;N9075</title>
<path fill="none" stroke="#000000" d="M292.0073,-215.8314C292.0073,-208.131 292.0073,-198.9743 292.0073,-190.4166"/>
<polygon fill="#000000" stroke="#000000" points="295.5074,-190.4132 292.0073,-180.4133 288.5074,-190.4133 295.5074,-190.4132"/>
</g>
<!-- N9060 -->
<g id="node7" class="node">
<title>N9060</title>
<ellipse fill="#d3d3d3" stroke="#000000" cx="59.0073" cy="-90" rx="27" ry="18"/>
<text text-anchor="middle" x="59.0073" y="-85.8" font-family="Times,serif" font-size="14.00" fill="#000000">SIN</text>
</g>
<!-- N9055&#45;&gt;N9060 -->
<g id="edge6" class="edge">
<title>N9055&#45;&gt;N9060</title>
<path fill="none" stroke="#000000" d="M133.2688,-148.1177C119.5232,-137.3602 100.2807,-122.3009 84.8276,-110.2072"/>
<polygon fill="#000000" stroke="#000000" points="86.7236,-107.2466 76.6914,-103.8397 82.4094,-112.7591 86.7236,-107.2466"/>
</g>
<!-- N9068 -->
<g id="node9" class="node">
<title>N9068</title>
<ellipse fill="#d3d3d3" stroke="#000000" cx="151.0073" cy="-90" rx="27" ry="18"/>
<text text-anchor="middle" x="151.0073" y="-85.8" font-family="Times,serif" font-size="14.00" fill="#000000">sub</text>
</g>
<!-- N9055&#45;&gt;N9068 -->
<g id="edge8" class="edge">
<title>N9055&#45;&gt;N9068</title>
<path fill="none" stroke="#000000" d="M151.0073,-143.8314C151.0073,-136.131 151.0073,-126.9743 151.0073,-118.4166"/>
<polygon fill="#000000" stroke="#000000" points="154.5074,-118.4132 151.0073,-108.4133 147.5074,-118.4133 154.5074,-118.4132"/>
</g>
<!-- N9063 -->
<g id="node8" class="node">
<title>N9063</title>
<ellipse fill="#d3d3d3" stroke="#000000" cx="40.0073" cy="-18" rx="40.0147" ry="18"/>
<text text-anchor="middle" x="40.0073" y="-13.8" font-family="Times,serif" font-size="14.00" fill="#000000">0.238...</text>
</g>
<!-- N9060&#45;&gt;N9063 -->
<g id="edge7" class="edge">
<title>N9060&#45;&gt;N9063</title>
<path fill="none" stroke="#000000" d="M54.3107,-72.2022C52.2255,-64.3005 49.7214,-54.811 47.3952,-45.9959"/>
<polygon fill="#000000" stroke="#000000" points="50.7177,-44.8691 44.7819,-36.0931 43.9494,-46.6552 50.7177,-44.8691"/>
</g>
<!-- N9071 -->
<g id="node10" class="node">
<title>N9071</title>
<ellipse fill="#d3d3d3" stroke="#000000" cx="138.0073" cy="-18" rx="40.0147" ry="18"/>
<text text-anchor="middle" x="138.0073" y="-13.8" font-family="Times,serif" font-size="14.00" fill="#000000">0.724...</text>
</g>
<!-- N9068&#45;&gt;N9071 -->
<g id="edge9" class="edge">
<title>N9068&#45;&gt;N9071</title>
<path fill="none" stroke="#000000" d="M147.7269,-71.8314C146.3365,-64.131 144.6833,-54.9743 143.1381,-46.4166"/>
<polygon fill="#000000" stroke="#000000" points="146.5532,-45.6322 141.332,-36.4133 139.6646,-46.8761 146.5532,-45.6322"/>
</g>
<!-- N9074 -->
<g id="node11" class="node">
<title>N9074</title>
<ellipse fill="#d3d3d3" stroke="#000000" cx="236.0073" cy="-18" rx="40.0147" ry="18"/>
<text text-anchor="middle" x="236.0073" y="-13.8" font-family="Times,serif" font-size="14.00" fill="#000000">0.695...</text>
</g>
<!-- N9068&#45;&gt;N9074 -->
<g id="edge10" class="edge">
<title>N9068&#45;&gt;N9074</title>
<path fill="none" stroke="#000000" d="M167.8006,-75.7751C179.6912,-65.703 195.8822,-51.9884 209.5053,-40.4488"/>
<polygon fill="#000000" stroke="#000000" points="211.8094,-43.084 217.1777,-33.9498 207.285,-37.7426 211.8094,-43.084"/>
</g>
<!-- N9080 -->
<g id="node13" class="node">
<title>N9080</title>
<ellipse fill="#d3d3d3" stroke="#000000" cx="249.0073" cy="-90" rx="40.0147" ry="18"/>
<text text-anchor="middle" x="249.0073" y="-85.8" font-family="Times,serif" font-size="14.00" fill="#000000">0.193...</text>
</g>
<!-- N9075&#45;&gt;N9080 -->
<g id="edge12" class="edge">
<title>N9075&#45;&gt;N9080</title>
<path fill="none" stroke="#000000" d="M281.8169,-144.937C276.6978,-136.3654 270.3827,-125.7914 264.6644,-116.2165"/>
<polygon fill="#000000" stroke="#000000" points="267.5557,-114.2315 259.4233,-107.4407 261.5459,-117.8207 267.5557,-114.2315"/>
</g>
<!-- N9085 -->
<g id="node14" class="node">
<title>N9085</title>
<ellipse fill="#d3d3d3" stroke="#000000" cx="334.0073" cy="-90" rx="27" ry="18"/>
<text text-anchor="middle" x="334.0073" y="-85.8" font-family="Times,serif" font-size="14.00" fill="#000000">SIN</text>
</g>
<!-- N9075&#45;&gt;N9085 -->
<g id="edge13" class="edge">
<title>N9075&#45;&gt;N9085</title>
<path fill="none" stroke="#000000" d="M301.9608,-144.937C307.0344,-136.2393 313.3107,-125.4799 318.9604,-115.7948"/>
<polygon fill="#000000" stroke="#000000" points="322.1098,-117.3419 324.1254,-106.9405 316.0634,-113.8148 322.1098,-117.3419"/>
</g>
<!-- N9088 -->
<g id="node15" class="node">
<title>N9088</title>
<ellipse fill="#d3d3d3" stroke="#000000" cx="334.0073" cy="-18" rx="40.0147" ry="18"/>
<text text-anchor="middle" x="334.0073" y="-13.8" font-family="Times,serif" font-size="14.00" fill="#000000">0.898...</text>
</g>
<!-- N9085&#45;&gt;N9088 -->
<g id="edge14" class="edge">
<title>N9085&#45;&gt;N9088</title>
<path fill="none" stroke="#000000" d="M334.0073,-71.8314C334.0073,-64.131 334.0073,-54.9743 334.0073,-46.4166"/>
<polygon fill="#000000" stroke="#000000" points="337.5074,-46.4132 334.0073,-36.4133 330.5074,-46.4133 337.5074,-46.4132"/>
</g>
<!-- N9090 -->
<g id="node17" class="node">
<title>N9090</title>
<ellipse fill="#d3d3d3" stroke="#000000" cx="477.0073" cy="-234" rx="27" ry="18"/>
<text text-anchor="middle" x="477.0073" y="-229.8" font-family="Times,serif" font-size="14.00" fill="#000000">SIN</text>
</g>
<!-- N9089&#45;&gt;N9090 -->
<g id="edge16" class="edge">
<title>N9089&#45;&gt;N9090</title>
<path fill="none" stroke="#000000" d="M504.2927,-288.5708C500.0477,-280.0807 494.8538,-269.6929 490.141,-260.2674"/>
<polygon fill="#000000" stroke="#000000" points="493.2444,-258.6477 485.6417,-251.2687 486.9834,-261.7782 493.2444,-258.6477"/>
</g>
<!-- N9097 -->
<g id="node20" class="node">
<title>N9097</title>
<ellipse fill="#d3d3d3" stroke="#000000" cx="573.0073" cy="-234" rx="27" ry="18"/>
<text text-anchor="middle" x="573.0073" y="-229.8" font-family="Times,serif" font-size="14.00" fill="#000000">sub</text>
</g>
<!-- N9089&#45;&gt;N9097 -->
<g id="edge19" class="edge">
<title>N9089&#45;&gt;N9097</title>
<path fill="none" stroke="#000000" d="M526.3233,-290.0209C534.2466,-280.5128 544.4466,-268.2728 553.2903,-257.6604"/>
<polygon fill="#000000" stroke="#000000" points="556.0155,-259.8574 559.7286,-249.9345 550.638,-255.376 556.0155,-259.8574"/>
</g>
<!-- N9091 -->
<g id="node18" class="node">
<title>N9091</title>
<ellipse fill="#d3d3d3" stroke="#000000" cx="470.0073" cy="-162" rx="27" ry="18"/>
<text text-anchor="middle" x="470.0073" y="-157.8" font-family="Times,serif" font-size="14.00" fill="#000000">SIN</text>
</g>
<!-- N9090&#45;&gt;N9091 -->
<g id="edge17" class="edge">
<title>N9090&#45;&gt;N9091</title>
<path fill="none" stroke="#000000" d="M475.2409,-215.8314C474.4923,-208.131 473.6021,-198.9743 472.7701,-190.4166"/>
<polygon fill="#000000" stroke="#000000" points="476.2488,-190.0276 471.7975,-180.4133 469.2817,-190.7051 476.2488,-190.0276"/>
</g>
<!-- N9096 -->
<g id="node19" class="node">
<title>N9096</title>
<ellipse fill="#d3d3d3" stroke="#000000" cx="458.0073" cy="-90" rx="40.0147" ry="18"/>
<text text-anchor="middle" x="458.0073" y="-85.8" font-family="Times,serif" font-size="14.00" fill="#000000">0.373...</text>
</g>
<!-- N9091&#45;&gt;N9096 -->
<g id="edge18" class="edge">
<title>N9091&#45;&gt;N9096</title>
<path fill="none" stroke="#000000" d="M466.9792,-143.8314C465.6958,-136.131 464.1697,-126.9743 462.7434,-118.4166"/>
<polygon fill="#000000" stroke="#000000" points="466.1727,-117.7018 461.0762,-108.4133 459.2679,-118.8526 466.1727,-117.7018"/>
</g>
<!-- N9098 -->
<g id="node21" class="node">
<title>N9098</title>
<ellipse fill="#d3d3d3" stroke="#000000" cx="573.0073" cy="-162" rx="27" ry="18"/>
<text text-anchor="middle" x="573.0073" y="-157.8" font-family="Times,serif" font-size="14.00" fill="#000000">mul</text>
</g>
<!-- N9097&#45;&gt;N9098 -->
<g id="edge20" class="edge">
<title>N9097&#45;&gt;N9098</title>
<path fill="none" stroke="#000000" d="M573.0073,-215.8314C573.0073,-208.131 573.0073,-198.9743 573.0073,-190.4166"/>
<polygon fill="#000000" stroke="#000000" points="576.5074,-190.4132 573.0073,-180.4133 569.5074,-190.4133 576.5074,-190.4132"/>
</g>
<!-- N9118 -->
<g id="node27" class="node">
<title>N9118</title>
<ellipse fill="#d3d3d3" stroke="#000000" cx="726.0073" cy="-162" rx="27" ry="18"/>
<text text-anchor="middle" x="726.0073" y="-157.8" font-family="Times,serif" font-size="14.00" fill="#000000">div</text>
</g>
<!-- N9097&#45;&gt;N9118 -->
<g id="edge26" class="edge">
<title>N9097&#45;&gt;N9118</title>
<path fill="none" stroke="#000000" d="M595.2549,-223.5306C621.4298,-211.213 665.0631,-190.6796 694.6576,-176.7528"/>
<polygon fill="#000000" stroke="#000000" points="696.1751,-179.907 703.733,-172.4821 693.1945,-173.5732 696.1751,-179.907"/>
</g>
<!-- N9103 -->
<g id="node22" class="node">
<title>N9103</title>
<ellipse fill="#d3d3d3" stroke="#000000" cx="543.0073" cy="-90" rx="27" ry="18"/>
<text text-anchor="middle" x="543.0073" y="-85.8" font-family="Times,serif" font-size="14.00" fill="#000000">mul</text>
</g>
<!-- N9098&#45;&gt;N9103 -->
<g id="edge21" class="edge">
<title>N9098&#45;&gt;N9103</title>
<path fill="none" stroke="#000000" d="M565.7452,-144.5708C562.2702,-136.2309 558.0323,-126.0598 554.1609,-116.7686"/>
<polygon fill="#000000" stroke="#000000" points="557.3836,-115.4028 550.3066,-107.5182 550.9221,-118.0952 557.3836,-115.4028"/>
</g>
<!-- N9114 -->
<g id="node25" class="node">
<title>N9114</title>
<ellipse fill="#d3d3d3" stroke="#000000" cx="622.0073" cy="-90" rx="27" ry="18"/>
<text text-anchor="middle" x="622.0073" y="-85.8" font-family="Times,serif" font-size="14.00" fill="#000000">SIN</text>
</g>
<!-- N9098&#45;&gt;N9114 -->
<g id="edge24" class="edge">
<title>N9098&#45;&gt;N9114</title>
<path fill="none" stroke="#000000" d="M584.3721,-145.3008C590.4947,-136.3043 598.1711,-125.0247 604.9915,-115.0029"/>
<polygon fill="#000000" stroke="#000000" points="607.9714,-116.845 610.7042,-106.6087 602.1844,-112.9066 607.9714,-116.845"/>
</g>
<!-- N9106 -->
<g id="node23" class="node">
<title>N9106</title>
<ellipse fill="#d3d3d3" stroke="#000000" cx="432.0073" cy="-18" rx="40.0147" ry="18"/>
<text text-anchor="middle" x="432.0073" y="-13.8" font-family="Times,serif" font-size="14.00" fill="#000000">0.959...</text>
</g>
<!-- N9103&#45;&gt;N9106 -->
<g id="edge22" class="edge">
<title>N9103&#45;&gt;N9106</title>
<path fill="none" stroke="#000000" d="M523.4183,-77.2936C506.7949,-66.5108 482.639,-50.8421 463.3333,-38.3195"/>
<polygon fill="#000000" stroke="#000000" points="465.1432,-35.3217 454.8489,-32.8162 461.3339,-41.1945 465.1432,-35.3217"/>
</g>
<!-- N9109 -->
<g id="node24" class="node">
<title>N9109</title>
<ellipse fill="#d3d3d3" stroke="#000000" cx="530.0073" cy="-18" rx="40.0147" ry="18"/>
<text text-anchor="middle" x="530.0073" y="-13.8" font-family="Times,serif" font-size="14.00" fill="#000000">0.630...</text>
</g>
<!-- N9103&#45;&gt;N9109 -->
<g id="edge23" class="edge">
<title>N9103&#45;&gt;N9109</title>
<path fill="none" stroke="#000000" d="M539.7269,-71.8314C538.3365,-64.131 536.6833,-54.9743 535.1381,-46.4166"/>
<polygon fill="#000000" stroke="#000000" points="538.5532,-45.6322 533.332,-36.4133 531.6646,-46.8761 538.5532,-45.6322"/>
</g>
<!-- N9117 -->
<g id="node26" class="node">
<title>N9117</title>
<ellipse fill="#d3d3d3" stroke="#000000" cx="628.0073" cy="-18" rx="40.0147" ry="18"/>
<text text-anchor="middle" x="628.0073" y="-13.8" font-family="Times,serif" font-size="14.00" fill="#000000">0.691...</text>
</g>
<!-- N9114&#45;&gt;N9117 -->
<g id="edge25" class="edge">
<title>N9114&#45;&gt;N9117</title>
<path fill="none" stroke="#000000" d="M623.5214,-71.8314C624.1631,-64.131 624.9261,-54.9743 625.6393,-46.4166"/>
<polygon fill="#000000" stroke="#000000" points="629.1303,-46.6694 626.4729,-36.4133 622.1544,-46.088 629.1303,-46.6694"/>
</g>
<!-- N9123 -->
<g id="node28" class="node">
<title>N9123</title>
<ellipse fill="#d3d3d3" stroke="#000000" cx="726.0073" cy="-90" rx="27" ry="18"/>
<text text-anchor="middle" x="726.0073" y="-85.8" font-family="Times,serif" font-size="14.00" fill="#000000">sub</text>
</g>
<!-- N9118&#45;&gt;N9123 -->
<g id="edge27" class="edge">
<title>N9118&#45;&gt;N9123</title>
<path fill="none" stroke="#000000" d="M726.0073,-143.8314C726.0073,-136.131 726.0073,-126.9743 726.0073,-118.4166"/>
<polygon fill="#000000" stroke="#000000" points="729.5074,-118.4132 726.0073,-108.4133 722.5074,-118.4133 729.5074,-118.4132"/>
</g>
<!-- N9134 -->
<g id="node31" class="node">
<title>N9134</title>
<ellipse fill="#d3d3d3" stroke="#000000" cx="811.0073" cy="-90" rx="40.0147" ry="18"/>
<text text-anchor="middle" x="811.0073" y="-85.8" font-family="Times,serif" font-size="14.00" fill="#000000">0.019...</text>
</g>
<!-- N9118&#45;&gt;N9134 -->
<g id="edge30" class="edge">
<title>N9118&#45;&gt;N9134</title>
<path fill="none" stroke="#000000" d="M742.8006,-147.7751C754.6912,-137.703 770.8822,-123.9884 784.5053,-112.4488"/>
<polygon fill="#000000" stroke="#000000" points="786.8094,-115.084 792.1777,-105.9498 782.285,-109.7426 786.8094,-115.084"/>
</g>
<!-- N9126 -->
<g id="node29" class="node">
<title>N9126</title>
<ellipse fill="#d3d3d3" stroke="#000000" cx="726.0073" cy="-18" rx="40.0147" ry="18"/>
<text text-anchor="middle" x="726.0073" y="-13.8" font-family="Times,serif" font-size="14.00" fill="#000000">0.942...</text>
</g>
<!-- N9123&#45;&gt;N9126 -->
<g id="edge28" class="edge">
<title>N9123&#45;&gt;N9126</title>
<path fill="none" stroke="#000000" d="M726.0073,-71.8314C726.0073,-64.131 726.0073,-54.9743 726.0073,-46.4166"/>
<polygon fill="#000000" stroke="#000000" points="729.5074,-46.4132 726.0073,-36.4133 722.5074,-46.4133 729.5074,-46.4132"/>
</g>
<!-- N9129 -->
<g id="node30" class="node">
<title>N9129</title>
<ellipse fill="#d3d3d3" stroke="#000000" cx="824.0073" cy="-18" rx="40.0147" ry="18"/>
<text text-anchor="middle" x="824.0073" y="-13.8" font-family="Times,serif" font-size="14.00" fill="#000000">0.879...</text>
</g>
<!-- N9123&#45;&gt;N9129 -->
<g id="edge29" class="edge">
<title>N9123&#45;&gt;N9129</title>
<path fill="none" stroke="#000000" d="M744.4404,-76.4574C758.605,-66.0507 778.4437,-51.4753 794.7677,-39.4822"/>
<polygon fill="#000000" stroke="#000000" points="796.9484,-42.2231 802.935,-33.4817 792.8039,-36.5819 796.9484,-42.2231"/>
</g>
<!-- N9136 -->
<g id="node33" class="node">
<title>N9136</title>
<ellipse fill="#d3d3d3" stroke="#000000" cx="953.0073" cy="-306" rx="27" ry="18"/>
<text text-anchor="middle" x="953.0073" y="-301.8" font-family="Times,serif" font-size="14.00" fill="#000000">SIN</text>
</g>
<!-- N9135&#45;&gt;N9136 -->
<g id="edge32" class="edge">
<title>N9135&#45;&gt;N9136</title>
<path fill="none" stroke="#000000" d="M953.0073,-359.8314C953.0073,-352.131 953.0073,-342.9743 953.0073,-334.4166"/>
<polygon fill="#000000" stroke="#000000" points="956.5074,-334.4132 953.0073,-324.4133 949.5074,-334.4133 956.5074,-334.4132"/>
</g>
<!-- N9150 -->
<g id="node39" class="node">
<title>N9150</title>
<ellipse fill="#d3d3d3" stroke="#000000" cx="1087.0073" cy="-306" rx="27" ry="18"/>
<text text-anchor="middle" x="1087.0073" y="-301.8" font-family="Times,serif" font-size="14.00" fill="#000000">SIN</text>
</g>
<!-- N9135&#45;&gt;N9150 -->
<g id="edge38" class="edge">
<title>N9135&#45;&gt;N9150</title>
<path fill="none" stroke="#000000" d="M974.24,-366.5914C996.4889,-354.6368 1031.6355,-335.752 1056.7762,-322.2436"/>
<polygon fill="#000000" stroke="#000000" points="1058.7217,-325.1716 1065.874,-317.3552 1055.4084,-319.0053 1058.7217,-325.1716"/>
</g>
<!-- N9137 -->
<g id="node34" class="node">
<title>N9137</title>
<ellipse fill="#d3d3d3" stroke="#000000" cx="953.0073" cy="-234" rx="27" ry="18"/>
<text text-anchor="middle" x="953.0073" y="-229.8" font-family="Times,serif" font-size="14.00" fill="#000000">SIN</text>
</g>
<!-- N9136&#45;&gt;N9137 -->
<g id="edge33" class="edge">
<title>N9136&#45;&gt;N9137</title>
<path fill="none" stroke="#000000" d="M953.0073,-287.8314C953.0073,-280.131 953.0073,-270.9743 953.0073,-262.4166"/>
<polygon fill="#000000" stroke="#000000" points="956.5074,-262.4132 953.0073,-252.4133 949.5074,-262.4133 956.5074,-262.4132"/>
</g>
<!-- N9138 -->
<g id="node35" class="node">
<title>N9138</title>
<ellipse fill="#d3d3d3" stroke="#000000" cx="953.0073" cy="-162" rx="27" ry="18"/>
<text text-anchor="middle" x="953.0073" y="-157.8" font-family="Times,serif" font-size="14.00" fill="#000000">SIN</text>
</g>
<!-- N9137&#45;&gt;N9138 -->
<g id="edge34" class="edge">
<title>N9137&#45;&gt;N9138</title>
<path fill="none" stroke="#000000" d="M953.0073,-215.8314C953.0073,-208.131 953.0073,-198.9743 953.0073,-190.4166"/>
<polygon fill="#000000" stroke="#000000" points="956.5074,-190.4132 953.0073,-180.4133 949.5074,-190.4133 956.5074,-190.4132"/>
</g>
<!-- N9143 -->
<g id="node36" class="node">
<title>N9143</title>
<ellipse fill="#d3d3d3" stroke="#000000" cx="953.0073" cy="-90" rx="27" ry="18"/>
<text text-anchor="middle" x="953.0073" y="-85.8" font-family="Times,serif" font-size="14.00" fill="#000000">mul</text>
</g>
<!-- N9138&#45;&gt;N9143 -->
<g id="edge35" class="edge">
<title>N9138&#45;&gt;N9143</title>
<path fill="none" stroke="#000000" d="M953.0073,-143.8314C953.0073,-136.131 953.0073,-126.9743 953.0073,-118.4166"/>
<polygon fill="#000000" stroke="#000000" points="956.5074,-118.4132 953.0073,-108.4133 949.5074,-118.4133 956.5074,-118.4132"/>
</g>
<!-- N9146 -->
<g id="node37" class="node">
<title>N9146</title>
<ellipse fill="#d3d3d3" stroke="#000000" cx="922.0073" cy="-18" rx="40.0147" ry="18"/>
<text text-anchor="middle" x="922.0073" y="-13.8" font-family="Times,serif" font-size="14.00" fill="#000000">0.467...</text>
</g>
<!-- N9143&#45;&gt;N9146 -->
<g id="edge36" class="edge">
<title>N9143&#45;&gt;N9146</title>
<path fill="none" stroke="#000000" d="M945.5031,-72.5708C941.9389,-64.2927 937.5979,-54.2104 933.6217,-44.9752"/>
<polygon fill="#000000" stroke="#000000" points="936.8272,-43.5696 929.6578,-35.7689 930.3978,-46.3379 936.8272,-43.5696"/>
</g>
<!-- N9149 -->
<g id="node38" class="node">
<title>N9149</title>
<ellipse fill="#d3d3d3" stroke="#000000" cx="1020.0073" cy="-18" rx="40.0147" ry="18"/>
<text text-anchor="middle" x="1020.0073" y="-13.8" font-family="Times,serif" font-size="14.00" fill="#000000">0.835...</text>
</g>
<!-- N9143&#45;&gt;N9149 -->
<g id="edge37" class="edge">
<title>N9143&#45;&gt;N9149</title>
<path fill="none" stroke="#000000" d="M967.5453,-74.3771C976.2788,-64.9918 987.5761,-52.8515 997.449,-42.2418"/>
<polygon fill="#000000" stroke="#000000" points="1000.0791,-44.5532 1004.3292,-34.8481 994.9546,-39.7845 1000.0791,-44.5532"/>
</g>
<!-- N9151 -->
<g id="node40" class="node">
<title>N9151</title>
<ellipse fill="#d3d3d3" stroke="#000000" cx="1167.0073" cy="-234" rx="27" ry="18"/>
<text text-anchor="middle" x="1167.0073" y="-229.8" font-family="Times,serif" font-size="14.00" fill="#000000">sub</text>
</g>
<!-- N9150&#45;&gt;N9151 -->
<g id="edge39" class="edge">
<title>N9150&#45;&gt;N9151</title>
<path fill="none" stroke="#000000" d="M1103.1965,-291.4297C1114.6906,-281.0851 1130.3089,-267.0286 1143.2167,-255.4116"/>
<polygon fill="#000000" stroke="#000000" points="1145.7506,-257.8398 1150.8422,-248.5486 1141.0679,-252.6367 1145.7506,-257.8398"/>
</g>
<!-- N9152 -->
<g id="node41" class="node">
<title>N9152</title>
<ellipse fill="#d3d3d3" stroke="#000000" cx="1167.0073" cy="-162" rx="27" ry="18"/>
<text text-anchor="middle" x="1167.0073" y="-157.8" font-family="Times,serif" font-size="14.00" fill="#000000">SIN</text>
</g>
<!-- N9151&#45;&gt;N9152 -->
<g id="edge40" class="edge">
<title>N9151&#45;&gt;N9152</title>
<path fill="none" stroke="#000000" d="M1167.0073,-215.8314C1167.0073,-208.131 1167.0073,-198.9743 1167.0073,-190.4166"/>
<polygon fill="#000000" stroke="#000000" points="1170.5074,-190.4132 1167.0073,-180.4133 1163.5074,-190.4133 1170.5074,-190.4132"/>
</g>
<!-- N9164 -->
<g id="node45" class="node">
<title>N9164</title>
<ellipse fill="#d3d3d3" stroke="#000000" cx="1301.0073" cy="-162" rx="27" ry="18"/>
<text text-anchor="middle" x="1301.0073" y="-157.8" font-family="Times,serif" font-size="14.00" fill="#000000">sub</text>
</g>
<!-- N9151&#45;&gt;N9164 -->
<g id="edge44" class="edge">
<title>N9151&#45;&gt;N9164</title>
<path fill="none" stroke="#000000" d="M1188.24,-222.5914C1210.4889,-210.6368 1245.6355,-191.752 1270.7762,-178.2436"/>
<polygon fill="#000000" stroke="#000000" points="1272.7217,-181.1716 1279.874,-173.3552 1269.4084,-175.0053 1272.7217,-181.1716"/>
</g>
<!-- N9157 -->
<g id="node42" class="node">
<title>N9157</title>
<ellipse fill="#d3d3d3" stroke="#000000" cx="1167.0073" cy="-90" rx="27" ry="18"/>
<text text-anchor="middle" x="1167.0073" y="-85.8" font-family="Times,serif" font-size="14.00" fill="#000000">div</text>
</g>
<!-- N9152&#45;&gt;N9157 -->
<g id="edge41" class="edge">
<title>N9152&#45;&gt;N9157</title>
<path fill="none" stroke="#000000" d="M1167.0073,-143.8314C1167.0073,-136.131 1167.0073,-126.9743 1167.0073,-118.4166"/>
<polygon fill="#000000" stroke="#000000" points="1170.5074,-118.4132 1167.0073,-108.4133 1163.5074,-118.4133 1170.5074,-118.4132"/>
</g>
<!-- N9160 -->
<g id="node43" class="node">
<title>N9160</title>
<ellipse fill="#d3d3d3" stroke="#000000" cx="1118.0073" cy="-18" rx="40.0147" ry="18"/>
<text text-anchor="middle" x="1118.0073" y="-13.8" font-family="Times,serif" font-size="14.00" fill="#000000">0.468...</text>
</g>
<!-- N9157&#45;&gt;N9160 -->
<g id="edge42" class="edge">
<title>N9157&#45;&gt;N9160</title>
<path fill="none" stroke="#000000" d="M1155.6426,-73.3008C1149.755,-64.6496 1142.4306,-53.8873 1135.8122,-44.1623"/>
<polygon fill="#000000" stroke="#000000" points="1138.5139,-41.9111 1129.9941,-35.6132 1132.7269,-45.8495 1138.5139,-41.9111"/>
</g>
<!-- N9163 -->
<g id="node44" class="node">
<title>N9163</title>
<ellipse fill="#d3d3d3" stroke="#000000" cx="1216.0073" cy="-18" rx="40.0147" ry="18"/>
<text text-anchor="middle" x="1216.0073" y="-13.8" font-family="Times,serif" font-size="14.00" fill="#000000">0.850...</text>
</g>
<!-- N9157&#45;&gt;N9163 -->
<g id="edge43" class="edge">
<title>N9157&#45;&gt;N9163</title>
<path fill="none" stroke="#000000" d="M1178.3721,-73.3008C1184.2597,-64.6496 1191.5841,-53.8873 1198.2024,-44.1623"/>
<polygon fill="#000000" stroke="#000000" points="1201.2878,-45.8495 1204.0206,-35.6132 1195.5008,-41.9111 1201.2878,-45.8495"/>
</g>
<!-- N9169 -->
<g id="node46" class="node">
<title>N9169</title>
<ellipse fill="#d3d3d3" stroke="#000000" cx="1301.0073" cy="-90" rx="27" ry="18"/>
<text text-anchor="middle" x="1301.0073" y="-85.8" font-family="Times,serif" font-size="14.00" fill="#000000">sub</text>
</g>
<!-- N9164&#45;&gt;N9169 -->
<g id="edge45" class="edge">
<title>N9164&#45;&gt;N9169</title>
<path fill="none" stroke="#000000" d="M1301.0073,-143.8314C1301.0073,-136.131 1301.0073,-126.9743 1301.0073,-118.4166"/>
<polygon fill="#000000" stroke="#000000" points="1304.5074,-118.4132 1301.0073,-108.4133 1297.5074,-118.4133 1304.5074,-118.4132"/>
</g>
<!-- N9180 -->
<g id="node49" class="node">
<title>N9180</title>
<ellipse fill="#d3d3d3" stroke="#000000" cx="1386.0073" cy="-90" rx="40.0147" ry="18"/>
<text text-anchor="middle" x="1386.0073" y="-85.8" font-family="Times,serif" font-size="14.00" fill="#000000">0.135...</text>
</g>
<!-- N9164&#45;&gt;N9180 -->
<g id="edge48" class="edge">
<title>N9164&#45;&gt;N9180</title>
<path fill="none" stroke="#000000" d="M1317.8006,-147.7751C1329.6912,-137.703 1345.8822,-123.9884 1359.5053,-112.4488"/>
<polygon fill="#000000" stroke="#000000" points="1361.8094,-115.084 1367.1777,-105.9498 1357.285,-109.7426 1361.8094,-115.084"/>
</g>
<!-- N9172 -->
<g id="node47" class="node">
<title>N9172</title>
<ellipse fill="#d3d3d3" stroke="#000000" cx="1301.0073" cy="-18" rx="27" ry="18"/>
<text text-anchor="middle" x="1301.0073" y="-13.8" font-family="Times,serif" font-size="14.00" fill="#000000">x</text>
</g>
<!-- N9169&#45;&gt;N9172 -->
<g id="edge46" class="edge">
<title>N9169&#45;&gt;N9172</title>
<path fill="none" stroke="#000000" d="M1301.0073,-71.8314C1301.0073,-64.131 1301.0073,-54.9743 1301.0073,-46.4166"/>
<polygon fill="#000000" stroke="#000000" points="1304.5074,-46.4132 1301.0073,-36.4133 1297.5074,-46.4133 1304.5074,-46.4132"/>
</g>
<!-- N9175 -->
<g id="node48" class="node">
<title>N9175</title>
<ellipse fill="#d3d3d3" stroke="#000000" cx="1386.0073" cy="-18" rx="40.0147" ry="18"/>
<text text-anchor="middle" x="1386.0073" y="-13.8" font-family="Times,serif" font-size="14.00" fill="#000000">0.826...</text>
</g>
<!-- N9169&#45;&gt;N9175 -->
<g id="edge47" class="edge">
<title>N9169&#45;&gt;N9175</title>
<path fill="none" stroke="#000000" d="M1317.8006,-75.7751C1329.6912,-65.703 1345.8822,-51.9884 1359.5053,-40.4488"/>
<polygon fill="#000000" stroke="#000000" points="1361.8094,-43.084 1367.1777,-33.9498 1357.285,-37.7426 1361.8094,-43.084"/>
</g>
</g>
</svg>
