<?xml version="1.0" encoding="UTF-8" standalone="no"?>
<!DOCTYPE svg PUBLIC "-//W3C//DTD SVG 1.1//EN"
 "http://www.w3.org/Graphics/SVG/1.1/DTD/svg11.dtd">
<!-- Generated by graphviz version 2.40.1 (20161225.0304)
 -->
<!-- Title: G385 Pages: 1 -->
<svg width="176pt" height="260pt"
 viewBox="0.00 0.00 176.00 260.00" xmlns="http://www.w3.org/2000/svg" xmlns:xlink="http://www.w3.org/1999/xlink">
<g id="graph0" class="graph" transform="scale(1 1) rotate(0) translate(4 256)">
<title>G385</title>
<polygon fill="#ffffff" stroke="transparent" points="-4,4 -4,-256 172,-256 172,4 -4,4"/>
<!-- N385 -->
<g id="node1" class="node">
<title>N385</title>
<ellipse fill="#d3d3d3" stroke="#000000" cx="105" cy="-234" rx="32.4865" ry="18"/>
<text text-anchor="middle" x="105" y="-229.8" font-family="Times,serif" font-size="14.00" fill="#000000">N385</text>
</g>
<!-- N386 -->
<g id="node2" class="node">
<title>N386</title>
<ellipse fill="none" stroke="#000000" cx="105" cy="-162" rx="27" ry="18"/>
<text text-anchor="middle" x="105" y="-157.8" font-family="Times,serif" font-size="14.00" fill="#000000">add</text>
</g>
<!-- N385&#45;&gt;N386 -->
<g id="edge1" class="edge">
<title>N385&#45;&gt;N386</title>
<path fill="none" stroke="#000000" d="M105,-215.8314C105,-208.131 105,-198.9743 105,-190.4166"/>
<polygon fill="#000000" stroke="#000000" points="108.5001,-190.4132 105,-180.4133 101.5001,-190.4133 108.5001,-190.4132"/>
</g>
<!-- N394 -->
<g id="node3" class="node">
<title>N394</title>
<ellipse fill="none" stroke="#000000" stroke-dasharray="5,2" cx="69" cy="-90" rx="27" ry="18"/>
<text text-anchor="middle" x="69" y="-85.8" font-family="Times,serif" font-size="14.00" fill="#000000">mul</text>
</g>
<!-- N386&#45;&gt;N394 -->
<g id="edge2" class="edge">
<title>N386&#45;&gt;N394</title>
<path fill="none" stroke="#000000" d="M96.2854,-144.5708C92.0403,-136.0807 86.8464,-125.6929 82.1337,-116.2674"/>
<polygon fill="#000000" stroke="#000000" points="85.237,-114.6477 77.6343,-107.2687 78.976,-117.7782 85.237,-114.6477"/>
</g>
<!-- N390 -->
<g id="node6" class="node">
<title>N390</title>
<ellipse fill="#d3d3d3" stroke="#000000" cx="141" cy="-90" rx="27" ry="18"/>
<text text-anchor="middle" x="141" y="-85.8" font-family="Times,serif" font-size="14.00" fill="#000000">x</text>
</g>
<!-- N386&#45;&gt;N390 -->
<g id="edge5" class="edge">
<title>N386&#45;&gt;N390</title>
<path fill="none" stroke="#000000" d="M113.7146,-144.5708C117.9597,-136.0807 123.1536,-125.6929 127.8663,-116.2674"/>
<polygon fill="#000000" stroke="#000000" points="131.024,-117.7782 132.3657,-107.2687 124.763,-114.6477 131.024,-117.7782"/>
</g>
<!-- N395 -->
<g id="node4" class="node">
<title>N395</title>
<ellipse fill="#d3d3d3" stroke="#000000" cx="27" cy="-18" rx="27" ry="18"/>
<text text-anchor="middle" x="27" y="-13.8" font-family="Times,serif" font-size="14.00" fill="#000000">x</text>
</g>
<!-- N394&#45;&gt;N395 -->
<g id="edge3" class="edge">
<title>N394&#45;&gt;N395</title>
<path fill="none" stroke="#000000" d="M59.0466,-72.937C53.9729,-64.2393 47.6966,-53.4799 42.047,-43.7948"/>
<polygon fill="#000000" stroke="#000000" points="44.944,-41.8148 36.882,-34.9405 38.8975,-45.3419 44.944,-41.8148"/>
</g>
<!-- N396 -->
<g id="node5" class="node">
<title>N396</title>
<ellipse fill="#d3d3d3" stroke="#000000" cx="112" cy="-18" rx="40.0147" ry="18"/>
<text text-anchor="middle" x="112" y="-13.8" font-family="Times,serif" font-size="14.00" fill="#000000">0.280...</text>
</g>
<!-- N394&#45;&gt;N396 -->
<g id="edge4" class="edge">
<title>N394&#45;&gt;N396</title>
<path fill="none" stroke="#000000" d="M79.1904,-72.937C84.3096,-64.3654 90.6246,-53.7914 96.3429,-44.2165"/>
<polygon fill="#000000" stroke="#000000" points="99.4615,-45.8207 101.584,-35.4407 93.4517,-42.2315 99.4615,-45.8207"/>
</g>
</g>
</svg>
