<?xml version="1.0" encoding="UTF-8" standalone="no"?>
<!DOCTYPE svg PUBLIC "-//W3C//DTD SVG 1.1//EN"
 "http://www.w3.org/Graphics/SVG/1.1/DTD/svg11.dtd">
<!-- Generated by graphviz version 2.40.1 (20161225.0304)
 -->
<!-- Title: G117 Pages: 1 -->
<svg width="88pt" height="188pt"
 viewBox="0.00 0.00 88.01 188.00" xmlns="http://www.w3.org/2000/svg" xmlns:xlink="http://www.w3.org/1999/xlink">
<g id="graph0" class="graph" transform="scale(1 1) rotate(0) translate(4 184)">
<title>G117</title>
<polygon fill="#ffffff" stroke="transparent" points="-4,4 -4,-184 84.0147,-184 84.0147,4 -4,4"/>
<!-- N117 -->
<g id="node1" class="node">
<title>N117</title>
<ellipse fill="#d3d3d3" stroke="#000000" cx="40.0073" cy="-162" rx="32.4865" ry="18"/>
<text text-anchor="middle" x="40.0073" y="-157.8" font-family="Times,serif" font-size="14.00" fill="#000000">N117</text>
</g>
<!-- N122 -->
<g id="node2" class="node">
<title>N122</title>
<ellipse fill="#d3d3d3" stroke="#000000" cx="40.0073" cy="-90" rx="27" ry="18"/>
<text text-anchor="middle" x="40.0073" y="-85.8" font-family="Times,serif" font-size="14.00" fill="#000000">sqr</text>
</g>
<!-- N117&#45;&gt;N122 -->
<g id="edge1" class="edge">
<title>N117&#45;&gt;N122</title>
<path fill="none" stroke="#000000" d="M40.0073,-143.8314C40.0073,-136.131 40.0073,-126.9743 40.0073,-118.4166"/>
<polygon fill="#000000" stroke="#000000" points="43.5074,-118.4132 40.0073,-108.4133 36.5074,-118.4133 43.5074,-118.4132"/>
</g>
<!-- N125 -->
<g id="node3" class="node">
<title>N125</title>
<ellipse fill="#d3d3d3" stroke="#000000" cx="40.0073" cy="-18" rx="40.0147" ry="18"/>
<text text-anchor="middle" x="40.0073" y="-13.8" font-family="Times,serif" font-size="14.00" fill="#000000">0.879...</text>
</g>
<!-- N122&#45;&gt;N125 -->
<g id="edge2" class="edge">
<title>N122&#45;&gt;N125</title>
<path fill="none" stroke="#000000" d="M40.0073,-71.8314C40.0073,-64.131 40.0073,-54.9743 40.0073,-46.4166"/>
<polygon fill="#000000" stroke="#000000" points="43.5074,-46.4132 40.0073,-36.4133 36.5074,-46.4133 43.5074,-46.4132"/>
</g>
</g>
</svg>
