<?xml version="1.0" encoding="UTF-8" standalone="no"?>
<!DOCTYPE svg PUBLIC "-//W3C//DTD SVG 1.1//EN"
 "http://www.w3.org/Graphics/SVG/1.1/DTD/svg11.dtd">
<!-- Generated by graphviz version 2.40.1 (20161225.0304)
 -->
<!-- Title: G265541 Pages: 1 -->
<svg width="575pt" height="476pt"
 viewBox="0.00 0.00 575.01 476.00" xmlns="http://www.w3.org/2000/svg" xmlns:xlink="http://www.w3.org/1999/xlink">
<g id="graph0" class="graph" transform="scale(1 1) rotate(0) translate(4 472)">
<title>G265541</title>
<polygon fill="#ffffff" stroke="transparent" points="-4,4 -4,-472 571.0147,-472 571.0147,4 -4,4"/>
<!-- N265541 -->
<g id="node1" class="node">
<title>N265541</title>
<ellipse fill="#d3d3d3" stroke="#000000" cx="267.0073" cy="-450" rx="44.629" ry="18"/>
<text text-anchor="middle" x="267.0073" y="-445.8" font-family="Times,serif" font-size="14.00" fill="#000000">N2655...</text>
</g>
<!-- N265542 -->
<g id="node2" class="node">
<title>N265542</title>
<ellipse fill="#d3d3d3" stroke="#000000" cx="267.0073" cy="-378" rx="27" ry="18"/>
<text text-anchor="middle" x="267.0073" y="-373.8" font-family="Times,serif" font-size="14.00" fill="#000000">sub</text>
</g>
<!-- N265541&#45;&gt;N265542 -->
<g id="edge1" class="edge">
<title>N265541&#45;&gt;N265542</title>
<path fill="none" stroke="#000000" d="M267.0073,-431.8314C267.0073,-424.131 267.0073,-414.9743 267.0073,-406.4166"/>
<polygon fill="#000000" stroke="#000000" points="270.5074,-406.4132 267.0073,-396.4133 263.5074,-406.4133 270.5074,-406.4132"/>
</g>
<!-- N265543 -->
<g id="node3" class="node">
<title>N265543</title>
<ellipse fill="none" stroke="#000000" cx="231.0073" cy="-306" rx="27" ry="18"/>
<text text-anchor="middle" x="231.0073" y="-301.8" font-family="Times,serif" font-size="14.00" fill="#000000">mul</text>
</g>
<!-- N265542&#45;&gt;N265543 -->
<g id="edge2" class="edge">
<title>N265542&#45;&gt;N265543</title>
<path fill="none" stroke="#000000" d="M258.2927,-360.5708C254.0477,-352.0807 248.8538,-341.6929 244.141,-332.2674"/>
<polygon fill="#000000" stroke="#000000" points="247.2444,-330.6477 239.6417,-323.2687 240.9834,-333.7782 247.2444,-330.6477"/>
</g>
<!-- N265553 -->
<g id="node15" class="node">
<title>N265553</title>
<ellipse fill="#d3d3d3" stroke="#000000" cx="345.0073" cy="-306" rx="27" ry="18"/>
<text text-anchor="middle" x="345.0073" y="-301.8" font-family="Times,serif" font-size="14.00" fill="#000000">log</text>
</g>
<!-- N265542&#45;&gt;N265553 -->
<g id="edge14" class="edge">
<title>N265542&#45;&gt;N265553</title>
<path fill="none" stroke="#000000" d="M283.169,-363.0816C294.3288,-352.7802 309.3407,-338.923 321.7788,-327.4417"/>
<polygon fill="#000000" stroke="#000000" points="324.1592,-330.0076 329.1333,-320.653 319.4112,-324.864 324.1592,-330.0076"/>
</g>
<!-- N265562 -->
<g id="node4" class="node">
<title>N265562</title>
<ellipse fill="none" stroke="#000000" stroke-dasharray="5,2" cx="153.0073" cy="-234" rx="27" ry="18"/>
<text text-anchor="middle" x="153.0073" y="-229.8" font-family="Times,serif" font-size="14.00" fill="#000000">log</text>
</g>
<!-- N265543&#45;&gt;N265562 -->
<g id="edge3" class="edge">
<title>N265543&#45;&gt;N265562</title>
<path fill="none" stroke="#000000" d="M214.8457,-291.0816C203.6859,-280.7802 188.674,-266.923 176.2358,-255.4417"/>
<polygon fill="#000000" stroke="#000000" points="178.6035,-252.864 168.8814,-248.653 173.8555,-258.0076 178.6035,-252.864"/>
</g>
<!-- N265548 -->
<g id="node10" class="node">
<title>N265548</title>
<ellipse fill="#d3d3d3" stroke="#000000" cx="231.0073" cy="-234" rx="27" ry="18"/>
<text text-anchor="middle" x="231.0073" y="-229.8" font-family="Times,serif" font-size="14.00" fill="#000000">mul</text>
</g>
<!-- N265543&#45;&gt;N265548 -->
<g id="edge9" class="edge">
<title>N265543&#45;&gt;N265548</title>
<path fill="none" stroke="#000000" d="M231.0073,-287.8314C231.0073,-280.131 231.0073,-270.9743 231.0073,-262.4166"/>
<polygon fill="#000000" stroke="#000000" points="234.5074,-262.4132 231.0073,-252.4133 227.5074,-262.4133 234.5074,-262.4132"/>
</g>
<!-- N265563 -->
<g id="node5" class="node">
<title>N265563</title>
<ellipse fill="#d3d3d3" stroke="#000000" cx="125.0073" cy="-162" rx="27" ry="18"/>
<text text-anchor="middle" x="125.0073" y="-157.8" font-family="Times,serif" font-size="14.00" fill="#000000">sin</text>
</g>
<!-- N265562&#45;&gt;N265563 -->
<g id="edge4" class="edge">
<title>N265562&#45;&gt;N265563</title>
<path fill="none" stroke="#000000" d="M146.2293,-216.5708C143.0202,-208.3187 139.1138,-198.2738 135.5316,-189.0623"/>
<polygon fill="#000000" stroke="#000000" points="138.7065,-187.5697 131.82,-179.5182 132.1825,-190.1069 138.7065,-187.5697"/>
</g>
<!-- N265564 -->
<g id="node6" class="node">
<title>N265564</title>
<ellipse fill="#d3d3d3" stroke="#000000" cx="40.0073" cy="-90" rx="40.0147" ry="18"/>
<text text-anchor="middle" x="40.0073" y="-85.8" font-family="Times,serif" font-size="14.00" fill="#000000">0.510...</text>
</g>
<!-- N265563&#45;&gt;N265564 -->
<g id="edge5" class="edge">
<title>N265563&#45;&gt;N265564</title>
<path fill="none" stroke="#000000" d="M108.2141,-147.7751C96.3234,-137.703 80.1325,-123.9884 66.5094,-112.4488"/>
<polygon fill="#000000" stroke="#000000" points="68.7297,-109.7426 58.837,-105.9498 64.2052,-115.084 68.7297,-109.7426"/>
</g>
<!-- N265565 -->
<g id="node7" class="node">
<title>N265565</title>
<ellipse fill="#d3d3d3" stroke="#000000" cx="125.0073" cy="-90" rx="27" ry="18"/>
<text text-anchor="middle" x="125.0073" y="-85.8" font-family="Times,serif" font-size="14.00" fill="#000000">add</text>
</g>
<!-- N265563&#45;&gt;N265565 -->
<g id="edge6" class="edge">
<title>N265563&#45;&gt;N265565</title>
<path fill="none" stroke="#000000" d="M125.0073,-143.8314C125.0073,-136.131 125.0073,-126.9743 125.0073,-118.4166"/>
<polygon fill="#000000" stroke="#000000" points="128.5074,-118.4132 125.0073,-108.4133 121.5074,-118.4133 128.5074,-118.4132"/>
</g>
<!-- N265566 -->
<g id="node8" class="node">
<title>N265566</title>
<ellipse fill="#d3d3d3" stroke="#000000" cx="82.0073" cy="-18" rx="40.0147" ry="18"/>
<text text-anchor="middle" x="82.0073" y="-13.8" font-family="Times,serif" font-size="14.00" fill="#000000">0.108...</text>
</g>
<!-- N265565&#45;&gt;N265566 -->
<g id="edge7" class="edge">
<title>N265565&#45;&gt;N265566</title>
<path fill="none" stroke="#000000" d="M114.8169,-72.937C109.6978,-64.3654 103.3827,-53.7914 97.6644,-44.2165"/>
<polygon fill="#000000" stroke="#000000" points="100.5557,-42.2315 92.4233,-35.4407 94.5459,-45.8207 100.5557,-42.2315"/>
</g>
<!-- N265567 -->
<g id="node9" class="node">
<title>N265567</title>
<ellipse fill="#d3d3d3" stroke="#000000" cx="167.0073" cy="-18" rx="27" ry="18"/>
<text text-anchor="middle" x="167.0073" y="-13.8" font-family="Times,serif" font-size="14.00" fill="#000000">dia</text>
</g>
<!-- N265565&#45;&gt;N265567 -->
<g id="edge8" class="edge">
<title>N265565&#45;&gt;N265567</title>
<path fill="none" stroke="#000000" d="M134.9608,-72.937C140.0344,-64.2393 146.3107,-53.4799 151.9604,-43.7948"/>
<polygon fill="#000000" stroke="#000000" points="155.1098,-45.3419 157.1254,-34.9405 149.0634,-41.8148 155.1098,-45.3419"/>
</g>
<!-- N265549 -->
<g id="node11" class="node">
<title>N265549</title>
<ellipse fill="#d3d3d3" stroke="#000000" cx="210.0073" cy="-162" rx="27" ry="18"/>
<text text-anchor="middle" x="210.0073" y="-157.8" font-family="Times,serif" font-size="14.00" fill="#000000">log</text>
</g>
<!-- N265548&#45;&gt;N265549 -->
<g id="edge10" class="edge">
<title>N265548&#45;&gt;N265549</title>
<path fill="none" stroke="#000000" d="M225.8163,-216.2022C223.4689,-208.1541 220.6412,-198.4588 218.0301,-189.5067"/>
<polygon fill="#000000" stroke="#000000" points="221.3715,-188.4625 215.2114,-179.8425 214.6515,-190.4226 221.3715,-188.4625"/>
</g>
<!-- N265551 -->
<g id="node13" class="node">
<title>N265551</title>
<ellipse fill="#d3d3d3" stroke="#000000" cx="282.0073" cy="-162" rx="27" ry="18"/>
<text text-anchor="middle" x="282.0073" y="-157.8" font-family="Times,serif" font-size="14.00" fill="#000000">log</text>
</g>
<!-- N265548&#45;&gt;N265551 -->
<g id="edge12" class="edge">
<title>N265548&#45;&gt;N265551</title>
<path fill="none" stroke="#000000" d="M242.58,-217.6621C248.9446,-208.6768 256.9789,-197.3343 264.1317,-187.2362"/>
<polygon fill="#000000" stroke="#000000" points="267.2024,-188.9562 270.1265,-178.7729 261.4902,-184.9101 267.2024,-188.9562"/>
</g>
<!-- N265550 -->
<g id="node12" class="node">
<title>N265550</title>
<ellipse fill="#d3d3d3" stroke="#000000" cx="210.0073" cy="-90" rx="40.0147" ry="18"/>
<text text-anchor="middle" x="210.0073" y="-85.8" font-family="Times,serif" font-size="14.00" fill="#000000">0.542...</text>
</g>
<!-- N265549&#45;&gt;N265550 -->
<g id="edge11" class="edge">
<title>N265549&#45;&gt;N265550</title>
<path fill="none" stroke="#000000" d="M210.0073,-143.8314C210.0073,-136.131 210.0073,-126.9743 210.0073,-118.4166"/>
<polygon fill="#000000" stroke="#000000" points="213.5074,-118.4132 210.0073,-108.4133 206.5074,-118.4133 213.5074,-118.4132"/>
</g>
<!-- N265552 -->
<g id="node14" class="node">
<title>N265552</title>
<ellipse fill="#d3d3d3" stroke="#000000" cx="308.0073" cy="-90" rx="40.0147" ry="18"/>
<text text-anchor="middle" x="308.0073" y="-85.8" font-family="Times,serif" font-size="14.00" fill="#000000">0.847...</text>
</g>
<!-- N265551&#45;&gt;N265552 -->
<g id="edge13" class="edge">
<title>N265551&#45;&gt;N265552</title>
<path fill="none" stroke="#000000" d="M288.4343,-144.2022C291.3406,-136.1541 294.8417,-126.4588 298.0744,-117.5067"/>
<polygon fill="#000000" stroke="#000000" points="301.4596,-118.4369 301.5642,-107.8425 294.8758,-116.0593 301.4596,-118.4369"/>
</g>
<!-- N265554 -->
<g id="node16" class="node">
<title>N265554</title>
<ellipse fill="#d3d3d3" stroke="#000000" cx="367.0073" cy="-234" rx="27" ry="18"/>
<text text-anchor="middle" x="367.0073" y="-229.8" font-family="Times,serif" font-size="14.00" fill="#000000">sub</text>
</g>
<!-- N265553&#45;&gt;N265554 -->
<g id="edge15" class="edge">
<title>N265553&#45;&gt;N265554</title>
<path fill="none" stroke="#000000" d="M350.4455,-288.2022C352.9047,-280.1541 355.8672,-270.4588 358.6025,-261.5067"/>
<polygon fill="#000000" stroke="#000000" points="361.9804,-262.4289 361.5555,-251.8425 355.286,-260.3833 361.9804,-262.4289"/>
</g>
<!-- N265555 -->
<g id="node17" class="node">
<title>N265555</title>
<ellipse fill="#d3d3d3" stroke="#000000" cx="367.0073" cy="-162" rx="40.0147" ry="18"/>
<text text-anchor="middle" x="367.0073" y="-157.8" font-family="Times,serif" font-size="14.00" fill="#000000">0.508...</text>
</g>
<!-- N265554&#45;&gt;N265555 -->
<g id="edge16" class="edge">
<title>N265554&#45;&gt;N265555</title>
<path fill="none" stroke="#000000" d="M367.0073,-215.8314C367.0073,-208.131 367.0073,-198.9743 367.0073,-190.4166"/>
<polygon fill="#000000" stroke="#000000" points="370.5074,-190.4132 367.0073,-180.4133 363.5074,-190.4133 370.5074,-190.4132"/>
</g>
<!-- N265556 -->
<g id="node18" class="node">
<title>N265556</title>
<ellipse fill="#d3d3d3" stroke="#000000" cx="452.0073" cy="-162" rx="27" ry="18"/>
<text text-anchor="middle" x="452.0073" y="-157.8" font-family="Times,serif" font-size="14.00" fill="#000000">sin</text>
</g>
<!-- N265554&#45;&gt;N265556 -->
<g id="edge17" class="edge">
<title>N265554&#45;&gt;N265556</title>
<path fill="none" stroke="#000000" d="M383.8006,-219.7751C396.2575,-209.2234 413.4339,-194.674 427.4332,-182.8157"/>
<polygon fill="#000000" stroke="#000000" points="429.8807,-185.3295 435.249,-176.1953 425.3563,-179.9881 429.8807,-185.3295"/>
</g>
<!-- N265557 -->
<g id="node19" class="node">
<title>N265557</title>
<ellipse fill="#d3d3d3" stroke="#000000" cx="429.0073" cy="-90" rx="40.0147" ry="18"/>
<text text-anchor="middle" x="429.0073" y="-85.8" font-family="Times,serif" font-size="14.00" fill="#000000">0.716...</text>
</g>
<!-- N265556&#45;&gt;N265557 -->
<g id="edge18" class="edge">
<title>N265556&#45;&gt;N265557</title>
<path fill="none" stroke="#000000" d="M446.3219,-144.2022C443.751,-136.1541 440.6539,-126.4588 437.7942,-117.5067"/>
<polygon fill="#000000" stroke="#000000" points="441.0841,-116.3033 434.707,-107.8425 434.416,-118.4334 441.0841,-116.3033"/>
</g>
<!-- N265558 -->
<g id="node20" class="node">
<title>N265558</title>
<ellipse fill="#d3d3d3" stroke="#000000" cx="527.0073" cy="-90" rx="40.0147" ry="18"/>
<text text-anchor="middle" x="527.0073" y="-85.8" font-family="Times,serif" font-size="14.00" fill="#000000">0.720...</text>
</g>
<!-- N265556&#45;&gt;N265558 -->
<g id="edge19" class="edge">
<title>N265556&#45;&gt;N265558</title>
<path fill="none" stroke="#000000" d="M467.5474,-147.0816C477.684,-137.3504 491.1258,-124.4462 502.6645,-113.3691"/>
<polygon fill="#000000" stroke="#000000" points="505.1283,-115.8557 509.9183,-106.4055 500.2805,-110.806 505.1283,-115.8557"/>
</g>
</g>
</svg>
