<?xml version="1.0" encoding="UTF-8" standalone="no"?>
<!DOCTYPE svg PUBLIC "-//W3C//DTD SVG 1.1//EN"
 "http://www.w3.org/Graphics/SVG/1.1/DTD/svg11.dtd">
<!-- Generated by graphviz version 2.40.1 (20161225.0304)
 -->
<!-- Title: G354423 Pages: 1 -->
<svg width="1092pt" height="908pt"
 viewBox="0.00 0.00 1092.01 908.00" xmlns="http://www.w3.org/2000/svg" xmlns:xlink="http://www.w3.org/1999/xlink">
<g id="graph0" class="graph" transform="scale(1 1) rotate(0) translate(4 904)">
<title>G354423</title>
<polygon fill="#ffffff" stroke="transparent" points="-4,4 -4,-904 1088.0073,-904 1088.0073,4 -4,4"/>
<!-- N354423 -->
<g id="node1" class="node">
<title>N354423</title>
<ellipse fill="#d3d3d3" stroke="#000000" cx="305.0073" cy="-882" rx="44.629" ry="18"/>
<text text-anchor="middle" x="305.0073" y="-877.8" font-family="Times,serif" font-size="14.00" fill="#000000">N3544...</text>
</g>
<!-- N354424 -->
<g id="node2" class="node">
<title>N354424</title>
<ellipse fill="#d3d3d3" stroke="#000000" cx="305.0073" cy="-810" rx="27" ry="18"/>
<text text-anchor="middle" x="305.0073" y="-805.8" font-family="Times,serif" font-size="14.00" fill="#000000">add</text>
</g>
<!-- N354423&#45;&gt;N354424 -->
<g id="edge1" class="edge">
<title>N354423&#45;&gt;N354424</title>
<path fill="none" stroke="#000000" d="M305.0073,-863.8314C305.0073,-856.131 305.0073,-846.9743 305.0073,-838.4166"/>
<polygon fill="#000000" stroke="#000000" points="308.5074,-838.4132 305.0073,-828.4133 301.5074,-838.4133 308.5074,-838.4132"/>
</g>
<!-- N354425 -->
<g id="node3" class="node">
<title>N354425</title>
<ellipse fill="#d3d3d3" stroke="#000000" cx="269.0073" cy="-738" rx="27" ry="18"/>
<text text-anchor="middle" x="269.0073" y="-733.8" font-family="Times,serif" font-size="14.00" fill="#000000">cos</text>
</g>
<!-- N354424&#45;&gt;N354425 -->
<g id="edge2" class="edge">
<title>N354424&#45;&gt;N354425</title>
<path fill="none" stroke="#000000" d="M296.2927,-792.5708C292.0477,-784.0807 286.8538,-773.6929 282.141,-764.2674"/>
<polygon fill="#000000" stroke="#000000" points="285.2444,-762.6477 277.6417,-755.2687 278.9834,-765.7782 285.2444,-762.6477"/>
</g>
<!-- N354430 -->
<g id="node8" class="node">
<title>N354430</title>
<ellipse fill="#d3d3d3" stroke="#000000" cx="347.0073" cy="-738" rx="27" ry="18"/>
<text text-anchor="middle" x="347.0073" y="-733.8" font-family="Times,serif" font-size="14.00" fill="#000000">add</text>
</g>
<!-- N354424&#45;&gt;N354430 -->
<g id="edge7" class="edge">
<title>N354424&#45;&gt;N354430</title>
<path fill="none" stroke="#000000" d="M314.9608,-792.937C320.0344,-784.2393 326.3107,-773.4799 331.9604,-763.7948"/>
<polygon fill="#000000" stroke="#000000" points="335.1098,-765.3419 337.1254,-754.9405 329.0634,-761.8148 335.1098,-765.3419"/>
</g>
<!-- N354426 -->
<g id="node4" class="node">
<title>N354426</title>
<ellipse fill="#d3d3d3" stroke="#000000" cx="226.0073" cy="-666" rx="27" ry="18"/>
<text text-anchor="middle" x="226.0073" y="-661.8" font-family="Times,serif" font-size="14.00" fill="#000000">sub</text>
</g>
<!-- N354425&#45;&gt;N354426 -->
<g id="edge3" class="edge">
<title>N354425&#45;&gt;N354426</title>
<path fill="none" stroke="#000000" d="M258.8169,-720.937C253.6225,-712.2393 247.1967,-701.4799 241.4126,-691.7948"/>
<polygon fill="#000000" stroke="#000000" points="244.257,-689.7314 236.1246,-682.9405 238.2471,-693.3206 244.257,-689.7314"/>
</g>
<!-- N354427 -->
<g id="node5" class="node">
<title>N354427</title>
<ellipse fill="#d3d3d3" stroke="#000000" cx="141.0073" cy="-594" rx="27" ry="18"/>
<text text-anchor="middle" x="141.0073" y="-589.8" font-family="Times,serif" font-size="14.00" fill="#000000">sin</text>
</g>
<!-- N354426&#45;&gt;N354427 -->
<g id="edge4" class="edge">
<title>N354426&#45;&gt;N354427</title>
<path fill="none" stroke="#000000" d="M209.2141,-651.7751C196.7572,-641.2234 179.5808,-626.674 165.5815,-614.8157"/>
<polygon fill="#000000" stroke="#000000" points="167.6584,-611.9881 157.7657,-608.1953 163.134,-617.3295 167.6584,-611.9881"/>
</g>
<!-- N354429 -->
<g id="node7" class="node">
<title>N354429</title>
<ellipse fill="#d3d3d3" stroke="#000000" cx="226.0073" cy="-594" rx="40.0147" ry="18"/>
<text text-anchor="middle" x="226.0073" y="-589.8" font-family="Times,serif" font-size="14.00" fill="#000000">0.895...</text>
</g>
<!-- N354426&#45;&gt;N354429 -->
<g id="edge6" class="edge">
<title>N354426&#45;&gt;N354429</title>
<path fill="none" stroke="#000000" d="M226.0073,-647.8314C226.0073,-640.131 226.0073,-630.9743 226.0073,-622.4166"/>
<polygon fill="#000000" stroke="#000000" points="229.5074,-622.4132 226.0073,-612.4133 222.5074,-622.4133 229.5074,-622.4132"/>
</g>
<!-- N354428 -->
<g id="node6" class="node">
<title>N354428</title>
<ellipse fill="#d3d3d3" stroke="#000000" cx="141.0073" cy="-522" rx="40.0147" ry="18"/>
<text text-anchor="middle" x="141.0073" y="-517.8" font-family="Times,serif" font-size="14.00" fill="#000000">0.807...</text>
</g>
<!-- N354427&#45;&gt;N354428 -->
<g id="edge5" class="edge">
<title>N354427&#45;&gt;N354428</title>
<path fill="none" stroke="#000000" d="M141.0073,-575.8314C141.0073,-568.131 141.0073,-558.9743 141.0073,-550.4166"/>
<polygon fill="#000000" stroke="#000000" points="144.5074,-550.4132 141.0073,-540.4133 137.5074,-550.4133 144.5074,-550.4132"/>
</g>
<!-- N354431 -->
<g id="node9" class="node">
<title>N354431</title>
<ellipse fill="#d3d3d3" stroke="#000000" cx="347.0073" cy="-666" rx="27" ry="18"/>
<text text-anchor="middle" x="347.0073" y="-661.8" font-family="Times,serif" font-size="14.00" fill="#000000">mul</text>
</g>
<!-- N354430&#45;&gt;N354431 -->
<g id="edge8" class="edge">
<title>N354430&#45;&gt;N354431</title>
<path fill="none" stroke="#000000" d="M347.0073,-719.8314C347.0073,-712.131 347.0073,-702.9743 347.0073,-694.4166"/>
<polygon fill="#000000" stroke="#000000" points="350.5074,-694.4132 347.0073,-684.4133 343.5074,-694.4133 350.5074,-694.4132"/>
</g>
<!-- N354454 -->
<g id="node55" class="node">
<title>N354454</title>
<ellipse fill="#d3d3d3" stroke="#000000" cx="440.0073" cy="-666" rx="27" ry="18"/>
<text text-anchor="middle" x="440.0073" y="-661.8" font-family="Times,serif" font-size="14.00" fill="#000000">sin</text>
</g>
<!-- N354430&#45;&gt;N354454 -->
<g id="edge54" class="edge">
<title>N354430&#45;&gt;N354454</title>
<path fill="none" stroke="#000000" d="M364.9387,-724.1177C378.8337,-713.3602 398.2854,-698.3009 413.9064,-686.2072"/>
<polygon fill="#000000" stroke="#000000" points="416.3664,-688.729 422.1311,-679.8397 412.0812,-683.1939 416.3664,-688.729"/>
</g>
<!-- N354432 -->
<g id="node10" class="node">
<title>N354432</title>
<ellipse fill="#d3d3d3" stroke="#000000" cx="311.0073" cy="-594" rx="27" ry="18"/>
<text text-anchor="middle" x="311.0073" y="-589.8" font-family="Times,serif" font-size="14.00" fill="#000000">sin</text>
</g>
<!-- N354431&#45;&gt;N354432 -->
<g id="edge9" class="edge">
<title>N354431&#45;&gt;N354432</title>
<path fill="none" stroke="#000000" d="M338.2927,-648.5708C334.0477,-640.0807 328.8538,-629.6929 324.141,-620.2674"/>
<polygon fill="#000000" stroke="#000000" points="327.2444,-618.6477 319.6417,-611.2687 320.9834,-621.7782 327.2444,-618.6477"/>
</g>
<!-- N354435 -->
<g id="node13" class="node">
<title>N354435</title>
<ellipse fill="#d3d3d3" stroke="#000000" cx="383.0073" cy="-594" rx="27" ry="18"/>
<text text-anchor="middle" x="383.0073" y="-589.8" font-family="Times,serif" font-size="14.00" fill="#000000">add</text>
</g>
<!-- N354431&#45;&gt;N354435 -->
<g id="edge12" class="edge">
<title>N354431&#45;&gt;N354435</title>
<path fill="none" stroke="#000000" d="M355.7219,-648.5708C359.967,-640.0807 365.1609,-629.6929 369.8736,-620.2674"/>
<polygon fill="#000000" stroke="#000000" points="373.0313,-621.7782 374.373,-611.2687 366.7703,-618.6477 373.0313,-621.7782"/>
</g>
<!-- N354433 -->
<g id="node11" class="node">
<title>N354433</title>
<ellipse fill="#d3d3d3" stroke="#000000" cx="267.0073" cy="-522" rx="27" ry="18"/>
<text text-anchor="middle" x="267.0073" y="-517.8" font-family="Times,serif" font-size="14.00" fill="#000000">cos</text>
</g>
<!-- N354432&#45;&gt;N354433 -->
<g id="edge10" class="edge">
<title>N354432&#45;&gt;N354433</title>
<path fill="none" stroke="#000000" d="M300.8023,-577.3008C295.4377,-568.5224 288.7447,-557.5703 282.7336,-547.7339"/>
<polygon fill="#000000" stroke="#000000" points="285.6637,-545.8164 277.4626,-539.1086 279.6907,-549.4666 285.6637,-545.8164"/>
</g>
<!-- N354434 -->
<g id="node12" class="node">
<title>N354434</title>
<ellipse fill="#d3d3d3" stroke="#000000" cx="255.0073" cy="-450" rx="40.0147" ry="18"/>
<text text-anchor="middle" x="255.0073" y="-445.8" font-family="Times,serif" font-size="14.00" fill="#000000">0.667...</text>
</g>
<!-- N354433&#45;&gt;N354434 -->
<g id="edge11" class="edge">
<title>N354433&#45;&gt;N354434</title>
<path fill="none" stroke="#000000" d="M263.9792,-503.8314C262.6958,-496.131 261.1697,-486.9743 259.7434,-478.4166"/>
<polygon fill="#000000" stroke="#000000" points="263.1727,-477.7018 258.0762,-468.4133 256.2679,-478.8526 263.1727,-477.7018"/>
</g>
<!-- N354436 -->
<g id="node14" class="node">
<title>N354436</title>
<ellipse fill="#d3d3d3" stroke="#000000" cx="345.0073" cy="-522" rx="27" ry="18"/>
<text text-anchor="middle" x="345.0073" y="-517.8" font-family="Times,serif" font-size="14.00" fill="#000000">sin</text>
</g>
<!-- N354435&#45;&gt;N354436 -->
<g id="edge13" class="edge">
<title>N354435&#45;&gt;N354436</title>
<path fill="none" stroke="#000000" d="M374.0019,-576.937C369.5246,-568.4537 364.0122,-558.0092 359.0003,-548.513"/>
<polygon fill="#000000" stroke="#000000" points="361.9751,-546.6509 354.2121,-539.4407 355.7844,-549.9182 361.9751,-546.6509"/>
</g>
<!-- N354448 -->
<g id="node26" class="node">
<title>N354448</title>
<ellipse fill="none" stroke="#000000" cx="420.0073" cy="-522" rx="27" ry="18"/>
<text text-anchor="middle" x="420.0073" y="-517.8" font-family="Times,serif" font-size="14.00" fill="#000000">add</text>
</g>
<!-- N354435&#45;&gt;N354448 -->
<g id="edge25" class="edge">
<title>N354435&#45;&gt;N354448</title>
<path fill="none" stroke="#000000" d="M391.7758,-576.937C396.1353,-568.4537 401.5026,-558.0092 406.3826,-548.513"/>
<polygon fill="#000000" stroke="#000000" points="409.587,-549.9348 411.0448,-539.4407 403.361,-546.7352 409.587,-549.9348"/>
</g>
<!-- N354437 -->
<g id="node15" class="node">
<title>N354437</title>
<ellipse fill="#d3d3d3" stroke="#000000" cx="340.0073" cy="-450" rx="27" ry="18"/>
<text text-anchor="middle" x="340.0073" y="-445.8" font-family="Times,serif" font-size="14.00" fill="#000000">sub</text>
</g>
<!-- N354436&#45;&gt;N354437 -->
<g id="edge14" class="edge">
<title>N354436&#45;&gt;N354437</title>
<path fill="none" stroke="#000000" d="M343.7456,-503.8314C343.2109,-496.131 342.575,-486.9743 341.9807,-478.4166"/>
<polygon fill="#000000" stroke="#000000" points="345.4705,-478.1467 341.286,-468.4133 338.4873,-478.6317 345.4705,-478.1467"/>
</g>
<!-- N354438 -->
<g id="node16" class="node">
<title>N354438</title>
<ellipse fill="#d3d3d3" stroke="#000000" cx="236.0073" cy="-378" rx="27" ry="18"/>
<text text-anchor="middle" x="236.0073" y="-373.8" font-family="Times,serif" font-size="14.00" fill="#000000">add</text>
</g>
<!-- N354437&#45;&gt;N354438 -->
<g id="edge15" class="edge">
<title>N354437&#45;&gt;N354438</title>
<path fill="none" stroke="#000000" d="M320.9321,-436.7941C304.806,-425.6298 281.5032,-409.4971 263.3852,-396.9539"/>
<polygon fill="#000000" stroke="#000000" points="265.1758,-393.9367 254.9616,-391.1222 261.1913,-399.692 265.1758,-393.9367"/>
</g>
<!-- N354444 -->
<g id="node22" class="node">
<title>N354444</title>
<ellipse fill="#d3d3d3" stroke="#000000" cx="338.0073" cy="-378" rx="27" ry="18"/>
<text text-anchor="middle" x="338.0073" y="-373.8" font-family="Times,serif" font-size="14.00" fill="#000000">log</text>
</g>
<!-- N354437&#45;&gt;N354444 -->
<g id="edge21" class="edge">
<title>N354437&#45;&gt;N354444</title>
<path fill="none" stroke="#000000" d="M339.5027,-431.8314C339.2888,-424.131 339.0344,-414.9743 338.7967,-406.4166"/>
<polygon fill="#000000" stroke="#000000" points="342.2952,-406.3122 338.5188,-396.4133 335.2979,-406.5066 342.2952,-406.3122"/>
</g>
<!-- N354439 -->
<g id="node17" class="node">
<title>N354439</title>
<ellipse fill="#d3d3d3" stroke="#000000" cx="138.0073" cy="-306" rx="27" ry="18"/>
<text text-anchor="middle" x="138.0073" y="-301.8" font-family="Times,serif" font-size="14.00" fill="#000000">add</text>
</g>
<!-- N354438&#45;&gt;N354439 -->
<g id="edge16" class="edge">
<title>N354438&#45;&gt;N354439</title>
<path fill="none" stroke="#000000" d="M217.5743,-364.4574C202.6542,-353.4956 181.4387,-337.9088 164.6666,-325.5864"/>
<polygon fill="#000000" stroke="#000000" points="166.4889,-322.5821 156.3577,-319.4819 162.3443,-328.2233 166.4889,-322.5821"/>
</g>
<!-- N354442 -->
<g id="node20" class="node">
<title>N354442</title>
<ellipse fill="#d3d3d3" stroke="#000000" cx="236.0073" cy="-306" rx="27" ry="18"/>
<text text-anchor="middle" x="236.0073" y="-301.8" font-family="Times,serif" font-size="14.00" fill="#000000">cos</text>
</g>
<!-- N354438&#45;&gt;N354442 -->
<g id="edge19" class="edge">
<title>N354438&#45;&gt;N354442</title>
<path fill="none" stroke="#000000" d="M236.0073,-359.8314C236.0073,-352.131 236.0073,-342.9743 236.0073,-334.4166"/>
<polygon fill="#000000" stroke="#000000" points="239.5074,-334.4132 236.0073,-324.4133 232.5074,-334.4133 239.5074,-334.4132"/>
</g>
<!-- N354440 -->
<g id="node18" class="node">
<title>N354440</title>
<ellipse fill="#d3d3d3" stroke="#000000" cx="40.0073" cy="-234" rx="40.0147" ry="18"/>
<text text-anchor="middle" x="40.0073" y="-229.8" font-family="Times,serif" font-size="14.00" fill="#000000">0.757...</text>
</g>
<!-- N354439&#45;&gt;N354440 -->
<g id="edge17" class="edge">
<title>N354439&#45;&gt;N354440</title>
<path fill="none" stroke="#000000" d="M119.5743,-292.4574C105.4096,-282.0507 85.571,-267.4753 69.247,-255.4822"/>
<polygon fill="#000000" stroke="#000000" points="71.2108,-252.5819 61.0797,-249.4817 67.0663,-258.2231 71.2108,-252.5819"/>
</g>
<!-- N354441 -->
<g id="node19" class="node">
<title>N354441</title>
<ellipse fill="#d3d3d3" stroke="#000000" cx="138.0073" cy="-234" rx="40.0147" ry="18"/>
<text text-anchor="middle" x="138.0073" y="-229.8" font-family="Times,serif" font-size="14.00" fill="#000000">0.291...</text>
</g>
<!-- N354439&#45;&gt;N354441 -->
<g id="edge18" class="edge">
<title>N354439&#45;&gt;N354441</title>
<path fill="none" stroke="#000000" d="M138.0073,-287.8314C138.0073,-280.131 138.0073,-270.9743 138.0073,-262.4166"/>
<polygon fill="#000000" stroke="#000000" points="141.5074,-262.4132 138.0073,-252.4133 134.5074,-262.4133 141.5074,-262.4132"/>
</g>
<!-- N354443 -->
<g id="node21" class="node">
<title>N354443</title>
<ellipse fill="#d3d3d3" stroke="#000000" cx="236.0073" cy="-234" rx="40.0147" ry="18"/>
<text text-anchor="middle" x="236.0073" y="-229.8" font-family="Times,serif" font-size="14.00" fill="#000000">0.506...</text>
</g>
<!-- N354442&#45;&gt;N354443 -->
<g id="edge20" class="edge">
<title>N354442&#45;&gt;N354443</title>
<path fill="none" stroke="#000000" d="M236.0073,-287.8314C236.0073,-280.131 236.0073,-270.9743 236.0073,-262.4166"/>
<polygon fill="#000000" stroke="#000000" points="239.5074,-262.4132 236.0073,-252.4133 232.5074,-262.4133 239.5074,-262.4132"/>
</g>
<!-- N354445 -->
<g id="node23" class="node">
<title>N354445</title>
<ellipse fill="#d3d3d3" stroke="#000000" cx="338.0073" cy="-306" rx="27" ry="18"/>
<text text-anchor="middle" x="338.0073" y="-301.8" font-family="Times,serif" font-size="14.00" fill="#000000">add</text>
</g>
<!-- N354444&#45;&gt;N354445 -->
<g id="edge22" class="edge">
<title>N354444&#45;&gt;N354445</title>
<path fill="none" stroke="#000000" d="M338.0073,-359.8314C338.0073,-352.131 338.0073,-342.9743 338.0073,-334.4166"/>
<polygon fill="#000000" stroke="#000000" points="341.5074,-334.4132 338.0073,-324.4133 334.5074,-334.4133 341.5074,-334.4132"/>
</g>
<!-- N354446 -->
<g id="node24" class="node">
<title>N354446</title>
<ellipse fill="#d3d3d3" stroke="#000000" cx="334.0073" cy="-234" rx="40.0147" ry="18"/>
<text text-anchor="middle" x="334.0073" y="-229.8" font-family="Times,serif" font-size="14.00" fill="#000000">0.665...</text>
</g>
<!-- N354445&#45;&gt;N354446 -->
<g id="edge23" class="edge">
<title>N354445&#45;&gt;N354446</title>
<path fill="none" stroke="#000000" d="M336.998,-287.8314C336.5702,-280.131 336.0615,-270.9743 335.586,-262.4166"/>
<polygon fill="#000000" stroke="#000000" points="339.0797,-262.2037 335.0303,-252.4133 332.0905,-262.592 339.0797,-262.2037"/>
</g>
<!-- N354447 -->
<g id="node25" class="node">
<title>N354447</title>
<ellipse fill="#d3d3d3" stroke="#000000" cx="432.0073" cy="-234" rx="40.0147" ry="18"/>
<text text-anchor="middle" x="432.0073" y="-229.8" font-family="Times,serif" font-size="14.00" fill="#000000">0.573...</text>
</g>
<!-- N354445&#45;&gt;N354447 -->
<g id="edge24" class="edge">
<title>N354445&#45;&gt;N354447</title>
<path fill="none" stroke="#000000" d="M356.1315,-292.1177C369.5457,-281.8429 388.0837,-267.6437 403.4778,-255.8524"/>
<polygon fill="#000000" stroke="#000000" points="405.8436,-258.4491 411.6542,-249.5897 401.5871,-252.8919 405.8436,-258.4491"/>
</g>
<!-- N354449 -->
<g id="node27" class="node">
<title>N354449</title>
<ellipse fill="#d3d3d3" stroke="#000000" cx="422.0073" cy="-450" rx="27" ry="18"/>
<text text-anchor="middle" x="422.0073" y="-445.8" font-family="Times,serif" font-size="14.00" fill="#000000">cos</text>
</g>
<!-- N354448&#45;&gt;N354449 -->
<g id="edge26" class="edge">
<title>N354448&#45;&gt;N354449</title>
<path fill="none" stroke="#000000" d="M420.512,-503.8314C420.7259,-496.131 420.9803,-486.9743 421.218,-478.4166"/>
<polygon fill="#000000" stroke="#000000" points="424.7167,-478.5066 421.4959,-468.4133 417.7194,-478.3122 424.7167,-478.5066"/>
</g>
<!-- N354461 -->
<g id="node29" class="node">
<title>N354461</title>
<ellipse fill="none" stroke="#000000" stroke-dasharray="5,2" cx="500.0073" cy="-450" rx="27" ry="18"/>
<text text-anchor="middle" x="500.0073" y="-445.8" font-family="Times,serif" font-size="14.00" fill="#000000">log</text>
</g>
<!-- N354448&#45;&gt;N354461 -->
<g id="edge28" class="edge">
<title>N354448&#45;&gt;N354461</title>
<path fill="none" stroke="#000000" d="M436.1965,-507.4297C447.6906,-497.0851 463.3089,-483.0286 476.2167,-471.4116"/>
<polygon fill="#000000" stroke="#000000" points="478.7506,-473.8398 483.8422,-464.5486 474.0679,-468.6367 478.7506,-473.8398"/>
</g>
<!-- N354450 -->
<g id="node28" class="node">
<title>N354450</title>
<ellipse fill="#d3d3d3" stroke="#000000" cx="423.0073" cy="-378" rx="40.0147" ry="18"/>
<text text-anchor="middle" x="423.0073" y="-373.8" font-family="Times,serif" font-size="14.00" fill="#000000">0.890...</text>
</g>
<!-- N354449&#45;&gt;N354450 -->
<g id="edge27" class="edge">
<title>N354449&#45;&gt;N354450</title>
<path fill="none" stroke="#000000" d="M422.2597,-431.8314C422.3666,-424.131 422.4938,-414.9743 422.6127,-406.4166"/>
<polygon fill="#000000" stroke="#000000" points="426.1123,-406.4609 422.7516,-396.4133 419.113,-406.3637 426.1123,-406.4609"/>
</g>
<!-- N354462 -->
<g id="node30" class="node">
<title>N354462</title>
<ellipse fill="#d3d3d3" stroke="#000000" cx="511.0073" cy="-378" rx="27" ry="18"/>
<text text-anchor="middle" x="511.0073" y="-373.8" font-family="Times,serif" font-size="14.00" fill="#000000">log</text>
</g>
<!-- N354461&#45;&gt;N354462 -->
<g id="edge29" class="edge">
<title>N354461&#45;&gt;N354462</title>
<path fill="none" stroke="#000000" d="M502.7831,-431.8314C503.9777,-424.0125 505.4016,-414.6923 506.7262,-406.0221"/>
<polygon fill="#000000" stroke="#000000" points="510.2201,-406.3273 508.2706,-395.9134 503.3004,-405.2701 510.2201,-406.3273"/>
</g>
<!-- N354463 -->
<g id="node31" class="node">
<title>N354463</title>
<ellipse fill="#d3d3d3" stroke="#000000" cx="517.0073" cy="-306" rx="27" ry="18"/>
<text text-anchor="middle" x="517.0073" y="-301.8" font-family="Times,serif" font-size="14.00" fill="#000000">add</text>
</g>
<!-- N354462&#45;&gt;N354463 -->
<g id="edge30" class="edge">
<title>N354462&#45;&gt;N354463</title>
<path fill="none" stroke="#000000" d="M512.5214,-359.8314C513.1631,-352.131 513.9261,-342.9743 514.6393,-334.4166"/>
<polygon fill="#000000" stroke="#000000" points="518.1303,-334.6694 515.4729,-324.4133 511.1544,-334.088 518.1303,-334.6694"/>
</g>
<!-- N354464 -->
<g id="node32" class="node">
<title>N354464</title>
<ellipse fill="#d3d3d3" stroke="#000000" cx="517.0073" cy="-234" rx="27" ry="18"/>
<text text-anchor="middle" x="517.0073" y="-229.8" font-family="Times,serif" font-size="14.00" fill="#000000">add</text>
</g>
<!-- N354463&#45;&gt;N354464 -->
<g id="edge31" class="edge">
<title>N354463&#45;&gt;N354464</title>
<path fill="none" stroke="#000000" d="M517.0073,-287.8314C517.0073,-280.131 517.0073,-270.9743 517.0073,-262.4166"/>
<polygon fill="#000000" stroke="#000000" points="520.5074,-262.4132 517.0073,-252.4133 513.5074,-262.4133 520.5074,-262.4132"/>
</g>
<!-- N354474 -->
<g id="node42" class="node">
<title>N354474</title>
<ellipse fill="#d3d3d3" stroke="#000000" cx="658.0073" cy="-234" rx="27" ry="18"/>
<text text-anchor="middle" x="658.0073" y="-229.8" font-family="Times,serif" font-size="14.00" fill="#000000">add</text>
</g>
<!-- N354463&#45;&gt;N354474 -->
<g id="edge41" class="edge">
<title>N354463&#45;&gt;N354474</title>
<path fill="none" stroke="#000000" d="M538.7296,-294.9078C562.5006,-282.7694 600.7834,-263.2207 627.5479,-249.5538"/>
<polygon fill="#000000" stroke="#000000" points="629.1775,-252.6516 636.4918,-244.9867 625.994,-246.4174 629.1775,-252.6516"/>
</g>
<!-- N354465 -->
<g id="node33" class="node">
<title>N354465</title>
<ellipse fill="#d3d3d3" stroke="#000000" cx="377.0073" cy="-162" rx="27" ry="18"/>
<text text-anchor="middle" x="377.0073" y="-157.8" font-family="Times,serif" font-size="14.00" fill="#000000">sin</text>
</g>
<!-- N354464&#45;&gt;N354465 -->
<g id="edge32" class="edge">
<title>N354464&#45;&gt;N354465</title>
<path fill="none" stroke="#000000" d="M495.4392,-222.9078C472.0764,-210.8927 434.596,-191.617 408.0639,-177.9719"/>
<polygon fill="#000000" stroke="#000000" points="409.3243,-174.6845 398.8307,-173.2234 406.1228,-180.9095 409.3243,-174.6845"/>
</g>
<!-- N354470 -->
<g id="node38" class="node">
<title>N354470</title>
<ellipse fill="#d3d3d3" stroke="#000000" cx="517.0073" cy="-162" rx="27" ry="18"/>
<text text-anchor="middle" x="517.0073" y="-157.8" font-family="Times,serif" font-size="14.00" fill="#000000">log</text>
</g>
<!-- N354464&#45;&gt;N354470 -->
<g id="edge37" class="edge">
<title>N354464&#45;&gt;N354470</title>
<path fill="none" stroke="#000000" d="M517.0073,-215.8314C517.0073,-208.131 517.0073,-198.9743 517.0073,-190.4166"/>
<polygon fill="#000000" stroke="#000000" points="520.5074,-190.4132 517.0073,-180.4133 513.5074,-190.4133 520.5074,-190.4132"/>
</g>
<!-- N354466 -->
<g id="node34" class="node">
<title>N354466</title>
<ellipse fill="#d3d3d3" stroke="#000000" cx="292.0073" cy="-90" rx="40.0147" ry="18"/>
<text text-anchor="middle" x="292.0073" y="-85.8" font-family="Times,serif" font-size="14.00" fill="#000000">0.298...</text>
</g>
<!-- N354465&#45;&gt;N354466 -->
<g id="edge33" class="edge">
<title>N354465&#45;&gt;N354466</title>
<path fill="none" stroke="#000000" d="M360.2141,-147.7751C348.3234,-137.703 332.1325,-123.9884 318.5094,-112.4488"/>
<polygon fill="#000000" stroke="#000000" points="320.7297,-109.7426 310.837,-105.9498 316.2052,-115.084 320.7297,-109.7426"/>
</g>
<!-- N354467 -->
<g id="node35" class="node">
<title>N354467</title>
<ellipse fill="#d3d3d3" stroke="#000000" cx="377.0073" cy="-90" rx="27" ry="18"/>
<text text-anchor="middle" x="377.0073" y="-85.8" font-family="Times,serif" font-size="14.00" fill="#000000">sub</text>
</g>
<!-- N354465&#45;&gt;N354467 -->
<g id="edge34" class="edge">
<title>N354465&#45;&gt;N354467</title>
<path fill="none" stroke="#000000" d="M377.0073,-143.8314C377.0073,-136.131 377.0073,-126.9743 377.0073,-118.4166"/>
<polygon fill="#000000" stroke="#000000" points="380.5074,-118.4132 377.0073,-108.4133 373.5074,-118.4133 380.5074,-118.4132"/>
</g>
<!-- N354468 -->
<g id="node36" class="node">
<title>N354468</title>
<ellipse fill="#d3d3d3" stroke="#000000" cx="292.0073" cy="-18" rx="40.0147" ry="18"/>
<text text-anchor="middle" x="292.0073" y="-13.8" font-family="Times,serif" font-size="14.00" fill="#000000">0.612...</text>
</g>
<!-- N354467&#45;&gt;N354468 -->
<g id="edge35" class="edge">
<title>N354467&#45;&gt;N354468</title>
<path fill="none" stroke="#000000" d="M360.2141,-75.7751C348.3234,-65.703 332.1325,-51.9884 318.5094,-40.4488"/>
<polygon fill="#000000" stroke="#000000" points="320.7297,-37.7426 310.837,-33.9498 316.2052,-43.084 320.7297,-37.7426"/>
</g>
<!-- N354469 -->
<g id="node37" class="node">
<title>N354469</title>
<ellipse fill="#d3d3d3" stroke="#000000" cx="377.0073" cy="-18" rx="27" ry="18"/>
<text text-anchor="middle" x="377.0073" y="-13.8" font-family="Times,serif" font-size="14.00" fill="#000000">dia</text>
</g>
<!-- N354467&#45;&gt;N354469 -->
<g id="edge36" class="edge">
<title>N354467&#45;&gt;N354469</title>
<path fill="none" stroke="#000000" d="M377.0073,-71.8314C377.0073,-64.131 377.0073,-54.9743 377.0073,-46.4166"/>
<polygon fill="#000000" stroke="#000000" points="380.5074,-46.4132 377.0073,-36.4133 373.5074,-46.4133 380.5074,-46.4132"/>
</g>
<!-- N354471 -->
<g id="node39" class="node">
<title>N354471</title>
<ellipse fill="#d3d3d3" stroke="#000000" cx="517.0073" cy="-90" rx="27" ry="18"/>
<text text-anchor="middle" x="517.0073" y="-85.8" font-family="Times,serif" font-size="14.00" fill="#000000">sin</text>
</g>
<!-- N354470&#45;&gt;N354471 -->
<g id="edge38" class="edge">
<title>N354470&#45;&gt;N354471</title>
<path fill="none" stroke="#000000" d="M517.0073,-143.8314C517.0073,-136.131 517.0073,-126.9743 517.0073,-118.4166"/>
<polygon fill="#000000" stroke="#000000" points="520.5074,-118.4132 517.0073,-108.4133 513.5074,-118.4133 520.5074,-118.4132"/>
</g>
<!-- N354472 -->
<g id="node40" class="node">
<title>N354472</title>
<ellipse fill="#d3d3d3" stroke="#000000" cx="462.0073" cy="-18" rx="40.0147" ry="18"/>
<text text-anchor="middle" x="462.0073" y="-13.8" font-family="Times,serif" font-size="14.00" fill="#000000">0.479...</text>
</g>
<!-- N354471&#45;&gt;N354472 -->
<g id="edge39" class="edge">
<title>N354471&#45;&gt;N354472</title>
<path fill="none" stroke="#000000" d="M504.527,-73.6621C497.6435,-64.6509 488.9488,-53.2688 481.2182,-43.1488"/>
<polygon fill="#000000" stroke="#000000" points="483.864,-40.8466 475.0122,-35.0245 478.3013,-45.0959 483.864,-40.8466"/>
</g>
<!-- N354473 -->
<g id="node41" class="node">
<title>N354473</title>
<ellipse fill="#d3d3d3" stroke="#000000" cx="560.0073" cy="-18" rx="40.0147" ry="18"/>
<text text-anchor="middle" x="560.0073" y="-13.8" font-family="Times,serif" font-size="14.00" fill="#000000">0.564...</text>
</g>
<!-- N354471&#45;&gt;N354473 -->
<g id="edge40" class="edge">
<title>N354471&#45;&gt;N354473</title>
<path fill="none" stroke="#000000" d="M527.1977,-72.937C532.3169,-64.3654 538.6319,-53.7914 544.3502,-44.2165"/>
<polygon fill="#000000" stroke="#000000" points="547.4688,-45.8207 549.5914,-35.4407 541.459,-42.2315 547.4688,-45.8207"/>
</g>
<!-- N354475 -->
<g id="node43" class="node">
<title>N354475</title>
<ellipse fill="#d3d3d3" stroke="#000000" cx="658.0073" cy="-162" rx="27" ry="18"/>
<text text-anchor="middle" x="658.0073" y="-157.8" font-family="Times,serif" font-size="14.00" fill="#000000">add</text>
</g>
<!-- N354474&#45;&gt;N354475 -->
<g id="edge42" class="edge">
<title>N354474&#45;&gt;N354475</title>
<path fill="none" stroke="#000000" d="M658.0073,-215.8314C658.0073,-208.131 658.0073,-198.9743 658.0073,-190.4166"/>
<polygon fill="#000000" stroke="#000000" points="661.5074,-190.4132 658.0073,-180.4133 654.5074,-190.4133 661.5074,-190.4132"/>
</g>
<!-- N354480 -->
<g id="node48" class="node">
<title>N354480</title>
<ellipse fill="#d3d3d3" stroke="#000000" cx="877.0073" cy="-162" rx="27" ry="18"/>
<text text-anchor="middle" x="877.0073" y="-157.8" font-family="Times,serif" font-size="14.00" fill="#000000">sin</text>
</g>
<!-- N354474&#45;&gt;N354480 -->
<g id="edge47" class="edge">
<title>N354474&#45;&gt;N354480</title>
<path fill="none" stroke="#000000" d="M682.2809,-226.0196C721.4173,-213.1529 798.5661,-187.7889 843.1088,-173.1447"/>
<polygon fill="#000000" stroke="#000000" points="844.2184,-176.4643 852.625,-170.0161 842.0321,-169.8145 844.2184,-176.4643"/>
</g>
<!-- N354476 -->
<g id="node44" class="node">
<title>N354476</title>
<ellipse fill="#d3d3d3" stroke="#000000" cx="615.0073" cy="-90" rx="40.0147" ry="18"/>
<text text-anchor="middle" x="615.0073" y="-85.8" font-family="Times,serif" font-size="14.00" fill="#000000">0.519...</text>
</g>
<!-- N354475&#45;&gt;N354476 -->
<g id="edge43" class="edge">
<title>N354475&#45;&gt;N354476</title>
<path fill="none" stroke="#000000" d="M647.8169,-144.937C642.6978,-136.3654 636.3827,-125.7914 630.6644,-116.2165"/>
<polygon fill="#000000" stroke="#000000" points="633.5557,-114.2315 625.4233,-107.4407 627.5459,-117.8207 633.5557,-114.2315"/>
</g>
<!-- N354477 -->
<g id="node45" class="node">
<title>N354477</title>
<ellipse fill="#d3d3d3" stroke="#000000" cx="700.0073" cy="-90" rx="27" ry="18"/>
<text text-anchor="middle" x="700.0073" y="-85.8" font-family="Times,serif" font-size="14.00" fill="#000000">add</text>
</g>
<!-- N354475&#45;&gt;N354477 -->
<g id="edge44" class="edge">
<title>N354475&#45;&gt;N354477</title>
<path fill="none" stroke="#000000" d="M667.9608,-144.937C673.0344,-136.2393 679.3107,-125.4799 684.9604,-115.7948"/>
<polygon fill="#000000" stroke="#000000" points="688.1098,-117.3419 690.1254,-106.9405 682.0634,-113.8148 688.1098,-117.3419"/>
</g>
<!-- N354478 -->
<g id="node46" class="node">
<title>N354478</title>
<ellipse fill="#d3d3d3" stroke="#000000" cx="658.0073" cy="-18" rx="40.0147" ry="18"/>
<text text-anchor="middle" x="658.0073" y="-13.8" font-family="Times,serif" font-size="14.00" fill="#000000">0.074...</text>
</g>
<!-- N354477&#45;&gt;N354478 -->
<g id="edge45" class="edge">
<title>N354477&#45;&gt;N354478</title>
<path fill="none" stroke="#000000" d="M690.0539,-72.937C685.0538,-64.3654 678.8856,-53.7914 673.3003,-44.2165"/>
<polygon fill="#000000" stroke="#000000" points="676.2431,-42.3149 668.1811,-35.4407 670.1966,-45.842 676.2431,-42.3149"/>
</g>
<!-- N354479 -->
<g id="node47" class="node">
<title>N354479</title>
<ellipse fill="#d3d3d3" stroke="#000000" cx="756.0073" cy="-18" rx="40.0147" ry="18"/>
<text text-anchor="middle" x="756.0073" y="-13.8" font-family="Times,serif" font-size="14.00" fill="#000000">0.664...</text>
</g>
<!-- N354477&#45;&gt;N354479 -->
<g id="edge46" class="edge">
<title>N354477&#45;&gt;N354479</title>
<path fill="none" stroke="#000000" d="M712.7146,-73.6621C719.7233,-64.6509 728.576,-53.2688 736.4472,-43.1488"/>
<polygon fill="#000000" stroke="#000000" points="739.3894,-45.0669 742.7661,-35.0245 733.8639,-40.7693 739.3894,-45.0669"/>
</g>
<!-- N354481 -->
<g id="node49" class="node">
<title>N354481</title>
<ellipse fill="#d3d3d3" stroke="#000000" cx="877.0073" cy="-90" rx="27" ry="18"/>
<text text-anchor="middle" x="877.0073" y="-85.8" font-family="Times,serif" font-size="14.00" fill="#000000">sub</text>
</g>
<!-- N354480&#45;&gt;N354481 -->
<g id="edge48" class="edge">
<title>N354480&#45;&gt;N354481</title>
<path fill="none" stroke="#000000" d="M877.0073,-143.8314C877.0073,-136.131 877.0073,-126.9743 877.0073,-118.4166"/>
<polygon fill="#000000" stroke="#000000" points="880.5074,-118.4132 877.0073,-108.4133 873.5074,-118.4133 880.5074,-118.4132"/>
</g>
<!-- N354484 -->
<g id="node52" class="node">
<title>N354484</title>
<ellipse fill="#d3d3d3" stroke="#000000" cx="985.0073" cy="-90" rx="27" ry="18"/>
<text text-anchor="middle" x="985.0073" y="-85.8" font-family="Times,serif" font-size="14.00" fill="#000000">mul</text>
</g>
<!-- N354480&#45;&gt;N354484 -->
<g id="edge51" class="edge">
<title>N354480&#45;&gt;N354484</title>
<path fill="none" stroke="#000000" d="M896.3156,-149.1278C913.3628,-137.763 938.4092,-121.0654 957.5418,-108.3104"/>
<polygon fill="#000000" stroke="#000000" points="959.4872,-111.2199 965.8663,-102.7607 955.6043,-105.3956 959.4872,-111.2199"/>
</g>
<!-- N354482 -->
<g id="node50" class="node">
<title>N354482</title>
<ellipse fill="#d3d3d3" stroke="#000000" cx="841.0073" cy="-18" rx="27" ry="18"/>
<text text-anchor="middle" x="841.0073" y="-13.8" font-family="Times,serif" font-size="14.00" fill="#000000">dia</text>
</g>
<!-- N354481&#45;&gt;N354482 -->
<g id="edge49" class="edge">
<title>N354481&#45;&gt;N354482</title>
<path fill="none" stroke="#000000" d="M868.2927,-72.5708C864.0477,-64.0807 858.8538,-53.6929 854.141,-44.2674"/>
<polygon fill="#000000" stroke="#000000" points="857.2444,-42.6477 849.6417,-35.2687 850.9834,-45.7782 857.2444,-42.6477"/>
</g>
<!-- N354483 -->
<g id="node51" class="node">
<title>N354483</title>
<ellipse fill="#d3d3d3" stroke="#000000" cx="913.0073" cy="-18" rx="27" ry="18"/>
<text text-anchor="middle" x="913.0073" y="-13.8" font-family="Times,serif" font-size="14.00" fill="#000000">dia</text>
</g>
<!-- N354481&#45;&gt;N354483 -->
<g id="edge50" class="edge">
<title>N354481&#45;&gt;N354483</title>
<path fill="none" stroke="#000000" d="M885.7219,-72.5708C889.967,-64.0807 895.1609,-53.6929 899.8736,-44.2674"/>
<polygon fill="#000000" stroke="#000000" points="903.0313,-45.7782 904.373,-35.2687 896.7703,-42.6477 903.0313,-45.7782"/>
</g>
<!-- N354485 -->
<g id="node53" class="node">
<title>N354485</title>
<ellipse fill="#d3d3d3" stroke="#000000" cx="985.0073" cy="-18" rx="27" ry="18"/>
<text text-anchor="middle" x="985.0073" y="-13.8" font-family="Times,serif" font-size="14.00" fill="#000000">dia</text>
</g>
<!-- N354484&#45;&gt;N354485 -->
<g id="edge52" class="edge">
<title>N354484&#45;&gt;N354485</title>
<path fill="none" stroke="#000000" d="M985.0073,-71.8314C985.0073,-64.131 985.0073,-54.9743 985.0073,-46.4166"/>
<polygon fill="#000000" stroke="#000000" points="988.5074,-46.4132 985.0073,-36.4133 981.5074,-46.4133 988.5074,-46.4132"/>
</g>
<!-- N354486 -->
<g id="node54" class="node">
<title>N354486</title>
<ellipse fill="#d3d3d3" stroke="#000000" cx="1057.0073" cy="-18" rx="27" ry="18"/>
<text text-anchor="middle" x="1057.0073" y="-13.8" font-family="Times,serif" font-size="14.00" fill="#000000">dia</text>
</g>
<!-- N354484&#45;&gt;N354486 -->
<g id="edge53" class="edge">
<title>N354484&#45;&gt;N354486</title>
<path fill="none" stroke="#000000" d="M1000.2767,-74.7307C1010.2043,-64.803 1023.3226,-51.6847 1034.4437,-40.5637"/>
<polygon fill="#000000" stroke="#000000" points="1037.1638,-42.7933 1041.76,-33.2473 1032.214,-37.8436 1037.1638,-42.7933"/>
</g>
<!-- N354455 -->
<g id="node56" class="node">
<title>N354455</title>
<ellipse fill="#d3d3d3" stroke="#000000" cx="461.0073" cy="-594" rx="27" ry="18"/>
<text text-anchor="middle" x="461.0073" y="-589.8" font-family="Times,serif" font-size="14.00" fill="#000000">cos</text>
</g>
<!-- N354454&#45;&gt;N354455 -->
<g id="edge55" class="edge">
<title>N354454&#45;&gt;N354455</title>
<path fill="none" stroke="#000000" d="M445.1984,-648.2022C447.5457,-640.1541 450.3735,-630.4588 452.9846,-621.5067"/>
<polygon fill="#000000" stroke="#000000" points="456.3632,-622.4226 455.8033,-611.8425 449.6432,-620.4625 456.3632,-622.4226"/>
</g>
<!-- N354456 -->
<g id="node57" class="node">
<title>N354456</title>
<ellipse fill="#d3d3d3" stroke="#000000" cx="505.0073" cy="-522" rx="40.0147" ry="18"/>
<text text-anchor="middle" x="505.0073" y="-517.8" font-family="Times,serif" font-size="14.00" fill="#000000">0.844...</text>
</g>
<!-- N354455&#45;&gt;N354456 -->
<g id="edge56" class="edge">
<title>N354455&#45;&gt;N354456</title>
<path fill="none" stroke="#000000" d="M471.2124,-577.3008C476.4992,-568.6496 483.0762,-557.8873 489.0193,-548.1623"/>
<polygon fill="#000000" stroke="#000000" points="492.0157,-549.9711 494.2437,-539.6132 486.0427,-546.3209 492.0157,-549.9711"/>
</g>
</g>
</svg>
