<?xml version="1.0" encoding="UTF-8" standalone="no"?>
<!DOCTYPE svg PUBLIC "-//W3C//DTD SVG 1.1//EN"
 "http://www.w3.org/Graphics/SVG/1.1/DTD/svg11.dtd">
<!-- Generated by graphviz version 2.40.1 (20161225.0304)
 -->
<!-- Title: G1280722 Pages: 1 -->
<svg width="597pt" height="332pt"
 viewBox="0.00 0.00 596.99 332.00" xmlns="http://www.w3.org/2000/svg" xmlns:xlink="http://www.w3.org/1999/xlink">
<g id="graph0" class="graph" transform="scale(1 1) rotate(0) translate(4 328)">
<title>G1280722</title>
<polygon fill="#ffffff" stroke="transparent" points="-4,4 -4,-328 592.9855,-328 592.9855,4 -4,4"/>
<!-- N1280722 -->
<g id="node1" class="node">
<title>N1280722</title>
<ellipse fill="#d3d3d3" stroke="#000000" cx="357.4928" cy="-306" rx="59.0998" ry="18"/>
<text text-anchor="middle" x="357.4928" y="-301.8" font-family="Times,serif" font-size="14.00" fill="#000000">N1280722...</text>
</g>
<!-- N1280723 -->
<g id="node2" class="node">
<title>N1280723</title>
<ellipse fill="#d3d3d3" stroke="#000000" cx="357.4928" cy="-234" rx="27" ry="18"/>
<text text-anchor="middle" x="357.4928" y="-229.8" font-family="Times,serif" font-size="14.00" fill="#000000">add</text>
</g>
<!-- N1280722&#45;&gt;N1280723 -->
<g id="edge1" class="edge">
<title>N1280722&#45;&gt;N1280723</title>
<path fill="none" stroke="#000000" d="M357.4928,-287.8314C357.4928,-280.131 357.4928,-270.9743 357.4928,-262.4166"/>
<polygon fill="#000000" stroke="#000000" points="360.9929,-262.4132 357.4928,-252.4133 353.9929,-262.4133 360.9929,-262.4132"/>
</g>
<!-- N1280724 -->
<g id="node3" class="node">
<title>N1280724</title>
<ellipse fill="#d3d3d3" stroke="#000000" cx="308.4928" cy="-162" rx="27" ry="18"/>
<text text-anchor="middle" x="308.4928" y="-157.8" font-family="Times,serif" font-size="14.00" fill="#000000">add</text>
</g>
<!-- N1280723&#45;&gt;N1280724 -->
<g id="edge2" class="edge">
<title>N1280723&#45;&gt;N1280724</title>
<path fill="none" stroke="#000000" d="M346.128,-217.3008C340.0054,-208.3043 332.329,-197.0247 325.5086,-187.0029"/>
<polygon fill="#000000" stroke="#000000" points="328.3157,-184.9066 319.7959,-178.6087 322.5287,-188.845 328.3157,-184.9066"/>
</g>
<!-- N1280731 -->
<g id="node10" class="node">
<title>N1280731</title>
<ellipse fill="#d3d3d3" stroke="#000000" cx="407.4928" cy="-162" rx="27" ry="18"/>
<text text-anchor="middle" x="407.4928" y="-157.8" font-family="Times,serif" font-size="14.00" fill="#000000">add</text>
</g>
<!-- N1280723&#45;&gt;N1280731 -->
<g id="edge9" class="edge">
<title>N1280723&#45;&gt;N1280731</title>
<path fill="none" stroke="#000000" d="M368.8385,-217.6621C375.0783,-208.6768 382.955,-197.3343 389.9676,-187.2362"/>
<polygon fill="#000000" stroke="#000000" points="393.0157,-188.983 395.8449,-178.7729 387.2661,-184.9902 393.0157,-188.983"/>
</g>
<!-- N1280725 -->
<g id="node4" class="node">
<title>N1280725</title>
<ellipse fill="#d3d3d3" stroke="#000000" cx="181.4928" cy="-90" rx="27" ry="18"/>
<text text-anchor="middle" x="181.4928" y="-85.8" font-family="Times,serif" font-size="14.00" fill="#000000">add</text>
</g>
<!-- N1280724&#45;&gt;N1280725 -->
<g id="edge3" class="edge">
<title>N1280724&#45;&gt;N1280725</title>
<path fill="none" stroke="#000000" d="M287.8054,-150.2717C266.9565,-138.4519 234.5821,-120.0979 211.0345,-106.7481"/>
<polygon fill="#000000" stroke="#000000" points="212.5967,-103.6104 202.1713,-101.7233 209.1444,-109.6999 212.5967,-103.6104"/>
</g>
<!-- N1280728 -->
<g id="node7" class="node">
<title>N1280728</title>
<ellipse fill="none" stroke="#000000" stroke-dasharray="5,2" cx="308.4928" cy="-90" rx="27" ry="18"/>
<text text-anchor="middle" x="308.4928" y="-85.8" font-family="Times,serif" font-size="14.00" fill="#000000">add</text>
</g>
<!-- N1280724&#45;&gt;N1280728 -->
<g id="edge6" class="edge">
<title>N1280724&#45;&gt;N1280728</title>
<path fill="none" stroke="#000000" d="M308.4928,-143.8314C308.4928,-136.131 308.4928,-126.9743 308.4928,-118.4166"/>
<polygon fill="#000000" stroke="#000000" points="311.9929,-118.4132 308.4928,-108.4133 304.9929,-118.4133 311.9929,-118.4132"/>
</g>
<!-- N1280726 -->
<g id="node5" class="node">
<title>N1280726</title>
<ellipse fill="#d3d3d3" stroke="#000000" cx="54.4928" cy="-18" rx="54.4855" ry="18"/>
<text text-anchor="middle" x="54.4928" y="-13.8" font-family="Times,serif" font-size="14.00" fill="#000000">0.588355...</text>
</g>
<!-- N1280725&#45;&gt;N1280726 -->
<g id="edge4" class="edge">
<title>N1280725&#45;&gt;N1280726</title>
<path fill="none" stroke="#000000" d="M160.8054,-78.2717C142.0255,-67.6249 113.8943,-51.6765 91.2861,-38.8592"/>
<polygon fill="#000000" stroke="#000000" points="92.7202,-35.6489 82.2948,-33.7618 89.2678,-41.7384 92.7202,-35.6489"/>
</g>
<!-- N1280727 -->
<g id="node6" class="node">
<title>N1280727</title>
<ellipse fill="#d3d3d3" stroke="#000000" cx="181.4928" cy="-18" rx="54.4855" ry="18"/>
<text text-anchor="middle" x="181.4928" y="-13.8" font-family="Times,serif" font-size="14.00" fill="#000000">0.380192...</text>
</g>
<!-- N1280725&#45;&gt;N1280727 -->
<g id="edge5" class="edge">
<title>N1280725&#45;&gt;N1280727</title>
<path fill="none" stroke="#000000" d="M181.4928,-71.8314C181.4928,-64.131 181.4928,-54.9743 181.4928,-46.4166"/>
<polygon fill="#000000" stroke="#000000" points="184.9929,-46.4132 181.4928,-36.4133 177.9929,-46.4133 184.9929,-46.4132"/>
</g>
<!-- N1280729 -->
<g id="node8" class="node">
<title>N1280729</title>
<ellipse fill="#d3d3d3" stroke="#000000" cx="308.4928" cy="-18" rx="54.4855" ry="18"/>
<text text-anchor="middle" x="308.4928" y="-13.8" font-family="Times,serif" font-size="14.00" fill="#000000">0.837496...</text>
</g>
<!-- N1280728&#45;&gt;N1280729 -->
<g id="edge7" class="edge">
<title>N1280728&#45;&gt;N1280729</title>
<path fill="none" stroke="#000000" d="M308.4928,-71.8314C308.4928,-64.131 308.4928,-54.9743 308.4928,-46.4166"/>
<polygon fill="#000000" stroke="#000000" points="311.9929,-46.4132 308.4928,-36.4133 304.9929,-46.4133 311.9929,-46.4132"/>
</g>
<!-- N1280709 -->
<g id="node9" class="node">
<title>N1280709</title>
<ellipse fill="none" stroke="#000000" cx="435.4928" cy="-18" rx="54.4855" ry="18"/>
<text text-anchor="middle" x="435.4928" y="-13.8" font-family="Times,serif" font-size="14.00" fill="#000000">0.755500...</text>
</g>
<!-- N1280728&#45;&gt;N1280709 -->
<g id="edge8" class="edge">
<title>N1280728&#45;&gt;N1280709</title>
<path fill="none" stroke="#000000" d="M329.1802,-78.2717C347.96,-67.6249 376.0912,-51.6765 398.6994,-38.8592"/>
<polygon fill="#000000" stroke="#000000" points="400.7177,-41.7384 407.6908,-33.7618 397.2653,-35.6489 400.7177,-41.7384"/>
</g>
<!-- N1280732 -->
<g id="node11" class="node">
<title>N1280732</title>
<ellipse fill="#d3d3d3" stroke="#000000" cx="407.4928" cy="-90" rx="54.4855" ry="18"/>
<text text-anchor="middle" x="407.4928" y="-85.8" font-family="Times,serif" font-size="14.00" fill="#000000">0.438623...</text>
</g>
<!-- N1280731&#45;&gt;N1280732 -->
<g id="edge10" class="edge">
<title>N1280731&#45;&gt;N1280732</title>
<path fill="none" stroke="#000000" d="M407.4928,-143.8314C407.4928,-136.131 407.4928,-126.9743 407.4928,-118.4166"/>
<polygon fill="#000000" stroke="#000000" points="410.9929,-118.4132 407.4928,-108.4133 403.9929,-118.4133 410.9929,-118.4132"/>
</g>
<!-- N1280733 -->
<g id="node12" class="node">
<title>N1280733</title>
<ellipse fill="#d3d3d3" stroke="#000000" cx="534.4928" cy="-90" rx="54.4855" ry="18"/>
<text text-anchor="middle" x="534.4928" y="-85.8" font-family="Times,serif" font-size="14.00" fill="#000000">0.749802...</text>
</g>
<!-- N1280731&#45;&gt;N1280733 -->
<g id="edge11" class="edge">
<title>N1280731&#45;&gt;N1280733</title>
<path fill="none" stroke="#000000" d="M428.1802,-150.2717C446.96,-139.6249 475.0912,-123.6765 497.6994,-110.8592"/>
<polygon fill="#000000" stroke="#000000" points="499.7177,-113.7384 506.6908,-105.7618 496.2653,-107.6489 499.7177,-113.7384"/>
</g>
</g>
</svg>
