<?xml version="1.0" encoding="UTF-8" standalone="no"?>
<!DOCTYPE svg PUBLIC "-//W3C//DTD SVG 1.1//EN"
 "http://www.w3.org/Graphics/SVG/1.1/DTD/svg11.dtd">
<!-- Generated by graphviz version 2.40.1 (20161225.0304)
 -->
<!-- Title: G217471 Pages: 1 -->
<svg width="266pt" height="476pt"
 viewBox="0.00 0.00 265.99 476.00" xmlns="http://www.w3.org/2000/svg" xmlns:xlink="http://www.w3.org/1999/xlink">
<g id="graph0" class="graph" transform="scale(1 1) rotate(0) translate(4 472)">
<title>G217471</title>
<polygon fill="#ffffff" stroke="transparent" points="-4,4 -4,-472 261.9855,-472 261.9855,4 -4,4"/>
<!-- N217471 -->
<g id="node1" class="node">
<title>N217471</title>
<ellipse fill="#d3d3d3" stroke="#000000" cx="152.4928" cy="-450" rx="54.4437" ry="18"/>
<text text-anchor="middle" x="152.4928" y="-445.8" font-family="Times,serif" font-size="14.00" fill="#000000">N217471...</text>
</g>
<!-- N217472 -->
<g id="node2" class="node">
<title>N217472</title>
<ellipse fill="none" stroke="#000000" cx="152.4928" cy="-378" rx="27" ry="18"/>
<text text-anchor="middle" x="152.4928" y="-373.8" font-family="Times,serif" font-size="14.00" fill="#000000">add</text>
</g>
<!-- N217471&#45;&gt;N217472 -->
<g id="edge1" class="edge">
<title>N217471&#45;&gt;N217472</title>
<path fill="none" stroke="#000000" d="M152.4928,-431.8314C152.4928,-424.131 152.4928,-414.9743 152.4928,-406.4166"/>
<polygon fill="#000000" stroke="#000000" points="155.9929,-406.4132 152.4928,-396.4133 148.9929,-406.4133 155.9929,-406.4132"/>
</g>
<!-- N217473 -->
<g id="node3" class="node">
<title>N217473</title>
<ellipse fill="#d3d3d3" stroke="#000000" cx="103.4928" cy="-306" rx="27" ry="18"/>
<text text-anchor="middle" x="103.4928" y="-301.8" font-family="Times,serif" font-size="14.00" fill="#000000">sub</text>
</g>
<!-- N217472&#45;&gt;N217473 -->
<g id="edge2" class="edge">
<title>N217472&#45;&gt;N217473</title>
<path fill="none" stroke="#000000" d="M141.128,-361.3008C135.0054,-352.3043 127.329,-341.0247 120.5086,-331.0029"/>
<polygon fill="#000000" stroke="#000000" points="123.3157,-328.9066 114.7959,-322.6087 117.5287,-332.845 123.3157,-328.9066"/>
</g>
<!-- N217497 -->
<g id="node10" class="node">
<title>N217497</title>
<ellipse fill="none" stroke="#000000" stroke-dasharray="5,2" cx="202.4928" cy="-306" rx="54.4855" ry="18"/>
<text text-anchor="middle" x="202.4928" y="-301.8" font-family="Times,serif" font-size="14.00" fill="#000000">0.217330...</text>
</g>
<!-- N217472&#45;&gt;N217497 -->
<g id="edge9" class="edge">
<title>N217472&#45;&gt;N217497</title>
<path fill="none" stroke="#000000" d="M163.8385,-361.6621C169.9,-352.9336 177.5063,-341.9805 184.3645,-332.1047"/>
<polygon fill="#000000" stroke="#000000" points="187.312,-333.9963 190.1412,-323.7862 181.5624,-330.0035 187.312,-333.9963"/>
</g>
<!-- N217474 -->
<g id="node4" class="node">
<title>N217474</title>
<ellipse fill="#d3d3d3" stroke="#000000" cx="54.4928" cy="-234" rx="54.4855" ry="18"/>
<text text-anchor="middle" x="54.4928" y="-229.8" font-family="Times,serif" font-size="14.00" fill="#000000">0.879563...</text>
</g>
<!-- N217473&#45;&gt;N217474 -->
<g id="edge3" class="edge">
<title>N217473&#45;&gt;N217474</title>
<path fill="none" stroke="#000000" d="M92.128,-289.3008C86.2404,-280.6496 78.916,-269.8873 72.2977,-260.1623"/>
<polygon fill="#000000" stroke="#000000" points="74.9993,-257.9111 66.4795,-251.6132 69.2123,-261.8495 74.9993,-257.9111"/>
</g>
<!-- N217475 -->
<g id="node5" class="node">
<title>N217475</title>
<ellipse fill="#d3d3d3" stroke="#000000" cx="153.4928" cy="-234" rx="27" ry="18"/>
<text text-anchor="middle" x="153.4928" y="-229.8" font-family="Times,serif" font-size="14.00" fill="#000000">log</text>
</g>
<!-- N217473&#45;&gt;N217475 -->
<g id="edge4" class="edge">
<title>N217473&#45;&gt;N217475</title>
<path fill="none" stroke="#000000" d="M114.8385,-289.6621C121.0783,-280.6768 128.955,-269.3343 135.9676,-259.2362"/>
<polygon fill="#000000" stroke="#000000" points="139.0157,-260.983 141.8449,-250.7729 133.2661,-256.9902 139.0157,-260.983"/>
</g>
<!-- N217476 -->
<g id="node6" class="node">
<title>N217476</title>
<ellipse fill="#d3d3d3" stroke="#000000" cx="153.4928" cy="-162" rx="27" ry="18"/>
<text text-anchor="middle" x="153.4928" y="-157.8" font-family="Times,serif" font-size="14.00" fill="#000000">sub</text>
</g>
<!-- N217475&#45;&gt;N217476 -->
<g id="edge5" class="edge">
<title>N217475&#45;&gt;N217476</title>
<path fill="none" stroke="#000000" d="M153.4928,-215.8314C153.4928,-208.131 153.4928,-198.9743 153.4928,-190.4166"/>
<polygon fill="#000000" stroke="#000000" points="156.9929,-190.4132 153.4928,-180.4133 149.9929,-190.4133 156.9929,-190.4132"/>
</g>
<!-- N217477 -->
<g id="node7" class="node">
<title>N217477</title>
<ellipse fill="#d3d3d3" stroke="#000000" cx="104.4928" cy="-90" rx="27" ry="18"/>
<text text-anchor="middle" x="104.4928" y="-85.8" font-family="Times,serif" font-size="14.00" fill="#000000">sin</text>
</g>
<!-- N217476&#45;&gt;N217477 -->
<g id="edge6" class="edge">
<title>N217476&#45;&gt;N217477</title>
<path fill="none" stroke="#000000" d="M142.128,-145.3008C136.0054,-136.3043 128.329,-125.0247 121.5086,-115.0029"/>
<polygon fill="#000000" stroke="#000000" points="124.3157,-112.9066 115.7959,-106.6087 118.5287,-116.845 124.3157,-112.9066"/>
</g>
<!-- N217479 -->
<g id="node9" class="node">
<title>N217479</title>
<ellipse fill="#d3d3d3" stroke="#000000" cx="203.4928" cy="-90" rx="54.4855" ry="18"/>
<text text-anchor="middle" x="203.4928" y="-85.8" font-family="Times,serif" font-size="14.00" fill="#000000">0.295933...</text>
</g>
<!-- N217476&#45;&gt;N217479 -->
<g id="edge8" class="edge">
<title>N217476&#45;&gt;N217479</title>
<path fill="none" stroke="#000000" d="M164.8385,-145.6621C170.9,-136.9336 178.5063,-125.9805 185.3645,-116.1047"/>
<polygon fill="#000000" stroke="#000000" points="188.312,-117.9963 191.1412,-107.7862 182.5624,-114.0035 188.312,-117.9963"/>
</g>
<!-- N217478 -->
<g id="node8" class="node">
<title>N217478</title>
<ellipse fill="#d3d3d3" stroke="#000000" cx="104.4928" cy="-18" rx="54.4855" ry="18"/>
<text text-anchor="middle" x="104.4928" y="-13.8" font-family="Times,serif" font-size="14.00" fill="#000000">0.224662...</text>
</g>
<!-- N217477&#45;&gt;N217478 -->
<g id="edge7" class="edge">
<title>N217477&#45;&gt;N217478</title>
<path fill="none" stroke="#000000" d="M104.4928,-71.8314C104.4928,-64.131 104.4928,-54.9743 104.4928,-46.4166"/>
<polygon fill="#000000" stroke="#000000" points="107.9929,-46.4132 104.4928,-36.4133 100.9929,-46.4133 107.9929,-46.4132"/>
</g>
</g>
</svg>
