<?xml version="1.0" encoding="UTF-8" standalone="no"?>
<!DOCTYPE svg PUBLIC "-//W3C//DTD SVG 1.1//EN"
 "http://www.w3.org/Graphics/SVG/1.1/DTD/svg11.dtd">
<!-- Generated by graphviz version 2.40.1 (20161225.0304)
 -->
<!-- Title: G709539 Pages: 1 -->
<svg width="715pt" height="692pt"
 viewBox="0.00 0.00 715.00 692.00" xmlns="http://www.w3.org/2000/svg" xmlns:xlink="http://www.w3.org/1999/xlink">
<g id="graph0" class="graph" transform="scale(1 1) rotate(0) translate(4 688)">
<title>G709539</title>
<polygon fill="#ffffff" stroke="transparent" points="-4,4 -4,-688 711,-688 711,4 -4,4"/>
<!-- N709539 -->
<g id="node1" class="node">
<title>N709539</title>
<ellipse fill="#d3d3d3" stroke="#000000" cx="397" cy="-666" rx="54.4437" ry="18"/>
<text text-anchor="middle" x="397" y="-661.8" font-family="Times,serif" font-size="14.00" fill="#000000">N709539...</text>
</g>
<!-- N709540 -->
<g id="node2" class="node">
<title>N709540</title>
<ellipse fill="#d3d3d3" stroke="#000000" cx="397" cy="-594" rx="27" ry="18"/>
<text text-anchor="middle" x="397" y="-589.8" font-family="Times,serif" font-size="14.00" fill="#000000">add</text>
</g>
<!-- N709539&#45;&gt;N709540 -->
<g id="edge1" class="edge">
<title>N709539&#45;&gt;N709540</title>
<path fill="none" stroke="#000000" d="M397,-647.8314C397,-640.131 397,-630.9743 397,-622.4166"/>
<polygon fill="#000000" stroke="#000000" points="400.5001,-622.4132 397,-612.4133 393.5001,-622.4133 400.5001,-622.4132"/>
</g>
<!-- N709541 -->
<g id="node3" class="node">
<title>N709541</title>
<ellipse fill="#d3d3d3" stroke="#000000" cx="298" cy="-522" rx="27" ry="18"/>
<text text-anchor="middle" x="298" y="-517.8" font-family="Times,serif" font-size="14.00" fill="#000000">mul</text>
</g>
<!-- N709540&#45;&gt;N709541 -->
<g id="edge2" class="edge">
<title>N709540&#45;&gt;N709541</title>
<path fill="none" stroke="#000000" d="M378.3789,-580.4574C363.3065,-569.4956 341.8746,-553.9088 324.9313,-541.5864"/>
<polygon fill="#000000" stroke="#000000" points="326.6836,-538.5331 316.5376,-535.4819 322.5664,-544.1943 326.6836,-538.5331"/>
</g>
<!-- N709558 -->
<g id="node18" class="node">
<title>N709558</title>
<ellipse fill="#d3d3d3" stroke="#000000" cx="459" cy="-522" rx="27" ry="18"/>
<text text-anchor="middle" x="459" y="-517.8" font-family="Times,serif" font-size="14.00" fill="#000000">add</text>
</g>
<!-- N709540&#45;&gt;N709558 -->
<g id="edge17" class="edge">
<title>N709540&#45;&gt;N709558</title>
<path fill="none" stroke="#000000" d="M410.4531,-578.3771C418.6266,-568.8852 429.2268,-556.5753 438.436,-545.8808"/>
<polygon fill="#000000" stroke="#000000" points="441.2708,-547.9525 445.1439,-538.091 435.9664,-543.3848 441.2708,-547.9525"/>
</g>
<!-- N709542 -->
<g id="node4" class="node">
<title>N709542</title>
<ellipse fill="#d3d3d3" stroke="#000000" cx="175" cy="-450" rx="52.7253" ry="18"/>
<text text-anchor="middle" x="175" y="-445.8" font-family="Times,serif" font-size="14.00" fill="#000000">lastEmpt...</text>
</g>
<!-- N709541&#45;&gt;N709542 -->
<g id="edge3" class="edge">
<title>N709541&#45;&gt;N709542</title>
<path fill="none" stroke="#000000" d="M277.6891,-510.1107C259.458,-499.4388 232.2896,-483.5354 210.4766,-470.7668"/>
<polygon fill="#000000" stroke="#000000" points="212.2012,-467.7208 201.8029,-465.6895 208.6649,-473.7619 212.2012,-467.7208"/>
</g>
<!-- N709544 -->
<g id="node6" class="node">
<title>N709544</title>
<ellipse fill="#d3d3d3" stroke="#000000" cx="298" cy="-450" rx="52.7253" ry="18"/>
<text text-anchor="middle" x="298" y="-445.8" font-family="Times,serif" font-size="14.00" fill="#000000">lastEmpt...</text>
</g>
<!-- N709541&#45;&gt;N709544 -->
<g id="edge5" class="edge">
<title>N709541&#45;&gt;N709544</title>
<path fill="none" stroke="#000000" d="M298,-503.8314C298,-496.131 298,-486.9743 298,-478.4166"/>
<polygon fill="#000000" stroke="#000000" points="301.5001,-478.4132 298,-468.4133 294.5001,-478.4133 301.5001,-478.4132"/>
</g>
<!-- N709543 -->
<g id="node5" class="node">
<title>N709543</title>
<ellipse fill="#d3d3d3" stroke="#000000" cx="175" cy="-378" rx="54.4855" ry="18"/>
<text text-anchor="middle" x="175" y="-373.8" font-family="Times,serif" font-size="14.00" fill="#000000">0.623747...</text>
</g>
<!-- N709542&#45;&gt;N709543 -->
<g id="edge4" class="edge">
<title>N709542&#45;&gt;N709543</title>
<path fill="none" stroke="#000000" d="M175,-431.8314C175,-424.131 175,-414.9743 175,-406.4166"/>
<polygon fill="#000000" stroke="#000000" points="178.5001,-406.4132 175,-396.4133 171.5001,-406.4133 178.5001,-406.4132"/>
</g>
<!-- N709545 -->
<g id="node7" class="node">
<title>N709545</title>
<ellipse fill="#d3d3d3" stroke="#000000" cx="286" cy="-378" rx="27" ry="18"/>
<text text-anchor="middle" x="286" y="-373.8" font-family="Times,serif" font-size="14.00" fill="#000000">add</text>
</g>
<!-- N709544&#45;&gt;N709545 -->
<g id="edge6" class="edge">
<title>N709544&#45;&gt;N709545</title>
<path fill="none" stroke="#000000" d="M294.9719,-431.8314C293.6687,-424.0125 292.1154,-414.6923 290.6703,-406.0221"/>
<polygon fill="#000000" stroke="#000000" points="294.082,-405.2019 288.9856,-395.9134 287.1773,-406.3528 294.082,-405.2019"/>
</g>
<!-- N709546 -->
<g id="node8" class="node">
<title>N709546</title>
<ellipse fill="#d3d3d3" stroke="#000000" cx="187" cy="-306" rx="27" ry="18"/>
<text text-anchor="middle" x="187" y="-301.8" font-family="Times,serif" font-size="14.00" fill="#000000">add</text>
</g>
<!-- N709545&#45;&gt;N709546 -->
<g id="edge7" class="edge">
<title>N709545&#45;&gt;N709546</title>
<path fill="none" stroke="#000000" d="M267.3789,-364.4574C252.3065,-353.4956 230.8746,-337.9088 213.9313,-325.5864"/>
<polygon fill="#000000" stroke="#000000" points="215.6836,-322.5331 205.5376,-319.4819 211.5664,-328.1943 215.6836,-322.5331"/>
</g>
<!-- N709557 -->
<g id="node17" class="node">
<title>N709557</title>
<ellipse fill="#d3d3d3" stroke="#000000" cx="286" cy="-306" rx="54.4855" ry="18"/>
<text text-anchor="middle" x="286" y="-301.8" font-family="Times,serif" font-size="14.00" fill="#000000">0.218061...</text>
</g>
<!-- N709545&#45;&gt;N709557 -->
<g id="edge16" class="edge">
<title>N709545&#45;&gt;N709557</title>
<path fill="none" stroke="#000000" d="M286,-359.8314C286,-352.131 286,-342.9743 286,-334.4166"/>
<polygon fill="#000000" stroke="#000000" points="289.5001,-334.4132 286,-324.4133 282.5001,-334.4133 289.5001,-334.4132"/>
</g>
<!-- N709547 -->
<g id="node9" class="node">
<title>N709547</title>
<ellipse fill="#d3d3d3" stroke="#000000" cx="138" cy="-234" rx="27" ry="18"/>
<text text-anchor="middle" x="138" y="-229.8" font-family="Times,serif" font-size="14.00" fill="#000000">sin</text>
</g>
<!-- N709546&#45;&gt;N709547 -->
<g id="edge8" class="edge">
<title>N709546&#45;&gt;N709547</title>
<path fill="none" stroke="#000000" d="M175.6353,-289.3008C169.5127,-280.3043 161.8363,-269.0247 155.0159,-259.0029"/>
<polygon fill="#000000" stroke="#000000" points="157.8229,-256.9066 149.3031,-250.6087 152.0359,-260.845 157.8229,-256.9066"/>
</g>
<!-- N709556 -->
<g id="node16" class="node">
<title>N709556</title>
<ellipse fill="#d3d3d3" stroke="#000000" cx="237" cy="-234" rx="54.4855" ry="18"/>
<text text-anchor="middle" x="237" y="-229.8" font-family="Times,serif" font-size="14.00" fill="#000000">0.802975...</text>
</g>
<!-- N709546&#45;&gt;N709556 -->
<g id="edge15" class="edge">
<title>N709546&#45;&gt;N709556</title>
<path fill="none" stroke="#000000" d="M198.3458,-289.6621C204.4072,-280.9336 212.0135,-269.9805 218.8717,-260.1047"/>
<polygon fill="#000000" stroke="#000000" points="221.8193,-261.9963 224.6485,-251.7862 216.0697,-258.0035 221.8193,-261.9963"/>
</g>
<!-- N709548 -->
<g id="node10" class="node">
<title>N709548</title>
<ellipse fill="#d3d3d3" stroke="#000000" cx="76" cy="-162" rx="54.5158" ry="18"/>
<text text-anchor="middle" x="76" y="-157.8" font-family="Times,serif" font-size="14.00" fill="#000000">bestEmpt...</text>
</g>
<!-- N709547&#45;&gt;N709548 -->
<g id="edge9" class="edge">
<title>N709547&#45;&gt;N709548</title>
<path fill="none" stroke="#000000" d="M124.5469,-218.3771C116.6572,-209.2148 106.5064,-197.4268 97.5282,-187.0005"/>
<polygon fill="#000000" stroke="#000000" points="100.1254,-184.6528 90.948,-179.3589 94.821,-189.2205 100.1254,-184.6528"/>
</g>
<!-- N709552 -->
<g id="node14" class="node">
<title>N709552</title>
<ellipse fill="none" stroke="#000000" stroke-dasharray="5,2" cx="201" cy="-162" rx="52.7253" ry="18"/>
<text text-anchor="middle" x="201" y="-157.8" font-family="Times,serif" font-size="14.00" fill="#000000">lastEmpt...</text>
</g>
<!-- N709547&#45;&gt;N709552 -->
<g id="edge13" class="edge">
<title>N709547&#45;&gt;N709552</title>
<path fill="none" stroke="#000000" d="M151.6701,-218.3771C159.6871,-209.2148 170.0016,-197.4268 179.1246,-187.0005"/>
<polygon fill="#000000" stroke="#000000" points="181.8599,-189.1895 185.8109,-179.3589 176.5918,-184.5799 181.8599,-189.1895"/>
</g>
<!-- N709549 -->
<g id="node11" class="node">
<title>N709549</title>
<ellipse fill="#d3d3d3" stroke="#000000" cx="76" cy="-90" rx="28.4127" ry="18"/>
<text text-anchor="middle" x="76" y="-85.8" font-family="Times,serif" font-size="14.00" fill="#000000">mod</text>
</g>
<!-- N709548&#45;&gt;N709549 -->
<g id="edge10" class="edge">
<title>N709548&#45;&gt;N709549</title>
<path fill="none" stroke="#000000" d="M76,-143.8314C76,-136.131 76,-126.9743 76,-118.4166"/>
<polygon fill="#000000" stroke="#000000" points="79.5001,-118.4132 76,-108.4133 72.5001,-118.4133 79.5001,-118.4132"/>
</g>
<!-- N709550 -->
<g id="node12" class="node">
<title>N709550</title>
<ellipse fill="#d3d3d3" stroke="#000000" cx="27" cy="-18" rx="27" ry="18"/>
<text text-anchor="middle" x="27" y="-13.8" font-family="Times,serif" font-size="14.00" fill="#000000">s7</text>
</g>
<!-- N709549&#45;&gt;N709550 -->
<g id="edge11" class="edge">
<title>N709549&#45;&gt;N709550</title>
<path fill="none" stroke="#000000" d="M64.6353,-73.3008C58.5127,-64.3043 50.8363,-53.0247 44.0159,-43.0029"/>
<polygon fill="#000000" stroke="#000000" points="46.8229,-40.9066 38.3031,-34.6087 41.0359,-44.845 46.8229,-40.9066"/>
</g>
<!-- N709551 -->
<g id="node13" class="node">
<title>N709551</title>
<ellipse fill="#d3d3d3" stroke="#000000" cx="126" cy="-18" rx="54.4855" ry="18"/>
<text text-anchor="middle" x="126" y="-13.8" font-family="Times,serif" font-size="14.00" fill="#000000">0.034179...</text>
</g>
<!-- N709549&#45;&gt;N709551 -->
<g id="edge12" class="edge">
<title>N709549&#45;&gt;N709551</title>
<path fill="none" stroke="#000000" d="M87.5967,-73.3008C93.6657,-64.5614 101.231,-53.6674 108.0382,-43.8649"/>
<polygon fill="#000000" stroke="#000000" points="110.9394,-45.8233 113.7686,-35.6132 105.1898,-41.8305 110.9394,-45.8233"/>
</g>
<!-- N709525 -->
<g id="node15" class="node">
<title>N709525</title>
<ellipse fill="none" stroke="#000000" cx="201" cy="-90" rx="27" ry="18"/>
<text text-anchor="middle" x="201" y="-85.8" font-family="Times,serif" font-size="14.00" fill="#000000">s1</text>
</g>
<!-- N709552&#45;&gt;N709525 -->
<g id="edge14" class="edge">
<title>N709552&#45;&gt;N709525</title>
<path fill="none" stroke="#000000" d="M201,-143.8314C201,-136.131 201,-126.9743 201,-118.4166"/>
<polygon fill="#000000" stroke="#000000" points="204.5001,-118.4132 201,-108.4133 197.5001,-118.4133 204.5001,-118.4132"/>
</g>
<!-- N709559 -->
<g id="node19" class="node">
<title>N709559</title>
<ellipse fill="#d3d3d3" stroke="#000000" cx="459" cy="-450" rx="27" ry="18"/>
<text text-anchor="middle" x="459" y="-445.8" font-family="Times,serif" font-size="14.00" fill="#000000">div</text>
</g>
<!-- N709558&#45;&gt;N709559 -->
<g id="edge18" class="edge">
<title>N709558&#45;&gt;N709559</title>
<path fill="none" stroke="#000000" d="M459,-503.8314C459,-496.131 459,-486.9743 459,-478.4166"/>
<polygon fill="#000000" stroke="#000000" points="462.5001,-478.4132 459,-468.4133 455.5001,-478.4133 462.5001,-478.4132"/>
</g>
<!-- N709563 -->
<g id="node23" class="node">
<title>N709563</title>
<ellipse fill="#d3d3d3" stroke="#000000" cx="608" cy="-450" rx="27" ry="18"/>
<text text-anchor="middle" x="608" y="-445.8" font-family="Times,serif" font-size="14.00" fill="#000000">div</text>
</g>
<!-- N709558&#45;&gt;N709563 -->
<g id="edge22" class="edge">
<title>N709558&#45;&gt;N709563</title>
<path fill="none" stroke="#000000" d="M480.9855,-511.3762C506.2953,-499.1459 548.0578,-478.9654 576.741,-465.105"/>
<polygon fill="#000000" stroke="#000000" points="578.4433,-468.1697 585.9243,-460.6674 575.3976,-461.867 578.4433,-468.1697"/>
</g>
<!-- N709560 -->
<g id="node20" class="node">
<title>N709560</title>
<ellipse fill="#d3d3d3" stroke="#000000" cx="384" cy="-378" rx="52.7253" ry="18"/>
<text text-anchor="middle" x="384" y="-373.8" font-family="Times,serif" font-size="14.00" fill="#000000">lastEmpt...</text>
</g>
<!-- N709559&#45;&gt;N709560 -->
<g id="edge19" class="edge">
<title>N709559&#45;&gt;N709560</title>
<path fill="none" stroke="#000000" d="M443.46,-435.0816C433.6291,-425.6439 420.6893,-413.2217 409.3919,-402.3762"/>
<polygon fill="#000000" stroke="#000000" points="411.5292,-399.5762 401.8914,-395.1757 406.6814,-404.626 411.5292,-399.5762"/>
</g>
<!-- N709562 -->
<g id="node22" class="node">
<title>N709562</title>
<ellipse fill="#d3d3d3" stroke="#000000" cx="509" cy="-378" rx="54.4855" ry="18"/>
<text text-anchor="middle" x="509" y="-373.8" font-family="Times,serif" font-size="14.00" fill="#000000">0.068143...</text>
</g>
<!-- N709559&#45;&gt;N709562 -->
<g id="edge21" class="edge">
<title>N709559&#45;&gt;N709562</title>
<path fill="none" stroke="#000000" d="M470.3458,-433.6621C476.4072,-424.9336 484.0135,-413.9805 490.8717,-404.1047"/>
<polygon fill="#000000" stroke="#000000" points="493.8193,-405.9963 496.6485,-395.7862 488.0697,-402.0035 493.8193,-405.9963"/>
</g>
<!-- N709561 -->
<g id="node21" class="node">
<title>N709561</title>
<ellipse fill="#d3d3d3" stroke="#000000" cx="385" cy="-306" rx="27" ry="18"/>
<text text-anchor="middle" x="385" y="-301.8" font-family="Times,serif" font-size="14.00" fill="#000000">s1</text>
</g>
<!-- N709560&#45;&gt;N709561 -->
<g id="edge20" class="edge">
<title>N709560&#45;&gt;N709561</title>
<path fill="none" stroke="#000000" d="M384.2523,-359.8314C384.3593,-352.131 384.4865,-342.9743 384.6053,-334.4166"/>
<polygon fill="#000000" stroke="#000000" points="388.1049,-334.4609 384.7443,-324.4133 381.1056,-334.3637 388.1049,-334.4609"/>
</g>
<!-- N709564 -->
<g id="node24" class="node">
<title>N709564</title>
<ellipse fill="#d3d3d3" stroke="#000000" cx="608" cy="-378" rx="27" ry="18"/>
<text text-anchor="middle" x="608" y="-373.8" font-family="Times,serif" font-size="14.00" fill="#000000">s6</text>
</g>
<!-- N709563&#45;&gt;N709564 -->
<g id="edge23" class="edge">
<title>N709563&#45;&gt;N709564</title>
<path fill="none" stroke="#000000" d="M608,-431.8314C608,-424.131 608,-414.9743 608,-406.4166"/>
<polygon fill="#000000" stroke="#000000" points="611.5001,-406.4132 608,-396.4133 604.5001,-406.4133 611.5001,-406.4132"/>
</g>
<!-- N709565 -->
<g id="node25" class="node">
<title>N709565</title>
<ellipse fill="#d3d3d3" stroke="#000000" cx="680" cy="-378" rx="27" ry="18"/>
<text text-anchor="middle" x="680" y="-373.8" font-family="Times,serif" font-size="14.00" fill="#000000">s7</text>
</g>
<!-- N709563&#45;&gt;N709565 -->
<g id="edge24" class="edge">
<title>N709563&#45;&gt;N709565</title>
<path fill="none" stroke="#000000" d="M623.2693,-434.7307C633.197,-424.803 646.3153,-411.6847 657.4363,-400.5637"/>
<polygon fill="#000000" stroke="#000000" points="660.1564,-402.7933 664.7527,-393.2473 655.2067,-397.8436 660.1564,-402.7933"/>
</g>
</g>
</svg>
