<?xml version="1.0" encoding="UTF-8" standalone="no"?>
<!DOCTYPE svg PUBLIC "-//W3C//DTD SVG 1.1//EN"
 "http://www.w3.org/Graphics/SVG/1.1/DTD/svg11.dtd">
<!-- Generated by graphviz version 2.40.1 (20161225.0304)
 -->
<!-- Title: GTest Pages: 1 -->
<svg width="2368pt" height="332pt"
 viewBox="0.00 0.00 2367.94 332.00" xmlns="http://www.w3.org/2000/svg" xmlns:xlink="http://www.w3.org/1999/xlink">
<g id="graph0" class="graph" transform="scale(1 1) rotate(0) translate(4 328)">
<title>GTest</title>
<polygon fill="#ffffff" stroke="transparent" points="-4,4 -4,-328 2363.9362,-328 2363.9362,4 -4,4"/>
<!-- N398 -->
<g id="node1" class="node">
<title>N398</title>
<ellipse fill="#d3d3d3" stroke="#000000" cx="27.9362" cy="-306" rx="27.8725" ry="18"/>
<text text-anchor="middle" x="27.9362" y="-301.8" font-family="Times,serif" font-size="14.00" fill="#000000">0.58</text>
</g>
<!-- N399 -->
<g id="node2" class="node">
<title>N399</title>
<ellipse fill="#d3d3d3" stroke="#000000" cx="100.9362" cy="-306" rx="27" ry="18"/>
<text text-anchor="middle" x="100.9362" y="-301.8" font-family="Times,serif" font-size="14.00" fill="#000000">x</text>
</g>
<!-- N400 -->
<g id="node3" class="node">
<title>N400</title>
<ellipse fill="#d3d3d3" stroke="#000000" cx="172.9362" cy="-306" rx="27" ry="18"/>
<text text-anchor="middle" x="172.9362" y="-301.8" font-family="Times,serif" font-size="14.00" fill="#000000">y</text>
</g>
<!-- N401 -->
<g id="node4" class="node">
<title>N401</title>
<ellipse fill="#d3d3d3" stroke="#000000" cx="244.9362" cy="-306" rx="27" ry="18"/>
<text text-anchor="middle" x="244.9362" y="-301.8" font-family="Times,serif" font-size="14.00" fill="#000000">add</text>
</g>
<!-- N402 -->
<g id="node5" class="node">
<title>N402</title>
<ellipse fill="#d3d3d3" stroke="#000000" cx="210.9362" cy="-234" rx="27" ry="18"/>
<text text-anchor="middle" x="210.9362" y="-229.8" font-family="Times,serif" font-size="14.00" fill="#000000">x</text>
</g>
<!-- N401&#45;&gt;N402 -->
<g id="edge1" class="edge">
<title>N401&#45;&gt;N402</title>
<path fill="none" stroke="#000000" d="M236.7057,-288.5708C232.7382,-280.1691 227.8932,-269.9091 223.4795,-260.5623"/>
<polygon fill="#000000" stroke="#000000" points="226.5258,-258.8166 219.0908,-251.2687 220.1961,-261.8057 226.5258,-258.8166"/>
</g>
<!-- N403 -->
<g id="node6" class="node">
<title>N403</title>
<ellipse fill="#d3d3d3" stroke="#000000" cx="283.9362" cy="-234" rx="27.8725" ry="18"/>
<text text-anchor="middle" x="283.9362" y="-229.8" font-family="Times,serif" font-size="14.00" fill="#000000">0.58</text>
</g>
<!-- N401&#45;&gt;N403 -->
<g id="edge2" class="edge">
<title>N401&#45;&gt;N403</title>
<path fill="none" stroke="#000000" d="M254.1786,-288.937C258.7737,-280.4537 264.4312,-270.0092 269.575,-260.513"/>
<polygon fill="#000000" stroke="#000000" points="272.8038,-261.9006 274.4891,-251.4407 266.6487,-258.5666 272.8038,-261.9006"/>
</g>
<!-- N404 -->
<g id="node7" class="node">
<title>N404</title>
<ellipse fill="#d3d3d3" stroke="#000000" cx="356.9362" cy="-306" rx="32.4865" ry="18"/>
<text text-anchor="middle" x="356.9362" y="-301.8" font-family="Times,serif" font-size="14.00" fill="#000000">N404</text>
</g>
<!-- N415 -->
<g id="node8" class="node">
<title>N415</title>
<ellipse fill="#d3d3d3" stroke="#000000" cx="356.9362" cy="-234" rx="27" ry="18"/>
<text text-anchor="middle" x="356.9362" y="-229.8" font-family="Times,serif" font-size="14.00" fill="#000000">mul</text>
</g>
<!-- N404&#45;&gt;N415 -->
<g id="edge3" class="edge">
<title>N404&#45;&gt;N415</title>
<path fill="none" stroke="#000000" d="M356.9362,-287.8314C356.9362,-280.131 356.9362,-270.9743 356.9362,-262.4166"/>
<polygon fill="#000000" stroke="#000000" points="360.4363,-262.4132 356.9362,-252.4133 353.4363,-262.4133 360.4363,-262.4132"/>
</g>
<!-- N426 -->
<g id="node9" class="node">
<title>N426</title>
<ellipse fill="#d3d3d3" stroke="#000000" cx="284.9362" cy="-162" rx="27" ry="18"/>
<text text-anchor="middle" x="284.9362" y="-157.8" font-family="Times,serif" font-size="14.00" fill="#000000">add</text>
</g>
<!-- N415&#45;&gt;N426 -->
<g id="edge4" class="edge">
<title>N415&#45;&gt;N426</title>
<path fill="none" stroke="#000000" d="M341.6668,-218.7307C331.7392,-208.803 318.6209,-195.6847 307.4998,-184.5637"/>
<polygon fill="#000000" stroke="#000000" points="309.7295,-181.8436 300.1835,-177.2473 304.7797,-186.7933 309.7295,-181.8436"/>
</g>
<!-- N503 -->
<g id="node16" class="node">
<title>N503</title>
<ellipse fill="#d3d3d3" stroke="#000000" cx="392.9362" cy="-162" rx="27" ry="18"/>
<text text-anchor="middle" x="392.9362" y="-157.8" font-family="Times,serif" font-size="14.00" fill="#000000">mul</text>
</g>
<!-- N415&#45;&gt;N503 -->
<g id="edge11" class="edge">
<title>N415&#45;&gt;N503</title>
<path fill="none" stroke="#000000" d="M365.6508,-216.5708C369.8958,-208.0807 375.0897,-197.6929 379.8025,-188.2674"/>
<polygon fill="#000000" stroke="#000000" points="382.9601,-189.7782 384.3018,-179.2687 376.6991,-186.6477 382.9601,-189.7782"/>
</g>
<!-- N437 -->
<g id="node10" class="node">
<title>N437</title>
<ellipse fill="#d3d3d3" stroke="#000000" cx="139.9362" cy="-90" rx="27" ry="18"/>
<text text-anchor="middle" x="139.9362" y="-85.8" font-family="Times,serif" font-size="14.00" fill="#000000">add</text>
</g>
<!-- N426&#45;&gt;N437 -->
<g id="edge5" class="edge">
<title>N426&#45;&gt;N437</title>
<path fill="none" stroke="#000000" d="M263.2282,-151.2209C238.7758,-139.079 198.8322,-119.2449 171.0621,-105.4556"/>
<polygon fill="#000000" stroke="#000000" points="172.3057,-102.1655 161.7925,-100.8528 169.1925,-108.4351 172.3057,-102.1655"/>
</g>
<!-- N470 -->
<g id="node13" class="node">
<title>N470</title>
<ellipse fill="#d3d3d3" stroke="#000000" cx="284.9362" cy="-90" rx="27" ry="18"/>
<text text-anchor="middle" x="284.9362" y="-85.8" font-family="Times,serif" font-size="14.00" fill="#000000">add</text>
</g>
<!-- N426&#45;&gt;N470 -->
<g id="edge8" class="edge">
<title>N426&#45;&gt;N470</title>
<path fill="none" stroke="#000000" d="M284.9362,-143.8314C284.9362,-136.131 284.9362,-126.9743 284.9362,-118.4166"/>
<polygon fill="#000000" stroke="#000000" points="288.4363,-118.4132 284.9362,-108.4133 281.4363,-118.4133 288.4363,-118.4132"/>
</g>
<!-- N448 -->
<g id="node11" class="node">
<title>N448</title>
<ellipse fill="#d3d3d3" stroke="#000000" cx="65.9362" cy="-18" rx="27.8725" ry="18"/>
<text text-anchor="middle" x="65.9362" y="-13.8" font-family="Times,serif" font-size="14.00" fill="#000000">0.91</text>
</g>
<!-- N437&#45;&gt;N448 -->
<g id="edge6" class="edge">
<title>N437&#45;&gt;N448</title>
<path fill="none" stroke="#000000" d="M124.6033,-75.0816C114.2546,-65.0125 100.4143,-51.5463 88.7755,-40.2221"/>
<polygon fill="#000000" stroke="#000000" points="91.112,-37.6121 81.504,-33.147 86.2305,-42.6292 91.112,-37.6121"/>
</g>
<!-- N459 -->
<g id="node12" class="node">
<title>N459</title>
<ellipse fill="#d3d3d3" stroke="#000000" cx="139.9362" cy="-18" rx="27.8725" ry="18"/>
<text text-anchor="middle" x="139.9362" y="-13.8" font-family="Times,serif" font-size="14.00" fill="#000000">0.15</text>
</g>
<!-- N437&#45;&gt;N459 -->
<g id="edge7" class="edge">
<title>N437&#45;&gt;N459</title>
<path fill="none" stroke="#000000" d="M139.9362,-71.8314C139.9362,-64.131 139.9362,-54.9743 139.9362,-46.4166"/>
<polygon fill="#000000" stroke="#000000" points="143.4363,-46.4132 139.9362,-36.4133 136.4363,-46.4133 143.4363,-46.4132"/>
</g>
<!-- N481 -->
<g id="node14" class="node">
<title>N481</title>
<ellipse fill="#d3d3d3" stroke="#000000" cx="212.9362" cy="-18" rx="27" ry="18"/>
<text text-anchor="middle" x="212.9362" y="-13.8" font-family="Times,serif" font-size="14.00" fill="#000000">x</text>
</g>
<!-- N470&#45;&gt;N481 -->
<g id="edge9" class="edge">
<title>N470&#45;&gt;N481</title>
<path fill="none" stroke="#000000" d="M269.6668,-74.7307C259.7392,-64.803 246.6209,-51.6847 235.4998,-40.5637"/>
<polygon fill="#000000" stroke="#000000" points="237.7295,-37.8436 228.1835,-33.2473 232.7797,-42.7933 237.7295,-37.8436"/>
</g>
<!-- N492 -->
<g id="node15" class="node">
<title>N492</title>
<ellipse fill="#d3d3d3" stroke="#000000" cx="284.9362" cy="-18" rx="27" ry="18"/>
<text text-anchor="middle" x="284.9362" y="-13.8" font-family="Times,serif" font-size="14.00" fill="#000000">y</text>
</g>
<!-- N470&#45;&gt;N492 -->
<g id="edge10" class="edge">
<title>N470&#45;&gt;N492</title>
<path fill="none" stroke="#000000" d="M284.9362,-71.8314C284.9362,-64.131 284.9362,-54.9743 284.9362,-46.4166"/>
<polygon fill="#000000" stroke="#000000" points="288.4363,-46.4132 284.9362,-36.4133 281.4363,-46.4133 288.4363,-46.4132"/>
</g>
<!-- N514 -->
<g id="node17" class="node">
<title>N514</title>
<ellipse fill="#d3d3d3" stroke="#000000" cx="392.9362" cy="-90" rx="27" ry="18"/>
<text text-anchor="middle" x="392.9362" y="-85.8" font-family="Times,serif" font-size="14.00" fill="#000000">div</text>
</g>
<!-- N503&#45;&gt;N514 -->
<g id="edge12" class="edge">
<title>N503&#45;&gt;N514</title>
<path fill="none" stroke="#000000" d="M392.9362,-143.8314C392.9362,-136.131 392.9362,-126.9743 392.9362,-118.4166"/>
<polygon fill="#000000" stroke="#000000" points="396.4363,-118.4132 392.9362,-108.4133 389.4363,-118.4133 396.4363,-118.4132"/>
</g>
<!-- N547 -->
<g id="node20" class="node">
<title>N547</title>
<ellipse fill="#d3d3d3" stroke="#000000" cx="501.9362" cy="-90" rx="27" ry="18"/>
<text text-anchor="middle" x="501.9362" y="-85.8" font-family="Times,serif" font-size="14.00" fill="#000000">mul</text>
</g>
<!-- N503&#45;&gt;N547 -->
<g id="edge15" class="edge">
<title>N503&#45;&gt;N547</title>
<path fill="none" stroke="#000000" d="M412.1723,-149.2936C429.3441,-137.9507 454.7013,-121.201 474.0888,-108.3946"/>
<polygon fill="#000000" stroke="#000000" points="476.1108,-111.2536 482.5257,-102.8216 472.2526,-105.4128 476.1108,-111.2536"/>
</g>
<!-- N525 -->
<g id="node18" class="node">
<title>N525</title>
<ellipse fill="#d3d3d3" stroke="#000000" cx="356.9362" cy="-18" rx="27" ry="18"/>
<text text-anchor="middle" x="356.9362" y="-13.8" font-family="Times,serif" font-size="14.00" fill="#000000">x</text>
</g>
<!-- N514&#45;&gt;N525 -->
<g id="edge13" class="edge">
<title>N514&#45;&gt;N525</title>
<path fill="none" stroke="#000000" d="M384.2216,-72.5708C379.9765,-64.0807 374.7826,-53.6929 370.0699,-44.2674"/>
<polygon fill="#000000" stroke="#000000" points="373.1732,-42.6477 365.5705,-35.2687 366.9122,-45.7782 373.1732,-42.6477"/>
</g>
<!-- N536 -->
<g id="node19" class="node">
<title>N536</title>
<ellipse fill="#d3d3d3" stroke="#000000" cx="428.9362" cy="-18" rx="27" ry="18"/>
<text text-anchor="middle" x="428.9362" y="-13.8" font-family="Times,serif" font-size="14.00" fill="#000000">0.2</text>
</g>
<!-- N514&#45;&gt;N536 -->
<g id="edge14" class="edge">
<title>N514&#45;&gt;N536</title>
<path fill="none" stroke="#000000" d="M401.6508,-72.5708C405.8958,-64.0807 411.0897,-53.6929 415.8025,-44.2674"/>
<polygon fill="#000000" stroke="#000000" points="418.9601,-45.7782 420.3018,-35.2687 412.6991,-42.6477 418.9601,-45.7782"/>
</g>
<!-- N558 -->
<g id="node21" class="node">
<title>N558</title>
<ellipse fill="#d3d3d3" stroke="#000000" cx="501.9362" cy="-18" rx="27.8725" ry="18"/>
<text text-anchor="middle" x="501.9362" y="-13.8" font-family="Times,serif" font-size="14.00" fill="#000000">0.63</text>
</g>
<!-- N547&#45;&gt;N558 -->
<g id="edge16" class="edge">
<title>N547&#45;&gt;N558</title>
<path fill="none" stroke="#000000" d="M501.9362,-71.8314C501.9362,-64.131 501.9362,-54.9743 501.9362,-46.4166"/>
<polygon fill="#000000" stroke="#000000" points="505.4363,-46.4132 501.9362,-36.4133 498.4363,-46.4133 505.4363,-46.4132"/>
</g>
<!-- N569 -->
<g id="node22" class="node">
<title>N569</title>
<ellipse fill="#d3d3d3" stroke="#000000" cx="575.9362" cy="-18" rx="27.8725" ry="18"/>
<text text-anchor="middle" x="575.9362" y="-13.8" font-family="Times,serif" font-size="14.00" fill="#000000">0.36</text>
</g>
<!-- N547&#45;&gt;N569 -->
<g id="edge17" class="edge">
<title>N547&#45;&gt;N569</title>
<path fill="none" stroke="#000000" d="M517.269,-75.0816C527.6177,-65.0125 541.458,-51.5463 553.0968,-40.2221"/>
<polygon fill="#000000" stroke="#000000" points="555.6418,-42.6292 560.3684,-33.147 550.7603,-37.6121 555.6418,-42.6292"/>
</g>
<!-- N570 -->
<g id="node23" class="node">
<title>N570</title>
<ellipse fill="#d3d3d3" stroke="#000000" cx="868.9362" cy="-306" rx="32.4865" ry="18"/>
<text text-anchor="middle" x="868.9362" y="-301.8" font-family="Times,serif" font-size="14.00" fill="#000000">N570</text>
</g>
<!-- N581 -->
<g id="node24" class="node">
<title>N581</title>
<ellipse fill="#d3d3d3" stroke="#000000" cx="868.9362" cy="-234" rx="27" ry="18"/>
<text text-anchor="middle" x="868.9362" y="-229.8" font-family="Times,serif" font-size="14.00" fill="#000000">div</text>
</g>
<!-- N570&#45;&gt;N581 -->
<g id="edge18" class="edge">
<title>N570&#45;&gt;N581</title>
<path fill="none" stroke="#000000" d="M868.9362,-287.8314C868.9362,-280.131 868.9362,-270.9743 868.9362,-262.4166"/>
<polygon fill="#000000" stroke="#000000" points="872.4363,-262.4132 868.9362,-252.4133 865.4363,-262.4133 872.4363,-262.4132"/>
</g>
<!-- N592 -->
<g id="node25" class="node">
<title>N592</title>
<ellipse fill="#d3d3d3" stroke="#000000" cx="832.9362" cy="-162" rx="27" ry="18"/>
<text text-anchor="middle" x="832.9362" y="-157.8" font-family="Times,serif" font-size="14.00" fill="#000000">add</text>
</g>
<!-- N581&#45;&gt;N592 -->
<g id="edge19" class="edge">
<title>N581&#45;&gt;N592</title>
<path fill="none" stroke="#000000" d="M860.2216,-216.5708C855.9765,-208.0807 850.7826,-197.6929 846.0699,-188.2674"/>
<polygon fill="#000000" stroke="#000000" points="849.1732,-186.6477 841.5705,-179.2687 842.9122,-189.7782 849.1732,-186.6477"/>
</g>
<!-- N669 -->
<g id="node32" class="node">
<title>N669</title>
<ellipse fill="#d3d3d3" stroke="#000000" cx="978.9362" cy="-162" rx="27" ry="18"/>
<text text-anchor="middle" x="978.9362" y="-157.8" font-family="Times,serif" font-size="14.00" fill="#000000">div</text>
</g>
<!-- N581&#45;&gt;N669 -->
<g id="edge26" class="edge">
<title>N581&#45;&gt;N669</title>
<path fill="none" stroke="#000000" d="M888.3487,-221.2936C905.6782,-209.9507 931.2679,-193.201 950.8334,-180.3946"/>
<polygon fill="#000000" stroke="#000000" points="952.8974,-183.2267 959.3476,-174.8216 949.0638,-177.3698 952.8974,-183.2267"/>
</g>
<!-- N603 -->
<g id="node26" class="node">
<title>N603</title>
<ellipse fill="#d3d3d3" stroke="#000000" cx="723.9362" cy="-90" rx="27" ry="18"/>
<text text-anchor="middle" x="723.9362" y="-85.8" font-family="Times,serif" font-size="14.00" fill="#000000">add</text>
</g>
<!-- N592&#45;&gt;N603 -->
<g id="edge20" class="edge">
<title>N592&#45;&gt;N603</title>
<path fill="none" stroke="#000000" d="M813.7001,-149.2936C796.5282,-137.9507 771.171,-121.201 751.7835,-108.3946"/>
<polygon fill="#000000" stroke="#000000" points="753.6197,-105.4128 743.3466,-102.8216 749.7615,-111.2536 753.6197,-105.4128"/>
</g>
<!-- N636 -->
<g id="node29" class="node">
<title>N636</title>
<ellipse fill="#d3d3d3" stroke="#000000" cx="832.9362" cy="-90" rx="27" ry="18"/>
<text text-anchor="middle" x="832.9362" y="-85.8" font-family="Times,serif" font-size="14.00" fill="#000000">sub</text>
</g>
<!-- N592&#45;&gt;N636 -->
<g id="edge23" class="edge">
<title>N592&#45;&gt;N636</title>
<path fill="none" stroke="#000000" d="M832.9362,-143.8314C832.9362,-136.131 832.9362,-126.9743 832.9362,-118.4166"/>
<polygon fill="#000000" stroke="#000000" points="836.4363,-118.4132 832.9362,-108.4133 829.4363,-118.4133 836.4363,-118.4132"/>
</g>
<!-- N614 -->
<g id="node27" class="node">
<title>N614</title>
<ellipse fill="#d3d3d3" stroke="#000000" cx="649.9362" cy="-18" rx="27.8725" ry="18"/>
<text text-anchor="middle" x="649.9362" y="-13.8" font-family="Times,serif" font-size="14.00" fill="#000000">0.55</text>
</g>
<!-- N603&#45;&gt;N614 -->
<g id="edge21" class="edge">
<title>N603&#45;&gt;N614</title>
<path fill="none" stroke="#000000" d="M708.6033,-75.0816C698.2546,-65.0125 684.4143,-51.5463 672.7755,-40.2221"/>
<polygon fill="#000000" stroke="#000000" points="675.112,-37.6121 665.504,-33.147 670.2305,-42.6292 675.112,-37.6121"/>
</g>
<!-- N625 -->
<g id="node28" class="node">
<title>N625</title>
<ellipse fill="#d3d3d3" stroke="#000000" cx="723.9362" cy="-18" rx="27.8725" ry="18"/>
<text text-anchor="middle" x="723.9362" y="-13.8" font-family="Times,serif" font-size="14.00" fill="#000000">0.18</text>
</g>
<!-- N603&#45;&gt;N625 -->
<g id="edge22" class="edge">
<title>N603&#45;&gt;N625</title>
<path fill="none" stroke="#000000" d="M723.9362,-71.8314C723.9362,-64.131 723.9362,-54.9743 723.9362,-46.4166"/>
<polygon fill="#000000" stroke="#000000" points="727.4363,-46.4132 723.9362,-36.4133 720.4363,-46.4133 727.4363,-46.4132"/>
</g>
<!-- N647 -->
<g id="node30" class="node">
<title>N647</title>
<ellipse fill="#d3d3d3" stroke="#000000" cx="796.9362" cy="-18" rx="27" ry="18"/>
<text text-anchor="middle" x="796.9362" y="-13.8" font-family="Times,serif" font-size="14.00" fill="#000000">y</text>
</g>
<!-- N636&#45;&gt;N647 -->
<g id="edge24" class="edge">
<title>N636&#45;&gt;N647</title>
<path fill="none" stroke="#000000" d="M824.2216,-72.5708C819.9765,-64.0807 814.7826,-53.6929 810.0699,-44.2674"/>
<polygon fill="#000000" stroke="#000000" points="813.1732,-42.6477 805.5705,-35.2687 806.9122,-45.7782 813.1732,-42.6477"/>
</g>
<!-- N658 -->
<g id="node31" class="node">
<title>N658</title>
<ellipse fill="#d3d3d3" stroke="#000000" cx="868.9362" cy="-18" rx="27" ry="18"/>
<text text-anchor="middle" x="868.9362" y="-13.8" font-family="Times,serif" font-size="14.00" fill="#000000">x</text>
</g>
<!-- N636&#45;&gt;N658 -->
<g id="edge25" class="edge">
<title>N636&#45;&gt;N658</title>
<path fill="none" stroke="#000000" d="M841.6508,-72.5708C845.8958,-64.0807 851.0897,-53.6929 855.8025,-44.2674"/>
<polygon fill="#000000" stroke="#000000" points="858.9601,-45.7782 860.3018,-35.2687 852.6991,-42.6477 858.9601,-45.7782"/>
</g>
<!-- N680 -->
<g id="node33" class="node">
<title>N680</title>
<ellipse fill="#d3d3d3" stroke="#000000" cx="978.9362" cy="-90" rx="27" ry="18"/>
<text text-anchor="middle" x="978.9362" y="-85.8" font-family="Times,serif" font-size="14.00" fill="#000000">add</text>
</g>
<!-- N669&#45;&gt;N680 -->
<g id="edge27" class="edge">
<title>N669&#45;&gt;N680</title>
<path fill="none" stroke="#000000" d="M978.9362,-143.8314C978.9362,-136.131 978.9362,-126.9743 978.9362,-118.4166"/>
<polygon fill="#000000" stroke="#000000" points="982.4363,-118.4132 978.9362,-108.4133 975.4363,-118.4133 982.4363,-118.4132"/>
</g>
<!-- N713 -->
<g id="node36" class="node">
<title>N713</title>
<ellipse fill="#d3d3d3" stroke="#000000" cx="1089.9362" cy="-90" rx="27" ry="18"/>
<text text-anchor="middle" x="1089.9362" y="-85.8" font-family="Times,serif" font-size="14.00" fill="#000000">div</text>
</g>
<!-- N669&#45;&gt;N713 -->
<g id="edge30" class="edge">
<title>N669&#45;&gt;N713</title>
<path fill="none" stroke="#000000" d="M998.5252,-149.2936C1016.1201,-137.8807 1042.1537,-120.994 1061.9428,-108.1579"/>
<polygon fill="#000000" stroke="#000000" points="1064.058,-110.9577 1070.5429,-102.5794 1060.2486,-105.085 1064.058,-110.9577"/>
</g>
<!-- N691 -->
<g id="node34" class="node">
<title>N691</title>
<ellipse fill="#d3d3d3" stroke="#000000" cx="941.9362" cy="-18" rx="27.8725" ry="18"/>
<text text-anchor="middle" x="941.9362" y="-13.8" font-family="Times,serif" font-size="14.00" fill="#000000">0.05</text>
</g>
<!-- N680&#45;&gt;N691 -->
<g id="edge28" class="edge">
<title>N680&#45;&gt;N691</title>
<path fill="none" stroke="#000000" d="M970.1677,-72.937C965.8082,-64.4537 960.4409,-54.0092 955.5609,-44.513"/>
<polygon fill="#000000" stroke="#000000" points="958.5825,-42.7352 950.8987,-35.4407 952.3565,-45.9348 958.5825,-42.7352"/>
</g>
<!-- N702 -->
<g id="node35" class="node">
<title>N702</title>
<ellipse fill="#d3d3d3" stroke="#000000" cx="1015.9362" cy="-18" rx="27.8725" ry="18"/>
<text text-anchor="middle" x="1015.9362" y="-13.8" font-family="Times,serif" font-size="14.00" fill="#000000">0.06</text>
</g>
<!-- N680&#45;&gt;N702 -->
<g id="edge29" class="edge">
<title>N680&#45;&gt;N702</title>
<path fill="none" stroke="#000000" d="M987.7046,-72.937C992.0641,-64.4537 997.4314,-54.0092 1002.3114,-44.513"/>
<polygon fill="#000000" stroke="#000000" points="1005.5159,-45.9348 1006.9736,-35.4407 999.2898,-42.7352 1005.5159,-45.9348"/>
</g>
<!-- N724 -->
<g id="node37" class="node">
<title>N724</title>
<ellipse fill="#d3d3d3" stroke="#000000" cx="1089.9362" cy="-18" rx="27.8725" ry="18"/>
<text text-anchor="middle" x="1089.9362" y="-13.8" font-family="Times,serif" font-size="14.00" fill="#000000">0.28</text>
</g>
<!-- N713&#45;&gt;N724 -->
<g id="edge31" class="edge">
<title>N713&#45;&gt;N724</title>
<path fill="none" stroke="#000000" d="M1089.9362,-71.8314C1089.9362,-64.131 1089.9362,-54.9743 1089.9362,-46.4166"/>
<polygon fill="#000000" stroke="#000000" points="1093.4363,-46.4132 1089.9362,-36.4133 1086.4363,-46.4133 1093.4363,-46.4132"/>
</g>
<!-- N735 -->
<g id="node38" class="node">
<title>N735</title>
<ellipse fill="#d3d3d3" stroke="#000000" cx="1162.9362" cy="-18" rx="27" ry="18"/>
<text text-anchor="middle" x="1162.9362" y="-13.8" font-family="Times,serif" font-size="14.00" fill="#000000">x</text>
</g>
<!-- N713&#45;&gt;N735 -->
<g id="edge32" class="edge">
<title>N713&#45;&gt;N735</title>
<path fill="none" stroke="#000000" d="M1105.0618,-75.0816C1115.2707,-65.0125 1128.9239,-51.5463 1140.4054,-40.2221"/>
<polygon fill="#000000" stroke="#000000" points="1142.9168,-42.6611 1147.5787,-33.147 1138.0013,-37.6773 1142.9168,-42.6611"/>
</g>
<!-- N766 -->
<g id="node39" class="node">
<title>N766</title>
<ellipse fill="#d3d3d3" stroke="#000000" cx="1472.9362" cy="-306" rx="32.4865" ry="18"/>
<text text-anchor="middle" x="1472.9362" y="-301.8" font-family="Times,serif" font-size="14.00" fill="#000000">N766</text>
</g>
<!-- N767 -->
<g id="node40" class="node">
<title>N767</title>
<ellipse fill="#d3d3d3" stroke="#000000" cx="1472.9362" cy="-234" rx="27" ry="18"/>
<text text-anchor="middle" x="1472.9362" y="-229.8" font-family="Times,serif" font-size="14.00" fill="#000000">mul</text>
</g>
<!-- N766&#45;&gt;N767 -->
<g id="edge33" class="edge">
<title>N766&#45;&gt;N767</title>
<path fill="none" stroke="#000000" d="M1472.9362,-287.8314C1472.9362,-280.131 1472.9362,-270.9743 1472.9362,-262.4166"/>
<polygon fill="#000000" stroke="#000000" points="1476.4363,-262.4132 1472.9362,-252.4133 1469.4363,-262.4133 1476.4363,-262.4132"/>
</g>
<!-- N768 -->
<g id="node41" class="node">
<title>N768</title>
<ellipse fill="#d3d3d3" stroke="#000000" cx="1436.9362" cy="-162" rx="27" ry="18"/>
<text text-anchor="middle" x="1436.9362" y="-157.8" font-family="Times,serif" font-size="14.00" fill="#000000">add</text>
</g>
<!-- N767&#45;&gt;N768 -->
<g id="edge34" class="edge">
<title>N767&#45;&gt;N768</title>
<path fill="none" stroke="#000000" d="M1464.2216,-216.5708C1459.9765,-208.0807 1454.7826,-197.6929 1450.0699,-188.2674"/>
<polygon fill="#000000" stroke="#000000" points="1453.1732,-186.6477 1445.5705,-179.2687 1446.9122,-189.7782 1453.1732,-186.6477"/>
</g>
<!-- N775 -->
<g id="node48" class="node">
<title>N775</title>
<ellipse fill="#d3d3d3" stroke="#000000" cx="1544.9362" cy="-162" rx="27" ry="18"/>
<text text-anchor="middle" x="1544.9362" y="-157.8" font-family="Times,serif" font-size="14.00" fill="#000000">mul</text>
</g>
<!-- N767&#45;&gt;N775 -->
<g id="edge41" class="edge">
<title>N767&#45;&gt;N775</title>
<path fill="none" stroke="#000000" d="M1488.2055,-218.7307C1498.1332,-208.803 1511.2515,-195.6847 1522.3725,-184.5637"/>
<polygon fill="#000000" stroke="#000000" points="1525.0926,-186.7933 1529.6888,-177.2473 1520.1428,-181.8436 1525.0926,-186.7933"/>
</g>
<!-- N769 -->
<g id="node42" class="node">
<title>N769</title>
<ellipse fill="none" stroke="#000000" cx="1309.9362" cy="-90" rx="27" ry="18"/>
<text text-anchor="middle" x="1309.9362" y="-85.8" font-family="Times,serif" font-size="14.00" fill="#000000">add</text>
</g>
<!-- N768&#45;&gt;N769 -->
<g id="edge35" class="edge">
<title>N768&#45;&gt;N769</title>
<path fill="none" stroke="#000000" d="M1416.2488,-150.2717C1395.3999,-138.4519 1363.0255,-120.0979 1339.4779,-106.7481"/>
<polygon fill="#000000" stroke="#000000" points="1341.0401,-103.6104 1330.6147,-101.7233 1337.5878,-109.6999 1341.0401,-103.6104"/>
</g>
<!-- N772 -->
<g id="node45" class="node">
<title>N772</title>
<ellipse fill="#d3d3d3" stroke="#000000" cx="1436.9362" cy="-90" rx="27" ry="18"/>
<text text-anchor="middle" x="1436.9362" y="-85.8" font-family="Times,serif" font-size="14.00" fill="#000000">add</text>
</g>
<!-- N768&#45;&gt;N772 -->
<g id="edge38" class="edge">
<title>N768&#45;&gt;N772</title>
<path fill="none" stroke="#000000" d="M1436.9362,-143.8314C1436.9362,-136.131 1436.9362,-126.9743 1436.9362,-118.4166"/>
<polygon fill="#000000" stroke="#000000" points="1440.4363,-118.4132 1436.9362,-108.4133 1433.4363,-118.4133 1440.4363,-118.4132"/>
</g>
<!-- N770 -->
<g id="node43" class="node">
<title>N770</title>
<ellipse fill="#d3d3d3" stroke="#000000" cx="1235.9362" cy="-18" rx="27.8725" ry="18"/>
<text text-anchor="middle" x="1235.9362" y="-13.8" font-family="Times,serif" font-size="14.00" fill="#000000">0.91</text>
</g>
<!-- N769&#45;&gt;N770 -->
<g id="edge36" class="edge">
<title>N769&#45;&gt;N770</title>
<path fill="none" stroke="#000000" d="M1294.6033,-75.0816C1284.2546,-65.0125 1270.4143,-51.5463 1258.7755,-40.2221"/>
<polygon fill="#000000" stroke="#000000" points="1261.112,-37.6121 1251.504,-33.147 1256.2305,-42.6292 1261.112,-37.6121"/>
</g>
<!-- N787 -->
<g id="node44" class="node">
<title>N787</title>
<ellipse fill="none" stroke="#000000" stroke-dasharray="5,2" cx="1309.9362" cy="-18" rx="27.8725" ry="18"/>
<text text-anchor="middle" x="1309.9362" y="-13.8" font-family="Times,serif" font-size="14.00" fill="#000000">0.18</text>
</g>
<!-- N769&#45;&gt;N787 -->
<g id="edge37" class="edge">
<title>N769&#45;&gt;N787</title>
<path fill="none" stroke="#000000" d="M1309.9362,-71.8314C1309.9362,-64.131 1309.9362,-54.9743 1309.9362,-46.4166"/>
<polygon fill="#000000" stroke="#000000" points="1313.4363,-46.4132 1309.9362,-36.4133 1306.4363,-46.4133 1313.4363,-46.4132"/>
</g>
<!-- N773 -->
<g id="node46" class="node">
<title>N773</title>
<ellipse fill="#d3d3d3" stroke="#000000" cx="1382.9362" cy="-18" rx="27" ry="18"/>
<text text-anchor="middle" x="1382.9362" y="-13.8" font-family="Times,serif" font-size="14.00" fill="#000000">x</text>
</g>
<!-- N772&#45;&gt;N773 -->
<g id="edge39" class="edge">
<title>N772&#45;&gt;N773</title>
<path fill="none" stroke="#000000" d="M1424.6827,-73.6621C1417.7785,-64.4564 1409.0185,-52.7764 1401.3077,-42.4953"/>
<polygon fill="#000000" stroke="#000000" points="1403.9412,-40.1733 1395.1411,-34.2733 1398.3411,-44.3733 1403.9412,-40.1733"/>
</g>
<!-- N774 -->
<g id="node47" class="node">
<title>N774</title>
<ellipse fill="#d3d3d3" stroke="#000000" cx="1454.9362" cy="-18" rx="27" ry="18"/>
<text text-anchor="middle" x="1454.9362" y="-13.8" font-family="Times,serif" font-size="14.00" fill="#000000">y</text>
</g>
<!-- N772&#45;&gt;N774 -->
<g id="edge40" class="edge">
<title>N772&#45;&gt;N774</title>
<path fill="none" stroke="#000000" d="M1441.3856,-72.2022C1443.376,-64.2406 1445.7694,-54.6671 1447.9872,-45.7957"/>
<polygon fill="#000000" stroke="#000000" points="1451.4456,-46.3929 1450.4755,-35.8425 1444.6546,-44.6951 1451.4456,-46.3929"/>
</g>
<!-- N776 -->
<g id="node49" class="node">
<title>N776</title>
<ellipse fill="#d3d3d3" stroke="#000000" cx="1544.9362" cy="-90" rx="27" ry="18"/>
<text text-anchor="middle" x="1544.9362" y="-85.8" font-family="Times,serif" font-size="14.00" fill="#000000">div</text>
</g>
<!-- N775&#45;&gt;N776 -->
<g id="edge42" class="edge">
<title>N775&#45;&gt;N776</title>
<path fill="none" stroke="#000000" d="M1544.9362,-143.8314C1544.9362,-136.131 1544.9362,-126.9743 1544.9362,-118.4166"/>
<polygon fill="#000000" stroke="#000000" points="1548.4363,-118.4132 1544.9362,-108.4133 1541.4363,-118.4133 1548.4363,-118.4132"/>
</g>
<!-- N779 -->
<g id="node52" class="node">
<title>N779</title>
<ellipse fill="#d3d3d3" stroke="#000000" cx="1671.9362" cy="-90" rx="27" ry="18"/>
<text text-anchor="middle" x="1671.9362" y="-85.8" font-family="Times,serif" font-size="14.00" fill="#000000">mul</text>
</g>
<!-- N775&#45;&gt;N779 -->
<g id="edge45" class="edge">
<title>N775&#45;&gt;N779</title>
<path fill="none" stroke="#000000" d="M1565.6236,-150.2717C1586.4724,-138.4519 1618.8468,-120.0979 1642.3945,-106.7481"/>
<polygon fill="#000000" stroke="#000000" points="1644.2845,-109.6999 1651.2576,-101.7233 1640.8322,-103.6104 1644.2845,-109.6999"/>
</g>
<!-- N777 -->
<g id="node50" class="node">
<title>N777</title>
<ellipse fill="#d3d3d3" stroke="#000000" cx="1526.9362" cy="-18" rx="27" ry="18"/>
<text text-anchor="middle" x="1526.9362" y="-13.8" font-family="Times,serif" font-size="14.00" fill="#000000">x</text>
</g>
<!-- N776&#45;&gt;N777 -->
<g id="edge43" class="edge">
<title>N776&#45;&gt;N777</title>
<path fill="none" stroke="#000000" d="M1540.4867,-72.2022C1538.4963,-64.2406 1536.1029,-54.6671 1533.8851,-45.7957"/>
<polygon fill="#000000" stroke="#000000" points="1537.2177,-44.6951 1531.3968,-35.8425 1530.4267,-46.3929 1537.2177,-44.6951"/>
</g>
<!-- N778 -->
<g id="node51" class="node">
<title>N778</title>
<ellipse fill="#d3d3d3" stroke="#000000" cx="1598.9362" cy="-18" rx="27" ry="18"/>
<text text-anchor="middle" x="1598.9362" y="-13.8" font-family="Times,serif" font-size="14.00" fill="#000000">0.2</text>
</g>
<!-- N776&#45;&gt;N778 -->
<g id="edge44" class="edge">
<title>N776&#45;&gt;N778</title>
<path fill="none" stroke="#000000" d="M1557.1896,-73.6621C1564.0938,-64.4564 1572.8538,-52.7764 1580.5647,-42.4953"/>
<polygon fill="#000000" stroke="#000000" points="1583.5312,-44.3733 1586.7312,-34.2733 1577.9312,-40.1733 1583.5312,-44.3733"/>
</g>
<!-- N780 -->
<g id="node53" class="node">
<title>N780</title>
<ellipse fill="#d3d3d3" stroke="#000000" cx="1671.9362" cy="-18" rx="27.8725" ry="18"/>
<text text-anchor="middle" x="1671.9362" y="-13.8" font-family="Times,serif" font-size="14.00" fill="#000000">0.63</text>
</g>
<!-- N779&#45;&gt;N780 -->
<g id="edge46" class="edge">
<title>N779&#45;&gt;N780</title>
<path fill="none" stroke="#000000" d="M1671.9362,-71.8314C1671.9362,-64.131 1671.9362,-54.9743 1671.9362,-46.4166"/>
<polygon fill="#000000" stroke="#000000" points="1675.4363,-46.4132 1671.9362,-36.4133 1668.4363,-46.4133 1675.4363,-46.4132"/>
</g>
<!-- N781 -->
<g id="node54" class="node">
<title>N781</title>
<ellipse fill="#d3d3d3" stroke="#000000" cx="1745.9362" cy="-18" rx="27.8725" ry="18"/>
<text text-anchor="middle" x="1745.9362" y="-13.8" font-family="Times,serif" font-size="14.00" fill="#000000">0.36</text>
</g>
<!-- N779&#45;&gt;N781 -->
<g id="edge47" class="edge">
<title>N779&#45;&gt;N781</title>
<path fill="none" stroke="#000000" d="M1687.269,-75.0816C1697.6177,-65.0125 1711.458,-51.5463 1723.0968,-40.2221"/>
<polygon fill="#000000" stroke="#000000" points="1725.6418,-42.6292 1730.3684,-33.147 1720.7603,-37.6121 1725.6418,-42.6292"/>
</g>
<!-- N782 -->
<g id="node55" class="node">
<title>N782</title>
<ellipse fill="#d3d3d3" stroke="#000000" cx="2038.9362" cy="-306" rx="32.4865" ry="18"/>
<text text-anchor="middle" x="2038.9362" y="-301.8" font-family="Times,serif" font-size="14.00" fill="#000000">N782</text>
</g>
<!-- N783 -->
<g id="node56" class="node">
<title>N783</title>
<ellipse fill="#d3d3d3" stroke="#000000" cx="2038.9362" cy="-234" rx="27" ry="18"/>
<text text-anchor="middle" x="2038.9362" y="-229.8" font-family="Times,serif" font-size="14.00" fill="#000000">div</text>
</g>
<!-- N782&#45;&gt;N783 -->
<g id="edge48" class="edge">
<title>N782&#45;&gt;N783</title>
<path fill="none" stroke="#000000" d="M2038.9362,-287.8314C2038.9362,-280.131 2038.9362,-270.9743 2038.9362,-262.4166"/>
<polygon fill="#000000" stroke="#000000" points="2042.4363,-262.4132 2038.9362,-252.4133 2035.4363,-262.4133 2042.4363,-262.4132"/>
</g>
<!-- N784 -->
<g id="node57" class="node">
<title>N784</title>
<ellipse fill="#d3d3d3" stroke="#000000" cx="2002.9362" cy="-162" rx="27" ry="18"/>
<text text-anchor="middle" x="2002.9362" y="-157.8" font-family="Times,serif" font-size="14.00" fill="#000000">add</text>
</g>
<!-- N783&#45;&gt;N784 -->
<g id="edge49" class="edge">
<title>N783&#45;&gt;N784</title>
<path fill="none" stroke="#000000" d="M2030.2216,-216.5708C2025.9765,-208.0807 2020.7826,-197.6929 2016.0699,-188.2674"/>
<polygon fill="#000000" stroke="#000000" points="2019.1732,-186.6477 2011.5705,-179.2687 2012.9122,-189.7782 2019.1732,-186.6477"/>
</g>
<!-- N791 -->
<g id="node64" class="node">
<title>N791</title>
<ellipse fill="#d3d3d3" stroke="#000000" cx="2148.9362" cy="-162" rx="27" ry="18"/>
<text text-anchor="middle" x="2148.9362" y="-157.8" font-family="Times,serif" font-size="14.00" fill="#000000">div</text>
</g>
<!-- N783&#45;&gt;N791 -->
<g id="edge56" class="edge">
<title>N783&#45;&gt;N791</title>
<path fill="none" stroke="#000000" d="M2058.3487,-221.2936C2075.6782,-209.9507 2101.2679,-193.201 2120.8334,-180.3946"/>
<polygon fill="#000000" stroke="#000000" points="2122.8974,-183.2267 2129.3476,-174.8216 2119.0638,-177.3698 2122.8974,-183.2267"/>
</g>
<!-- N785 -->
<g id="node58" class="node">
<title>N785</title>
<ellipse fill="none" stroke="#000000" cx="1893.9362" cy="-90" rx="27" ry="18"/>
<text text-anchor="middle" x="1893.9362" y="-85.8" font-family="Times,serif" font-size="14.00" fill="#000000">add</text>
</g>
<!-- N784&#45;&gt;N785 -->
<g id="edge50" class="edge">
<title>N784&#45;&gt;N785</title>
<path fill="none" stroke="#000000" d="M1983.7001,-149.2936C1966.5282,-137.9507 1941.171,-121.201 1921.7835,-108.3946"/>
<polygon fill="#000000" stroke="#000000" points="1923.6197,-105.4128 1913.3466,-102.8216 1919.7615,-111.2536 1923.6197,-105.4128"/>
</g>
<!-- N788 -->
<g id="node61" class="node">
<title>N788</title>
<ellipse fill="#d3d3d3" stroke="#000000" cx="2002.9362" cy="-90" rx="27" ry="18"/>
<text text-anchor="middle" x="2002.9362" y="-85.8" font-family="Times,serif" font-size="14.00" fill="#000000">sub</text>
</g>
<!-- N784&#45;&gt;N788 -->
<g id="edge53" class="edge">
<title>N784&#45;&gt;N788</title>
<path fill="none" stroke="#000000" d="M2002.9362,-143.8314C2002.9362,-136.131 2002.9362,-126.9743 2002.9362,-118.4166"/>
<polygon fill="#000000" stroke="#000000" points="2006.4363,-118.4132 2002.9362,-108.4133 1999.4363,-118.4133 2006.4363,-118.4132"/>
</g>
<!-- N786 -->
<g id="node59" class="node">
<title>N786</title>
<ellipse fill="#d3d3d3" stroke="#000000" cx="1819.9362" cy="-18" rx="27.8725" ry="18"/>
<text text-anchor="middle" x="1819.9362" y="-13.8" font-family="Times,serif" font-size="14.00" fill="#000000">0.55</text>
</g>
<!-- N785&#45;&gt;N786 -->
<g id="edge51" class="edge">
<title>N785&#45;&gt;N786</title>
<path fill="none" stroke="#000000" d="M1878.6033,-75.0816C1868.2546,-65.0125 1854.4143,-51.5463 1842.7755,-40.2221"/>
<polygon fill="#000000" stroke="#000000" points="1845.112,-37.6121 1835.504,-33.147 1840.2305,-42.6292 1845.112,-37.6121"/>
</g>
<!-- N771 -->
<g id="node60" class="node">
<title>N771</title>
<ellipse fill="none" stroke="#000000" stroke-dasharray="5,2" cx="1893.9362" cy="-18" rx="27.8725" ry="18"/>
<text text-anchor="middle" x="1893.9362" y="-13.8" font-family="Times,serif" font-size="14.00" fill="#000000">0.15</text>
</g>
<!-- N785&#45;&gt;N771 -->
<g id="edge52" class="edge">
<title>N785&#45;&gt;N771</title>
<path fill="none" stroke="#000000" d="M1893.9362,-71.8314C1893.9362,-64.131 1893.9362,-54.9743 1893.9362,-46.4166"/>
<polygon fill="#000000" stroke="#000000" points="1897.4363,-46.4132 1893.9362,-36.4133 1890.4363,-46.4133 1897.4363,-46.4132"/>
</g>
<!-- N789 -->
<g id="node62" class="node">
<title>N789</title>
<ellipse fill="#d3d3d3" stroke="#000000" cx="1966.9362" cy="-18" rx="27" ry="18"/>
<text text-anchor="middle" x="1966.9362" y="-13.8" font-family="Times,serif" font-size="14.00" fill="#000000">y</text>
</g>
<!-- N788&#45;&gt;N789 -->
<g id="edge54" class="edge">
<title>N788&#45;&gt;N789</title>
<path fill="none" stroke="#000000" d="M1994.2216,-72.5708C1989.9765,-64.0807 1984.7826,-53.6929 1980.0699,-44.2674"/>
<polygon fill="#000000" stroke="#000000" points="1983.1732,-42.6477 1975.5705,-35.2687 1976.9122,-45.7782 1983.1732,-42.6477"/>
</g>
<!-- N790 -->
<g id="node63" class="node">
<title>N790</title>
<ellipse fill="#d3d3d3" stroke="#000000" cx="2038.9362" cy="-18" rx="27" ry="18"/>
<text text-anchor="middle" x="2038.9362" y="-13.8" font-family="Times,serif" font-size="14.00" fill="#000000">x</text>
</g>
<!-- N788&#45;&gt;N790 -->
<g id="edge55" class="edge">
<title>N788&#45;&gt;N790</title>
<path fill="none" stroke="#000000" d="M2011.6508,-72.5708C2015.8958,-64.0807 2021.0897,-53.6929 2025.8025,-44.2674"/>
<polygon fill="#000000" stroke="#000000" points="2028.9601,-45.7782 2030.3018,-35.2687 2022.6991,-42.6477 2028.9601,-45.7782"/>
</g>
<!-- N792 -->
<g id="node65" class="node">
<title>N792</title>
<ellipse fill="#d3d3d3" stroke="#000000" cx="2148.9362" cy="-90" rx="27" ry="18"/>
<text text-anchor="middle" x="2148.9362" y="-85.8" font-family="Times,serif" font-size="14.00" fill="#000000">add</text>
</g>
<!-- N791&#45;&gt;N792 -->
<g id="edge57" class="edge">
<title>N791&#45;&gt;N792</title>
<path fill="none" stroke="#000000" d="M2148.9362,-143.8314C2148.9362,-136.131 2148.9362,-126.9743 2148.9362,-118.4166"/>
<polygon fill="#000000" stroke="#000000" points="2152.4363,-118.4132 2148.9362,-108.4133 2145.4363,-118.4133 2152.4363,-118.4132"/>
</g>
<!-- N795 -->
<g id="node68" class="node">
<title>N795</title>
<ellipse fill="#d3d3d3" stroke="#000000" cx="2259.9362" cy="-90" rx="27" ry="18"/>
<text text-anchor="middle" x="2259.9362" y="-85.8" font-family="Times,serif" font-size="14.00" fill="#000000">div</text>
</g>
<!-- N791&#45;&gt;N795 -->
<g id="edge60" class="edge">
<title>N791&#45;&gt;N795</title>
<path fill="none" stroke="#000000" d="M2168.5252,-149.2936C2186.1201,-137.8807 2212.1537,-120.994 2231.9428,-108.1579"/>
<polygon fill="#000000" stroke="#000000" points="2234.058,-110.9577 2240.5429,-102.5794 2230.2486,-105.085 2234.058,-110.9577"/>
</g>
<!-- N793 -->
<g id="node66" class="node">
<title>N793</title>
<ellipse fill="#d3d3d3" stroke="#000000" cx="2111.9362" cy="-18" rx="27.8725" ry="18"/>
<text text-anchor="middle" x="2111.9362" y="-13.8" font-family="Times,serif" font-size="14.00" fill="#000000">0.05</text>
</g>
<!-- N792&#45;&gt;N793 -->
<g id="edge58" class="edge">
<title>N792&#45;&gt;N793</title>
<path fill="none" stroke="#000000" d="M2140.1677,-72.937C2135.8082,-64.4537 2130.4409,-54.0092 2125.5609,-44.513"/>
<polygon fill="#000000" stroke="#000000" points="2128.5825,-42.7352 2120.8987,-35.4407 2122.3565,-45.9348 2128.5825,-42.7352"/>
</g>
<!-- N794 -->
<g id="node67" class="node">
<title>N794</title>
<ellipse fill="#d3d3d3" stroke="#000000" cx="2185.9362" cy="-18" rx="27.8725" ry="18"/>
<text text-anchor="middle" x="2185.9362" y="-13.8" font-family="Times,serif" font-size="14.00" fill="#000000">0.06</text>
</g>
<!-- N792&#45;&gt;N794 -->
<g id="edge59" class="edge">
<title>N792&#45;&gt;N794</title>
<path fill="none" stroke="#000000" d="M2157.7046,-72.937C2162.0641,-64.4537 2167.4314,-54.0092 2172.3114,-44.513"/>
<polygon fill="#000000" stroke="#000000" points="2175.5159,-45.9348 2176.9736,-35.4407 2169.2898,-42.7352 2175.5159,-45.9348"/>
</g>
<!-- N796 -->
<g id="node69" class="node">
<title>N796</title>
<ellipse fill="#d3d3d3" stroke="#000000" cx="2259.9362" cy="-18" rx="27.8725" ry="18"/>
<text text-anchor="middle" x="2259.9362" y="-13.8" font-family="Times,serif" font-size="14.00" fill="#000000">0.28</text>
</g>
<!-- N795&#45;&gt;N796 -->
<g id="edge61" class="edge">
<title>N795&#45;&gt;N796</title>
<path fill="none" stroke="#000000" d="M2259.9362,-71.8314C2259.9362,-64.131 2259.9362,-54.9743 2259.9362,-46.4166"/>
<polygon fill="#000000" stroke="#000000" points="2263.4363,-46.4132 2259.9362,-36.4133 2256.4363,-46.4133 2263.4363,-46.4132"/>
</g>
<!-- N797 -->
<g id="node70" class="node">
<title>N797</title>
<ellipse fill="#d3d3d3" stroke="#000000" cx="2332.9362" cy="-18" rx="27" ry="18"/>
<text text-anchor="middle" x="2332.9362" y="-13.8" font-family="Times,serif" font-size="14.00" fill="#000000">x</text>
</g>
<!-- N795&#45;&gt;N797 -->
<g id="edge62" class="edge">
<title>N795&#45;&gt;N797</title>
<path fill="none" stroke="#000000" d="M2275.0618,-75.0816C2285.2707,-65.0125 2298.9239,-51.5463 2310.4054,-40.2221"/>
<polygon fill="#000000" stroke="#000000" points="2312.9168,-42.6611 2317.5787,-33.147 2308.0013,-37.6773 2312.9168,-42.6611"/>
</g>
</g>
</svg>
