<?xml version="1.0" encoding="UTF-8" standalone="no"?>
<!DOCTYPE svg PUBLIC "-//W3C//DTD SVG 1.1//EN"
 "http://www.w3.org/Graphics/SVG/1.1/DTD/svg11.dtd">
<!-- Generated by graphviz version 2.40.1 (20161225.0304)
 -->
<!-- Title: GTest Pages: 1 -->
<svg width="2471pt" height="332pt"
 viewBox="0.00 0.00 2470.94 332.00" xmlns="http://www.w3.org/2000/svg" xmlns:xlink="http://www.w3.org/1999/xlink">
<g id="graph0" class="graph" transform="scale(1 1) rotate(0) translate(4 328)">
<title>GTest</title>
<polygon fill="#ffffff" stroke="transparent" points="-4,4 -4,-328 2466.9362,-328 2466.9362,4 -4,4"/>
<!-- N442 -->
<g id="node1" class="node">
<title>N442</title>
<ellipse fill="#d3d3d3" stroke="#000000" cx="27.9362" cy="-306" rx="27.8725" ry="18"/>
<text text-anchor="middle" x="27.9362" y="-301.8" font-family="Times,serif" font-size="14.00" fill="#000000">0.55</text>
</g>
<!-- N443 -->
<g id="node2" class="node">
<title>N443</title>
<ellipse fill="#d3d3d3" stroke="#000000" cx="100.9362" cy="-306" rx="27" ry="18"/>
<text text-anchor="middle" x="100.9362" y="-301.8" font-family="Times,serif" font-size="14.00" fill="#000000">x</text>
</g>
<!-- N444 -->
<g id="node3" class="node">
<title>N444</title>
<ellipse fill="#d3d3d3" stroke="#000000" cx="172.9362" cy="-306" rx="27" ry="18"/>
<text text-anchor="middle" x="172.9362" y="-301.8" font-family="Times,serif" font-size="14.00" fill="#000000">y</text>
</g>
<!-- N446 -->
<g id="node4" class="node">
<title>N446</title>
<ellipse fill="#d3d3d3" stroke="#000000" cx="244.9362" cy="-306" rx="27" ry="18"/>
<text text-anchor="middle" x="244.9362" y="-301.8" font-family="Times,serif" font-size="14.00" fill="#000000">add</text>
</g>
<!-- N447 -->
<g id="node5" class="node">
<title>N447</title>
<ellipse fill="#d3d3d3" stroke="#000000" cx="210.9362" cy="-234" rx="27" ry="18"/>
<text text-anchor="middle" x="210.9362" y="-229.8" font-family="Times,serif" font-size="14.00" fill="#000000">x</text>
</g>
<!-- N446&#45;&gt;N447 -->
<g id="edge1" class="edge">
<title>N446&#45;&gt;N447</title>
<path fill="none" stroke="#000000" d="M236.7057,-288.5708C232.7382,-280.1691 227.8932,-269.9091 223.4795,-260.5623"/>
<polygon fill="#000000" stroke="#000000" points="226.5258,-258.8166 219.0908,-251.2687 220.1961,-261.8057 226.5258,-258.8166"/>
</g>
<!-- N448 -->
<g id="node6" class="node">
<title>N448</title>
<ellipse fill="#d3d3d3" stroke="#000000" cx="283.9362" cy="-234" rx="27.8725" ry="18"/>
<text text-anchor="middle" x="283.9362" y="-229.8" font-family="Times,serif" font-size="14.00" fill="#000000">0.55</text>
</g>
<!-- N446&#45;&gt;N448 -->
<g id="edge2" class="edge">
<title>N446&#45;&gt;N448</title>
<path fill="none" stroke="#000000" d="M254.1786,-288.937C258.7737,-280.4537 264.4312,-270.0092 269.575,-260.513"/>
<polygon fill="#000000" stroke="#000000" points="272.8038,-261.9006 274.4891,-251.4407 266.6487,-258.5666 272.8038,-261.9006"/>
</g>
<!-- N449 -->
<g id="node7" class="node">
<title>N449</title>
<ellipse fill="#d3d3d3" stroke="#000000" cx="356.9362" cy="-306" rx="32.4865" ry="18"/>
<text text-anchor="middle" x="356.9362" y="-301.8" font-family="Times,serif" font-size="14.00" fill="#000000">N449</text>
</g>
<!-- N460 -->
<g id="node8" class="node">
<title>N460</title>
<ellipse fill="#d3d3d3" stroke="#000000" cx="356.9362" cy="-234" rx="27" ry="18"/>
<text text-anchor="middle" x="356.9362" y="-229.8" font-family="Times,serif" font-size="14.00" fill="#000000">sub</text>
</g>
<!-- N449&#45;&gt;N460 -->
<g id="edge3" class="edge">
<title>N449&#45;&gt;N460</title>
<path fill="none" stroke="#000000" d="M356.9362,-287.8314C356.9362,-280.131 356.9362,-270.9743 356.9362,-262.4166"/>
<polygon fill="#000000" stroke="#000000" points="360.4363,-262.4132 356.9362,-252.4133 353.4363,-262.4133 360.4363,-262.4132"/>
</g>
<!-- N471 -->
<g id="node9" class="node">
<title>N471</title>
<ellipse fill="#d3d3d3" stroke="#000000" cx="319.9362" cy="-162" rx="27" ry="18"/>
<text text-anchor="middle" x="319.9362" y="-157.8" font-family="Times,serif" font-size="14.00" fill="#000000">add</text>
</g>
<!-- N460&#45;&gt;N471 -->
<g id="edge4" class="edge">
<title>N460&#45;&gt;N471</title>
<path fill="none" stroke="#000000" d="M348.1677,-216.937C343.8082,-208.4537 338.4409,-198.0092 333.5609,-188.513"/>
<polygon fill="#000000" stroke="#000000" points="336.5825,-186.7352 328.8987,-179.4407 330.3565,-189.9348 336.5825,-186.7352"/>
</g>
<!-- N504 -->
<g id="node12" class="node">
<title>N504</title>
<ellipse fill="#d3d3d3" stroke="#000000" cx="392.9362" cy="-162" rx="27" ry="18"/>
<text text-anchor="middle" x="392.9362" y="-157.8" font-family="Times,serif" font-size="14.00" fill="#000000">sub</text>
</g>
<!-- N460&#45;&gt;N504 -->
<g id="edge7" class="edge">
<title>N460&#45;&gt;N504</title>
<path fill="none" stroke="#000000" d="M365.6508,-216.5708C369.8958,-208.0807 375.0897,-197.6929 379.8025,-188.2674"/>
<polygon fill="#000000" stroke="#000000" points="382.9601,-189.7782 384.3018,-179.2687 376.6991,-186.6477 382.9601,-189.7782"/>
</g>
<!-- N482 -->
<g id="node10" class="node">
<title>N482</title>
<ellipse fill="#d3d3d3" stroke="#000000" cx="245.9362" cy="-90" rx="27.8725" ry="18"/>
<text text-anchor="middle" x="245.9362" y="-85.8" font-family="Times,serif" font-size="14.00" fill="#000000">0.42</text>
</g>
<!-- N471&#45;&gt;N482 -->
<g id="edge5" class="edge">
<title>N471&#45;&gt;N482</title>
<path fill="none" stroke="#000000" d="M304.6033,-147.0816C294.2546,-137.0125 280.4143,-123.5463 268.7755,-112.2221"/>
<polygon fill="#000000" stroke="#000000" points="271.112,-109.6121 261.504,-105.147 266.2305,-114.6292 271.112,-109.6121"/>
</g>
<!-- N493 -->
<g id="node11" class="node">
<title>N493</title>
<ellipse fill="#d3d3d3" stroke="#000000" cx="319.9362" cy="-90" rx="27.8725" ry="18"/>
<text text-anchor="middle" x="319.9362" y="-85.8" font-family="Times,serif" font-size="14.00" fill="#000000">0.71</text>
</g>
<!-- N471&#45;&gt;N493 -->
<g id="edge6" class="edge">
<title>N471&#45;&gt;N493</title>
<path fill="none" stroke="#000000" d="M319.9362,-143.8314C319.9362,-136.131 319.9362,-126.9743 319.9362,-118.4166"/>
<polygon fill="#000000" stroke="#000000" points="323.4363,-118.4132 319.9362,-108.4133 316.4363,-118.4133 323.4363,-118.4132"/>
</g>
<!-- N515 -->
<g id="node13" class="node">
<title>N515</title>
<ellipse fill="#d3d3d3" stroke="#000000" cx="392.9362" cy="-90" rx="27" ry="18"/>
<text text-anchor="middle" x="392.9362" y="-85.8" font-family="Times,serif" font-size="14.00" fill="#000000">x</text>
</g>
<!-- N504&#45;&gt;N515 -->
<g id="edge8" class="edge">
<title>N504&#45;&gt;N515</title>
<path fill="none" stroke="#000000" d="M392.9362,-143.8314C392.9362,-136.131 392.9362,-126.9743 392.9362,-118.4166"/>
<polygon fill="#000000" stroke="#000000" points="396.4363,-118.4132 392.9362,-108.4133 389.4363,-118.4133 396.4363,-118.4132"/>
</g>
<!-- N526 -->
<g id="node14" class="node">
<title>N526</title>
<ellipse fill="#d3d3d3" stroke="#000000" cx="464.9362" cy="-90" rx="27" ry="18"/>
<text text-anchor="middle" x="464.9362" y="-85.8" font-family="Times,serif" font-size="14.00" fill="#000000">y</text>
</g>
<!-- N504&#45;&gt;N526 -->
<g id="edge9" class="edge">
<title>N504&#45;&gt;N526</title>
<path fill="none" stroke="#000000" d="M408.2055,-146.7307C418.1332,-136.803 431.2515,-123.6847 442.3725,-112.5637"/>
<polygon fill="#000000" stroke="#000000" points="445.0926,-114.7933 449.6888,-105.2473 440.1428,-109.8436 445.0926,-114.7933"/>
</g>
<!-- N527 -->
<g id="node15" class="node">
<title>N527</title>
<ellipse fill="#d3d3d3" stroke="#000000" cx="937.9362" cy="-306" rx="32.4865" ry="18"/>
<text text-anchor="middle" x="937.9362" y="-301.8" font-family="Times,serif" font-size="14.00" fill="#000000">N527</text>
</g>
<!-- N538 -->
<g id="node16" class="node">
<title>N538</title>
<ellipse fill="#d3d3d3" stroke="#000000" cx="937.9362" cy="-234" rx="27" ry="18"/>
<text text-anchor="middle" x="937.9362" y="-229.8" font-family="Times,serif" font-size="14.00" fill="#000000">add</text>
</g>
<!-- N527&#45;&gt;N538 -->
<g id="edge10" class="edge">
<title>N527&#45;&gt;N538</title>
<path fill="none" stroke="#000000" d="M937.9362,-287.8314C937.9362,-280.131 937.9362,-270.9743 937.9362,-262.4166"/>
<polygon fill="#000000" stroke="#000000" points="941.4363,-262.4132 937.9362,-252.4133 934.4363,-262.4133 941.4363,-262.4132"/>
</g>
<!-- N549 -->
<g id="node17" class="node">
<title>N549</title>
<ellipse fill="#d3d3d3" stroke="#000000" cx="755.9362" cy="-162" rx="48.6501" ry="18"/>
<text text-anchor="middle" x="755.9362" y="-157.8" font-family="Times,serif" font-size="14.00" fill="#000000">ifthenelse</text>
</g>
<!-- N538&#45;&gt;N549 -->
<g id="edge11" class="edge">
<title>N538&#45;&gt;N549</title>
<path fill="none" stroke="#000000" d="M914.5154,-224.7347C885.3441,-213.1943 834.947,-193.257 798.7908,-178.9535"/>
<polygon fill="#000000" stroke="#000000" points="800.0507,-175.688 789.4644,-175.2639 797.4756,-182.1972 800.0507,-175.688"/>
</g>
<!-- N670 -->
<g id="node28" class="node">
<title>N670</title>
<ellipse fill="#d3d3d3" stroke="#000000" cx="1084.9362" cy="-162" rx="48.6501" ry="18"/>
<text text-anchor="middle" x="1084.9362" y="-157.8" font-family="Times,serif" font-size="14.00" fill="#000000">ifthenelse</text>
</g>
<!-- N538&#45;&gt;N670 -->
<g id="edge22" class="edge">
<title>N538&#45;&gt;N670</title>
<path fill="none" stroke="#000000" d="M959.9435,-223.2209C982.7547,-212.0481 1018.8637,-194.362 1046.4182,-180.8659"/>
<polygon fill="#000000" stroke="#000000" points="1047.9622,-184.007 1055.4033,-176.4651 1044.8831,-177.7206 1047.9622,-184.007"/>
</g>
<!-- N560 -->
<g id="node18" class="node">
<title>N560</title>
<ellipse fill="#d3d3d3" stroke="#000000" cx="536.9362" cy="-90" rx="27" ry="18"/>
<text text-anchor="middle" x="536.9362" y="-85.8" font-family="Times,serif" font-size="14.00" fill="#000000">or</text>
</g>
<!-- N549&#45;&gt;N560 -->
<g id="edge12" class="edge">
<title>N549&#45;&gt;N560</title>
<path fill="none" stroke="#000000" d="M719.2805,-149.9488C677.9715,-136.3678 611.3494,-114.4646 571.095,-101.2303"/>
<polygon fill="#000000" stroke="#000000" points="572.0533,-97.8611 561.4604,-98.0628 569.867,-104.511 572.0533,-97.8611"/>
</g>
<!-- N593 -->
<g id="node21" class="node">
<title>N593</title>
<ellipse fill="#d3d3d3" stroke="#000000" cx="683.9362" cy="-90" rx="27" ry="18"/>
<text text-anchor="middle" x="683.9362" y="-85.8" font-family="Times,serif" font-size="14.00" fill="#000000">sub</text>
</g>
<!-- N549&#45;&gt;N593 -->
<g id="edge15" class="edge">
<title>N549&#45;&gt;N593</title>
<path fill="none" stroke="#000000" d="M738.8732,-144.937C729.1021,-135.1659 716.729,-122.7928 706.2001,-112.2639"/>
<polygon fill="#000000" stroke="#000000" points="708.4689,-109.583 698.9229,-104.9868 703.5191,-114.5327 708.4689,-109.583"/>
</g>
<!-- N626 -->
<g id="node24" class="node">
<title>N626</title>
<ellipse fill="#d3d3d3" stroke="#000000" cx="803.9362" cy="-90" rx="48.6501" ry="18"/>
<text text-anchor="middle" x="803.9362" y="-85.8" font-family="Times,serif" font-size="14.00" fill="#000000">ifthenelse</text>
</g>
<!-- N549&#45;&gt;N626 -->
<g id="edge18" class="edge">
<title>N549&#45;&gt;N626</title>
<path fill="none" stroke="#000000" d="M767.8013,-144.2022C773.4396,-135.7448 780.2905,-125.4685 786.5048,-116.147"/>
<polygon fill="#000000" stroke="#000000" points="789.5726,-117.855 792.2075,-107.593 783.7482,-113.9721 789.5726,-117.855"/>
</g>
<!-- N571 -->
<g id="node19" class="node">
<title>N571</title>
<ellipse fill="#d3d3d3" stroke="#000000" cx="464.9362" cy="-18" rx="27" ry="18"/>
<text text-anchor="middle" x="464.9362" y="-13.8" font-family="Times,serif" font-size="14.00" fill="#000000">b</text>
</g>
<!-- N560&#45;&gt;N571 -->
<g id="edge13" class="edge">
<title>N560&#45;&gt;N571</title>
<path fill="none" stroke="#000000" d="M521.6668,-74.7307C511.7392,-64.803 498.6209,-51.6847 487.4998,-40.5637"/>
<polygon fill="#000000" stroke="#000000" points="489.7295,-37.8436 480.1835,-33.2473 484.7797,-42.7933 489.7295,-37.8436"/>
</g>
<!-- N582 -->
<g id="node20" class="node">
<title>N582</title>
<ellipse fill="#d3d3d3" stroke="#000000" cx="536.9362" cy="-18" rx="27" ry="18"/>
<text text-anchor="middle" x="536.9362" y="-13.8" font-family="Times,serif" font-size="14.00" fill="#000000">b</text>
</g>
<!-- N560&#45;&gt;N582 -->
<g id="edge14" class="edge">
<title>N560&#45;&gt;N582</title>
<path fill="none" stroke="#000000" d="M536.9362,-71.8314C536.9362,-64.131 536.9362,-54.9743 536.9362,-46.4166"/>
<polygon fill="#000000" stroke="#000000" points="540.4363,-46.4132 536.9362,-36.4133 533.4363,-46.4133 540.4363,-46.4132"/>
</g>
<!-- N604 -->
<g id="node22" class="node">
<title>N604</title>
<ellipse fill="#d3d3d3" stroke="#000000" cx="609.9362" cy="-18" rx="27.8725" ry="18"/>
<text text-anchor="middle" x="609.9362" y="-13.8" font-family="Times,serif" font-size="14.00" fill="#000000">0.03</text>
</g>
<!-- N593&#45;&gt;N604 -->
<g id="edge16" class="edge">
<title>N593&#45;&gt;N604</title>
<path fill="none" stroke="#000000" d="M668.6033,-75.0816C658.2546,-65.0125 644.4143,-51.5463 632.7755,-40.2221"/>
<polygon fill="#000000" stroke="#000000" points="635.112,-37.6121 625.504,-33.147 630.2305,-42.6292 635.112,-37.6121"/>
</g>
<!-- N615 -->
<g id="node23" class="node">
<title>N615</title>
<ellipse fill="#d3d3d3" stroke="#000000" cx="683.9362" cy="-18" rx="27.8725" ry="18"/>
<text text-anchor="middle" x="683.9362" y="-13.8" font-family="Times,serif" font-size="14.00" fill="#000000">0.46</text>
</g>
<!-- N593&#45;&gt;N615 -->
<g id="edge17" class="edge">
<title>N593&#45;&gt;N615</title>
<path fill="none" stroke="#000000" d="M683.9362,-71.8314C683.9362,-64.131 683.9362,-54.9743 683.9362,-46.4166"/>
<polygon fill="#000000" stroke="#000000" points="687.4363,-46.4132 683.9362,-36.4133 680.4363,-46.4133 687.4363,-46.4132"/>
</g>
<!-- N637 -->
<g id="node25" class="node">
<title>N637</title>
<ellipse fill="#d3d3d3" stroke="#000000" cx="756.9362" cy="-18" rx="27" ry="18"/>
<text text-anchor="middle" x="756.9362" y="-13.8" font-family="Times,serif" font-size="14.00" fill="#000000">b</text>
</g>
<!-- N626&#45;&gt;N637 -->
<g id="edge19" class="edge">
<title>N626&#45;&gt;N637</title>
<path fill="none" stroke="#000000" d="M792.3182,-72.2022C786.5739,-63.4025 779.5443,-52.6338 773.2688,-43.0202"/>
<polygon fill="#000000" stroke="#000000" points="776.1732,-41.0664 767.7761,-34.6058 770.3115,-44.8928 776.1732,-41.0664"/>
</g>
<!-- N648 -->
<g id="node26" class="node">
<title>N648</title>
<ellipse fill="#d3d3d3" stroke="#000000" cx="828.9362" cy="-18" rx="27" ry="18"/>
<text text-anchor="middle" x="828.9362" y="-13.8" font-family="Times,serif" font-size="14.00" fill="#000000">y</text>
</g>
<!-- N626&#45;&gt;N648 -->
<g id="edge20" class="edge">
<title>N626&#45;&gt;N648</title>
<path fill="none" stroke="#000000" d="M810.2447,-71.8314C813.0193,-63.8406 816.3383,-54.2819 819.4044,-45.4514"/>
<polygon fill="#000000" stroke="#000000" points="822.7424,-46.5082 822.7162,-35.9134 816.1297,-44.2121 822.7424,-46.5082"/>
</g>
<!-- N659 -->
<g id="node27" class="node">
<title>N659</title>
<ellipse fill="#d3d3d3" stroke="#000000" cx="901.9362" cy="-18" rx="27.8725" ry="18"/>
<text text-anchor="middle" x="901.9362" y="-13.8" font-family="Times,serif" font-size="14.00" fill="#000000">0.01</text>
</g>
<!-- N626&#45;&gt;N659 -->
<g id="edge21" class="edge">
<title>N626&#45;&gt;N659</title>
<path fill="none" stroke="#000000" d="M826.1739,-73.6621C840.7545,-62.9498 859.8955,-48.887 875.2899,-37.5768"/>
<polygon fill="#000000" stroke="#000000" points="877.4176,-40.3568 883.4041,-31.6154 873.273,-34.7156 877.4176,-40.3568"/>
</g>
<!-- N681 -->
<g id="node29" class="node">
<title>N681</title>
<ellipse fill="#d3d3d3" stroke="#000000" cx="1048.9362" cy="-90" rx="27" ry="18"/>
<text text-anchor="middle" x="1048.9362" y="-85.8" font-family="Times,serif" font-size="14.00" fill="#000000">lt</text>
</g>
<!-- N670&#45;&gt;N681 -->
<g id="edge23" class="edge">
<title>N670&#45;&gt;N681</title>
<path fill="none" stroke="#000000" d="M1076.0373,-144.2022C1071.8339,-135.7955 1066.732,-125.5917 1062.0936,-116.3149"/>
<polygon fill="#000000" stroke="#000000" points="1065.0875,-114.4762 1057.4848,-107.0972 1058.8265,-117.6068 1065.0875,-114.4762"/>
</g>
<!-- N714 -->
<g id="node32" class="node">
<title>N714</title>
<ellipse fill="#d3d3d3" stroke="#000000" cx="1121.9362" cy="-90" rx="27" ry="18"/>
<text text-anchor="middle" x="1121.9362" y="-85.8" font-family="Times,serif" font-size="14.00" fill="#000000">mul</text>
</g>
<!-- N670&#45;&gt;N714 -->
<g id="edge26" class="edge">
<title>N670&#45;&gt;N714</title>
<path fill="none" stroke="#000000" d="M1094.0822,-144.2022C1098.4478,-135.7071 1103.7565,-125.3767 1108.5636,-116.0223"/>
<polygon fill="#000000" stroke="#000000" points="1111.6924,-117.5913 1113.1501,-107.0972 1105.4663,-114.3918 1111.6924,-117.5913"/>
</g>
<!-- N747 -->
<g id="node35" class="node">
<title>N747</title>
<ellipse fill="#d3d3d3" stroke="#000000" cx="1267.9362" cy="-90" rx="27" ry="18"/>
<text text-anchor="middle" x="1267.9362" y="-85.8" font-family="Times,serif" font-size="14.00" fill="#000000">div</text>
</g>
<!-- N670&#45;&gt;N747 -->
<g id="edge29" class="edge">
<title>N670&#45;&gt;N747</title>
<path fill="none" stroke="#000000" d="M1118.5012,-148.7941C1151.6041,-135.77 1201.8932,-115.9841 1234.8345,-103.0236"/>
<polygon fill="#000000" stroke="#000000" points="1236.4384,-106.1538 1244.4626,-99.2355 1233.8754,-99.6398 1236.4384,-106.1538"/>
</g>
<!-- N692 -->
<g id="node30" class="node">
<title>N692</title>
<ellipse fill="#d3d3d3" stroke="#000000" cx="975.9362" cy="-18" rx="27.8725" ry="18"/>
<text text-anchor="middle" x="975.9362" y="-13.8" font-family="Times,serif" font-size="14.00" fill="#000000">0.28</text>
</g>
<!-- N681&#45;&gt;N692 -->
<g id="edge24" class="edge">
<title>N681&#45;&gt;N692</title>
<path fill="none" stroke="#000000" d="M1033.8105,-75.0816C1023.6017,-65.0125 1009.9484,-51.5463 998.4669,-40.2221"/>
<polygon fill="#000000" stroke="#000000" points="1000.871,-37.6773 991.2936,-33.147 995.9555,-42.6611 1000.871,-37.6773"/>
</g>
<!-- N703 -->
<g id="node31" class="node">
<title>N703</title>
<ellipse fill="#d3d3d3" stroke="#000000" cx="1048.9362" cy="-18" rx="27" ry="18"/>
<text text-anchor="middle" x="1048.9362" y="-13.8" font-family="Times,serif" font-size="14.00" fill="#000000">y</text>
</g>
<!-- N681&#45;&gt;N703 -->
<g id="edge25" class="edge">
<title>N681&#45;&gt;N703</title>
<path fill="none" stroke="#000000" d="M1048.9362,-71.8314C1048.9362,-64.131 1048.9362,-54.9743 1048.9362,-46.4166"/>
<polygon fill="#000000" stroke="#000000" points="1052.4363,-46.4132 1048.9362,-36.4133 1045.4363,-46.4133 1052.4363,-46.4132"/>
</g>
<!-- N725 -->
<g id="node33" class="node">
<title>N725</title>
<ellipse fill="#d3d3d3" stroke="#000000" cx="1121.9362" cy="-18" rx="27.8725" ry="18"/>
<text text-anchor="middle" x="1121.9362" y="-13.8" font-family="Times,serif" font-size="14.00" fill="#000000">0.19</text>
</g>
<!-- N714&#45;&gt;N725 -->
<g id="edge27" class="edge">
<title>N714&#45;&gt;N725</title>
<path fill="none" stroke="#000000" d="M1121.9362,-71.8314C1121.9362,-64.131 1121.9362,-54.9743 1121.9362,-46.4166"/>
<polygon fill="#000000" stroke="#000000" points="1125.4363,-46.4132 1121.9362,-36.4133 1118.4363,-46.4133 1125.4363,-46.4132"/>
</g>
<!-- N736 -->
<g id="node34" class="node">
<title>N736</title>
<ellipse fill="#d3d3d3" stroke="#000000" cx="1194.9362" cy="-18" rx="27" ry="18"/>
<text text-anchor="middle" x="1194.9362" y="-13.8" font-family="Times,serif" font-size="14.00" fill="#000000">y</text>
</g>
<!-- N714&#45;&gt;N736 -->
<g id="edge28" class="edge">
<title>N714&#45;&gt;N736</title>
<path fill="none" stroke="#000000" d="M1137.0618,-75.0816C1147.2707,-65.0125 1160.9239,-51.5463 1172.4054,-40.2221"/>
<polygon fill="#000000" stroke="#000000" points="1174.9168,-42.6611 1179.5787,-33.147 1170.0013,-37.6773 1174.9168,-42.6611"/>
</g>
<!-- N758 -->
<g id="node36" class="node">
<title>N758</title>
<ellipse fill="#d3d3d3" stroke="#000000" cx="1267.9362" cy="-18" rx="27.8725" ry="18"/>
<text text-anchor="middle" x="1267.9362" y="-13.8" font-family="Times,serif" font-size="14.00" fill="#000000">0.58</text>
</g>
<!-- N747&#45;&gt;N758 -->
<g id="edge30" class="edge">
<title>N747&#45;&gt;N758</title>
<path fill="none" stroke="#000000" d="M1267.9362,-71.8314C1267.9362,-64.131 1267.9362,-54.9743 1267.9362,-46.4166"/>
<polygon fill="#000000" stroke="#000000" points="1271.4363,-46.4132 1267.9362,-36.4133 1264.4363,-46.4133 1271.4363,-46.4132"/>
</g>
<!-- N769 -->
<g id="node37" class="node">
<title>N769</title>
<ellipse fill="#d3d3d3" stroke="#000000" cx="1340.9362" cy="-18" rx="27" ry="18"/>
<text text-anchor="middle" x="1340.9362" y="-13.8" font-family="Times,serif" font-size="14.00" fill="#000000">x</text>
</g>
<!-- N747&#45;&gt;N769 -->
<g id="edge31" class="edge">
<title>N747&#45;&gt;N769</title>
<path fill="none" stroke="#000000" d="M1283.0618,-75.0816C1293.2707,-65.0125 1306.9239,-51.5463 1318.4054,-40.2221"/>
<polygon fill="#000000" stroke="#000000" points="1320.9168,-42.6611 1325.5787,-33.147 1316.0013,-37.6773 1320.9168,-42.6611"/>
</g>
<!-- N800 -->
<g id="node38" class="node">
<title>N800</title>
<ellipse fill="#d3d3d3" stroke="#000000" cx="1510.9362" cy="-306" rx="32.4865" ry="18"/>
<text text-anchor="middle" x="1510.9362" y="-301.8" font-family="Times,serif" font-size="14.00" fill="#000000">N800</text>
</g>
<!-- N801 -->
<g id="node39" class="node">
<title>N801</title>
<ellipse fill="none" stroke="#000000" cx="1510.9362" cy="-234" rx="27" ry="18"/>
<text text-anchor="middle" x="1510.9362" y="-229.8" font-family="Times,serif" font-size="14.00" fill="#000000">sub</text>
</g>
<!-- N800&#45;&gt;N801 -->
<g id="edge32" class="edge">
<title>N800&#45;&gt;N801</title>
<path fill="none" stroke="#000000" d="M1510.9362,-287.8314C1510.9362,-280.131 1510.9362,-270.9743 1510.9362,-262.4166"/>
<polygon fill="#000000" stroke="#000000" points="1514.4363,-262.4132 1510.9362,-252.4133 1507.4363,-262.4133 1514.4363,-262.4132"/>
</g>
<!-- N817 -->
<g id="node40" class="node">
<title>N817</title>
<ellipse fill="none" stroke="#000000" stroke-dasharray="5,2" cx="1437.9362" cy="-162" rx="48.6501" ry="18"/>
<text text-anchor="middle" x="1437.9362" y="-157.8" font-family="Times,serif" font-size="14.00" fill="#000000">ifthenelse</text>
</g>
<!-- N801&#45;&gt;N817 -->
<g id="edge33" class="edge">
<title>N801&#45;&gt;N817</title>
<path fill="none" stroke="#000000" d="M1495.8105,-219.0816C1486.1739,-209.577 1473.4683,-197.0454 1462.4172,-186.1457"/>
<polygon fill="#000000" stroke="#000000" points="1464.6663,-183.448 1455.0889,-178.9178 1459.7508,-188.4318 1464.6663,-183.448"/>
</g>
<!-- N805 -->
<g id="node44" class="node">
<title>N805</title>
<ellipse fill="#d3d3d3" stroke="#000000" cx="1557.9362" cy="-162" rx="27" ry="18"/>
<text text-anchor="middle" x="1557.9362" y="-157.8" font-family="Times,serif" font-size="14.00" fill="#000000">sub</text>
</g>
<!-- N801&#45;&gt;N805 -->
<g id="edge37" class="edge">
<title>N801&#45;&gt;N805</title>
<path fill="none" stroke="#000000" d="M1521.837,-217.3008C1527.7097,-208.3043 1535.0728,-197.0247 1541.6148,-187.0029"/>
<polygon fill="#000000" stroke="#000000" points="1544.559,-188.8957 1547.0944,-178.6087 1538.6973,-185.0693 1544.559,-188.8957"/>
</g>
<!-- N818 -->
<g id="node41" class="node">
<title>N818</title>
<ellipse fill="#d3d3d3" stroke="#000000" cx="1339.9362" cy="-90" rx="27" ry="18"/>
<text text-anchor="middle" x="1339.9362" y="-85.8" font-family="Times,serif" font-size="14.00" fill="#000000">b</text>
</g>
<!-- N817&#45;&gt;N818 -->
<g id="edge34" class="edge">
<title>N817&#45;&gt;N818</title>
<path fill="none" stroke="#000000" d="M1415.6984,-145.6621C1401.0226,-134.8798 1381.7264,-120.703 1366.2811,-109.3554"/>
<polygon fill="#000000" stroke="#000000" points="1368.2814,-106.482 1358.1503,-103.3818 1364.1368,-112.1232 1368.2814,-106.482"/>
</g>
<!-- N819 -->
<g id="node42" class="node">
<title>N819</title>
<ellipse fill="#d3d3d3" stroke="#000000" cx="1411.9362" cy="-90" rx="27" ry="18"/>
<text text-anchor="middle" x="1411.9362" y="-85.8" font-family="Times,serif" font-size="14.00" fill="#000000">y</text>
</g>
<!-- N817&#45;&gt;N819 -->
<g id="edge35" class="edge">
<title>N817&#45;&gt;N819</title>
<path fill="none" stroke="#000000" d="M1431.3753,-143.8314C1428.4897,-135.8406 1425.0379,-126.2819 1421.8492,-117.4514"/>
<polygon fill="#000000" stroke="#000000" points="1425.0933,-116.1302 1418.4049,-107.9134 1418.5095,-118.5077 1425.0933,-116.1302"/>
</g>
<!-- N820 -->
<g id="node43" class="node">
<title>N820</title>
<ellipse fill="#d3d3d3" stroke="#000000" cx="1484.9362" cy="-90" rx="27.8725" ry="18"/>
<text text-anchor="middle" x="1484.9362" y="-85.8" font-family="Times,serif" font-size="14.00" fill="#000000">0.01</text>
</g>
<!-- N817&#45;&gt;N820 -->
<g id="edge36" class="edge">
<title>N817&#45;&gt;N820</title>
<path fill="none" stroke="#000000" d="M1449.5541,-144.2022C1455.2984,-135.4025 1462.328,-124.6338 1468.6035,-115.0202"/>
<polygon fill="#000000" stroke="#000000" points="1471.5608,-116.8928 1474.0962,-106.6058 1465.6991,-113.0664 1471.5608,-116.8928"/>
</g>
<!-- N806 -->
<g id="node45" class="node">
<title>N806</title>
<ellipse fill="#d3d3d3" stroke="#000000" cx="1557.9362" cy="-90" rx="27" ry="18"/>
<text text-anchor="middle" x="1557.9362" y="-85.8" font-family="Times,serif" font-size="14.00" fill="#000000">x</text>
</g>
<!-- N805&#45;&gt;N806 -->
<g id="edge38" class="edge">
<title>N805&#45;&gt;N806</title>
<path fill="none" stroke="#000000" d="M1557.9362,-143.8314C1557.9362,-136.131 1557.9362,-126.9743 1557.9362,-118.4166"/>
<polygon fill="#000000" stroke="#000000" points="1561.4363,-118.4132 1557.9362,-108.4133 1554.4363,-118.4133 1561.4363,-118.4132"/>
</g>
<!-- N807 -->
<g id="node46" class="node">
<title>N807</title>
<ellipse fill="#d3d3d3" stroke="#000000" cx="1629.9362" cy="-90" rx="27" ry="18"/>
<text text-anchor="middle" x="1629.9362" y="-85.8" font-family="Times,serif" font-size="14.00" fill="#000000">y</text>
</g>
<!-- N805&#45;&gt;N807 -->
<g id="edge39" class="edge">
<title>N805&#45;&gt;N807</title>
<path fill="none" stroke="#000000" d="M1573.2055,-146.7307C1583.1332,-136.803 1596.2515,-123.6847 1607.3725,-112.5637"/>
<polygon fill="#000000" stroke="#000000" points="1610.0926,-114.7933 1614.6888,-105.2473 1605.1428,-109.8436 1610.0926,-114.7933"/>
</g>
<!-- N808 -->
<g id="node47" class="node">
<title>N808</title>
<ellipse fill="#d3d3d3" stroke="#000000" cx="2032.9362" cy="-306" rx="32.4865" ry="18"/>
<text text-anchor="middle" x="2032.9362" y="-301.8" font-family="Times,serif" font-size="14.00" fill="#000000">N808</text>
</g>
<!-- N809 -->
<g id="node48" class="node">
<title>N809</title>
<ellipse fill="#d3d3d3" stroke="#000000" cx="2032.9362" cy="-234" rx="27" ry="18"/>
<text text-anchor="middle" x="2032.9362" y="-229.8" font-family="Times,serif" font-size="14.00" fill="#000000">add</text>
</g>
<!-- N808&#45;&gt;N809 -->
<g id="edge40" class="edge">
<title>N808&#45;&gt;N809</title>
<path fill="none" stroke="#000000" d="M2032.9362,-287.8314C2032.9362,-280.131 2032.9362,-270.9743 2032.9362,-262.4166"/>
<polygon fill="#000000" stroke="#000000" points="2036.4363,-262.4132 2032.9362,-252.4133 2029.4363,-262.4133 2036.4363,-262.4132"/>
</g>
<!-- N810 -->
<g id="node49" class="node">
<title>N810</title>
<ellipse fill="none" stroke="#000000" cx="1885.9362" cy="-162" rx="48.6501" ry="18"/>
<text text-anchor="middle" x="1885.9362" y="-157.8" font-family="Times,serif" font-size="14.00" fill="#000000">ifthenelse</text>
</g>
<!-- N809&#45;&gt;N810 -->
<g id="edge41" class="edge">
<title>N809&#45;&gt;N810</title>
<path fill="none" stroke="#000000" d="M2010.9288,-223.2209C1988.1177,-212.0481 1952.0086,-194.362 1924.4541,-180.8659"/>
<polygon fill="#000000" stroke="#000000" points="1925.9892,-177.7206 1915.469,-176.4651 1922.9101,-184.007 1925.9892,-177.7206"/>
</g>
<!-- N821 -->
<g id="node59" class="node">
<title>N821</title>
<ellipse fill="#d3d3d3" stroke="#000000" cx="2179.9362" cy="-162" rx="48.6501" ry="18"/>
<text text-anchor="middle" x="2179.9362" y="-157.8" font-family="Times,serif" font-size="14.00" fill="#000000">ifthenelse</text>
</g>
<!-- N809&#45;&gt;N821 -->
<g id="edge51" class="edge">
<title>N809&#45;&gt;N821</title>
<path fill="none" stroke="#000000" d="M2054.9435,-223.2209C2077.7547,-212.0481 2113.8637,-194.362 2141.4182,-180.8659"/>
<polygon fill="#000000" stroke="#000000" points="2142.9622,-184.007 2150.4033,-176.4651 2139.8831,-177.7206 2142.9622,-184.007"/>
</g>
<!-- N811 -->
<g id="node50" class="node">
<title>N811</title>
<ellipse fill="#d3d3d3" stroke="#000000" cx="1701.9362" cy="-90" rx="27" ry="18"/>
<text text-anchor="middle" x="1701.9362" y="-85.8" font-family="Times,serif" font-size="14.00" fill="#000000">or</text>
</g>
<!-- N810&#45;&gt;N811 -->
<g id="edge42" class="edge">
<title>N810&#45;&gt;N811</title>
<path fill="none" stroke="#000000" d="M1852.1877,-148.7941C1818.8099,-135.7332 1768.0542,-115.8723 1734.9384,-102.9139"/>
<polygon fill="#000000" stroke="#000000" points="1735.854,-99.5138 1725.2661,-99.1291 1733.3032,-106.0325 1735.854,-99.5138"/>
</g>
<!-- N814 -->
<g id="node53" class="node">
<title>N814</title>
<ellipse fill="#d3d3d3" stroke="#000000" cx="1848.9362" cy="-90" rx="27" ry="18"/>
<text text-anchor="middle" x="1848.9362" y="-85.8" font-family="Times,serif" font-size="14.00" fill="#000000">sub</text>
</g>
<!-- N810&#45;&gt;N814 -->
<g id="edge45" class="edge">
<title>N810&#45;&gt;N814</title>
<path fill="none" stroke="#000000" d="M1876.7901,-144.2022C1872.4245,-135.7071 1867.1159,-125.3767 1862.3087,-116.0223"/>
<polygon fill="#000000" stroke="#000000" points="1865.406,-114.3918 1857.7222,-107.0972 1859.18,-117.5913 1865.406,-114.3918"/>
</g>
<!-- N802 -->
<g id="node56" class="node">
<title>N802</title>
<ellipse fill="none" stroke="#000000" stroke-dasharray="5,2" cx="1922.9362" cy="-90" rx="27" ry="18"/>
<text text-anchor="middle" x="1922.9362" y="-85.8" font-family="Times,serif" font-size="14.00" fill="#000000">add</text>
</g>
<!-- N810&#45;&gt;N802 -->
<g id="edge48" class="edge">
<title>N810&#45;&gt;N802</title>
<path fill="none" stroke="#000000" d="M1895.0822,-144.2022C1899.4478,-135.7071 1904.7565,-125.3767 1909.5636,-116.0223"/>
<polygon fill="#000000" stroke="#000000" points="1912.6924,-117.5913 1914.1501,-107.0972 1906.4663,-114.3918 1912.6924,-117.5913"/>
</g>
<!-- N812 -->
<g id="node51" class="node">
<title>N812</title>
<ellipse fill="#d3d3d3" stroke="#000000" cx="1629.9362" cy="-18" rx="27" ry="18"/>
<text text-anchor="middle" x="1629.9362" y="-13.8" font-family="Times,serif" font-size="14.00" fill="#000000">b</text>
</g>
<!-- N811&#45;&gt;N812 -->
<g id="edge43" class="edge">
<title>N811&#45;&gt;N812</title>
<path fill="none" stroke="#000000" d="M1686.6668,-74.7307C1676.7392,-64.803 1663.6209,-51.6847 1652.4998,-40.5637"/>
<polygon fill="#000000" stroke="#000000" points="1654.7295,-37.8436 1645.1835,-33.2473 1649.7797,-42.7933 1654.7295,-37.8436"/>
</g>
<!-- N813 -->
<g id="node52" class="node">
<title>N813</title>
<ellipse fill="#d3d3d3" stroke="#000000" cx="1701.9362" cy="-18" rx="27" ry="18"/>
<text text-anchor="middle" x="1701.9362" y="-13.8" font-family="Times,serif" font-size="14.00" fill="#000000">b</text>
</g>
<!-- N811&#45;&gt;N813 -->
<g id="edge44" class="edge">
<title>N811&#45;&gt;N813</title>
<path fill="none" stroke="#000000" d="M1701.9362,-71.8314C1701.9362,-64.131 1701.9362,-54.9743 1701.9362,-46.4166"/>
<polygon fill="#000000" stroke="#000000" points="1705.4363,-46.4132 1701.9362,-36.4133 1698.4363,-46.4133 1705.4363,-46.4132"/>
</g>
<!-- N815 -->
<g id="node54" class="node">
<title>N815</title>
<ellipse fill="#d3d3d3" stroke="#000000" cx="1774.9362" cy="-18" rx="27.8725" ry="18"/>
<text text-anchor="middle" x="1774.9362" y="-13.8" font-family="Times,serif" font-size="14.00" fill="#000000">0.03</text>
</g>
<!-- N814&#45;&gt;N815 -->
<g id="edge46" class="edge">
<title>N814&#45;&gt;N815</title>
<path fill="none" stroke="#000000" d="M1833.6033,-75.0816C1823.2546,-65.0125 1809.4143,-51.5463 1797.7755,-40.2221"/>
<polygon fill="#000000" stroke="#000000" points="1800.112,-37.6121 1790.504,-33.147 1795.2305,-42.6292 1800.112,-37.6121"/>
</g>
<!-- N816 -->
<g id="node55" class="node">
<title>N816</title>
<ellipse fill="#d3d3d3" stroke="#000000" cx="1848.9362" cy="-18" rx="27.8725" ry="18"/>
<text text-anchor="middle" x="1848.9362" y="-13.8" font-family="Times,serif" font-size="14.00" fill="#000000">0.46</text>
</g>
<!-- N814&#45;&gt;N816 -->
<g id="edge47" class="edge">
<title>N814&#45;&gt;N816</title>
<path fill="none" stroke="#000000" d="M1848.9362,-71.8314C1848.9362,-64.131 1848.9362,-54.9743 1848.9362,-46.4166"/>
<polygon fill="#000000" stroke="#000000" points="1852.4363,-46.4132 1848.9362,-36.4133 1845.4363,-46.4133 1852.4363,-46.4132"/>
</g>
<!-- N803 -->
<g id="node57" class="node">
<title>N803</title>
<ellipse fill="#d3d3d3" stroke="#000000" cx="1922.9362" cy="-18" rx="27.8725" ry="18"/>
<text text-anchor="middle" x="1922.9362" y="-13.8" font-family="Times,serif" font-size="14.00" fill="#000000">0.42</text>
</g>
<!-- N802&#45;&gt;N803 -->
<g id="edge49" class="edge">
<title>N802&#45;&gt;N803</title>
<path fill="none" stroke="#000000" d="M1922.9362,-71.8314C1922.9362,-64.131 1922.9362,-54.9743 1922.9362,-46.4166"/>
<polygon fill="#000000" stroke="#000000" points="1926.4363,-46.4132 1922.9362,-36.4133 1919.4363,-46.4133 1926.4363,-46.4132"/>
</g>
<!-- N804 -->
<g id="node58" class="node">
<title>N804</title>
<ellipse fill="#d3d3d3" stroke="#000000" cx="1996.9362" cy="-18" rx="27.8725" ry="18"/>
<text text-anchor="middle" x="1996.9362" y="-13.8" font-family="Times,serif" font-size="14.00" fill="#000000">0.71</text>
</g>
<!-- N802&#45;&gt;N804 -->
<g id="edge50" class="edge">
<title>N802&#45;&gt;N804</title>
<path fill="none" stroke="#000000" d="M1938.269,-75.0816C1948.6177,-65.0125 1962.458,-51.5463 1974.0968,-40.2221"/>
<polygon fill="#000000" stroke="#000000" points="1976.6418,-42.6292 1981.3684,-33.147 1971.7603,-37.6121 1976.6418,-42.6292"/>
</g>
<!-- N822 -->
<g id="node60" class="node">
<title>N822</title>
<ellipse fill="#d3d3d3" stroke="#000000" cx="2143.9362" cy="-90" rx="27" ry="18"/>
<text text-anchor="middle" x="2143.9362" y="-85.8" font-family="Times,serif" font-size="14.00" fill="#000000">lt</text>
</g>
<!-- N821&#45;&gt;N822 -->
<g id="edge52" class="edge">
<title>N821&#45;&gt;N822</title>
<path fill="none" stroke="#000000" d="M2171.0373,-144.2022C2166.8339,-135.7955 2161.732,-125.5917 2157.0936,-116.3149"/>
<polygon fill="#000000" stroke="#000000" points="2160.0875,-114.4762 2152.4848,-107.0972 2153.8265,-117.6068 2160.0875,-114.4762"/>
</g>
<!-- N825 -->
<g id="node63" class="node">
<title>N825</title>
<ellipse fill="#d3d3d3" stroke="#000000" cx="2216.9362" cy="-90" rx="27" ry="18"/>
<text text-anchor="middle" x="2216.9362" y="-85.8" font-family="Times,serif" font-size="14.00" fill="#000000">mul</text>
</g>
<!-- N821&#45;&gt;N825 -->
<g id="edge55" class="edge">
<title>N821&#45;&gt;N825</title>
<path fill="none" stroke="#000000" d="M2189.0822,-144.2022C2193.4478,-135.7071 2198.7565,-125.3767 2203.5636,-116.0223"/>
<polygon fill="#000000" stroke="#000000" points="2206.6924,-117.5913 2208.1501,-107.0972 2200.4663,-114.3918 2206.6924,-117.5913"/>
</g>
<!-- N828 -->
<g id="node66" class="node">
<title>N828</title>
<ellipse fill="#d3d3d3" stroke="#000000" cx="2362.9362" cy="-90" rx="27" ry="18"/>
<text text-anchor="middle" x="2362.9362" y="-85.8" font-family="Times,serif" font-size="14.00" fill="#000000">div</text>
</g>
<!-- N821&#45;&gt;N828 -->
<g id="edge58" class="edge">
<title>N821&#45;&gt;N828</title>
<path fill="none" stroke="#000000" d="M2213.5012,-148.7941C2246.6041,-135.77 2296.8932,-115.9841 2329.8345,-103.0236"/>
<polygon fill="#000000" stroke="#000000" points="2331.4384,-106.1538 2339.4626,-99.2355 2328.8754,-99.6398 2331.4384,-106.1538"/>
</g>
<!-- N823 -->
<g id="node61" class="node">
<title>N823</title>
<ellipse fill="#d3d3d3" stroke="#000000" cx="2070.9362" cy="-18" rx="27.8725" ry="18"/>
<text text-anchor="middle" x="2070.9362" y="-13.8" font-family="Times,serif" font-size="14.00" fill="#000000">0.28</text>
</g>
<!-- N822&#45;&gt;N823 -->
<g id="edge53" class="edge">
<title>N822&#45;&gt;N823</title>
<path fill="none" stroke="#000000" d="M2128.8105,-75.0816C2118.6017,-65.0125 2104.9484,-51.5463 2093.4669,-40.2221"/>
<polygon fill="#000000" stroke="#000000" points="2095.871,-37.6773 2086.2936,-33.147 2090.9555,-42.6611 2095.871,-37.6773"/>
</g>
<!-- N824 -->
<g id="node62" class="node">
<title>N824</title>
<ellipse fill="#d3d3d3" stroke="#000000" cx="2143.9362" cy="-18" rx="27" ry="18"/>
<text text-anchor="middle" x="2143.9362" y="-13.8" font-family="Times,serif" font-size="14.00" fill="#000000">y</text>
</g>
<!-- N822&#45;&gt;N824 -->
<g id="edge54" class="edge">
<title>N822&#45;&gt;N824</title>
<path fill="none" stroke="#000000" d="M2143.9362,-71.8314C2143.9362,-64.131 2143.9362,-54.9743 2143.9362,-46.4166"/>
<polygon fill="#000000" stroke="#000000" points="2147.4363,-46.4132 2143.9362,-36.4133 2140.4363,-46.4133 2147.4363,-46.4132"/>
</g>
<!-- N826 -->
<g id="node64" class="node">
<title>N826</title>
<ellipse fill="#d3d3d3" stroke="#000000" cx="2216.9362" cy="-18" rx="27.8725" ry="18"/>
<text text-anchor="middle" x="2216.9362" y="-13.8" font-family="Times,serif" font-size="14.00" fill="#000000">0.19</text>
</g>
<!-- N825&#45;&gt;N826 -->
<g id="edge56" class="edge">
<title>N825&#45;&gt;N826</title>
<path fill="none" stroke="#000000" d="M2216.9362,-71.8314C2216.9362,-64.131 2216.9362,-54.9743 2216.9362,-46.4166"/>
<polygon fill="#000000" stroke="#000000" points="2220.4363,-46.4132 2216.9362,-36.4133 2213.4363,-46.4133 2220.4363,-46.4132"/>
</g>
<!-- N827 -->
<g id="node65" class="node">
<title>N827</title>
<ellipse fill="#d3d3d3" stroke="#000000" cx="2289.9362" cy="-18" rx="27" ry="18"/>
<text text-anchor="middle" x="2289.9362" y="-13.8" font-family="Times,serif" font-size="14.00" fill="#000000">y</text>
</g>
<!-- N825&#45;&gt;N827 -->
<g id="edge57" class="edge">
<title>N825&#45;&gt;N827</title>
<path fill="none" stroke="#000000" d="M2232.0618,-75.0816C2242.2707,-65.0125 2255.9239,-51.5463 2267.4054,-40.2221"/>
<polygon fill="#000000" stroke="#000000" points="2269.9168,-42.6611 2274.5787,-33.147 2265.0013,-37.6773 2269.9168,-42.6611"/>
</g>
<!-- N829 -->
<g id="node67" class="node">
<title>N829</title>
<ellipse fill="#d3d3d3" stroke="#000000" cx="2362.9362" cy="-18" rx="27.8725" ry="18"/>
<text text-anchor="middle" x="2362.9362" y="-13.8" font-family="Times,serif" font-size="14.00" fill="#000000">0.58</text>
</g>
<!-- N828&#45;&gt;N829 -->
<g id="edge59" class="edge">
<title>N828&#45;&gt;N829</title>
<path fill="none" stroke="#000000" d="M2362.9362,-71.8314C2362.9362,-64.131 2362.9362,-54.9743 2362.9362,-46.4166"/>
<polygon fill="#000000" stroke="#000000" points="2366.4363,-46.4132 2362.9362,-36.4133 2359.4363,-46.4133 2366.4363,-46.4132"/>
</g>
<!-- N830 -->
<g id="node68" class="node">
<title>N830</title>
<ellipse fill="#d3d3d3" stroke="#000000" cx="2435.9362" cy="-18" rx="27" ry="18"/>
<text text-anchor="middle" x="2435.9362" y="-13.8" font-family="Times,serif" font-size="14.00" fill="#000000">x</text>
</g>
<!-- N828&#45;&gt;N830 -->
<g id="edge60" class="edge">
<title>N828&#45;&gt;N830</title>
<path fill="none" stroke="#000000" d="M2378.0618,-75.0816C2388.2707,-65.0125 2401.9239,-51.5463 2413.4054,-40.2221"/>
<polygon fill="#000000" stroke="#000000" points="2415.9168,-42.6611 2420.5787,-33.147 2411.0013,-37.6773 2415.9168,-42.6611"/>
</g>
</g>
</svg>
