<?xml version="1.0" encoding="UTF-8" standalone="no"?>
<!DOCTYPE svg PUBLIC "-//W3C//DTD SVG 1.1//EN"
 "http://www.w3.org/Graphics/SVG/1.1/DTD/svg11.dtd">
<!-- Generated by graphviz version 2.40.1 (20161225.0304)
 -->
<!-- Title: G7 Pages: 1 -->
<svg width="278pt" height="260pt"
 viewBox="0.00 0.00 278.00 260.00" xmlns="http://www.w3.org/2000/svg" xmlns:xlink="http://www.w3.org/1999/xlink">
<g id="graph0" class="graph" transform="scale(1 1) rotate(0) translate(4 256)">
<title>G7</title>
<polygon fill="#ffffff" stroke="transparent" points="-4,4 -4,-256 274,-256 274,4 -4,4"/>
<!-- N7 -->
<g id="node1" class="node">
<title>N7</title>
<ellipse fill="#d3d3d3" stroke="#000000" cx="134" cy="-234" rx="27" ry="18"/>
<text text-anchor="middle" x="134" y="-229.8" font-family="Times,serif" font-size="14.00" fill="#000000">N7</text>
</g>
<!-- N8 -->
<g id="node2" class="node">
<title>N8</title>
<ellipse fill="#d3d3d3" stroke="#000000" cx="134" cy="-162" rx="27" ry="18"/>
<text text-anchor="middle" x="134" y="-157.8" font-family="Times,serif" font-size="14.00" fill="#000000">mul</text>
</g>
<!-- N7&#45;&gt;N8 -->
<g id="edge1" class="edge">
<title>N7&#45;&gt;N8</title>
<path fill="none" stroke="#000000" d="M134,-215.8314C134,-208.131 134,-198.9743 134,-190.4166"/>
<polygon fill="#000000" stroke="#000000" points="137.5001,-190.4132 134,-180.4133 130.5001,-190.4133 137.5001,-190.4132"/>
</g>
<!-- N9 -->
<g id="node3" class="node">
<title>N9</title>
<ellipse fill="#d3d3d3" stroke="#000000" cx="98" cy="-90" rx="28.4127" ry="18"/>
<text text-anchor="middle" x="98" y="-85.8" font-family="Times,serif" font-size="14.00" fill="#000000">mod</text>
</g>
<!-- N8&#45;&gt;N9 -->
<g id="edge2" class="edge">
<title>N8&#45;&gt;N9</title>
<path fill="none" stroke="#000000" d="M125.2854,-144.5708C121.0403,-136.0807 115.8464,-125.6929 111.1337,-116.2674"/>
<polygon fill="#000000" stroke="#000000" points="114.237,-114.6477 106.6343,-107.2687 107.976,-117.7782 114.237,-114.6477"/>
</g>
<!-- N12 -->
<g id="node6" class="node">
<title>N12</title>
<ellipse fill="#d3d3d3" stroke="#000000" cx="171" cy="-90" rx="27" ry="18"/>
<text text-anchor="middle" x="171" y="-85.8" font-family="Times,serif" font-size="14.00" fill="#000000">div</text>
</g>
<!-- N8&#45;&gt;N12 -->
<g id="edge5" class="edge">
<title>N8&#45;&gt;N12</title>
<path fill="none" stroke="#000000" d="M142.7685,-144.937C147.1279,-136.4537 152.4953,-126.0092 157.3753,-116.513"/>
<polygon fill="#000000" stroke="#000000" points="160.5797,-117.9348 162.0374,-107.4407 154.3537,-114.7352 160.5797,-117.9348"/>
</g>
<!-- N10 -->
<g id="node4" class="node">
<title>N10</title>
<ellipse fill="#d3d3d3" stroke="#000000" cx="27" cy="-18" rx="27" ry="18"/>
<text text-anchor="middle" x="27" y="-13.8" font-family="Times,serif" font-size="14.00" fill="#000000">x</text>
</g>
<!-- N9&#45;&gt;N10 -->
<g id="edge3" class="edge">
<title>N9&#45;&gt;N10</title>
<path fill="none" stroke="#000000" d="M82.9427,-74.7307C73.153,-64.803 60.2169,-51.6847 49.2503,-40.5637"/>
<polygon fill="#000000" stroke="#000000" points="51.5492,-37.9102 42.0356,-33.2473 46.5649,-42.8252 51.5492,-37.9102"/>
</g>
<!-- N11 -->
<g id="node5" class="node">
<title>N11</title>
<ellipse fill="#d3d3d3" stroke="#000000" cx="99" cy="-18" rx="27" ry="18"/>
<text text-anchor="middle" x="99" y="-13.8" font-family="Times,serif" font-size="14.00" fill="#000000">x</text>
</g>
<!-- N9&#45;&gt;N11 -->
<g id="edge4" class="edge">
<title>N9&#45;&gt;N11</title>
<path fill="none" stroke="#000000" d="M98.2523,-71.8314C98.3593,-64.131 98.4865,-54.9743 98.6053,-46.4166"/>
<polygon fill="#000000" stroke="#000000" points="102.1049,-46.4609 98.7443,-36.4133 95.1056,-46.3637 102.1049,-46.4609"/>
</g>
<!-- N13 -->
<g id="node7" class="node">
<title>N13</title>
<ellipse fill="#d3d3d3" stroke="#000000" cx="171" cy="-18" rx="27" ry="18"/>
<text text-anchor="middle" x="171" y="-13.8" font-family="Times,serif" font-size="14.00" fill="#000000">x</text>
</g>
<!-- N12&#45;&gt;N13 -->
<g id="edge6" class="edge">
<title>N12&#45;&gt;N13</title>
<path fill="none" stroke="#000000" d="M171,-71.8314C171,-64.131 171,-54.9743 171,-46.4166"/>
<polygon fill="#000000" stroke="#000000" points="174.5001,-46.4132 171,-36.4133 167.5001,-46.4133 174.5001,-46.4132"/>
</g>
<!-- N14 -->
<g id="node8" class="node">
<title>N14</title>
<ellipse fill="#d3d3d3" stroke="#000000" cx="243" cy="-18" rx="27" ry="18"/>
<text text-anchor="middle" x="243" y="-13.8" font-family="Times,serif" font-size="14.00" fill="#000000">x</text>
</g>
<!-- N12&#45;&gt;N14 -->
<g id="edge7" class="edge">
<title>N12&#45;&gt;N14</title>
<path fill="none" stroke="#000000" d="M186.2693,-74.7307C196.197,-64.803 209.3153,-51.6847 220.4363,-40.5637"/>
<polygon fill="#000000" stroke="#000000" points="223.1564,-42.7933 227.7527,-33.2473 218.2067,-37.8436 223.1564,-42.7933"/>
</g>
</g>
</svg>
