<?xml version="1.0" encoding="UTF-8" standalone="no"?>
<!DOCTYPE svg PUBLIC "-//W3C//DTD SVG 1.1//EN"
 "http://www.w3.org/Graphics/SVG/1.1/DTD/svg11.dtd">
<!-- Generated by graphviz version 2.40.1 (20161225.0304)
 -->
<!-- Title: G13825886 Pages: 1 -->
<svg width="1084pt" height="476pt"
 viewBox="0.00 0.00 1083.94 476.00" xmlns="http://www.w3.org/2000/svg" xmlns:xlink="http://www.w3.org/1999/xlink">
<g id="graph0" class="graph" transform="scale(1 1) rotate(0) translate(4 472)">
<title>G13825886</title>
<polygon fill="#ffffff" stroke="transparent" points="-4,4 -4,-472 1079.9362,-472 1079.9362,4 -4,4"/>
<!-- N13825886 -->
<g id="node1" class="node">
<title>N13825886</title>
<ellipse fill="#d3d3d3" stroke="#000000" cx="392" cy="-450" rx="56.7716" ry="18"/>
<text text-anchor="middle" x="392" y="-445.8" font-family="Times,serif" font-size="14.00" fill="#000000">N13825886</text>
</g>
<!-- N13825887 -->
<g id="node2" class="node">
<title>N13825887</title>
<ellipse fill="#d3d3d3" stroke="#000000" cx="392" cy="-378" rx="27" ry="18"/>
<text text-anchor="middle" x="392" y="-373.8" font-family="Times,serif" font-size="14.00" fill="#000000">div</text>
</g>
<!-- N13825886&#45;&gt;N13825887 -->
<g id="edge1" class="edge">
<title>N13825886&#45;&gt;N13825887</title>
<path fill="none" stroke="#000000" d="M392,-431.8314C392,-424.131 392,-414.9743 392,-406.4166"/>
<polygon fill="#000000" stroke="#000000" points="395.5001,-406.4132 392,-396.4133 388.5001,-406.4133 395.5001,-406.4132"/>
</g>
<!-- N13825888 -->
<g id="node3" class="node">
<title>N13825888</title>
<ellipse fill="#d3d3d3" stroke="#000000" cx="356" cy="-306" rx="27" ry="18"/>
<text text-anchor="middle" x="356" y="-301.8" font-family="Times,serif" font-size="14.00" fill="#000000">log</text>
</g>
<!-- N13825887&#45;&gt;N13825888 -->
<g id="edge2" class="edge">
<title>N13825887&#45;&gt;N13825888</title>
<path fill="none" stroke="#000000" d="M383.2854,-360.5708C379.0403,-352.0807 373.8464,-341.6929 369.1337,-332.2674"/>
<polygon fill="#000000" stroke="#000000" points="372.237,-330.6477 364.6343,-323.2687 365.976,-333.7782 372.237,-330.6477"/>
</g>
<!-- N13825901 -->
<g id="node16" class="node">
<title>N13825901</title>
<ellipse fill="#d3d3d3" stroke="#000000" cx="466" cy="-306" rx="27" ry="18"/>
<text text-anchor="middle" x="466" y="-301.8" font-family="Times,serif" font-size="14.00" fill="#000000">div</text>
</g>
<!-- N13825887&#45;&gt;N13825901 -->
<g id="edge15" class="edge">
<title>N13825887&#45;&gt;N13825901</title>
<path fill="none" stroke="#000000" d="M407.3328,-363.0816C417.751,-352.945 431.7078,-339.3654 443.3947,-327.9944"/>
<polygon fill="#000000" stroke="#000000" points="445.9603,-330.3815 450.6868,-320.8993 441.0788,-325.3644 445.9603,-330.3815"/>
</g>
<!-- N13825889 -->
<g id="node4" class="node">
<title>N13825889</title>
<ellipse fill="#d3d3d3" stroke="#000000" cx="337" cy="-234" rx="27" ry="18"/>
<text text-anchor="middle" x="337" y="-229.8" font-family="Times,serif" font-size="14.00" fill="#000000">div</text>
</g>
<!-- N13825888&#45;&gt;N13825889 -->
<g id="edge3" class="edge">
<title>N13825888&#45;&gt;N13825889</title>
<path fill="none" stroke="#000000" d="M351.3034,-288.2022C349.2024,-280.2406 346.676,-270.6671 344.335,-261.7957"/>
<polygon fill="#000000" stroke="#000000" points="347.6442,-260.6185 341.7084,-251.8425 340.8759,-262.4046 347.6442,-260.6185"/>
</g>
<!-- N13825890 -->
<g id="node5" class="node">
<title>N13825890</title>
<ellipse fill="#d3d3d3" stroke="#000000" cx="209" cy="-162" rx="27" ry="18"/>
<text text-anchor="middle" x="209" y="-157.8" font-family="Times,serif" font-size="14.00" fill="#000000">sin</text>
</g>
<!-- N13825889&#45;&gt;N13825890 -->
<g id="edge4" class="edge">
<title>N13825889&#45;&gt;N13825890</title>
<path fill="none" stroke="#000000" d="M316.1497,-222.2717C295.1367,-210.4519 262.5074,-192.0979 238.7743,-178.7481"/>
<polygon fill="#000000" stroke="#000000" points="240.2731,-175.5754 229.8414,-173.7233 236.8412,-181.6764 240.2731,-175.5754"/>
</g>
<!-- N13825897 -->
<g id="node12" class="node">
<title>N13825897</title>
<ellipse fill="#d3d3d3" stroke="#000000" cx="337" cy="-162" rx="27" ry="18"/>
<text text-anchor="middle" x="337" y="-157.8" font-family="Times,serif" font-size="14.00" fill="#000000">log</text>
</g>
<!-- N13825889&#45;&gt;N13825897 -->
<g id="edge11" class="edge">
<title>N13825889&#45;&gt;N13825897</title>
<path fill="none" stroke="#000000" d="M337,-215.8314C337,-208.131 337,-198.9743 337,-190.4166"/>
<polygon fill="#000000" stroke="#000000" points="340.5001,-190.4132 337,-180.4133 333.5001,-190.4133 340.5001,-190.4132"/>
</g>
<!-- N13825891 -->
<g id="node6" class="node">
<title>N13825891</title>
<ellipse fill="none" stroke="#000000" cx="99" cy="-90" rx="27" ry="18"/>
<text text-anchor="middle" x="99" y="-85.8" font-family="Times,serif" font-size="14.00" fill="#000000">div</text>
</g>
<!-- N13825890&#45;&gt;N13825891 -->
<g id="edge5" class="edge">
<title>N13825890&#45;&gt;N13825891</title>
<path fill="none" stroke="#000000" d="M189.5874,-149.2936C172.258,-137.9507 146.6682,-121.201 127.1028,-108.3946"/>
<polygon fill="#000000" stroke="#000000" points="128.8724,-105.3698 118.5885,-102.8216 125.0387,-111.2267 128.8724,-105.3698"/>
</g>
<!-- N13825894 -->
<g id="node9" class="node">
<title>N13825894</title>
<ellipse fill="#d3d3d3" stroke="#000000" cx="209" cy="-90" rx="27" ry="18"/>
<text text-anchor="middle" x="209" y="-85.8" font-family="Times,serif" font-size="14.00" fill="#000000">add</text>
</g>
<!-- N13825890&#45;&gt;N13825894 -->
<g id="edge8" class="edge">
<title>N13825890&#45;&gt;N13825894</title>
<path fill="none" stroke="#000000" d="M209,-143.8314C209,-136.131 209,-126.9743 209,-118.4166"/>
<polygon fill="#000000" stroke="#000000" points="212.5001,-118.4132 209,-108.4133 205.5001,-118.4133 212.5001,-118.4132"/>
</g>
<!-- N13825928 -->
<g id="node7" class="node">
<title>N13825928</title>
<ellipse fill="none" stroke="#000000" stroke-dasharray="5,2" cx="27" cy="-18" rx="27" ry="18"/>
<text text-anchor="middle" x="27" y="-13.8" font-family="Times,serif" font-size="14.00" fill="#000000">i</text>
</g>
<!-- N13825891&#45;&gt;N13825928 -->
<g id="edge6" class="edge">
<title>N13825891&#45;&gt;N13825928</title>
<path fill="none" stroke="#000000" d="M83.7307,-74.7307C73.803,-64.803 60.6847,-51.6847 49.5637,-40.5637"/>
<polygon fill="#000000" stroke="#000000" points="51.7933,-37.8436 42.2473,-33.2473 46.8436,-42.7933 51.7933,-37.8436"/>
</g>
<!-- N13825893 -->
<g id="node8" class="node">
<title>N13825893</title>
<ellipse fill="#d3d3d3" stroke="#000000" cx="99" cy="-18" rx="27" ry="18"/>
<text text-anchor="middle" x="99" y="-13.8" font-family="Times,serif" font-size="14.00" fill="#000000">i</text>
</g>
<!-- N13825891&#45;&gt;N13825893 -->
<g id="edge7" class="edge">
<title>N13825891&#45;&gt;N13825893</title>
<path fill="none" stroke="#000000" d="M99,-71.8314C99,-64.131 99,-54.9743 99,-46.4166"/>
<polygon fill="#000000" stroke="#000000" points="102.5001,-46.4132 99,-36.4133 95.5001,-46.4133 102.5001,-46.4132"/>
</g>
<!-- N13825895 -->
<g id="node10" class="node">
<title>N13825895</title>
<ellipse fill="#d3d3d3" stroke="#000000" cx="172" cy="-18" rx="27.8725" ry="18"/>
<text text-anchor="middle" x="172" y="-13.8" font-family="Times,serif" font-size="14.00" fill="#000000">0.19</text>
</g>
<!-- N13825894&#45;&gt;N13825895 -->
<g id="edge9" class="edge">
<title>N13825894&#45;&gt;N13825895</title>
<path fill="none" stroke="#000000" d="M200.2315,-72.937C195.8721,-64.4537 190.5047,-54.0092 185.6247,-44.513"/>
<polygon fill="#000000" stroke="#000000" points="188.6463,-42.7352 180.9626,-35.4407 182.4203,-45.9348 188.6463,-42.7352"/>
</g>
<!-- N13825896 -->
<g id="node11" class="node">
<title>N13825896</title>
<ellipse fill="#d3d3d3" stroke="#000000" cx="245" cy="-18" rx="27" ry="18"/>
<text text-anchor="middle" x="245" y="-13.8" font-family="Times,serif" font-size="14.00" fill="#000000">i</text>
</g>
<!-- N13825894&#45;&gt;N13825896 -->
<g id="edge10" class="edge">
<title>N13825894&#45;&gt;N13825896</title>
<path fill="none" stroke="#000000" d="M217.7146,-72.5708C221.9597,-64.0807 227.1536,-53.6929 231.8663,-44.2674"/>
<polygon fill="#000000" stroke="#000000" points="235.024,-45.7782 236.3657,-35.2687 228.763,-42.6477 235.024,-45.7782"/>
</g>
<!-- N13825898 -->
<g id="node13" class="node">
<title>N13825898</title>
<ellipse fill="#d3d3d3" stroke="#000000" cx="337" cy="-90" rx="27" ry="18"/>
<text text-anchor="middle" x="337" y="-85.8" font-family="Times,serif" font-size="14.00" fill="#000000">add</text>
</g>
<!-- N13825897&#45;&gt;N13825898 -->
<g id="edge12" class="edge">
<title>N13825897&#45;&gt;N13825898</title>
<path fill="none" stroke="#000000" d="M337,-143.8314C337,-136.131 337,-126.9743 337,-118.4166"/>
<polygon fill="#000000" stroke="#000000" points="340.5001,-118.4132 337,-108.4133 333.5001,-118.4133 340.5001,-118.4132"/>
</g>
<!-- N13825899 -->
<g id="node14" class="node">
<title>N13825899</title>
<ellipse fill="#d3d3d3" stroke="#000000" cx="318" cy="-18" rx="27.8725" ry="18"/>
<text text-anchor="middle" x="318" y="-13.8" font-family="Times,serif" font-size="14.00" fill="#000000">0.04</text>
</g>
<!-- N13825898&#45;&gt;N13825899 -->
<g id="edge13" class="edge">
<title>N13825898&#45;&gt;N13825899</title>
<path fill="none" stroke="#000000" d="M332.3034,-72.2022C330.2024,-64.2406 327.676,-54.6671 325.335,-45.7957"/>
<polygon fill="#000000" stroke="#000000" points="328.6442,-44.6185 322.7084,-35.8425 321.8759,-46.4046 328.6442,-44.6185"/>
</g>
<!-- N13825900 -->
<g id="node15" class="node">
<title>N13825900</title>
<ellipse fill="#d3d3d3" stroke="#000000" cx="392" cy="-18" rx="27.8725" ry="18"/>
<text text-anchor="middle" x="392" y="-13.8" font-family="Times,serif" font-size="14.00" fill="#000000">0.81</text>
</g>
<!-- N13825898&#45;&gt;N13825900 -->
<g id="edge14" class="edge">
<title>N13825898&#45;&gt;N13825900</title>
<path fill="none" stroke="#000000" d="M349.4804,-73.6621C356.5124,-64.4564 365.4347,-52.7764 373.2883,-42.4953"/>
<polygon fill="#000000" stroke="#000000" points="376.28,-44.3446 379.569,-34.2733 370.7172,-40.0953 376.28,-44.3446"/>
</g>
<!-- N13825902 -->
<g id="node17" class="node">
<title>N13825902</title>
<ellipse fill="#d3d3d3" stroke="#000000" cx="466" cy="-234" rx="27" ry="18"/>
<text text-anchor="middle" x="466" y="-229.8" font-family="Times,serif" font-size="14.00" fill="#000000">log</text>
</g>
<!-- N13825901&#45;&gt;N13825902 -->
<g id="edge16" class="edge">
<title>N13825901&#45;&gt;N13825902</title>
<path fill="none" stroke="#000000" d="M466,-287.8314C466,-280.131 466,-270.9743 466,-262.4166"/>
<polygon fill="#000000" stroke="#000000" points="469.5001,-262.4132 466,-252.4133 462.5001,-262.4133 469.5001,-262.4132"/>
</g>
<!-- N13825906 -->
<g id="node21" class="node">
<title>N13825906</title>
<ellipse fill="#d3d3d3" stroke="#000000" cx="647" cy="-234" rx="27" ry="18"/>
<text text-anchor="middle" x="647" y="-229.8" font-family="Times,serif" font-size="14.00" fill="#000000">add</text>
</g>
<!-- N13825901&#45;&gt;N13825906 -->
<g id="edge20" class="edge">
<title>N13825901&#45;&gt;N13825906</title>
<path fill="none" stroke="#000000" d="M489.292,-296.7347C521.0597,-284.0978 578.1385,-261.3924 614.2168,-247.0408"/>
<polygon fill="#000000" stroke="#000000" points="615.7992,-250.1782 623.7974,-243.2298 613.2118,-243.6739 615.7992,-250.1782"/>
</g>
<!-- N13825903 -->
<g id="node18" class="node">
<title>N13825903</title>
<ellipse fill="#d3d3d3" stroke="#000000" cx="466" cy="-162" rx="27" ry="18"/>
<text text-anchor="middle" x="466" y="-157.8" font-family="Times,serif" font-size="14.00" fill="#000000">log</text>
</g>
<!-- N13825902&#45;&gt;N13825903 -->
<g id="edge17" class="edge">
<title>N13825902&#45;&gt;N13825903</title>
<path fill="none" stroke="#000000" d="M466,-215.8314C466,-208.131 466,-198.9743 466,-190.4166"/>
<polygon fill="#000000" stroke="#000000" points="469.5001,-190.4132 466,-180.4133 462.5001,-190.4133 469.5001,-190.4132"/>
</g>
<!-- N13825904 -->
<g id="node19" class="node">
<title>N13825904</title>
<ellipse fill="#d3d3d3" stroke="#000000" cx="466" cy="-90" rx="27" ry="18"/>
<text text-anchor="middle" x="466" y="-85.8" font-family="Times,serif" font-size="14.00" fill="#000000">log</text>
</g>
<!-- N13825903&#45;&gt;N13825904 -->
<g id="edge18" class="edge">
<title>N13825903&#45;&gt;N13825904</title>
<path fill="none" stroke="#000000" d="M466,-143.8314C466,-136.131 466,-126.9743 466,-118.4166"/>
<polygon fill="#000000" stroke="#000000" points="469.5001,-118.4132 466,-108.4133 462.5001,-118.4133 469.5001,-118.4132"/>
</g>
<!-- N13825905 -->
<g id="node20" class="node">
<title>N13825905</title>
<ellipse fill="#d3d3d3" stroke="#000000" cx="466" cy="-18" rx="27.8725" ry="18"/>
<text text-anchor="middle" x="466" y="-13.8" font-family="Times,serif" font-size="14.00" fill="#000000">0.17</text>
</g>
<!-- N13825904&#45;&gt;N13825905 -->
<g id="edge19" class="edge">
<title>N13825904&#45;&gt;N13825905</title>
<path fill="none" stroke="#000000" d="M466,-71.8314C466,-64.131 466,-54.9743 466,-46.4166"/>
<polygon fill="#000000" stroke="#000000" points="469.5001,-46.4132 466,-36.4133 462.5001,-46.4133 469.5001,-46.4132"/>
</g>
<!-- N13825907 -->
<g id="node22" class="node">
<title>N13825907</title>
<ellipse fill="#d3d3d3" stroke="#000000" cx="647" cy="-162" rx="27" ry="18"/>
<text text-anchor="middle" x="647" y="-157.8" font-family="Times,serif" font-size="14.00" fill="#000000">sub</text>
</g>
<!-- N13825906&#45;&gt;N13825907 -->
<g id="edge21" class="edge">
<title>N13825906&#45;&gt;N13825907</title>
<path fill="none" stroke="#000000" d="M647,-215.8314C647,-208.131 647,-198.9743 647,-190.4166"/>
<polygon fill="#000000" stroke="#000000" points="650.5001,-190.4132 647,-180.4133 643.5001,-190.4133 650.5001,-190.4132"/>
</g>
<!-- N13825914 -->
<g id="node29" class="node">
<title>N13825914</title>
<ellipse fill="#d3d3d3" stroke="#000000" cx="865" cy="-162" rx="27" ry="18"/>
<text text-anchor="middle" x="865" y="-157.8" font-family="Times,serif" font-size="14.00" fill="#000000">mul</text>
</g>
<!-- N13825906&#45;&gt;N13825914 -->
<g id="edge28" class="edge">
<title>N13825906&#45;&gt;N13825914</title>
<path fill="none" stroke="#000000" d="M671.5836,-225.8806C710.5298,-213.0177 786.5239,-187.9187 830.7756,-173.3035"/>
<polygon fill="#000000" stroke="#000000" points="832.1084,-176.5493 840.5062,-170.0897 829.9131,-169.9025 832.1084,-176.5493"/>
</g>
<!-- N13825908 -->
<g id="node23" class="node">
<title>N13825908</title>
<ellipse fill="#d3d3d3" stroke="#000000" cx="611" cy="-90" rx="27" ry="18"/>
<text text-anchor="middle" x="611" y="-85.8" font-family="Times,serif" font-size="14.00" fill="#000000">sin</text>
</g>
<!-- N13825907&#45;&gt;N13825908 -->
<g id="edge22" class="edge">
<title>N13825907&#45;&gt;N13825908</title>
<path fill="none" stroke="#000000" d="M638.2854,-144.5708C634.0403,-136.0807 628.8464,-125.6929 624.1337,-116.2674"/>
<polygon fill="#000000" stroke="#000000" points="627.237,-114.6477 619.6343,-107.2687 620.976,-117.7782 627.237,-114.6477"/>
</g>
<!-- N13825911 -->
<g id="node26" class="node">
<title>N13825911</title>
<ellipse fill="#d3d3d3" stroke="#000000" cx="684" cy="-90" rx="27" ry="18"/>
<text text-anchor="middle" x="684" y="-85.8" font-family="Times,serif" font-size="14.00" fill="#000000">sin</text>
</g>
<!-- N13825907&#45;&gt;N13825911 -->
<g id="edge25" class="edge">
<title>N13825907&#45;&gt;N13825911</title>
<path fill="none" stroke="#000000" d="M655.7685,-144.937C660.1279,-136.4537 665.4953,-126.0092 670.3753,-116.513"/>
<polygon fill="#000000" stroke="#000000" points="673.5797,-117.9348 675.0374,-107.4407 667.3537,-114.7352 673.5797,-117.9348"/>
</g>
<!-- N13825909 -->
<g id="node24" class="node">
<title>N13825909</title>
<ellipse fill="#d3d3d3" stroke="#000000" cx="539" cy="-18" rx="27" ry="18"/>
<text text-anchor="middle" x="539" y="-13.8" font-family="Times,serif" font-size="14.00" fill="#000000">i</text>
</g>
<!-- N13825908&#45;&gt;N13825909 -->
<g id="edge23" class="edge">
<title>N13825908&#45;&gt;N13825909</title>
<path fill="none" stroke="#000000" d="M595.7307,-74.7307C585.803,-64.803 572.6847,-51.6847 561.5637,-40.5637"/>
<polygon fill="#000000" stroke="#000000" points="563.7933,-37.8436 554.2473,-33.2473 558.8436,-42.7933 563.7933,-37.8436"/>
</g>
<!-- N13825910 -->
<g id="node25" class="node">
<title>N13825910</title>
<ellipse fill="#d3d3d3" stroke="#000000" cx="611" cy="-18" rx="27" ry="18"/>
<text text-anchor="middle" x="611" y="-13.8" font-family="Times,serif" font-size="14.00" fill="#000000">i</text>
</g>
<!-- N13825908&#45;&gt;N13825910 -->
<g id="edge24" class="edge">
<title>N13825908&#45;&gt;N13825910</title>
<path fill="none" stroke="#000000" d="M611,-71.8314C611,-64.131 611,-54.9743 611,-46.4166"/>
<polygon fill="#000000" stroke="#000000" points="614.5001,-46.4132 611,-36.4133 607.5001,-46.4133 614.5001,-46.4132"/>
</g>
<!-- N13825912 -->
<g id="node27" class="node">
<title>N13825912</title>
<ellipse fill="#d3d3d3" stroke="#000000" cx="684" cy="-18" rx="27.8725" ry="18"/>
<text text-anchor="middle" x="684" y="-13.8" font-family="Times,serif" font-size="14.00" fill="#000000">0.68</text>
</g>
<!-- N13825911&#45;&gt;N13825912 -->
<g id="edge26" class="edge">
<title>N13825911&#45;&gt;N13825912</title>
<path fill="none" stroke="#000000" d="M684,-71.8314C684,-64.131 684,-54.9743 684,-46.4166"/>
<polygon fill="#000000" stroke="#000000" points="687.5001,-46.4132 684,-36.4133 680.5001,-46.4133 687.5001,-46.4132"/>
</g>
<!-- N13825913 -->
<g id="node28" class="node">
<title>N13825913</title>
<ellipse fill="#d3d3d3" stroke="#000000" cx="757" cy="-18" rx="27" ry="18"/>
<text text-anchor="middle" x="757" y="-13.8" font-family="Times,serif" font-size="14.00" fill="#000000">i</text>
</g>
<!-- N13825911&#45;&gt;N13825913 -->
<g id="edge27" class="edge">
<title>N13825911&#45;&gt;N13825913</title>
<path fill="none" stroke="#000000" d="M699.1256,-75.0816C709.3345,-65.0125 722.9878,-51.5463 734.4693,-40.2221"/>
<polygon fill="#000000" stroke="#000000" points="736.9806,-42.6611 741.6426,-33.147 732.0651,-37.6773 736.9806,-42.6611"/>
</g>
<!-- N13825915 -->
<g id="node30" class="node">
<title>N13825915</title>
<ellipse fill="#d3d3d3" stroke="#000000" cx="865" cy="-90" rx="27" ry="18"/>
<text text-anchor="middle" x="865" y="-85.8" font-family="Times,serif" font-size="14.00" fill="#000000">sin</text>
</g>
<!-- N13825914&#45;&gt;N13825915 -->
<g id="edge29" class="edge">
<title>N13825914&#45;&gt;N13825915</title>
<path fill="none" stroke="#000000" d="M865,-143.8314C865,-136.131 865,-126.9743 865,-118.4166"/>
<polygon fill="#000000" stroke="#000000" points="868.5001,-118.4132 865,-108.4133 861.5001,-118.4133 868.5001,-118.4132"/>
</g>
<!-- N13825918 -->
<g id="node33" class="node">
<title>N13825918</title>
<ellipse fill="#d3d3d3" stroke="#000000" cx="974" cy="-90" rx="27" ry="18"/>
<text text-anchor="middle" x="974" y="-85.8" font-family="Times,serif" font-size="14.00" fill="#000000">sub</text>
</g>
<!-- N13825914&#45;&gt;N13825918 -->
<g id="edge32" class="edge">
<title>N13825914&#45;&gt;N13825918</title>
<path fill="none" stroke="#000000" d="M884.2361,-149.2936C901.408,-137.9507 926.7651,-121.201 946.1527,-108.3946"/>
<polygon fill="#000000" stroke="#000000" points="948.1746,-111.2536 954.5896,-102.8216 944.3165,-105.4128 948.1746,-111.2536"/>
</g>
<!-- N13825916 -->
<g id="node31" class="node">
<title>N13825916</title>
<ellipse fill="#d3d3d3" stroke="#000000" cx="829" cy="-18" rx="27" ry="18"/>
<text text-anchor="middle" x="829" y="-13.8" font-family="Times,serif" font-size="14.00" fill="#000000">i</text>
</g>
<!-- N13825915&#45;&gt;N13825916 -->
<g id="edge30" class="edge">
<title>N13825915&#45;&gt;N13825916</title>
<path fill="none" stroke="#000000" d="M856.2854,-72.5708C852.0403,-64.0807 846.8464,-53.6929 842.1337,-44.2674"/>
<polygon fill="#000000" stroke="#000000" points="845.237,-42.6477 837.6343,-35.2687 838.976,-45.7782 845.237,-42.6477"/>
</g>
<!-- N13825917 -->
<g id="node32" class="node">
<title>N13825917</title>
<ellipse fill="#d3d3d3" stroke="#000000" cx="901" cy="-18" rx="27" ry="18"/>
<text text-anchor="middle" x="901" y="-13.8" font-family="Times,serif" font-size="14.00" fill="#000000">i</text>
</g>
<!-- N13825915&#45;&gt;N13825917 -->
<g id="edge31" class="edge">
<title>N13825915&#45;&gt;N13825917</title>
<path fill="none" stroke="#000000" d="M873.7146,-72.5708C877.9597,-64.0807 883.1536,-53.6929 887.8663,-44.2674"/>
<polygon fill="#000000" stroke="#000000" points="891.024,-45.7782 892.3657,-35.2687 884.763,-42.6477 891.024,-45.7782"/>
</g>
<!-- N13825919 -->
<g id="node34" class="node">
<title>N13825919</title>
<ellipse fill="#d3d3d3" stroke="#000000" cx="974" cy="-18" rx="27.8725" ry="18"/>
<text text-anchor="middle" x="974" y="-13.8" font-family="Times,serif" font-size="14.00" fill="#000000">0.03</text>
</g>
<!-- N13825918&#45;&gt;N13825919 -->
<g id="edge33" class="edge">
<title>N13825918&#45;&gt;N13825919</title>
<path fill="none" stroke="#000000" d="M974,-71.8314C974,-64.131 974,-54.9743 974,-46.4166"/>
<polygon fill="#000000" stroke="#000000" points="977.5001,-46.4132 974,-36.4133 970.5001,-46.4133 977.5001,-46.4132"/>
</g>
<!-- N13825920 -->
<g id="node35" class="node">
<title>N13825920</title>
<ellipse fill="#d3d3d3" stroke="#000000" cx="1048" cy="-18" rx="27.8725" ry="18"/>
<text text-anchor="middle" x="1048" y="-13.8" font-family="Times,serif" font-size="14.00" fill="#000000">0.73</text>
</g>
<!-- N13825918&#45;&gt;N13825920 -->
<g id="edge34" class="edge">
<title>N13825918&#45;&gt;N13825920</title>
<path fill="none" stroke="#000000" d="M989.3328,-75.0816C999.6815,-65.0125 1013.5219,-51.5463 1025.1606,-40.2221"/>
<polygon fill="#000000" stroke="#000000" points="1027.7057,-42.6292 1032.4322,-33.147 1022.8242,-37.6121 1027.7057,-42.6292"/>
</g>
</g>
</svg>
