<?xml version="1.0" encoding="UTF-8" standalone="no"?>
<!DOCTYPE svg PUBLIC "-//W3C//DTD SVG 1.1//EN"
 "http://www.w3.org/Graphics/SVG/1.1/DTD/svg11.dtd">
<!-- Generated by graphviz version 2.40.1 (20161225.0304)
 -->
<!-- Title: G16118 Pages: 1 -->
<svg width="1330pt" height="476pt"
 viewBox="0.00 0.00 1330.01 476.00" xmlns="http://www.w3.org/2000/svg" xmlns:xlink="http://www.w3.org/1999/xlink">
<g id="graph0" class="graph" transform="scale(1 1) rotate(0) translate(4 472)">
<title>G16118</title>
<polygon fill="#ffffff" stroke="transparent" points="-4,4 -4,-472 1326.0073,-472 1326.0073,4 -4,4"/>
<!-- N16118 -->
<g id="node1" class="node">
<title>N16118</title>
<ellipse fill="#d3d3d3" stroke="#000000" cx="524.0073" cy="-450" rx="44.629" ry="18"/>
<text text-anchor="middle" x="524.0073" y="-445.8" font-family="Times,serif" font-size="14.00" fill="#000000">N1611...</text>
</g>
<!-- N16119 -->
<g id="node2" class="node">
<title>N16119</title>
<ellipse fill="#d3d3d3" stroke="#000000" cx="524.0073" cy="-378" rx="27" ry="18"/>
<text text-anchor="middle" x="524.0073" y="-373.8" font-family="Times,serif" font-size="14.00" fill="#000000">add</text>
</g>
<!-- N16118&#45;&gt;N16119 -->
<g id="edge1" class="edge">
<title>N16118&#45;&gt;N16119</title>
<path fill="none" stroke="#000000" d="M524.0073,-431.8314C524.0073,-424.131 524.0073,-414.9743 524.0073,-406.4166"/>
<polygon fill="#000000" stroke="#000000" points="527.5074,-406.4132 524.0073,-396.4133 520.5074,-406.4133 527.5074,-406.4132"/>
</g>
<!-- N16120 -->
<g id="node3" class="node">
<title>N16120</title>
<ellipse fill="#d3d3d3" stroke="#000000" cx="341.0073" cy="-306" rx="27" ry="18"/>
<text text-anchor="middle" x="341.0073" y="-301.8" font-family="Times,serif" font-size="14.00" fill="#000000">add</text>
</g>
<!-- N16119&#45;&gt;N16120 -->
<g id="edge2" class="edge">
<title>N16119&#45;&gt;N16120</title>
<path fill="none" stroke="#000000" d="M500.4579,-368.7347C468.3393,-356.0978 410.6297,-333.3924 374.1528,-319.0408"/>
<polygon fill="#000000" stroke="#000000" points="375.0535,-315.6341 364.4664,-315.2298 372.4906,-322.1481 375.0535,-315.6341"/>
</g>
<!-- N16169 -->
<g id="node20" class="node">
<title>N16169</title>
<ellipse fill="#d3d3d3" stroke="#000000" cx="697.0073" cy="-306" rx="28.4127" ry="18"/>
<text text-anchor="middle" x="697.0073" y="-301.8" font-family="Times,serif" font-size="14.00" fill="#000000">mod</text>
</g>
<!-- N16119&#45;&gt;N16169 -->
<g id="edge19" class="edge">
<title>N16119&#45;&gt;N16169</title>
<path fill="none" stroke="#000000" d="M546.9804,-368.439C576.8453,-356.0097 629.2268,-334.2093 663.518,-319.9378"/>
<polygon fill="#000000" stroke="#000000" points="665.2175,-323.0215 673.105,-315.9478 662.5278,-316.5589 665.2175,-323.0215"/>
</g>
<!-- N16121 -->
<g id="node4" class="node">
<title>N16121</title>
<ellipse fill="#d3d3d3" stroke="#000000" cx="191.0073" cy="-234" rx="27" ry="18"/>
<text text-anchor="middle" x="191.0073" y="-229.8" font-family="Times,serif" font-size="14.00" fill="#000000">sub</text>
</g>
<!-- N16120&#45;&gt;N16121 -->
<g id="edge3" class="edge">
<title>N16120&#45;&gt;N16121</title>
<path fill="none" stroke="#000000" d="M318.8743,-295.3762C293.3947,-283.1459 251.3518,-262.9654 222.4761,-249.105"/>
<polygon fill="#000000" stroke="#000000" points="223.761,-245.8395 213.2312,-244.6674 220.7318,-252.1501 223.761,-245.8395"/>
</g>
<!-- N16148 -->
<g id="node13" class="node">
<title>N16148</title>
<ellipse fill="#d3d3d3" stroke="#000000" cx="341.0073" cy="-234" rx="27" ry="18"/>
<text text-anchor="middle" x="341.0073" y="-229.8" font-family="Times,serif" font-size="14.00" fill="#000000">sqr</text>
</g>
<!-- N16120&#45;&gt;N16148 -->
<g id="edge12" class="edge">
<title>N16120&#45;&gt;N16148</title>
<path fill="none" stroke="#000000" d="M341.0073,-287.8314C341.0073,-280.131 341.0073,-270.9743 341.0073,-262.4166"/>
<polygon fill="#000000" stroke="#000000" points="344.5074,-262.4132 341.0073,-252.4133 337.5074,-262.4133 344.5074,-262.4132"/>
</g>
<!-- N16122 -->
<g id="node5" class="node">
<title>N16122</title>
<ellipse fill="#d3d3d3" stroke="#000000" cx="72.0073" cy="-162" rx="27" ry="18"/>
<text text-anchor="middle" x="72.0073" y="-157.8" font-family="Times,serif" font-size="14.00" fill="#000000">sqr</text>
</g>
<!-- N16121&#45;&gt;N16122 -->
<g id="edge4" class="edge">
<title>N16121&#45;&gt;N16122</title>
<path fill="none" stroke="#000000" d="M170.8206,-221.7862C151.6733,-210.2013 122.6946,-192.6679 101.0636,-179.5803"/>
<polygon fill="#000000" stroke="#000000" points="102.6608,-176.4559 92.2931,-174.2737 99.0371,-182.445 102.6608,-176.4559"/>
</g>
<!-- N16131 -->
<g id="node8" class="node">
<title>N16131</title>
<ellipse fill="#d3d3d3" stroke="#000000" cx="191.0073" cy="-162" rx="27" ry="18"/>
<text text-anchor="middle" x="191.0073" y="-157.8" font-family="Times,serif" font-size="14.00" fill="#000000">sin</text>
</g>
<!-- N16121&#45;&gt;N16131 -->
<g id="edge7" class="edge">
<title>N16121&#45;&gt;N16131</title>
<path fill="none" stroke="#000000" d="M191.0073,-215.8314C191.0073,-208.131 191.0073,-198.9743 191.0073,-190.4166"/>
<polygon fill="#000000" stroke="#000000" points="194.5074,-190.4132 191.0073,-180.4133 187.5074,-190.4133 194.5074,-190.4132"/>
</g>
<!-- N16127 -->
<g id="node6" class="node">
<title>N16127</title>
<ellipse fill="#d3d3d3" stroke="#000000" cx="48.0073" cy="-90" rx="27" ry="18"/>
<text text-anchor="middle" x="48.0073" y="-85.8" font-family="Times,serif" font-size="14.00" fill="#000000">sqr</text>
</g>
<!-- N16122&#45;&gt;N16127 -->
<g id="edge5" class="edge">
<title>N16122&#45;&gt;N16127</title>
<path fill="none" stroke="#000000" d="M66.0748,-144.2022C63.3719,-136.0936 60.1116,-126.3129 57.109,-117.3049"/>
<polygon fill="#000000" stroke="#000000" points="60.3544,-115.973 53.8717,-107.593 53.7136,-118.1867 60.3544,-115.973"/>
</g>
<!-- N16130 -->
<g id="node7" class="node">
<title>N16130</title>
<ellipse fill="#d3d3d3" stroke="#000000" cx="40.0073" cy="-18" rx="40.0147" ry="18"/>
<text text-anchor="middle" x="40.0073" y="-13.8" font-family="Times,serif" font-size="14.00" fill="#000000">0.228...</text>
</g>
<!-- N16127&#45;&gt;N16130 -->
<g id="edge6" class="edge">
<title>N16127&#45;&gt;N16130</title>
<path fill="none" stroke="#000000" d="M45.9886,-71.8314C45.133,-64.131 44.1156,-54.9743 43.1647,-46.4166"/>
<polygon fill="#000000" stroke="#000000" points="46.6363,-45.9656 42.0533,-36.4133 39.6791,-46.7386 46.6363,-45.9656"/>
</g>
<!-- N16136 -->
<g id="node9" class="node">
<title>N16136</title>
<ellipse fill="#d3d3d3" stroke="#000000" cx="128.0073" cy="-90" rx="28.4127" ry="18"/>
<text text-anchor="middle" x="128.0073" y="-85.8" font-family="Times,serif" font-size="14.00" fill="#000000">mod</text>
</g>
<!-- N16131&#45;&gt;N16136 -->
<g id="edge8" class="edge">
<title>N16131&#45;&gt;N16136</title>
<path fill="none" stroke="#000000" d="M177.3373,-146.3771C169.0319,-136.8852 158.2607,-124.5753 148.903,-113.8808"/>
<polygon fill="#000000" stroke="#000000" points="151.3061,-111.312 142.0869,-106.091 146.038,-115.9215 151.3061,-111.312"/>
</g>
<!-- N16147 -->
<g id="node12" class="node">
<title>N16147</title>
<ellipse fill="#d3d3d3" stroke="#000000" cx="214.0073" cy="-90" rx="40.0147" ry="18"/>
<text text-anchor="middle" x="214.0073" y="-85.8" font-family="Times,serif" font-size="14.00" fill="#000000">0.261...</text>
</g>
<!-- N16131&#45;&gt;N16147 -->
<g id="edge11" class="edge">
<title>N16131&#45;&gt;N16147</title>
<path fill="none" stroke="#000000" d="M196.6927,-144.2022C199.2637,-136.1541 202.3608,-126.4588 205.2205,-117.5067"/>
<polygon fill="#000000" stroke="#000000" points="208.5986,-118.4334 208.3076,-107.8425 201.9306,-116.3033 208.5986,-118.4334"/>
</g>
<!-- N16139 -->
<g id="node10" class="node">
<title>N16139</title>
<ellipse fill="#d3d3d3" stroke="#000000" cx="125.0073" cy="-18" rx="27" ry="18"/>
<text text-anchor="middle" x="125.0073" y="-13.8" font-family="Times,serif" font-size="14.00" fill="#000000">i</text>
</g>
<!-- N16136&#45;&gt;N16139 -->
<g id="edge9" class="edge">
<title>N16136&#45;&gt;N16139</title>
<path fill="none" stroke="#000000" d="M127.2503,-71.8314C126.9295,-64.131 126.5479,-54.9743 126.1914,-46.4166"/>
<polygon fill="#000000" stroke="#000000" points="129.6879,-46.2589 125.7746,-36.4133 122.694,-46.5503 129.6879,-46.2589"/>
</g>
<!-- N16142 -->
<g id="node11" class="node">
<title>N16142</title>
<ellipse fill="#d3d3d3" stroke="#000000" cx="197.0073" cy="-18" rx="27" ry="18"/>
<text text-anchor="middle" x="197.0073" y="-13.8" font-family="Times,serif" font-size="14.00" fill="#000000">i</text>
</g>
<!-- N16136&#45;&gt;N16142 -->
<g id="edge10" class="edge">
<title>N16136&#45;&gt;N16142</title>
<path fill="none" stroke="#000000" d="M142.9793,-74.3771C152.2925,-64.659 164.4364,-51.987 174.8515,-41.1191"/>
<polygon fill="#000000" stroke="#000000" points="177.6725,-43.234 182.0646,-33.5924 172.6185,-38.3907 177.6725,-43.234"/>
</g>
<!-- N16149 -->
<g id="node14" class="node">
<title>N16149</title>
<ellipse fill="#d3d3d3" stroke="#000000" cx="341.0073" cy="-162" rx="27" ry="18"/>
<text text-anchor="middle" x="341.0073" y="-157.8" font-family="Times,serif" font-size="14.00" fill="#000000">sin</text>
</g>
<!-- N16148&#45;&gt;N16149 -->
<g id="edge13" class="edge">
<title>N16148&#45;&gt;N16149</title>
<path fill="none" stroke="#000000" d="M341.0073,-215.8314C341.0073,-208.131 341.0073,-198.9743 341.0073,-190.4166"/>
<polygon fill="#000000" stroke="#000000" points="344.5074,-190.4132 341.0073,-180.4133 337.5074,-190.4133 344.5074,-190.4132"/>
</g>
<!-- N16154 -->
<g id="node15" class="node">
<title>N16154</title>
<ellipse fill="#d3d3d3" stroke="#000000" cx="302.0073" cy="-90" rx="27" ry="18"/>
<text text-anchor="middle" x="302.0073" y="-85.8" font-family="Times,serif" font-size="14.00" fill="#000000">log</text>
</g>
<!-- N16149&#45;&gt;N16154 -->
<g id="edge14" class="edge">
<title>N16149&#45;&gt;N16154</title>
<path fill="none" stroke="#000000" d="M331.7649,-144.937C327.0536,-136.2393 321.2256,-125.4799 315.9795,-115.7948"/>
<polygon fill="#000000" stroke="#000000" points="319.0239,-114.0664 311.1835,-106.9405 312.8688,-117.4005 319.0239,-114.0664"/>
</g>
<!-- N16162 -->
<g id="node17" class="node">
<title>N16162</title>
<ellipse fill="#d3d3d3" stroke="#000000" cx="380.0073" cy="-90" rx="27" ry="18"/>
<text text-anchor="middle" x="380.0073" y="-85.8" font-family="Times,serif" font-size="14.00" fill="#000000">add</text>
</g>
<!-- N16149&#45;&gt;N16162 -->
<g id="edge16" class="edge">
<title>N16149&#45;&gt;N16162</title>
<path fill="none" stroke="#000000" d="M350.2498,-144.937C354.9611,-136.2393 360.789,-125.4799 366.0352,-115.7948"/>
<polygon fill="#000000" stroke="#000000" points="369.1459,-117.4005 370.8312,-106.9405 362.9908,-114.0664 369.1459,-117.4005"/>
</g>
<!-- N16157 -->
<g id="node16" class="node">
<title>N16157</title>
<ellipse fill="#d3d3d3" stroke="#000000" cx="282.0073" cy="-18" rx="40.0147" ry="18"/>
<text text-anchor="middle" x="282.0073" y="-13.8" font-family="Times,serif" font-size="14.00" fill="#000000">0.965...</text>
</g>
<!-- N16154&#45;&gt;N16157 -->
<g id="edge15" class="edge">
<title>N16154&#45;&gt;N16157</title>
<path fill="none" stroke="#000000" d="M297.0635,-72.2022C294.8686,-64.3005 292.2326,-54.811 289.784,-45.9959"/>
<polygon fill="#000000" stroke="#000000" points="293.082,-44.7915 287.0332,-36.0931 286.3374,-46.6651 293.082,-44.7915"/>
</g>
<!-- N16165 -->
<g id="node18" class="node">
<title>N16165</title>
<ellipse fill="#d3d3d3" stroke="#000000" cx="380.0073" cy="-18" rx="40.0147" ry="18"/>
<text text-anchor="middle" x="380.0073" y="-13.8" font-family="Times,serif" font-size="14.00" fill="#000000">0.466...</text>
</g>
<!-- N16162&#45;&gt;N16165 -->
<g id="edge17" class="edge">
<title>N16162&#45;&gt;N16165</title>
<path fill="none" stroke="#000000" d="M380.0073,-71.8314C380.0073,-64.131 380.0073,-54.9743 380.0073,-46.4166"/>
<polygon fill="#000000" stroke="#000000" points="383.5074,-46.4132 380.0073,-36.4133 376.5074,-46.4133 383.5074,-46.4132"/>
</g>
<!-- N16168 -->
<g id="node19" class="node">
<title>N16168</title>
<ellipse fill="#d3d3d3" stroke="#000000" cx="465.0073" cy="-18" rx="27" ry="18"/>
<text text-anchor="middle" x="465.0073" y="-13.8" font-family="Times,serif" font-size="14.00" fill="#000000">i</text>
</g>
<!-- N16162&#45;&gt;N16168 -->
<g id="edge18" class="edge">
<title>N16162&#45;&gt;N16168</title>
<path fill="none" stroke="#000000" d="M396.8006,-75.7751C409.2575,-65.2234 426.4339,-50.674 440.4332,-38.8157"/>
<polygon fill="#000000" stroke="#000000" points="442.8807,-41.3295 448.249,-32.1953 438.3563,-35.9881 442.8807,-41.3295"/>
</g>
<!-- N16170 -->
<g id="node21" class="node">
<title>N16170</title>
<ellipse fill="#d3d3d3" stroke="#000000" cx="697.0073" cy="-234" rx="27" ry="18"/>
<text text-anchor="middle" x="697.0073" y="-229.8" font-family="Times,serif" font-size="14.00" fill="#000000">sqr</text>
</g>
<!-- N16169&#45;&gt;N16170 -->
<g id="edge20" class="edge">
<title>N16169&#45;&gt;N16170</title>
<path fill="none" stroke="#000000" d="M697.0073,-287.8314C697.0073,-280.131 697.0073,-270.9743 697.0073,-262.4166"/>
<polygon fill="#000000" stroke="#000000" points="700.5074,-262.4132 697.0073,-252.4133 693.5074,-262.4133 700.5074,-262.4132"/>
</g>
<!-- N16194 -->
<g id="node29" class="node">
<title>N16194</title>
<ellipse fill="#d3d3d3" stroke="#000000" cx="1079.0073" cy="-234" rx="27" ry="18"/>
<text text-anchor="middle" x="1079.0073" y="-229.8" font-family="Times,serif" font-size="14.00" fill="#000000">mul</text>
</g>
<!-- N16169&#45;&gt;N16194 -->
<g id="edge28" class="edge">
<title>N16169&#45;&gt;N16194</title>
<path fill="none" stroke="#000000" d="M724.1736,-300.8797C791.6521,-288.1612 966.9162,-255.1271 1042.9441,-240.7973"/>
<polygon fill="#000000" stroke="#000000" points="1043.8132,-244.1952 1052.9918,-238.9034 1042.5166,-237.3163 1043.8132,-244.1952"/>
</g>
<!-- N16171 -->
<g id="node22" class="node">
<title>N16171</title>
<ellipse fill="#d3d3d3" stroke="#000000" cx="697.0073" cy="-162" rx="28.4127" ry="18"/>
<text text-anchor="middle" x="697.0073" y="-157.8" font-family="Times,serif" font-size="14.00" fill="#000000">mod</text>
</g>
<!-- N16170&#45;&gt;N16171 -->
<g id="edge21" class="edge">
<title>N16170&#45;&gt;N16171</title>
<path fill="none" stroke="#000000" d="M697.0073,-215.8314C697.0073,-208.131 697.0073,-198.9743 697.0073,-190.4166"/>
<polygon fill="#000000" stroke="#000000" points="700.5074,-190.4132 697.0073,-180.4133 693.5074,-190.4133 700.5074,-190.4132"/>
</g>
<!-- N16176 -->
<g id="node23" class="node">
<title>N16176</title>
<ellipse fill="#d3d3d3" stroke="#000000" cx="648.0073" cy="-90" rx="27" ry="18"/>
<text text-anchor="middle" x="648.0073" y="-85.8" font-family="Times,serif" font-size="14.00" fill="#000000">mul</text>
</g>
<!-- N16171&#45;&gt;N16176 -->
<g id="edge22" class="edge">
<title>N16171&#45;&gt;N16176</title>
<path fill="none" stroke="#000000" d="M685.6426,-145.3008C679.52,-136.3043 671.8436,-125.0247 665.0232,-115.0029"/>
<polygon fill="#000000" stroke="#000000" points="667.8302,-112.9066 659.3105,-106.6087 662.0432,-116.845 667.8302,-112.9066"/>
</g>
<!-- N16187 -->
<g id="node26" class="node">
<title>N16187</title>
<ellipse fill="#d3d3d3" stroke="#000000" cx="746.0073" cy="-90" rx="27" ry="18"/>
<text text-anchor="middle" x="746.0073" y="-85.8" font-family="Times,serif" font-size="14.00" fill="#000000">sin</text>
</g>
<!-- N16171&#45;&gt;N16187 -->
<g id="edge25" class="edge">
<title>N16171&#45;&gt;N16187</title>
<path fill="none" stroke="#000000" d="M708.3721,-145.3008C714.4947,-136.3043 722.1711,-125.0247 728.9915,-115.0029"/>
<polygon fill="#000000" stroke="#000000" points="731.9714,-116.845 734.7042,-106.6087 726.1844,-112.9066 731.9714,-116.845"/>
</g>
<!-- N16179 -->
<g id="node24" class="node">
<title>N16179</title>
<ellipse fill="#d3d3d3" stroke="#000000" cx="550.0073" cy="-18" rx="40.0147" ry="18"/>
<text text-anchor="middle" x="550.0073" y="-13.8" font-family="Times,serif" font-size="14.00" fill="#000000">0.493...</text>
</g>
<!-- N16176&#45;&gt;N16179 -->
<g id="edge23" class="edge">
<title>N16176&#45;&gt;N16179</title>
<path fill="none" stroke="#000000" d="M629.5743,-76.4574C615.4096,-66.0507 595.571,-51.4753 579.247,-39.4822"/>
<polygon fill="#000000" stroke="#000000" points="581.2108,-36.5819 571.0797,-33.4817 577.0663,-42.2231 581.2108,-36.5819"/>
</g>
<!-- N16182 -->
<g id="node25" class="node">
<title>N16182</title>
<ellipse fill="#d3d3d3" stroke="#000000" cx="648.0073" cy="-18" rx="40.0147" ry="18"/>
<text text-anchor="middle" x="648.0073" y="-13.8" font-family="Times,serif" font-size="14.00" fill="#000000">0.264...</text>
</g>
<!-- N16176&#45;&gt;N16182 -->
<g id="edge24" class="edge">
<title>N16176&#45;&gt;N16182</title>
<path fill="none" stroke="#000000" d="M648.0073,-71.8314C648.0073,-64.131 648.0073,-54.9743 648.0073,-46.4166"/>
<polygon fill="#000000" stroke="#000000" points="651.5074,-46.4132 648.0073,-36.4133 644.5074,-46.4133 651.5074,-46.4132"/>
</g>
<!-- N16190 -->
<g id="node27" class="node">
<title>N16190</title>
<ellipse fill="#d3d3d3" stroke="#000000" cx="746.0073" cy="-18" rx="40.0147" ry="18"/>
<text text-anchor="middle" x="746.0073" y="-13.8" font-family="Times,serif" font-size="14.00" fill="#000000">0.362...</text>
</g>
<!-- N16187&#45;&gt;N16190 -->
<g id="edge26" class="edge">
<title>N16187&#45;&gt;N16190</title>
<path fill="none" stroke="#000000" d="M746.0073,-71.8314C746.0073,-64.131 746.0073,-54.9743 746.0073,-46.4166"/>
<polygon fill="#000000" stroke="#000000" points="749.5074,-46.4132 746.0073,-36.4133 742.5074,-46.4133 749.5074,-46.4132"/>
</g>
<!-- N16193 -->
<g id="node28" class="node">
<title>N16193</title>
<ellipse fill="#d3d3d3" stroke="#000000" cx="844.0073" cy="-18" rx="40.0147" ry="18"/>
<text text-anchor="middle" x="844.0073" y="-13.8" font-family="Times,serif" font-size="14.00" fill="#000000">0.719...</text>
</g>
<!-- N16187&#45;&gt;N16193 -->
<g id="edge27" class="edge">
<title>N16187&#45;&gt;N16193</title>
<path fill="none" stroke="#000000" d="M764.4404,-76.4574C778.605,-66.0507 798.4437,-51.4753 814.7677,-39.4822"/>
<polygon fill="#000000" stroke="#000000" points="816.9484,-42.2231 822.935,-33.4817 812.8039,-36.5819 816.9484,-42.2231"/>
</g>
<!-- N16195 -->
<g id="node30" class="node">
<title>N16195</title>
<ellipse fill="#d3d3d3" stroke="#000000" cx="1079.0073" cy="-162" rx="28.4127" ry="18"/>
<text text-anchor="middle" x="1079.0073" y="-157.8" font-family="Times,serif" font-size="14.00" fill="#000000">mod</text>
</g>
<!-- N16194&#45;&gt;N16195 -->
<g id="edge29" class="edge">
<title>N16194&#45;&gt;N16195</title>
<path fill="none" stroke="#000000" d="M1079.0073,-215.8314C1079.0073,-208.131 1079.0073,-198.9743 1079.0073,-190.4166"/>
<polygon fill="#000000" stroke="#000000" points="1082.5074,-190.4132 1079.0073,-180.4133 1075.5074,-190.4133 1082.5074,-190.4132"/>
</g>
<!-- N16215 -->
<g id="node36" class="node">
<title>N16215</title>
<ellipse fill="#d3d3d3" stroke="#000000" cx="1181.0073" cy="-162" rx="27" ry="18"/>
<text text-anchor="middle" x="1181.0073" y="-157.8" font-family="Times,serif" font-size="14.00" fill="#000000">log</text>
</g>
<!-- N16194&#45;&gt;N16215 -->
<g id="edge35" class="edge">
<title>N16194&#45;&gt;N16215</title>
<path fill="none" stroke="#000000" d="M1097.7157,-220.7941C1113.5317,-209.6298 1136.3864,-193.4971 1154.1559,-180.9539"/>
<polygon fill="#000000" stroke="#000000" points="1156.2663,-183.7485 1162.4176,-175.1222 1152.2295,-178.0297 1156.2663,-183.7485"/>
</g>
<!-- N16200 -->
<g id="node31" class="node">
<title>N16200</title>
<ellipse fill="#d3d3d3" stroke="#000000" cx="1040.0073" cy="-90" rx="27" ry="18"/>
<text text-anchor="middle" x="1040.0073" y="-85.8" font-family="Times,serif" font-size="14.00" fill="#000000">sin</text>
</g>
<!-- N16195&#45;&gt;N16200 -->
<g id="edge30" class="edge">
<title>N16195&#45;&gt;N16200</title>
<path fill="none" stroke="#000000" d="M1069.7649,-144.937C1065.0536,-136.2393 1059.2256,-125.4799 1053.9795,-115.7948"/>
<polygon fill="#000000" stroke="#000000" points="1057.0239,-114.0664 1049.1835,-106.9405 1050.8688,-117.4005 1057.0239,-114.0664"/>
</g>
<!-- N16211 -->
<g id="node34" class="node">
<title>N16211</title>
<ellipse fill="#d3d3d3" stroke="#000000" cx="1118.0073" cy="-90" rx="27" ry="18"/>
<text text-anchor="middle" x="1118.0073" y="-85.8" font-family="Times,serif" font-size="14.00" fill="#000000">log</text>
</g>
<!-- N16195&#45;&gt;N16211 -->
<g id="edge33" class="edge">
<title>N16195&#45;&gt;N16211</title>
<path fill="none" stroke="#000000" d="M1088.2498,-144.937C1092.9611,-136.2393 1098.789,-125.4799 1104.0352,-115.7948"/>
<polygon fill="#000000" stroke="#000000" points="1107.1459,-117.4005 1108.8312,-106.9405 1100.9908,-114.0664 1107.1459,-117.4005"/>
</g>
<!-- N16203 -->
<g id="node32" class="node">
<title>N16203</title>
<ellipse fill="#d3d3d3" stroke="#000000" cx="942.0073" cy="-18" rx="40.0147" ry="18"/>
<text text-anchor="middle" x="942.0073" y="-13.8" font-family="Times,serif" font-size="14.00" fill="#000000">0.623...</text>
</g>
<!-- N16200&#45;&gt;N16203 -->
<g id="edge31" class="edge">
<title>N16200&#45;&gt;N16203</title>
<path fill="none" stroke="#000000" d="M1021.5743,-76.4574C1007.4096,-66.0507 987.571,-51.4753 971.247,-39.4822"/>
<polygon fill="#000000" stroke="#000000" points="973.2108,-36.5819 963.0797,-33.4817 969.0663,-42.2231 973.2108,-36.5819"/>
</g>
<!-- N16206 -->
<g id="node33" class="node">
<title>N16206</title>
<ellipse fill="#d3d3d3" stroke="#000000" cx="1040.0073" cy="-18" rx="40.0147" ry="18"/>
<text text-anchor="middle" x="1040.0073" y="-13.8" font-family="Times,serif" font-size="14.00" fill="#000000">0.638...</text>
</g>
<!-- N16200&#45;&gt;N16206 -->
<g id="edge32" class="edge">
<title>N16200&#45;&gt;N16206</title>
<path fill="none" stroke="#000000" d="M1040.0073,-71.8314C1040.0073,-64.131 1040.0073,-54.9743 1040.0073,-46.4166"/>
<polygon fill="#000000" stroke="#000000" points="1043.5074,-46.4132 1040.0073,-36.4133 1036.5074,-46.4133 1043.5074,-46.4132"/>
</g>
<!-- N16214 -->
<g id="node35" class="node">
<title>N16214</title>
<ellipse fill="#d3d3d3" stroke="#000000" cx="1125.0073" cy="-18" rx="27" ry="18"/>
<text text-anchor="middle" x="1125.0073" y="-13.8" font-family="Times,serif" font-size="14.00" fill="#000000">i</text>
</g>
<!-- N16211&#45;&gt;N16214 -->
<g id="edge34" class="edge">
<title>N16211&#45;&gt;N16214</title>
<path fill="none" stroke="#000000" d="M1119.7737,-71.8314C1120.5224,-64.131 1121.4126,-54.9743 1122.2446,-46.4166"/>
<polygon fill="#000000" stroke="#000000" points="1125.733,-46.7051 1123.2172,-36.4133 1118.7658,-46.0276 1125.733,-46.7051"/>
</g>
<!-- N16220 -->
<g id="node37" class="node">
<title>N16220</title>
<ellipse fill="#d3d3d3" stroke="#000000" cx="1210.0073" cy="-90" rx="27" ry="18"/>
<text text-anchor="middle" x="1210.0073" y="-85.8" font-family="Times,serif" font-size="14.00" fill="#000000">add</text>
</g>
<!-- N16215&#45;&gt;N16220 -->
<g id="edge36" class="edge">
<title>N16215&#45;&gt;N16220</title>
<path fill="none" stroke="#000000" d="M1188.0274,-144.5708C1191.3512,-136.3187 1195.3971,-126.2738 1199.1073,-117.0623"/>
<polygon fill="#000000" stroke="#000000" points="1202.4618,-118.1018 1202.9514,-107.5182 1195.9687,-115.4864 1202.4618,-118.1018"/>
</g>
<!-- N16223 -->
<g id="node38" class="node">
<title>N16223</title>
<ellipse fill="#d3d3d3" stroke="#000000" cx="1210.0073" cy="-18" rx="40.0147" ry="18"/>
<text text-anchor="middle" x="1210.0073" y="-13.8" font-family="Times,serif" font-size="14.00" fill="#000000">0.593...</text>
</g>
<!-- N16220&#45;&gt;N16223 -->
<g id="edge37" class="edge">
<title>N16220&#45;&gt;N16223</title>
<path fill="none" stroke="#000000" d="M1210.0073,-71.8314C1210.0073,-64.131 1210.0073,-54.9743 1210.0073,-46.4166"/>
<polygon fill="#000000" stroke="#000000" points="1213.5074,-46.4132 1210.0073,-36.4133 1206.5074,-46.4133 1213.5074,-46.4132"/>
</g>
<!-- N16226 -->
<g id="node39" class="node">
<title>N16226</title>
<ellipse fill="#d3d3d3" stroke="#000000" cx="1295.0073" cy="-18" rx="27" ry="18"/>
<text text-anchor="middle" x="1295.0073" y="-13.8" font-family="Times,serif" font-size="14.00" fill="#000000">i</text>
</g>
<!-- N16220&#45;&gt;N16226 -->
<g id="edge38" class="edge">
<title>N16220&#45;&gt;N16226</title>
<path fill="none" stroke="#000000" d="M1226.8006,-75.7751C1239.2575,-65.2234 1256.4339,-50.674 1270.4332,-38.8157"/>
<polygon fill="#000000" stroke="#000000" points="1272.8807,-41.3295 1278.249,-32.1953 1268.3563,-35.9881 1272.8807,-41.3295"/>
</g>
</g>
</svg>
