<?xml version="1.0" encoding="UTF-8" standalone="no"?>
<!DOCTYPE svg PUBLIC "-//W3C//DTD SVG 1.1//EN"
 "http://www.w3.org/Graphics/SVG/1.1/DTD/svg11.dtd">
<!-- Generated by graphviz version 2.40.1 (20161225.0304)
 -->
<!-- Title: G96060387 Pages: 1 -->
<svg width="428pt" height="404pt"
 viewBox="0.00 0.00 427.94 404.00" xmlns="http://www.w3.org/2000/svg" xmlns:xlink="http://www.w3.org/1999/xlink">
<g id="graph0" class="graph" transform="scale(1 1) rotate(0) translate(4 400)">
<title>G96060387</title>
<polygon fill="#ffffff" stroke="transparent" points="-4,4 -4,-400 423.9362,-400 423.9362,4 -4,4"/>
<!-- N96060387 -->
<g id="node1" class="node">
<title>N96060387</title>
<ellipse fill="#d3d3d3" stroke="#000000" cx="163.9362" cy="-378" rx="56.7716" ry="18"/>
<text text-anchor="middle" x="163.9362" y="-373.8" font-family="Times,serif" font-size="14.00" fill="#000000">N96060387</text>
</g>
<!-- N96060388 -->
<g id="node2" class="node">
<title>N96060388</title>
<ellipse fill="#d3d3d3" stroke="#000000" cx="163.9362" cy="-306" rx="27" ry="18"/>
<text text-anchor="middle" x="163.9362" y="-301.8" font-family="Times,serif" font-size="14.00" fill="#000000">sub</text>
</g>
<!-- N96060387&#45;&gt;N96060388 -->
<g id="edge1" class="edge">
<title>N96060387&#45;&gt;N96060388</title>
<path fill="none" stroke="#000000" d="M163.9362,-359.8314C163.9362,-352.131 163.9362,-342.9743 163.9362,-334.4166"/>
<polygon fill="#000000" stroke="#000000" points="167.4363,-334.4132 163.9362,-324.4133 160.4363,-334.4133 167.4363,-334.4132"/>
</g>
<!-- N96060389 -->
<g id="node3" class="node">
<title>N96060389</title>
<ellipse fill="#d3d3d3" stroke="#000000" cx="127.9362" cy="-234" rx="27" ry="18"/>
<text text-anchor="middle" x="127.9362" y="-229.8" font-family="Times,serif" font-size="14.00" fill="#000000">sin</text>
</g>
<!-- N96060388&#45;&gt;N96060389 -->
<g id="edge2" class="edge">
<title>N96060388&#45;&gt;N96060389</title>
<path fill="none" stroke="#000000" d="M155.2216,-288.5708C150.9765,-280.0807 145.7826,-269.6929 141.0699,-260.2674"/>
<polygon fill="#000000" stroke="#000000" points="144.1732,-258.6477 136.5705,-251.2687 137.9122,-261.7782 144.1732,-258.6477"/>
</g>
<!-- N96060393 -->
<g id="node7" class="node">
<title>N96060393</title>
<ellipse fill="#d3d3d3" stroke="#000000" cx="199.9362" cy="-234" rx="27" ry="18"/>
<text text-anchor="middle" x="199.9362" y="-229.8" font-family="Times,serif" font-size="14.00" fill="#000000">div</text>
</g>
<!-- N96060388&#45;&gt;N96060393 -->
<g id="edge6" class="edge">
<title>N96060388&#45;&gt;N96060393</title>
<path fill="none" stroke="#000000" d="M172.6508,-288.5708C176.8958,-280.0807 182.0897,-269.6929 186.8025,-260.2674"/>
<polygon fill="#000000" stroke="#000000" points="189.9601,-261.7782 191.3018,-251.2687 183.6991,-258.6477 189.9601,-261.7782"/>
</g>
<!-- N96060390 -->
<g id="node4" class="node">
<title>N96060390</title>
<ellipse fill="#d3d3d3" stroke="#000000" cx="109.9362" cy="-162" rx="27" ry="18"/>
<text text-anchor="middle" x="109.9362" y="-157.8" font-family="Times,serif" font-size="14.00" fill="#000000">sin</text>
</g>
<!-- N96060389&#45;&gt;N96060390 -->
<g id="edge3" class="edge">
<title>N96060389&#45;&gt;N96060390</title>
<path fill="none" stroke="#000000" d="M123.4867,-216.2022C121.4963,-208.2406 119.1029,-198.6671 116.8851,-189.7957"/>
<polygon fill="#000000" stroke="#000000" points="120.2177,-188.6951 114.3968,-179.8425 113.4267,-190.3929 120.2177,-188.6951"/>
</g>
<!-- N96060391 -->
<g id="node5" class="node">
<title>N96060391</title>
<ellipse fill="#d3d3d3" stroke="#000000" cx="73.9362" cy="-90" rx="27" ry="18"/>
<text text-anchor="middle" x="73.9362" y="-85.8" font-family="Times,serif" font-size="14.00" fill="#000000">exp</text>
</g>
<!-- N96060390&#45;&gt;N96060391 -->
<g id="edge4" class="edge">
<title>N96060390&#45;&gt;N96060391</title>
<path fill="none" stroke="#000000" d="M101.2216,-144.5708C96.9765,-136.0807 91.7826,-125.6929 87.0699,-116.2674"/>
<polygon fill="#000000" stroke="#000000" points="90.1732,-114.6477 82.5705,-107.2687 83.9122,-117.7782 90.1732,-114.6477"/>
</g>
<!-- N96060392 -->
<g id="node6" class="node">
<title>N96060392</title>
<ellipse fill="#d3d3d3" stroke="#000000" cx="27.9362" cy="-18" rx="27.8725" ry="18"/>
<text text-anchor="middle" x="27.9362" y="-13.8" font-family="Times,serif" font-size="14.00" fill="#000000">0.64</text>
</g>
<!-- N96060391&#45;&gt;N96060392 -->
<g id="edge5" class="edge">
<title>N96060391&#45;&gt;N96060392</title>
<path fill="none" stroke="#000000" d="M63.2672,-73.3008C57.6588,-64.5224 50.6616,-53.5703 44.3773,-43.7339"/>
<polygon fill="#000000" stroke="#000000" points="47.2001,-41.6512 38.8667,-35.1086 41.3012,-45.42 47.2001,-41.6512"/>
</g>
<!-- N96060394 -->
<g id="node8" class="node">
<title>N96060394</title>
<ellipse fill="#d3d3d3" stroke="#000000" cx="199.9362" cy="-162" rx="27" ry="18"/>
<text text-anchor="middle" x="199.9362" y="-157.8" font-family="Times,serif" font-size="14.00" fill="#000000">div</text>
</g>
<!-- N96060393&#45;&gt;N96060394 -->
<g id="edge7" class="edge">
<title>N96060393&#45;&gt;N96060394</title>
<path fill="none" stroke="#000000" d="M199.9362,-215.8314C199.9362,-208.131 199.9362,-198.9743 199.9362,-190.4166"/>
<polygon fill="#000000" stroke="#000000" points="203.4363,-190.4132 199.9362,-180.4133 196.4363,-190.4133 203.4363,-190.4132"/>
</g>
<!-- N96060400 -->
<g id="node14" class="node">
<title>N96060400</title>
<ellipse fill="#d3d3d3" stroke="#000000" cx="281.9362" cy="-162" rx="27.2447" ry="18"/>
<text text-anchor="middle" x="281.9362" y="-157.8" font-family="Times,serif" font-size="14.00" fill="#000000">atan</text>
</g>
<!-- N96060393&#45;&gt;N96060400 -->
<g id="edge13" class="edge">
<title>N96060393&#45;&gt;N96060400</title>
<path fill="none" stroke="#000000" d="M216.5301,-219.4297C228.3115,-209.0851 244.3202,-195.0286 257.5507,-183.4116"/>
<polygon fill="#000000" stroke="#000000" points="260.1618,-185.7767 265.3669,-176.5486 255.5432,-180.5166 260.1618,-185.7767"/>
</g>
<!-- N96060395 -->
<g id="node9" class="node">
<title>N96060395</title>
<ellipse fill="none" stroke="#000000" cx="172.9362" cy="-90" rx="27" ry="18"/>
<text text-anchor="middle" x="172.9362" y="-85.8" font-family="Times,serif" font-size="14.00" fill="#000000">sub</text>
</g>
<!-- N96060394&#45;&gt;N96060395 -->
<g id="edge8" class="edge">
<title>N96060394&#45;&gt;N96060395</title>
<path fill="none" stroke="#000000" d="M193.262,-144.2022C190.1885,-136.0064 186.4746,-126.1024 183.0666,-117.0145"/>
<polygon fill="#000000" stroke="#000000" points="186.322,-115.7274 179.5335,-107.593 179.7677,-118.1853 186.322,-115.7274"/>
</g>
<!-- N96060398 -->
<g id="node12" class="node">
<title>N96060398</title>
<ellipse fill="#d3d3d3" stroke="#000000" cx="245.9362" cy="-90" rx="27" ry="18"/>
<text text-anchor="middle" x="245.9362" y="-85.8" font-family="Times,serif" font-size="14.00" fill="#000000">sqr</text>
</g>
<!-- N96060394&#45;&gt;N96060398 -->
<g id="edge11" class="edge">
<title>N96060394&#45;&gt;N96060398</title>
<path fill="none" stroke="#000000" d="M210.6051,-145.3008C216.2948,-136.3952 223.4138,-125.2524 229.7678,-115.307"/>
<polygon fill="#000000" stroke="#000000" points="232.8906,-116.92 235.3251,-106.6087 226.9917,-113.1513 232.8906,-116.92"/>
</g>
<!-- N96060413 -->
<g id="node10" class="node">
<title>N96060413</title>
<ellipse fill="none" stroke="#000000" stroke-dasharray="5,2" cx="100.9362" cy="-18" rx="27" ry="18"/>
<text text-anchor="middle" x="100.9362" y="-13.8" font-family="Times,serif" font-size="14.00" fill="#000000">w</text>
</g>
<!-- N96060395&#45;&gt;N96060413 -->
<g id="edge9" class="edge">
<title>N96060395&#45;&gt;N96060413</title>
<path fill="none" stroke="#000000" d="M157.6668,-74.7307C147.7392,-64.803 134.6209,-51.6847 123.4998,-40.5637"/>
<polygon fill="#000000" stroke="#000000" points="125.7295,-37.8436 116.1835,-33.2473 120.7797,-42.7933 125.7295,-37.8436"/>
</g>
<!-- N96060397 -->
<g id="node11" class="node">
<title>N96060397</title>
<ellipse fill="#d3d3d3" stroke="#000000" cx="172.9362" cy="-18" rx="27" ry="18"/>
<text text-anchor="middle" x="172.9362" y="-13.8" font-family="Times,serif" font-size="14.00" fill="#000000">d</text>
</g>
<!-- N96060395&#45;&gt;N96060397 -->
<g id="edge10" class="edge">
<title>N96060395&#45;&gt;N96060397</title>
<path fill="none" stroke="#000000" d="M172.9362,-71.8314C172.9362,-64.131 172.9362,-54.9743 172.9362,-46.4166"/>
<polygon fill="#000000" stroke="#000000" points="176.4363,-46.4132 172.9362,-36.4133 169.4363,-46.4133 176.4363,-46.4132"/>
</g>
<!-- N96060399 -->
<g id="node13" class="node">
<title>N96060399</title>
<ellipse fill="#d3d3d3" stroke="#000000" cx="245.9362" cy="-18" rx="27.8725" ry="18"/>
<text text-anchor="middle" x="245.9362" y="-13.8" font-family="Times,serif" font-size="14.00" fill="#000000">0.03</text>
</g>
<!-- N96060398&#45;&gt;N96060399 -->
<g id="edge12" class="edge">
<title>N96060398&#45;&gt;N96060399</title>
<path fill="none" stroke="#000000" d="M245.9362,-71.8314C245.9362,-64.131 245.9362,-54.9743 245.9362,-46.4166"/>
<polygon fill="#000000" stroke="#000000" points="249.4363,-46.4132 245.9362,-36.4133 242.4363,-46.4133 249.4363,-46.4132"/>
</g>
<!-- N96060401 -->
<g id="node15" class="node">
<title>N96060401</title>
<ellipse fill="#d3d3d3" stroke="#000000" cx="319.9362" cy="-90" rx="27" ry="18"/>
<text text-anchor="middle" x="319.9362" y="-85.8" font-family="Times,serif" font-size="14.00" fill="#000000">add</text>
</g>
<!-- N96060400&#45;&gt;N96060401 -->
<g id="edge14" class="edge">
<title>N96060400&#45;&gt;N96060401</title>
<path fill="none" stroke="#000000" d="M290.9416,-144.937C295.4189,-136.4537 300.9313,-126.0092 305.9432,-116.513"/>
<polygon fill="#000000" stroke="#000000" points="309.1591,-117.9182 310.7314,-107.4407 302.9684,-114.6509 309.1591,-117.9182"/>
</g>
<!-- N96060402 -->
<g id="node16" class="node">
<title>N96060402</title>
<ellipse fill="#d3d3d3" stroke="#000000" cx="319.9362" cy="-18" rx="27.8725" ry="18"/>
<text text-anchor="middle" x="319.9362" y="-13.8" font-family="Times,serif" font-size="14.00" fill="#000000">0.85</text>
</g>
<!-- N96060401&#45;&gt;N96060402 -->
<g id="edge15" class="edge">
<title>N96060401&#45;&gt;N96060402</title>
<path fill="none" stroke="#000000" d="M319.9362,-71.8314C319.9362,-64.131 319.9362,-54.9743 319.9362,-46.4166"/>
<polygon fill="#000000" stroke="#000000" points="323.4363,-46.4132 319.9362,-36.4133 316.4363,-46.4133 323.4363,-46.4132"/>
</g>
<!-- N96060403 -->
<g id="node17" class="node">
<title>N96060403</title>
<ellipse fill="#d3d3d3" stroke="#000000" cx="392.9362" cy="-18" rx="27" ry="18"/>
<text text-anchor="middle" x="392.9362" y="-13.8" font-family="Times,serif" font-size="14.00" fill="#000000">d</text>
</g>
<!-- N96060401&#45;&gt;N96060403 -->
<g id="edge16" class="edge">
<title>N96060401&#45;&gt;N96060403</title>
<path fill="none" stroke="#000000" d="M335.0618,-75.0816C345.2707,-65.0125 358.9239,-51.5463 370.4054,-40.2221"/>
<polygon fill="#000000" stroke="#000000" points="372.9168,-42.6611 377.5787,-33.147 368.0013,-37.6773 372.9168,-42.6611"/>
</g>
</g>
</svg>
