<?xml version="1.0" encoding="UTF-8" standalone="no"?>
<!DOCTYPE svg PUBLIC "-//W3C//DTD SVG 1.1//EN"
 "http://www.w3.org/Graphics/SVG/1.1/DTD/svg11.dtd">
<!-- Generated by graphviz version 2.40.1 (20161225.0304)
 -->
<!-- Title: G280643 Pages: 1 -->
<svg width="678pt" height="980pt"
 viewBox="0.00 0.00 677.99 980.00" xmlns="http://www.w3.org/2000/svg" xmlns:xlink="http://www.w3.org/1999/xlink">
<g id="graph0" class="graph" transform="scale(1 1) rotate(0) translate(4 976)">
<title>G280643</title>
<polygon fill="#ffffff" stroke="transparent" points="-4,4 -4,-976 673.9855,-976 673.9855,4 -4,4"/>
<!-- N280643 -->
<g id="node1" class="node">
<title>N280643</title>
<ellipse fill="#d3d3d3" stroke="#000000" cx="265.4928" cy="-954" rx="54.4437" ry="18"/>
<text text-anchor="middle" x="265.4928" y="-949.8" font-family="Times,serif" font-size="14.00" fill="#000000">N280643...</text>
</g>
<!-- N280644 -->
<g id="node2" class="node">
<title>N280644</title>
<ellipse fill="#d3d3d3" stroke="#000000" cx="265.4928" cy="-882" rx="27" ry="18"/>
<text text-anchor="middle" x="265.4928" y="-877.8" font-family="Times,serif" font-size="14.00" fill="#000000">mul</text>
</g>
<!-- N280643&#45;&gt;N280644 -->
<g id="edge1" class="edge">
<title>N280643&#45;&gt;N280644</title>
<path fill="none" stroke="#000000" d="M265.4928,-935.8314C265.4928,-928.131 265.4928,-918.9743 265.4928,-910.4166"/>
<polygon fill="#000000" stroke="#000000" points="268.9929,-910.4132 265.4928,-900.4133 261.9929,-910.4133 268.9929,-910.4132"/>
</g>
<!-- N280645 -->
<g id="node3" class="node">
<title>N280645</title>
<ellipse fill="#d3d3d3" stroke="#000000" cx="229.4928" cy="-810" rx="27" ry="18"/>
<text text-anchor="middle" x="229.4928" y="-805.8" font-family="Times,serif" font-size="14.00" fill="#000000">SIN</text>
</g>
<!-- N280644&#45;&gt;N280645 -->
<g id="edge2" class="edge">
<title>N280644&#45;&gt;N280645</title>
<path fill="none" stroke="#000000" d="M256.7782,-864.5708C252.5331,-856.0807 247.3392,-845.6929 242.6265,-836.2674"/>
<polygon fill="#000000" stroke="#000000" points="245.7298,-834.6477 238.1271,-827.2687 239.4688,-837.7782 245.7298,-834.6477"/>
</g>
<!-- N280651 -->
<g id="node9" class="node">
<title>N280651</title>
<ellipse fill="#d3d3d3" stroke="#000000" cx="327.4928" cy="-810" rx="27" ry="18"/>
<text text-anchor="middle" x="327.4928" y="-805.8" font-family="Times,serif" font-size="14.00" fill="#000000">sub</text>
</g>
<!-- N280644&#45;&gt;N280651 -->
<g id="edge8" class="edge">
<title>N280644&#45;&gt;N280651</title>
<path fill="none" stroke="#000000" d="M278.9458,-866.3771C287.1194,-856.8852 297.7196,-844.5753 306.9287,-833.8808"/>
<polygon fill="#000000" stroke="#000000" points="309.7636,-835.9525 313.6366,-826.091 304.4592,-831.3848 309.7636,-835.9525"/>
</g>
<!-- N280646 -->
<g id="node4" class="node">
<title>N280646</title>
<ellipse fill="#d3d3d3" stroke="#000000" cx="202.4928" cy="-738" rx="27" ry="18"/>
<text text-anchor="middle" x="202.4928" y="-733.8" font-family="Times,serif" font-size="14.00" fill="#000000">sub</text>
</g>
<!-- N280645&#45;&gt;N280646 -->
<g id="edge3" class="edge">
<title>N280645&#45;&gt;N280646</title>
<path fill="none" stroke="#000000" d="M222.8186,-792.2022C219.7451,-784.0064 216.0312,-774.1024 212.6232,-765.0145"/>
<polygon fill="#000000" stroke="#000000" points="215.8786,-763.7274 209.0901,-755.593 209.3243,-766.1853 215.8786,-763.7274"/>
</g>
<!-- N280647 -->
<g id="node5" class="node">
<title>N280647</title>
<ellipse fill="#d3d3d3" stroke="#000000" cx="103.4928" cy="-666" rx="27" ry="18"/>
<text text-anchor="middle" x="103.4928" y="-661.8" font-family="Times,serif" font-size="14.00" fill="#000000">mul</text>
</g>
<!-- N280646&#45;&gt;N280647 -->
<g id="edge4" class="edge">
<title>N280646&#45;&gt;N280647</title>
<path fill="none" stroke="#000000" d="M183.8716,-724.4574C168.7993,-713.4956 147.3673,-697.9088 130.424,-685.5864"/>
<polygon fill="#000000" stroke="#000000" points="132.1764,-682.5331 122.0304,-679.4819 128.0592,-688.1943 132.1764,-682.5331"/>
</g>
<!-- N280650 -->
<g id="node8" class="node">
<title>N280650</title>
<ellipse fill="#d3d3d3" stroke="#000000" cx="202.4928" cy="-666" rx="54.4855" ry="18"/>
<text text-anchor="middle" x="202.4928" y="-661.8" font-family="Times,serif" font-size="14.00" fill="#000000">0.396588...</text>
</g>
<!-- N280646&#45;&gt;N280650 -->
<g id="edge7" class="edge">
<title>N280646&#45;&gt;N280650</title>
<path fill="none" stroke="#000000" d="M202.4928,-719.8314C202.4928,-712.131 202.4928,-702.9743 202.4928,-694.4166"/>
<polygon fill="#000000" stroke="#000000" points="205.9929,-694.4132 202.4928,-684.4133 198.9929,-694.4133 205.9929,-694.4132"/>
</g>
<!-- N280648 -->
<g id="node6" class="node">
<title>N280648</title>
<ellipse fill="#d3d3d3" stroke="#000000" cx="54.4928" cy="-594" rx="54.4855" ry="18"/>
<text text-anchor="middle" x="54.4928" y="-589.8" font-family="Times,serif" font-size="14.00" fill="#000000">0.213366...</text>
</g>
<!-- N280647&#45;&gt;N280648 -->
<g id="edge5" class="edge">
<title>N280647&#45;&gt;N280648</title>
<path fill="none" stroke="#000000" d="M92.128,-649.3008C86.2404,-640.6496 78.916,-629.8873 72.2977,-620.1623"/>
<polygon fill="#000000" stroke="#000000" points="74.9993,-617.9111 66.4795,-611.6132 69.2123,-621.8495 74.9993,-617.9111"/>
</g>
<!-- N280649 -->
<g id="node7" class="node">
<title>N280649</title>
<ellipse fill="#d3d3d3" stroke="#000000" cx="153.4928" cy="-594" rx="27" ry="18"/>
<text text-anchor="middle" x="153.4928" y="-589.8" font-family="Times,serif" font-size="14.00" fill="#000000">w</text>
</g>
<!-- N280647&#45;&gt;N280649 -->
<g id="edge6" class="edge">
<title>N280647&#45;&gt;N280649</title>
<path fill="none" stroke="#000000" d="M114.8385,-649.6621C121.0783,-640.6768 128.955,-629.3343 135.9676,-619.2362"/>
<polygon fill="#000000" stroke="#000000" points="139.0157,-620.983 141.8449,-610.7729 133.2661,-616.9902 139.0157,-620.983"/>
</g>
<!-- N280652 -->
<g id="node10" class="node">
<title>N280652</title>
<ellipse fill="#d3d3d3" stroke="#000000" cx="327.4928" cy="-738" rx="52.735" ry="18"/>
<text text-anchor="middle" x="327.4928" y="-733.8" font-family="Times,serif" font-size="14.00" fill="#000000">domingo...</text>
</g>
<!-- N280651&#45;&gt;N280652 -->
<g id="edge9" class="edge">
<title>N280651&#45;&gt;N280652</title>
<path fill="none" stroke="#000000" d="M327.4928,-791.8314C327.4928,-784.131 327.4928,-774.9743 327.4928,-766.4166"/>
<polygon fill="#000000" stroke="#000000" points="330.9929,-766.4132 327.4928,-756.4133 323.9929,-766.4133 330.9929,-766.4132"/>
</g>
<!-- N280665 -->
<g id="node31" class="node">
<title>N280665</title>
<ellipse fill="#d3d3d3" stroke="#000000" cx="452.4928" cy="-738" rx="27" ry="18"/>
<text text-anchor="middle" x="452.4928" y="-733.8" font-family="Times,serif" font-size="14.00" fill="#000000">sub</text>
</g>
<!-- N280651&#45;&gt;N280665 -->
<g id="edge30" class="edge">
<title>N280651&#45;&gt;N280665</title>
<path fill="none" stroke="#000000" d="M348.134,-798.1107C368.5803,-786.3336 400.0881,-768.1851 423.1356,-754.9097"/>
<polygon fill="#000000" stroke="#000000" points="424.9025,-757.9311 431.8209,-749.907 421.4086,-751.8654 424.9025,-757.9311"/>
</g>
<!-- N280653 -->
<g id="node11" class="node">
<title>N280653</title>
<ellipse fill="#d3d3d3" stroke="#000000" cx="327.4928" cy="-666" rx="52.735" ry="18"/>
<text text-anchor="middle" x="327.4928" y="-661.8" font-family="Times,serif" font-size="14.00" fill="#000000">domingo...</text>
</g>
<!-- N280652&#45;&gt;N280653 -->
<g id="edge10" class="edge">
<title>N280652&#45;&gt;N280653</title>
<path fill="none" stroke="#000000" d="M327.4928,-719.8314C327.4928,-712.131 327.4928,-702.9743 327.4928,-694.4166"/>
<polygon fill="#000000" stroke="#000000" points="330.9929,-694.4132 327.4928,-684.4133 323.9929,-694.4133 330.9929,-694.4132"/>
</g>
<!-- N280654 -->
<g id="node12" class="node">
<title>N280654</title>
<ellipse fill="#d3d3d3" stroke="#000000" cx="327.4928" cy="-594" rx="27" ry="18"/>
<text text-anchor="middle" x="327.4928" y="-589.8" font-family="Times,serif" font-size="14.00" fill="#000000">sub</text>
</g>
<!-- N280653&#45;&gt;N280654 -->
<g id="edge11" class="edge">
<title>N280653&#45;&gt;N280654</title>
<path fill="none" stroke="#000000" d="M327.4928,-647.8314C327.4928,-640.131 327.4928,-630.9743 327.4928,-622.4166"/>
<polygon fill="#000000" stroke="#000000" points="330.9929,-622.4132 327.4928,-612.4133 323.9929,-622.4133 330.9929,-622.4132"/>
</g>
<!-- N280655 -->
<g id="node13" class="node">
<title>N280655</title>
<ellipse fill="none" stroke="#000000" stroke-dasharray="5,2" cx="265.4928" cy="-522" rx="52.735" ry="18"/>
<text text-anchor="middle" x="265.4928" y="-517.8" font-family="Times,serif" font-size="14.00" fill="#000000">domingo...</text>
</g>
<!-- N280654&#45;&gt;N280655 -->
<g id="edge12" class="edge">
<title>N280654&#45;&gt;N280655</title>
<path fill="none" stroke="#000000" d="M314.0397,-578.3771C306.1499,-569.2148 295.9991,-557.4268 287.0209,-547.0005"/>
<polygon fill="#000000" stroke="#000000" points="289.6182,-544.6528 280.4407,-539.3589 284.3138,-549.2205 289.6182,-544.6528"/>
</g>
<!-- N280664 -->
<g id="node30" class="node">
<title>N280664</title>
<ellipse fill="#d3d3d3" stroke="#000000" cx="390.4928" cy="-522" rx="54.4855" ry="18"/>
<text text-anchor="middle" x="390.4928" y="-517.8" font-family="Times,serif" font-size="14.00" fill="#000000">0.671148...</text>
</g>
<!-- N280654&#45;&gt;N280664 -->
<g id="edge29" class="edge">
<title>N280654&#45;&gt;N280664</title>
<path fill="none" stroke="#000000" d="M341.1628,-578.3771C349.1798,-569.2148 359.4943,-557.4268 368.6173,-547.0005"/>
<polygon fill="#000000" stroke="#000000" points="371.3527,-549.1895 375.3037,-539.3589 366.0846,-544.5799 371.3527,-549.1895"/>
</g>
<!-- N280627 -->
<g id="node14" class="node">
<title>N280627</title>
<ellipse fill="none" stroke="#000000" cx="265.4928" cy="-450" rx="27" ry="18"/>
<text text-anchor="middle" x="265.4928" y="-445.8" font-family="Times,serif" font-size="14.00" fill="#000000">sub</text>
</g>
<!-- N280655&#45;&gt;N280627 -->
<g id="edge13" class="edge">
<title>N280655&#45;&gt;N280627</title>
<path fill="none" stroke="#000000" d="M265.4928,-503.8314C265.4928,-496.131 265.4928,-486.9743 265.4928,-478.4166"/>
<polygon fill="#000000" stroke="#000000" points="268.9929,-478.4132 265.4928,-468.4133 261.9929,-478.4133 268.9929,-478.4132"/>
</g>
<!-- N280628 -->
<g id="node15" class="node">
<title>N280628</title>
<ellipse fill="#d3d3d3" stroke="#000000" cx="216.4928" cy="-378" rx="52.735" ry="18"/>
<text text-anchor="middle" x="216.4928" y="-373.8" font-family="Times,serif" font-size="14.00" fill="#000000">domingo...</text>
</g>
<!-- N280627&#45;&gt;N280628 -->
<g id="edge14" class="edge">
<title>N280627&#45;&gt;N280628</title>
<path fill="none" stroke="#000000" d="M254.128,-433.3008C248.2404,-424.6496 240.916,-413.8873 234.2977,-404.1623"/>
<polygon fill="#000000" stroke="#000000" points="236.9993,-401.9111 228.4795,-395.6132 231.2123,-405.8495 236.9993,-401.9111"/>
</g>
<!-- N280638 -->
<g id="node25" class="node">
<title>N280638</title>
<ellipse fill="#d3d3d3" stroke="#000000" cx="327.4928" cy="-378" rx="27" ry="18"/>
<text text-anchor="middle" x="327.4928" y="-373.8" font-family="Times,serif" font-size="14.00" fill="#000000">sub</text>
</g>
<!-- N280627&#45;&gt;N280638 -->
<g id="edge24" class="edge">
<title>N280627&#45;&gt;N280638</title>
<path fill="none" stroke="#000000" d="M278.9458,-434.3771C287.1194,-424.8852 297.7196,-412.5753 306.9287,-401.8808"/>
<polygon fill="#000000" stroke="#000000" points="309.7636,-403.9525 313.6366,-394.091 304.4592,-399.3848 309.7636,-403.9525"/>
</g>
<!-- N280629 -->
<g id="node16" class="node">
<title>N280629</title>
<ellipse fill="#d3d3d3" stroke="#000000" cx="202.4928" cy="-306" rx="52.735" ry="18"/>
<text text-anchor="middle" x="202.4928" y="-301.8" font-family="Times,serif" font-size="14.00" fill="#000000">domingo...</text>
</g>
<!-- N280628&#45;&gt;N280629 -->
<g id="edge15" class="edge">
<title>N280628&#45;&gt;N280629</title>
<path fill="none" stroke="#000000" d="M212.96,-359.8314C211.4627,-352.131 209.6822,-342.9743 208.0182,-334.4166"/>
<polygon fill="#000000" stroke="#000000" points="211.4175,-333.5614 206.0731,-324.4133 204.5462,-334.8975 211.4175,-333.5614"/>
</g>
<!-- N280630 -->
<g id="node17" class="node">
<title>N280630</title>
<ellipse fill="#d3d3d3" stroke="#000000" cx="202.4928" cy="-234" rx="52.735" ry="18"/>
<text text-anchor="middle" x="202.4928" y="-229.8" font-family="Times,serif" font-size="14.00" fill="#000000">domingo...</text>
</g>
<!-- N280629&#45;&gt;N280630 -->
<g id="edge16" class="edge">
<title>N280629&#45;&gt;N280630</title>
<path fill="none" stroke="#000000" d="M202.4928,-287.8314C202.4928,-280.131 202.4928,-270.9743 202.4928,-262.4166"/>
<polygon fill="#000000" stroke="#000000" points="205.9929,-262.4132 202.4928,-252.4133 198.9929,-262.4133 205.9929,-262.4132"/>
</g>
<!-- N280631 -->
<g id="node18" class="node">
<title>N280631</title>
<ellipse fill="#d3d3d3" stroke="#000000" cx="202.4928" cy="-162" rx="27" ry="18"/>
<text text-anchor="middle" x="202.4928" y="-157.8" font-family="Times,serif" font-size="14.00" fill="#000000">sub</text>
</g>
<!-- N280630&#45;&gt;N280631 -->
<g id="edge17" class="edge">
<title>N280630&#45;&gt;N280631</title>
<path fill="none" stroke="#000000" d="M202.4928,-215.8314C202.4928,-208.131 202.4928,-198.9743 202.4928,-190.4166"/>
<polygon fill="#000000" stroke="#000000" points="205.9929,-190.4132 202.4928,-180.4133 198.9929,-190.4133 205.9929,-190.4132"/>
</g>
<!-- N280632 -->
<g id="node19" class="node">
<title>N280632</title>
<ellipse fill="#d3d3d3" stroke="#000000" cx="153.4928" cy="-90" rx="27" ry="18"/>
<text text-anchor="middle" x="153.4928" y="-85.8" font-family="Times,serif" font-size="14.00" fill="#000000">sub</text>
</g>
<!-- N280631&#45;&gt;N280632 -->
<g id="edge18" class="edge">
<title>N280631&#45;&gt;N280632</title>
<path fill="none" stroke="#000000" d="M191.128,-145.3008C185.0054,-136.3043 177.329,-125.0247 170.5086,-115.0029"/>
<polygon fill="#000000" stroke="#000000" points="173.3157,-112.9066 164.7959,-106.6087 167.5287,-116.845 173.3157,-112.9066"/>
</g>
<!-- N280635 -->
<g id="node22" class="node">
<title>N280635</title>
<ellipse fill="#d3d3d3" stroke="#000000" cx="252.4928" cy="-90" rx="27" ry="18"/>
<text text-anchor="middle" x="252.4928" y="-85.8" font-family="Times,serif" font-size="14.00" fill="#000000">mul</text>
</g>
<!-- N280631&#45;&gt;N280635 -->
<g id="edge21" class="edge">
<title>N280631&#45;&gt;N280635</title>
<path fill="none" stroke="#000000" d="M213.8385,-145.6621C220.0783,-136.6768 227.955,-125.3343 234.9676,-115.2362"/>
<polygon fill="#000000" stroke="#000000" points="238.0157,-116.983 240.8449,-106.7729 232.2661,-112.9902 238.0157,-116.983"/>
</g>
<!-- N280633 -->
<g id="node20" class="node">
<title>N280633</title>
<ellipse fill="#d3d3d3" stroke="#000000" cx="54.4928" cy="-18" rx="27" ry="18"/>
<text text-anchor="middle" x="54.4928" y="-13.8" font-family="Times,serif" font-size="14.00" fill="#000000">d</text>
</g>
<!-- N280632&#45;&gt;N280633 -->
<g id="edge19" class="edge">
<title>N280632&#45;&gt;N280633</title>
<path fill="none" stroke="#000000" d="M134.8716,-76.4574C119.7993,-65.4956 98.3673,-49.9088 81.424,-37.5864"/>
<polygon fill="#000000" stroke="#000000" points="83.1764,-34.5331 73.0304,-31.4819 79.0592,-40.1943 83.1764,-34.5331"/>
</g>
<!-- N280634 -->
<g id="node21" class="node">
<title>N280634</title>
<ellipse fill="#d3d3d3" stroke="#000000" cx="153.4928" cy="-18" rx="54.4855" ry="18"/>
<text text-anchor="middle" x="153.4928" y="-13.8" font-family="Times,serif" font-size="14.00" fill="#000000">0.671148...</text>
</g>
<!-- N280632&#45;&gt;N280634 -->
<g id="edge20" class="edge">
<title>N280632&#45;&gt;N280634</title>
<path fill="none" stroke="#000000" d="M153.4928,-71.8314C153.4928,-64.131 153.4928,-54.9743 153.4928,-46.4166"/>
<polygon fill="#000000" stroke="#000000" points="156.9929,-46.4132 153.4928,-36.4133 149.9929,-46.4133 156.9929,-46.4132"/>
</g>
<!-- N280636 -->
<g id="node23" class="node">
<title>N280636</title>
<ellipse fill="#d3d3d3" stroke="#000000" cx="252.4928" cy="-18" rx="27" ry="18"/>
<text text-anchor="middle" x="252.4928" y="-13.8" font-family="Times,serif" font-size="14.00" fill="#000000">d</text>
</g>
<!-- N280635&#45;&gt;N280636 -->
<g id="edge22" class="edge">
<title>N280635&#45;&gt;N280636</title>
<path fill="none" stroke="#000000" d="M252.4928,-71.8314C252.4928,-64.131 252.4928,-54.9743 252.4928,-46.4166"/>
<polygon fill="#000000" stroke="#000000" points="255.9929,-46.4132 252.4928,-36.4133 248.9929,-46.4133 255.9929,-46.4132"/>
</g>
<!-- N280637 -->
<g id="node24" class="node">
<title>N280637</title>
<ellipse fill="#d3d3d3" stroke="#000000" cx="351.4928" cy="-18" rx="54.4855" ry="18"/>
<text text-anchor="middle" x="351.4928" y="-13.8" font-family="Times,serif" font-size="14.00" fill="#000000">0.213366...</text>
</g>
<!-- N280635&#45;&gt;N280637 -->
<g id="edge23" class="edge">
<title>N280635&#45;&gt;N280637</title>
<path fill="none" stroke="#000000" d="M271.1139,-76.4574C285.0415,-66.3282 304.3994,-52.2497 320.6281,-40.447"/>
<polygon fill="#000000" stroke="#000000" points="322.7553,-43.2278 328.784,-34.5154 318.638,-37.5666 322.7553,-43.2278"/>
</g>
<!-- N280639 -->
<g id="node26" class="node">
<title>N280639</title>
<ellipse fill="#d3d3d3" stroke="#000000" cx="327.4928" cy="-306" rx="54.4855" ry="18"/>
<text text-anchor="middle" x="327.4928" y="-301.8" font-family="Times,serif" font-size="14.00" fill="#000000">0.203069...</text>
</g>
<!-- N280638&#45;&gt;N280639 -->
<g id="edge25" class="edge">
<title>N280638&#45;&gt;N280639</title>
<path fill="none" stroke="#000000" d="M327.4928,-359.8314C327.4928,-352.131 327.4928,-342.9743 327.4928,-334.4166"/>
<polygon fill="#000000" stroke="#000000" points="330.9929,-334.4132 327.4928,-324.4133 323.9929,-334.4133 330.9929,-334.4132"/>
</g>
<!-- N280640 -->
<g id="node27" class="node">
<title>N280640</title>
<ellipse fill="#d3d3d3" stroke="#000000" cx="426.4928" cy="-306" rx="27" ry="18"/>
<text text-anchor="middle" x="426.4928" y="-301.8" font-family="Times,serif" font-size="14.00" fill="#000000">sub</text>
</g>
<!-- N280638&#45;&gt;N280640 -->
<g id="edge26" class="edge">
<title>N280638&#45;&gt;N280640</title>
<path fill="none" stroke="#000000" d="M346.1139,-364.4574C361.1862,-353.4956 382.6182,-337.9088 399.5615,-325.5864"/>
<polygon fill="#000000" stroke="#000000" points="401.9263,-328.1943 407.9551,-319.4819 397.8091,-322.5331 401.9263,-328.1943"/>
</g>
<!-- N280641 -->
<g id="node28" class="node">
<title>N280641</title>
<ellipse fill="#d3d3d3" stroke="#000000" cx="376.4928" cy="-234" rx="54.4855" ry="18"/>
<text text-anchor="middle" x="376.4928" y="-229.8" font-family="Times,serif" font-size="14.00" fill="#000000">0.744679...</text>
</g>
<!-- N280640&#45;&gt;N280641 -->
<g id="edge27" class="edge">
<title>N280640&#45;&gt;N280641</title>
<path fill="none" stroke="#000000" d="M415.147,-289.6621C409.0855,-280.9336 401.4793,-269.9805 394.621,-260.1047"/>
<polygon fill="#000000" stroke="#000000" points="397.4231,-258.0035 388.8443,-251.7862 391.6735,-261.9963 397.4231,-258.0035"/>
</g>
<!-- N280642 -->
<g id="node29" class="node">
<title>N280642</title>
<ellipse fill="#d3d3d3" stroke="#000000" cx="503.4928" cy="-234" rx="54.4855" ry="18"/>
<text text-anchor="middle" x="503.4928" y="-229.8" font-family="Times,serif" font-size="14.00" fill="#000000">0.396588...</text>
</g>
<!-- N280640&#45;&gt;N280642 -->
<g id="edge28" class="edge">
<title>N280640&#45;&gt;N280642</title>
<path fill="none" stroke="#000000" d="M442.4472,-291.0816C452.6373,-281.5532 466.0809,-268.9825 477.7579,-258.0638"/>
<polygon fill="#000000" stroke="#000000" points="480.2105,-260.5622 485.1243,-251.1757 475.4295,-255.4492 480.2105,-260.5622"/>
</g>
<!-- N280666 -->
<g id="node32" class="node">
<title>N280666</title>
<ellipse fill="#d3d3d3" stroke="#000000" cx="452.4928" cy="-666" rx="54.4855" ry="18"/>
<text text-anchor="middle" x="452.4928" y="-661.8" font-family="Times,serif" font-size="14.00" fill="#000000">0.203069...</text>
</g>
<!-- N280665&#45;&gt;N280666 -->
<g id="edge31" class="edge">
<title>N280665&#45;&gt;N280666</title>
<path fill="none" stroke="#000000" d="M452.4928,-719.8314C452.4928,-712.131 452.4928,-702.9743 452.4928,-694.4166"/>
<polygon fill="#000000" stroke="#000000" points="455.9929,-694.4132 452.4928,-684.4133 448.9929,-694.4133 455.9929,-694.4132"/>
</g>
<!-- N280667 -->
<g id="node33" class="node">
<title>N280667</title>
<ellipse fill="#d3d3d3" stroke="#000000" cx="551.4928" cy="-666" rx="27" ry="18"/>
<text text-anchor="middle" x="551.4928" y="-661.8" font-family="Times,serif" font-size="14.00" fill="#000000">sub</text>
</g>
<!-- N280665&#45;&gt;N280667 -->
<g id="edge32" class="edge">
<title>N280665&#45;&gt;N280667</title>
<path fill="none" stroke="#000000" d="M471.1139,-724.4574C486.1862,-713.4956 507.6182,-697.9088 524.5615,-685.5864"/>
<polygon fill="#000000" stroke="#000000" points="526.9263,-688.1943 532.9551,-679.4819 522.8091,-682.5331 526.9263,-688.1943"/>
</g>
<!-- N280668 -->
<g id="node34" class="node">
<title>N280668</title>
<ellipse fill="#d3d3d3" stroke="#000000" cx="488.4928" cy="-594" rx="54.4855" ry="18"/>
<text text-anchor="middle" x="488.4928" y="-589.8" font-family="Times,serif" font-size="14.00" fill="#000000">0.744679...</text>
</g>
<!-- N280667&#45;&gt;N280668 -->
<g id="edge33" class="edge">
<title>N280667&#45;&gt;N280668</title>
<path fill="none" stroke="#000000" d="M537.8227,-650.3771C529.8057,-641.2148 519.4912,-629.4268 510.3682,-619.0005"/>
<polygon fill="#000000" stroke="#000000" points="512.9009,-616.5799 503.6818,-611.3589 507.6329,-621.1895 512.9009,-616.5799"/>
</g>
<!-- N280669 -->
<g id="node35" class="node">
<title>N280669</title>
<ellipse fill="#d3d3d3" stroke="#000000" cx="615.4928" cy="-594" rx="54.4855" ry="18"/>
<text text-anchor="middle" x="615.4928" y="-589.8" font-family="Times,serif" font-size="14.00" fill="#000000">0.396588...</text>
</g>
<!-- N280667&#45;&gt;N280669 -->
<g id="edge34" class="edge">
<title>N280667&#45;&gt;N280669</title>
<path fill="none" stroke="#000000" d="M565.3798,-650.3771C573.5241,-641.2148 584.0023,-629.4268 593.2701,-619.0005"/>
<polygon fill="#000000" stroke="#000000" points="596.0349,-621.1583 600.0626,-611.3589 590.803,-616.5077 596.0349,-621.1583"/>
</g>
</g>
</svg>
