<?xml version="1.0" encoding="UTF-8" standalone="no"?>
<!DOCTYPE svg PUBLIC "-//W3C//DTD SVG 1.1//EN"
 "http://www.w3.org/Graphics/SVG/1.1/DTD/svg11.dtd">
<!-- Generated by graphviz version 2.40.1 (20161225.0304)
 -->
<!-- Title: G2366929 Pages: 1 -->
<svg width="863pt" height="764pt"
 viewBox="0.00 0.00 862.99 764.00" xmlns="http://www.w3.org/2000/svg" xmlns:xlink="http://www.w3.org/1999/xlink">
<g id="graph0" class="graph" transform="scale(1 1) rotate(0) translate(4 760)">
<title>G2366929</title>
<polygon fill="#ffffff" stroke="transparent" points="-4,4 -4,-760 858.9855,-760 858.9855,4 -4,4"/>
<!-- N2366929 -->
<g id="node1" class="node">
<title>N2366929</title>
<ellipse fill="#d3d3d3" stroke="#000000" cx="363.4928" cy="-738" rx="59.0998" ry="18"/>
<text text-anchor="middle" x="363.4928" y="-733.8" font-family="Times,serif" font-size="14.00" fill="#000000">N2366929...</text>
</g>
<!-- N2366930 -->
<g id="node2" class="node">
<title>N2366930</title>
<ellipse fill="none" stroke="#000000" stroke-dasharray="5,2" cx="363.4928" cy="-666" rx="27" ry="18"/>
<text text-anchor="middle" x="363.4928" y="-661.8" font-family="Times,serif" font-size="14.00" fill="#000000">add</text>
</g>
<!-- N2366929&#45;&gt;N2366930 -->
<g id="edge1" class="edge">
<title>N2366929&#45;&gt;N2366930</title>
<path fill="none" stroke="#000000" d="M363.4928,-719.8314C363.4928,-712.131 363.4928,-702.9743 363.4928,-694.4166"/>
<polygon fill="#000000" stroke="#000000" points="366.9929,-694.4132 363.4928,-684.4133 359.9929,-694.4133 366.9929,-694.4132"/>
</g>
<!-- N2366931 -->
<g id="node3" class="node">
<title>N2366931</title>
<ellipse fill="#d3d3d3" stroke="#000000" cx="327.4928" cy="-594" rx="27" ry="18"/>
<text text-anchor="middle" x="327.4928" y="-589.8" font-family="Times,serif" font-size="14.00" fill="#000000">add</text>
</g>
<!-- N2366930&#45;&gt;N2366931 -->
<g id="edge2" class="edge">
<title>N2366930&#45;&gt;N2366931</title>
<path fill="none" stroke="#000000" d="M354.7782,-648.5708C350.5331,-640.0807 345.3392,-629.6929 340.6265,-620.2674"/>
<polygon fill="#000000" stroke="#000000" points="343.7298,-618.6477 336.1271,-611.2687 337.4688,-621.7782 343.7298,-618.6477"/>
</g>
<!-- N2366914 -->
<g id="node26" class="node">
<title>N2366914</title>
<ellipse fill="none" stroke="#000000" cx="461.4928" cy="-594" rx="27" ry="18"/>
<text text-anchor="middle" x="461.4928" y="-589.8" font-family="Times,serif" font-size="14.00" fill="#000000">SIN</text>
</g>
<!-- N2366930&#45;&gt;N2366914 -->
<g id="edge25" class="edge">
<title>N2366930&#45;&gt;N2366914</title>
<path fill="none" stroke="#000000" d="M381.9258,-652.4574C396.8459,-641.4956 418.0614,-625.9088 434.8335,-613.5864"/>
<polygon fill="#000000" stroke="#000000" points="437.1558,-616.2233 443.1424,-607.4819 433.0112,-610.5821 437.1558,-616.2233"/>
</g>
<!-- N2366932 -->
<g id="node4" class="node">
<title>N2366932</title>
<ellipse fill="#d3d3d3" stroke="#000000" cx="216.4928" cy="-522" rx="27" ry="18"/>
<text text-anchor="middle" x="216.4928" y="-517.8" font-family="Times,serif" font-size="14.00" fill="#000000">SIN</text>
</g>
<!-- N2366931&#45;&gt;N2366932 -->
<g id="edge3" class="edge">
<title>N2366931&#45;&gt;N2366932</title>
<path fill="none" stroke="#000000" d="M307.9037,-581.2936C290.3088,-569.8807 264.2752,-552.994 244.4861,-540.1579"/>
<polygon fill="#000000" stroke="#000000" points="246.1803,-537.085 235.886,-534.5794 242.3709,-542.9577 246.1803,-537.085"/>
</g>
<!-- N2366938 -->
<g id="node10" class="node">
<title>N2366938</title>
<ellipse fill="#d3d3d3" stroke="#000000" cx="327.4928" cy="-522" rx="52.735" ry="18"/>
<text text-anchor="middle" x="327.4928" y="-517.8" font-family="Times,serif" font-size="14.00" fill="#000000">domingo...</text>
</g>
<!-- N2366931&#45;&gt;N2366938 -->
<g id="edge9" class="edge">
<title>N2366931&#45;&gt;N2366938</title>
<path fill="none" stroke="#000000" d="M327.4928,-575.8314C327.4928,-568.131 327.4928,-558.9743 327.4928,-550.4166"/>
<polygon fill="#000000" stroke="#000000" points="330.9929,-550.4132 327.4928,-540.4133 323.9929,-550.4133 330.9929,-550.4132"/>
</g>
<!-- N2366933 -->
<g id="node5" class="node">
<title>N2366933</title>
<ellipse fill="#d3d3d3" stroke="#000000" cx="153.4928" cy="-450" rx="27" ry="18"/>
<text text-anchor="middle" x="153.4928" y="-445.8" font-family="Times,serif" font-size="14.00" fill="#000000">sub</text>
</g>
<!-- N2366932&#45;&gt;N2366933 -->
<g id="edge4" class="edge">
<title>N2366932&#45;&gt;N2366933</title>
<path fill="none" stroke="#000000" d="M202.8227,-506.3771C194.3194,-496.659 183.2314,-483.987 173.722,-473.1191"/>
<polygon fill="#000000" stroke="#000000" points="176.3552,-470.8135 167.1361,-465.5924 171.0872,-475.423 176.3552,-470.8135"/>
</g>
<!-- N2366934 -->
<g id="node6" class="node">
<title>N2366934</title>
<ellipse fill="#d3d3d3" stroke="#000000" cx="54.4928" cy="-378" rx="27" ry="18"/>
<text text-anchor="middle" x="54.4928" y="-373.8" font-family="Times,serif" font-size="14.00" fill="#000000">SIN</text>
</g>
<!-- N2366933&#45;&gt;N2366934 -->
<g id="edge5" class="edge">
<title>N2366933&#45;&gt;N2366934</title>
<path fill="none" stroke="#000000" d="M134.8716,-436.4574C119.7993,-425.4956 98.3673,-409.9088 81.424,-397.5864"/>
<polygon fill="#000000" stroke="#000000" points="83.1764,-394.5331 73.0304,-391.4819 79.0592,-400.1943 83.1764,-394.5331"/>
</g>
<!-- N2366937 -->
<g id="node9" class="node">
<title>N2366937</title>
<ellipse fill="#d3d3d3" stroke="#000000" cx="153.4928" cy="-378" rx="54.4855" ry="18"/>
<text text-anchor="middle" x="153.4928" y="-373.8" font-family="Times,serif" font-size="14.00" fill="#000000">0.486020...</text>
</g>
<!-- N2366933&#45;&gt;N2366937 -->
<g id="edge8" class="edge">
<title>N2366933&#45;&gt;N2366937</title>
<path fill="none" stroke="#000000" d="M153.4928,-431.8314C153.4928,-424.131 153.4928,-414.9743 153.4928,-406.4166"/>
<polygon fill="#000000" stroke="#000000" points="156.9929,-406.4132 153.4928,-396.4133 149.9929,-406.4133 156.9929,-406.4132"/>
</g>
<!-- N2366935 -->
<g id="node7" class="node">
<title>N2366935</title>
<ellipse fill="#d3d3d3" stroke="#000000" cx="54.4928" cy="-306" rx="27" ry="18"/>
<text text-anchor="middle" x="54.4928" y="-301.8" font-family="Times,serif" font-size="14.00" fill="#000000">SIN</text>
</g>
<!-- N2366934&#45;&gt;N2366935 -->
<g id="edge6" class="edge">
<title>N2366934&#45;&gt;N2366935</title>
<path fill="none" stroke="#000000" d="M54.4928,-359.8314C54.4928,-352.131 54.4928,-342.9743 54.4928,-334.4166"/>
<polygon fill="#000000" stroke="#000000" points="57.9929,-334.4132 54.4928,-324.4133 50.9929,-334.4133 57.9929,-334.4132"/>
</g>
<!-- N2366936 -->
<g id="node8" class="node">
<title>N2366936</title>
<ellipse fill="#d3d3d3" stroke="#000000" cx="54.4928" cy="-234" rx="54.4855" ry="18"/>
<text text-anchor="middle" x="54.4928" y="-229.8" font-family="Times,serif" font-size="14.00" fill="#000000">0.164262...</text>
</g>
<!-- N2366935&#45;&gt;N2366936 -->
<g id="edge7" class="edge">
<title>N2366935&#45;&gt;N2366936</title>
<path fill="none" stroke="#000000" d="M54.4928,-287.8314C54.4928,-280.131 54.4928,-270.9743 54.4928,-262.4166"/>
<polygon fill="#000000" stroke="#000000" points="57.9929,-262.4132 54.4928,-252.4133 50.9929,-262.4133 57.9929,-262.4132"/>
</g>
<!-- N2366939 -->
<g id="node11" class="node">
<title>N2366939</title>
<ellipse fill="#d3d3d3" stroke="#000000" cx="327.4928" cy="-450" rx="27" ry="18"/>
<text text-anchor="middle" x="327.4928" y="-445.8" font-family="Times,serif" font-size="14.00" fill="#000000">mul</text>
</g>
<!-- N2366938&#45;&gt;N2366939 -->
<g id="edge10" class="edge">
<title>N2366938&#45;&gt;N2366939</title>
<path fill="none" stroke="#000000" d="M327.4928,-503.8314C327.4928,-496.131 327.4928,-486.9743 327.4928,-478.4166"/>
<polygon fill="#000000" stroke="#000000" points="330.9929,-478.4132 327.4928,-468.4133 323.9929,-478.4133 330.9929,-478.4132"/>
</g>
<!-- N2366940 -->
<g id="node12" class="node">
<title>N2366940</title>
<ellipse fill="#d3d3d3" stroke="#000000" cx="278.4928" cy="-378" rx="52.735" ry="18"/>
<text text-anchor="middle" x="278.4928" y="-373.8" font-family="Times,serif" font-size="14.00" fill="#000000">domingo...</text>
</g>
<!-- N2366939&#45;&gt;N2366940 -->
<g id="edge11" class="edge">
<title>N2366939&#45;&gt;N2366940</title>
<path fill="none" stroke="#000000" d="M316.128,-433.3008C310.2404,-424.6496 302.916,-413.8873 296.2977,-404.1623"/>
<polygon fill="#000000" stroke="#000000" points="298.9993,-401.9111 290.4795,-395.6132 293.2123,-405.8495 298.9993,-401.9111"/>
</g>
<!-- N2366944 -->
<g id="node16" class="node">
<title>N2366944</title>
<ellipse fill="#d3d3d3" stroke="#000000" cx="376.4928" cy="-378" rx="27" ry="18"/>
<text text-anchor="middle" x="376.4928" y="-373.8" font-family="Times,serif" font-size="14.00" fill="#000000">SIN</text>
</g>
<!-- N2366939&#45;&gt;N2366944 -->
<g id="edge15" class="edge">
<title>N2366939&#45;&gt;N2366944</title>
<path fill="none" stroke="#000000" d="M338.8575,-433.3008C344.9801,-424.3043 352.6565,-413.0247 359.4769,-403.0029"/>
<polygon fill="#000000" stroke="#000000" points="362.4569,-404.845 365.1896,-394.6087 356.6699,-400.9066 362.4569,-404.845"/>
</g>
<!-- N2366941 -->
<g id="node13" class="node">
<title>N2366941</title>
<ellipse fill="#d3d3d3" stroke="#000000" cx="265.4928" cy="-306" rx="27" ry="18"/>
<text text-anchor="middle" x="265.4928" y="-301.8" font-family="Times,serif" font-size="14.00" fill="#000000">mul</text>
</g>
<!-- N2366940&#45;&gt;N2366941 -->
<g id="edge12" class="edge">
<title>N2366940&#45;&gt;N2366941</title>
<path fill="none" stroke="#000000" d="M275.2123,-359.8314C273.8006,-352.0125 272.1178,-342.6923 270.5523,-334.0221"/>
<polygon fill="#000000" stroke="#000000" points="273.9483,-333.1324 268.7271,-323.9134 267.0597,-334.3762 273.9483,-333.1324"/>
</g>
<!-- N2366942 -->
<g id="node14" class="node">
<title>N2366942</title>
<ellipse fill="#d3d3d3" stroke="#000000" cx="166.4928" cy="-234" rx="27" ry="18"/>
<text text-anchor="middle" x="166.4928" y="-229.8" font-family="Times,serif" font-size="14.00" fill="#000000">d</text>
</g>
<!-- N2366941&#45;&gt;N2366942 -->
<g id="edge13" class="edge">
<title>N2366941&#45;&gt;N2366942</title>
<path fill="none" stroke="#000000" d="M246.8716,-292.4574C231.7993,-281.4956 210.3673,-265.9088 193.424,-253.5864"/>
<polygon fill="#000000" stroke="#000000" points="195.1764,-250.5331 185.0304,-247.4819 191.0592,-256.1943 195.1764,-250.5331"/>
</g>
<!-- N2366943 -->
<g id="node15" class="node">
<title>N2366943</title>
<ellipse fill="#d3d3d3" stroke="#000000" cx="265.4928" cy="-234" rx="54.4855" ry="18"/>
<text text-anchor="middle" x="265.4928" y="-229.8" font-family="Times,serif" font-size="14.00" fill="#000000">0.737516...</text>
</g>
<!-- N2366941&#45;&gt;N2366943 -->
<g id="edge14" class="edge">
<title>N2366941&#45;&gt;N2366943</title>
<path fill="none" stroke="#000000" d="M265.4928,-287.8314C265.4928,-280.131 265.4928,-270.9743 265.4928,-262.4166"/>
<polygon fill="#000000" stroke="#000000" points="268.9929,-262.4132 265.4928,-252.4133 261.9929,-262.4133 268.9929,-262.4132"/>
</g>
<!-- N2366945 -->
<g id="node17" class="node">
<title>N2366945</title>
<ellipse fill="#d3d3d3" stroke="#000000" cx="376.4928" cy="-306" rx="27" ry="18"/>
<text text-anchor="middle" x="376.4928" y="-301.8" font-family="Times,serif" font-size="14.00" fill="#000000">SIN</text>
</g>
<!-- N2366944&#45;&gt;N2366945 -->
<g id="edge16" class="edge">
<title>N2366944&#45;&gt;N2366945</title>
<path fill="none" stroke="#000000" d="M376.4928,-359.8314C376.4928,-352.131 376.4928,-342.9743 376.4928,-334.4166"/>
<polygon fill="#000000" stroke="#000000" points="379.9929,-334.4132 376.4928,-324.4133 372.9929,-334.4133 379.9929,-334.4132"/>
</g>
<!-- N2366946 -->
<g id="node18" class="node">
<title>N2366946</title>
<ellipse fill="#d3d3d3" stroke="#000000" cx="390.4928" cy="-234" rx="52.735" ry="18"/>
<text text-anchor="middle" x="390.4928" y="-229.8" font-family="Times,serif" font-size="14.00" fill="#000000">domingo...</text>
</g>
<!-- N2366945&#45;&gt;N2366946 -->
<g id="edge17" class="edge">
<title>N2366945&#45;&gt;N2366946</title>
<path fill="none" stroke="#000000" d="M380.0255,-287.8314C381.5229,-280.131 383.3033,-270.9743 384.9673,-262.4166"/>
<polygon fill="#000000" stroke="#000000" points="388.4393,-262.8975 386.9124,-252.4133 381.568,-261.5614 388.4393,-262.8975"/>
</g>
<!-- N2366947 -->
<g id="node19" class="node">
<title>N2366947</title>
<ellipse fill="#d3d3d3" stroke="#000000" cx="390.4928" cy="-162" rx="27" ry="18"/>
<text text-anchor="middle" x="390.4928" y="-157.8" font-family="Times,serif" font-size="14.00" fill="#000000">mul</text>
</g>
<!-- N2366946&#45;&gt;N2366947 -->
<g id="edge18" class="edge">
<title>N2366946&#45;&gt;N2366947</title>
<path fill="none" stroke="#000000" d="M390.4928,-215.8314C390.4928,-208.131 390.4928,-198.9743 390.4928,-190.4166"/>
<polygon fill="#000000" stroke="#000000" points="393.9929,-190.4132 390.4928,-180.4133 386.9929,-190.4133 393.9929,-190.4132"/>
</g>
<!-- N2366948 -->
<g id="node20" class="node">
<title>N2366948</title>
<ellipse fill="#d3d3d3" stroke="#000000" cx="341.4928" cy="-90" rx="27" ry="18"/>
<text text-anchor="middle" x="341.4928" y="-85.8" font-family="Times,serif" font-size="14.00" fill="#000000">add</text>
</g>
<!-- N2366947&#45;&gt;N2366948 -->
<g id="edge19" class="edge">
<title>N2366947&#45;&gt;N2366948</title>
<path fill="none" stroke="#000000" d="M379.128,-145.3008C373.0054,-136.3043 365.329,-125.0247 358.5086,-115.0029"/>
<polygon fill="#000000" stroke="#000000" points="361.3157,-112.9066 352.7959,-106.6087 355.5287,-116.845 361.3157,-112.9066"/>
</g>
<!-- N2366951 -->
<g id="node23" class="node">
<title>N2366951</title>
<ellipse fill="#d3d3d3" stroke="#000000" cx="440.4928" cy="-90" rx="27" ry="18"/>
<text text-anchor="middle" x="440.4928" y="-85.8" font-family="Times,serif" font-size="14.00" fill="#000000">mul</text>
</g>
<!-- N2366947&#45;&gt;N2366951 -->
<g id="edge22" class="edge">
<title>N2366947&#45;&gt;N2366951</title>
<path fill="none" stroke="#000000" d="M401.8385,-145.6621C408.0783,-136.6768 415.955,-125.3343 422.9676,-115.2362"/>
<polygon fill="#000000" stroke="#000000" points="426.0157,-116.983 428.8449,-106.7729 420.2661,-112.9902 426.0157,-116.983"/>
</g>
<!-- N2366949 -->
<g id="node21" class="node">
<title>N2366949</title>
<ellipse fill="#d3d3d3" stroke="#000000" cx="242.4928" cy="-18" rx="54.4855" ry="18"/>
<text text-anchor="middle" x="242.4928" y="-13.8" font-family="Times,serif" font-size="14.00" fill="#000000">0.193423...</text>
</g>
<!-- N2366948&#45;&gt;N2366949 -->
<g id="edge20" class="edge">
<title>N2366948&#45;&gt;N2366949</title>
<path fill="none" stroke="#000000" d="M322.8716,-76.4574C308.944,-66.3282 289.5861,-52.2497 273.3575,-40.447"/>
<polygon fill="#000000" stroke="#000000" points="275.3475,-37.5666 265.2015,-34.5154 271.2302,-43.2278 275.3475,-37.5666"/>
</g>
<!-- N2366950 -->
<g id="node22" class="node">
<title>N2366950</title>
<ellipse fill="#d3d3d3" stroke="#000000" cx="341.4928" cy="-18" rx="27" ry="18"/>
<text text-anchor="middle" x="341.4928" y="-13.8" font-family="Times,serif" font-size="14.00" fill="#000000">w</text>
</g>
<!-- N2366948&#45;&gt;N2366950 -->
<g id="edge21" class="edge">
<title>N2366948&#45;&gt;N2366950</title>
<path fill="none" stroke="#000000" d="M341.4928,-71.8314C341.4928,-64.131 341.4928,-54.9743 341.4928,-46.4166"/>
<polygon fill="#000000" stroke="#000000" points="344.9929,-46.4132 341.4928,-36.4133 337.9929,-46.4133 344.9929,-46.4132"/>
</g>
<!-- N2366952 -->
<g id="node24" class="node">
<title>N2366952</title>
<ellipse fill="#d3d3d3" stroke="#000000" cx="440.4928" cy="-18" rx="54.4855" ry="18"/>
<text text-anchor="middle" x="440.4928" y="-13.8" font-family="Times,serif" font-size="14.00" fill="#000000">0.555112...</text>
</g>
<!-- N2366951&#45;&gt;N2366952 -->
<g id="edge23" class="edge">
<title>N2366951&#45;&gt;N2366952</title>
<path fill="none" stroke="#000000" d="M440.4928,-71.8314C440.4928,-64.131 440.4928,-54.9743 440.4928,-46.4166"/>
<polygon fill="#000000" stroke="#000000" points="443.9929,-46.4132 440.4928,-36.4133 436.9929,-46.4133 443.9929,-46.4132"/>
</g>
<!-- N2366953 -->
<g id="node25" class="node">
<title>N2366953</title>
<ellipse fill="#d3d3d3" stroke="#000000" cx="567.4928" cy="-18" rx="54.4855" ry="18"/>
<text text-anchor="middle" x="567.4928" y="-13.8" font-family="Times,serif" font-size="14.00" fill="#000000">0.734902...</text>
</g>
<!-- N2366951&#45;&gt;N2366953 -->
<g id="edge24" class="edge">
<title>N2366951&#45;&gt;N2366953</title>
<path fill="none" stroke="#000000" d="M461.1802,-78.2717C479.96,-67.6249 508.0912,-51.6765 530.6994,-38.8592"/>
<polygon fill="#000000" stroke="#000000" points="532.7177,-41.7384 539.6908,-33.7618 529.2653,-35.6489 532.7177,-41.7384"/>
</g>
<!-- N2366915 -->
<g id="node27" class="node">
<title>N2366915</title>
<ellipse fill="#d3d3d3" stroke="#000000" cx="493.4928" cy="-522" rx="52.735" ry="18"/>
<text text-anchor="middle" x="493.4928" y="-517.8" font-family="Times,serif" font-size="14.00" fill="#000000">domingo...</text>
</g>
<!-- N2366914&#45;&gt;N2366915 -->
<g id="edge26" class="edge">
<title>N2366914&#45;&gt;N2366915</title>
<path fill="none" stroke="#000000" d="M469.2391,-576.5708C472.8908,-568.3544 477.3324,-558.3608 481.4118,-549.1821"/>
<polygon fill="#000000" stroke="#000000" points="484.6205,-550.5802 485.4836,-540.0206 478.2238,-547.7372 484.6205,-550.5802"/>
</g>
<!-- N2366916 -->
<g id="node28" class="node">
<title>N2366916</title>
<ellipse fill="#d3d3d3" stroke="#000000" cx="524.4928" cy="-450" rx="27" ry="18"/>
<text text-anchor="middle" x="524.4928" y="-445.8" font-family="Times,serif" font-size="14.00" fill="#000000">mul</text>
</g>
<!-- N2366915&#45;&gt;N2366916 -->
<g id="edge27" class="edge">
<title>N2366915&#45;&gt;N2366916</title>
<path fill="none" stroke="#000000" d="M501.3154,-503.8314C504.8455,-495.6323 509.0864,-485.7824 512.9701,-476.7624"/>
<polygon fill="#000000" stroke="#000000" points="516.2535,-477.9867 516.9935,-467.4177 509.8241,-475.2184 516.2535,-477.9867"/>
</g>
<!-- N2366917 -->
<g id="node29" class="node">
<title>N2366917</title>
<ellipse fill="#d3d3d3" stroke="#000000" cx="524.4928" cy="-378" rx="27" ry="18"/>
<text text-anchor="middle" x="524.4928" y="-373.8" font-family="Times,serif" font-size="14.00" fill="#000000">add</text>
</g>
<!-- N2366916&#45;&gt;N2366917 -->
<g id="edge28" class="edge">
<title>N2366916&#45;&gt;N2366917</title>
<path fill="none" stroke="#000000" d="M524.4928,-431.8314C524.4928,-424.131 524.4928,-414.9743 524.4928,-406.4166"/>
<polygon fill="#000000" stroke="#000000" points="527.9929,-406.4132 524.4928,-396.4133 520.9929,-406.4133 527.9929,-406.4132"/>
</g>
<!-- N2366920 -->
<g id="node32" class="node">
<title>N2366920</title>
<ellipse fill="#d3d3d3" stroke="#000000" cx="673.4928" cy="-378" rx="27" ry="18"/>
<text text-anchor="middle" x="673.4928" y="-373.8" font-family="Times,serif" font-size="14.00" fill="#000000">mul</text>
</g>
<!-- N2366916&#45;&gt;N2366920 -->
<g id="edge31" class="edge">
<title>N2366916&#45;&gt;N2366920</title>
<path fill="none" stroke="#000000" d="M546.4782,-439.3762C571.788,-427.1459 613.5506,-406.9654 642.2338,-393.105"/>
<polygon fill="#000000" stroke="#000000" points="643.936,-396.1697 651.4171,-388.6674 640.8904,-389.867 643.936,-396.1697"/>
</g>
<!-- N2366918 -->
<g id="node30" class="node">
<title>N2366918</title>
<ellipse fill="#d3d3d3" stroke="#000000" cx="475.4928" cy="-306" rx="54.4855" ry="18"/>
<text text-anchor="middle" x="475.4928" y="-301.8" font-family="Times,serif" font-size="14.00" fill="#000000">0.193423...</text>
</g>
<!-- N2366917&#45;&gt;N2366918 -->
<g id="edge29" class="edge">
<title>N2366917&#45;&gt;N2366918</title>
<path fill="none" stroke="#000000" d="M513.128,-361.3008C507.2404,-352.6496 499.916,-341.8873 493.2977,-332.1623"/>
<polygon fill="#000000" stroke="#000000" points="495.9993,-329.9111 487.4795,-323.6132 490.2123,-333.8495 495.9993,-329.9111"/>
</g>
<!-- N2366919 -->
<g id="node31" class="node">
<title>N2366919</title>
<ellipse fill="#d3d3d3" stroke="#000000" cx="574.4928" cy="-306" rx="27" ry="18"/>
<text text-anchor="middle" x="574.4928" y="-301.8" font-family="Times,serif" font-size="14.00" fill="#000000">w</text>
</g>
<!-- N2366917&#45;&gt;N2366919 -->
<g id="edge30" class="edge">
<title>N2366917&#45;&gt;N2366919</title>
<path fill="none" stroke="#000000" d="M535.8385,-361.6621C542.0783,-352.6768 549.955,-341.3343 556.9676,-331.2362"/>
<polygon fill="#000000" stroke="#000000" points="560.0157,-332.983 562.8449,-322.7729 554.2661,-328.9902 560.0157,-332.983"/>
</g>
<!-- N2366921 -->
<g id="node33" class="node">
<title>N2366921</title>
<ellipse fill="#d3d3d3" stroke="#000000" cx="673.4928" cy="-306" rx="54.4855" ry="18"/>
<text text-anchor="middle" x="673.4928" y="-301.8" font-family="Times,serif" font-size="14.00" fill="#000000">0.555112...</text>
</g>
<!-- N2366920&#45;&gt;N2366921 -->
<g id="edge32" class="edge">
<title>N2366920&#45;&gt;N2366921</title>
<path fill="none" stroke="#000000" d="M673.4928,-359.8314C673.4928,-352.131 673.4928,-342.9743 673.4928,-334.4166"/>
<polygon fill="#000000" stroke="#000000" points="676.9929,-334.4132 673.4928,-324.4133 669.9929,-334.4133 676.9929,-334.4132"/>
</g>
<!-- N2366922 -->
<g id="node34" class="node">
<title>N2366922</title>
<ellipse fill="#d3d3d3" stroke="#000000" cx="800.4928" cy="-306" rx="54.4855" ry="18"/>
<text text-anchor="middle" x="800.4928" y="-301.8" font-family="Times,serif" font-size="14.00" fill="#000000">0.734902...</text>
</g>
<!-- N2366920&#45;&gt;N2366922 -->
<g id="edge33" class="edge">
<title>N2366920&#45;&gt;N2366922</title>
<path fill="none" stroke="#000000" d="M694.1802,-366.2717C712.96,-355.6249 741.0912,-339.6765 763.6994,-326.8592"/>
<polygon fill="#000000" stroke="#000000" points="765.7177,-329.7384 772.6908,-321.7618 762.2653,-323.6489 765.7177,-329.7384"/>
</g>
</g>
</svg>
