<?xml version="1.0" encoding="UTF-8" standalone="no"?>
<!DOCTYPE svg PUBLIC "-//W3C//DTD SVG 1.1//EN"
 "http://www.w3.org/Graphics/SVG/1.1/DTD/svg11.dtd">
<!-- Generated by graphviz version 2.40.1 (20161225.0304)
 -->
<!-- Title: G487360 Pages: 1 -->
<svg width="678pt" height="764pt"
 viewBox="0.00 0.00 677.99 764.00" xmlns="http://www.w3.org/2000/svg" xmlns:xlink="http://www.w3.org/1999/xlink">
<g id="graph0" class="graph" transform="scale(1 1) rotate(0) translate(4 760)">
<title>G487360</title>
<polygon fill="#ffffff" stroke="transparent" points="-4,4 -4,-760 673.9855,-760 673.9855,4 -4,4"/>
<!-- N487360 -->
<g id="node1" class="node">
<title>N487360</title>
<ellipse fill="#d3d3d3" stroke="#000000" cx="265.4928" cy="-738" rx="54.4437" ry="18"/>
<text text-anchor="middle" x="265.4928" y="-733.8" font-family="Times,serif" font-size="14.00" fill="#000000">N487360...</text>
</g>
<!-- N487361 -->
<g id="node2" class="node">
<title>N487361</title>
<ellipse fill="#d3d3d3" stroke="#000000" cx="265.4928" cy="-666" rx="27" ry="18"/>
<text text-anchor="middle" x="265.4928" y="-661.8" font-family="Times,serif" font-size="14.00" fill="#000000">mul</text>
</g>
<!-- N487360&#45;&gt;N487361 -->
<g id="edge1" class="edge">
<title>N487360&#45;&gt;N487361</title>
<path fill="none" stroke="#000000" d="M265.4928,-719.8314C265.4928,-712.131 265.4928,-702.9743 265.4928,-694.4166"/>
<polygon fill="#000000" stroke="#000000" points="268.9929,-694.4132 265.4928,-684.4133 261.9929,-694.4133 268.9929,-694.4132"/>
</g>
<!-- N487362 -->
<g id="node3" class="node">
<title>N487362</title>
<ellipse fill="#d3d3d3" stroke="#000000" cx="229.4928" cy="-594" rx="27" ry="18"/>
<text text-anchor="middle" x="229.4928" y="-589.8" font-family="Times,serif" font-size="14.00" fill="#000000">SIN</text>
</g>
<!-- N487361&#45;&gt;N487362 -->
<g id="edge2" class="edge">
<title>N487361&#45;&gt;N487362</title>
<path fill="none" stroke="#000000" d="M256.7782,-648.5708C252.5331,-640.0807 247.3392,-629.6929 242.6265,-620.2674"/>
<polygon fill="#000000" stroke="#000000" points="245.7298,-618.6477 238.1271,-611.2687 239.4688,-621.7782 245.7298,-618.6477"/>
</g>
<!-- N487368 -->
<g id="node9" class="node">
<title>N487368</title>
<ellipse fill="#d3d3d3" stroke="#000000" cx="327.4928" cy="-594" rx="27" ry="18"/>
<text text-anchor="middle" x="327.4928" y="-589.8" font-family="Times,serif" font-size="14.00" fill="#000000">sub</text>
</g>
<!-- N487361&#45;&gt;N487368 -->
<g id="edge8" class="edge">
<title>N487361&#45;&gt;N487368</title>
<path fill="none" stroke="#000000" d="M278.9458,-650.3771C287.1194,-640.8852 297.7196,-628.5753 306.9287,-617.8808"/>
<polygon fill="#000000" stroke="#000000" points="309.7636,-619.9525 313.6366,-610.091 304.4592,-615.3848 309.7636,-619.9525"/>
</g>
<!-- N487363 -->
<g id="node4" class="node">
<title>N487363</title>
<ellipse fill="#d3d3d3" stroke="#000000" cx="202.4928" cy="-522" rx="27" ry="18"/>
<text text-anchor="middle" x="202.4928" y="-517.8" font-family="Times,serif" font-size="14.00" fill="#000000">sub</text>
</g>
<!-- N487362&#45;&gt;N487363 -->
<g id="edge3" class="edge">
<title>N487362&#45;&gt;N487363</title>
<path fill="none" stroke="#000000" d="M222.8186,-576.2022C219.7451,-568.0064 216.0312,-558.1024 212.6232,-549.0145"/>
<polygon fill="#000000" stroke="#000000" points="215.8786,-547.7274 209.0901,-539.593 209.3243,-550.1853 215.8786,-547.7274"/>
</g>
<!-- N487364 -->
<g id="node5" class="node">
<title>N487364</title>
<ellipse fill="#d3d3d3" stroke="#000000" cx="103.4928" cy="-450" rx="27" ry="18"/>
<text text-anchor="middle" x="103.4928" y="-445.8" font-family="Times,serif" font-size="14.00" fill="#000000">mul</text>
</g>
<!-- N487363&#45;&gt;N487364 -->
<g id="edge4" class="edge">
<title>N487363&#45;&gt;N487364</title>
<path fill="none" stroke="#000000" d="M183.8716,-508.4574C168.7993,-497.4956 147.3673,-481.9088 130.424,-469.5864"/>
<polygon fill="#000000" stroke="#000000" points="132.1764,-466.5331 122.0304,-463.4819 128.0592,-472.1943 132.1764,-466.5331"/>
</g>
<!-- N487367 -->
<g id="node8" class="node">
<title>N487367</title>
<ellipse fill="#d3d3d3" stroke="#000000" cx="202.4928" cy="-450" rx="54.4855" ry="18"/>
<text text-anchor="middle" x="202.4928" y="-445.8" font-family="Times,serif" font-size="14.00" fill="#000000">0.396588...</text>
</g>
<!-- N487363&#45;&gt;N487367 -->
<g id="edge7" class="edge">
<title>N487363&#45;&gt;N487367</title>
<path fill="none" stroke="#000000" d="M202.4928,-503.8314C202.4928,-496.131 202.4928,-486.9743 202.4928,-478.4166"/>
<polygon fill="#000000" stroke="#000000" points="205.9929,-478.4132 202.4928,-468.4133 198.9929,-478.4133 205.9929,-478.4132"/>
</g>
<!-- N487365 -->
<g id="node6" class="node">
<title>N487365</title>
<ellipse fill="#d3d3d3" stroke="#000000" cx="54.4928" cy="-378" rx="54.4855" ry="18"/>
<text text-anchor="middle" x="54.4928" y="-373.8" font-family="Times,serif" font-size="14.00" fill="#000000">0.213366...</text>
</g>
<!-- N487364&#45;&gt;N487365 -->
<g id="edge5" class="edge">
<title>N487364&#45;&gt;N487365</title>
<path fill="none" stroke="#000000" d="M92.128,-433.3008C86.2404,-424.6496 78.916,-413.8873 72.2977,-404.1623"/>
<polygon fill="#000000" stroke="#000000" points="74.9993,-401.9111 66.4795,-395.6132 69.2123,-405.8495 74.9993,-401.9111"/>
</g>
<!-- N487366 -->
<g id="node7" class="node">
<title>N487366</title>
<ellipse fill="#d3d3d3" stroke="#000000" cx="153.4928" cy="-378" rx="27" ry="18"/>
<text text-anchor="middle" x="153.4928" y="-373.8" font-family="Times,serif" font-size="14.00" fill="#000000">w</text>
</g>
<!-- N487364&#45;&gt;N487366 -->
<g id="edge6" class="edge">
<title>N487364&#45;&gt;N487366</title>
<path fill="none" stroke="#000000" d="M114.8385,-433.6621C121.0783,-424.6768 128.955,-413.3343 135.9676,-403.2362"/>
<polygon fill="#000000" stroke="#000000" points="139.0157,-404.983 141.8449,-394.7729 133.2661,-400.9902 139.0157,-404.983"/>
</g>
<!-- N487369 -->
<g id="node10" class="node">
<title>N487369</title>
<ellipse fill="#d3d3d3" stroke="#000000" cx="327.4928" cy="-522" rx="52.735" ry="18"/>
<text text-anchor="middle" x="327.4928" y="-517.8" font-family="Times,serif" font-size="14.00" fill="#000000">domingo...</text>
</g>
<!-- N487368&#45;&gt;N487369 -->
<g id="edge9" class="edge">
<title>N487368&#45;&gt;N487369</title>
<path fill="none" stroke="#000000" d="M327.4928,-575.8314C327.4928,-568.131 327.4928,-558.9743 327.4928,-550.4166"/>
<polygon fill="#000000" stroke="#000000" points="330.9929,-550.4132 327.4928,-540.4133 323.9929,-550.4133 330.9929,-550.4132"/>
</g>
<!-- N487382 -->
<g id="node21" class="node">
<title>N487382</title>
<ellipse fill="#d3d3d3" stroke="#000000" cx="452.4928" cy="-522" rx="27" ry="18"/>
<text text-anchor="middle" x="452.4928" y="-517.8" font-family="Times,serif" font-size="14.00" fill="#000000">sub</text>
</g>
<!-- N487368&#45;&gt;N487382 -->
<g id="edge20" class="edge">
<title>N487368&#45;&gt;N487382</title>
<path fill="none" stroke="#000000" d="M348.134,-582.1107C368.5803,-570.3336 400.0881,-552.1851 423.1356,-538.9097"/>
<polygon fill="#000000" stroke="#000000" points="424.9025,-541.9311 431.8209,-533.907 421.4086,-535.8654 424.9025,-541.9311"/>
</g>
<!-- N487370 -->
<g id="node11" class="node">
<title>N487370</title>
<ellipse fill="#d3d3d3" stroke="#000000" cx="327.4928" cy="-450" rx="52.735" ry="18"/>
<text text-anchor="middle" x="327.4928" y="-445.8" font-family="Times,serif" font-size="14.00" fill="#000000">domingo...</text>
</g>
<!-- N487369&#45;&gt;N487370 -->
<g id="edge10" class="edge">
<title>N487369&#45;&gt;N487370</title>
<path fill="none" stroke="#000000" d="M327.4928,-503.8314C327.4928,-496.131 327.4928,-486.9743 327.4928,-478.4166"/>
<polygon fill="#000000" stroke="#000000" points="330.9929,-478.4132 327.4928,-468.4133 323.9929,-478.4133 330.9929,-478.4132"/>
</g>
<!-- N487371 -->
<g id="node12" class="node">
<title>N487371</title>
<ellipse fill="#d3d3d3" stroke="#000000" cx="327.4928" cy="-378" rx="27" ry="18"/>
<text text-anchor="middle" x="327.4928" y="-373.8" font-family="Times,serif" font-size="14.00" fill="#000000">sub</text>
</g>
<!-- N487370&#45;&gt;N487371 -->
<g id="edge11" class="edge">
<title>N487370&#45;&gt;N487371</title>
<path fill="none" stroke="#000000" d="M327.4928,-431.8314C327.4928,-424.131 327.4928,-414.9743 327.4928,-406.4166"/>
<polygon fill="#000000" stroke="#000000" points="330.9929,-406.4132 327.4928,-396.4133 323.9929,-406.4133 330.9929,-406.4132"/>
</g>
<!-- N487372 -->
<g id="node13" class="node">
<title>N487372</title>
<ellipse fill="#d3d3d3" stroke="#000000" cx="265.4928" cy="-306" rx="52.735" ry="18"/>
<text text-anchor="middle" x="265.4928" y="-301.8" font-family="Times,serif" font-size="14.00" fill="#000000">domingo...</text>
</g>
<!-- N487371&#45;&gt;N487372 -->
<g id="edge12" class="edge">
<title>N487371&#45;&gt;N487372</title>
<path fill="none" stroke="#000000" d="M314.0397,-362.3771C306.1499,-353.2148 295.9991,-341.4268 287.0209,-331.0005"/>
<polygon fill="#000000" stroke="#000000" points="289.6182,-328.6528 280.4407,-323.3589 284.3138,-333.2205 289.6182,-328.6528"/>
</g>
<!-- N487381 -->
<g id="node20" class="node">
<title>N487381</title>
<ellipse fill="#d3d3d3" stroke="#000000" cx="390.4928" cy="-306" rx="54.4855" ry="18"/>
<text text-anchor="middle" x="390.4928" y="-301.8" font-family="Times,serif" font-size="14.00" fill="#000000">0.213366...</text>
</g>
<!-- N487371&#45;&gt;N487381 -->
<g id="edge19" class="edge">
<title>N487371&#45;&gt;N487381</title>
<path fill="none" stroke="#000000" d="M341.1628,-362.3771C349.1798,-353.2148 359.4943,-341.4268 368.6173,-331.0005"/>
<polygon fill="#000000" stroke="#000000" points="371.3527,-333.1895 375.3037,-323.3589 366.0846,-328.5799 371.3527,-333.1895"/>
</g>
<!-- N487373 -->
<g id="node14" class="node">
<title>N487373</title>
<ellipse fill="#d3d3d3" stroke="#000000" cx="265.4928" cy="-234" rx="52.735" ry="18"/>
<text text-anchor="middle" x="265.4928" y="-229.8" font-family="Times,serif" font-size="14.00" fill="#000000">domingo...</text>
</g>
<!-- N487372&#45;&gt;N487373 -->
<g id="edge13" class="edge">
<title>N487372&#45;&gt;N487373</title>
<path fill="none" stroke="#000000" d="M265.4928,-287.8314C265.4928,-280.131 265.4928,-270.9743 265.4928,-262.4166"/>
<polygon fill="#000000" stroke="#000000" points="268.9929,-262.4132 265.4928,-252.4133 261.9929,-262.4133 268.9929,-262.4132"/>
</g>
<!-- N487374 -->
<g id="node15" class="node">
<title>N487374</title>
<ellipse fill="#d3d3d3" stroke="#000000" cx="265.4928" cy="-162" rx="27" ry="18"/>
<text text-anchor="middle" x="265.4928" y="-157.8" font-family="Times,serif" font-size="14.00" fill="#000000">sub</text>
</g>
<!-- N487373&#45;&gt;N487374 -->
<g id="edge14" class="edge">
<title>N487373&#45;&gt;N487374</title>
<path fill="none" stroke="#000000" d="M265.4928,-215.8314C265.4928,-208.131 265.4928,-198.9743 265.4928,-190.4166"/>
<polygon fill="#000000" stroke="#000000" points="268.9929,-190.4132 265.4928,-180.4133 261.9929,-190.4133 268.9929,-190.4132"/>
</g>
<!-- N487375 -->
<g id="node16" class="node">
<title>N487375</title>
<ellipse fill="#d3d3d3" stroke="#000000" cx="229.4928" cy="-90" rx="27" ry="18"/>
<text text-anchor="middle" x="229.4928" y="-85.8" font-family="Times,serif" font-size="14.00" fill="#000000">d</text>
</g>
<!-- N487374&#45;&gt;N487375 -->
<g id="edge15" class="edge">
<title>N487374&#45;&gt;N487375</title>
<path fill="none" stroke="#000000" d="M256.7782,-144.5708C252.5331,-136.0807 247.3392,-125.6929 242.6265,-116.2674"/>
<polygon fill="#000000" stroke="#000000" points="245.7298,-114.6477 238.1271,-107.2687 239.4688,-117.7782 245.7298,-114.6477"/>
</g>
<!-- N487376 -->
<g id="node17" class="node">
<title>N487376</title>
<ellipse fill="none" stroke="#000000" stroke-dasharray="5,2" cx="301.4928" cy="-90" rx="27" ry="18"/>
<text text-anchor="middle" x="301.4928" y="-85.8" font-family="Times,serif" font-size="14.00" fill="#000000">mul</text>
</g>
<!-- N487374&#45;&gt;N487376 -->
<g id="edge16" class="edge">
<title>N487374&#45;&gt;N487376</title>
<path fill="none" stroke="#000000" d="M274.2074,-144.5708C278.4524,-136.0807 283.6463,-125.6929 288.3591,-116.2674"/>
<polygon fill="#000000" stroke="#000000" points="291.5167,-117.7782 292.8584,-107.2687 285.2557,-114.6477 291.5167,-117.7782"/>
</g>
<!-- N487348 -->
<g id="node18" class="node">
<title>N487348</title>
<ellipse fill="none" stroke="#000000" cx="252.4928" cy="-18" rx="27" ry="18"/>
<text text-anchor="middle" x="252.4928" y="-13.8" font-family="Times,serif" font-size="14.00" fill="#000000">d</text>
</g>
<!-- N487376&#45;&gt;N487348 -->
<g id="edge17" class="edge">
<title>N487376&#45;&gt;N487348</title>
<path fill="none" stroke="#000000" d="M290.128,-73.3008C284.0054,-64.3043 276.329,-53.0247 269.5086,-43.0029"/>
<polygon fill="#000000" stroke="#000000" points="272.3157,-40.9066 263.7959,-34.6087 266.5287,-44.845 272.3157,-40.9066"/>
</g>
<!-- N487380 -->
<g id="node19" class="node">
<title>N487380</title>
<ellipse fill="#d3d3d3" stroke="#000000" cx="351.4928" cy="-18" rx="54.4855" ry="18"/>
<text text-anchor="middle" x="351.4928" y="-13.8" font-family="Times,serif" font-size="14.00" fill="#000000">0.213366...</text>
</g>
<!-- N487376&#45;&gt;N487380 -->
<g id="edge18" class="edge">
<title>N487376&#45;&gt;N487380</title>
<path fill="none" stroke="#000000" d="M312.8385,-73.6621C318.9,-64.9336 326.5063,-53.9805 333.3645,-44.1047"/>
<polygon fill="#000000" stroke="#000000" points="336.312,-45.9963 339.1412,-35.7862 330.5624,-42.0035 336.312,-45.9963"/>
</g>
<!-- N487383 -->
<g id="node22" class="node">
<title>N487383</title>
<ellipse fill="#d3d3d3" stroke="#000000" cx="452.4928" cy="-450" rx="54.4855" ry="18"/>
<text text-anchor="middle" x="452.4928" y="-445.8" font-family="Times,serif" font-size="14.00" fill="#000000">0.203069...</text>
</g>
<!-- N487382&#45;&gt;N487383 -->
<g id="edge21" class="edge">
<title>N487382&#45;&gt;N487383</title>
<path fill="none" stroke="#000000" d="M452.4928,-503.8314C452.4928,-496.131 452.4928,-486.9743 452.4928,-478.4166"/>
<polygon fill="#000000" stroke="#000000" points="455.9929,-478.4132 452.4928,-468.4133 448.9929,-478.4133 455.9929,-478.4132"/>
</g>
<!-- N487384 -->
<g id="node23" class="node">
<title>N487384</title>
<ellipse fill="#d3d3d3" stroke="#000000" cx="551.4928" cy="-450" rx="27" ry="18"/>
<text text-anchor="middle" x="551.4928" y="-445.8" font-family="Times,serif" font-size="14.00" fill="#000000">sub</text>
</g>
<!-- N487382&#45;&gt;N487384 -->
<g id="edge22" class="edge">
<title>N487382&#45;&gt;N487384</title>
<path fill="none" stroke="#000000" d="M471.1139,-508.4574C486.1862,-497.4956 507.6182,-481.9088 524.5615,-469.5864"/>
<polygon fill="#000000" stroke="#000000" points="526.9263,-472.1943 532.9551,-463.4819 522.8091,-466.5331 526.9263,-472.1943"/>
</g>
<!-- N487385 -->
<g id="node24" class="node">
<title>N487385</title>
<ellipse fill="#d3d3d3" stroke="#000000" cx="488.4928" cy="-378" rx="54.4855" ry="18"/>
<text text-anchor="middle" x="488.4928" y="-373.8" font-family="Times,serif" font-size="14.00" fill="#000000">0.744679...</text>
</g>
<!-- N487384&#45;&gt;N487385 -->
<g id="edge23" class="edge">
<title>N487384&#45;&gt;N487385</title>
<path fill="none" stroke="#000000" d="M537.8227,-434.3771C529.8057,-425.2148 519.4912,-413.4268 510.3682,-403.0005"/>
<polygon fill="#000000" stroke="#000000" points="512.9009,-400.5799 503.6818,-395.3589 507.6329,-405.1895 512.9009,-400.5799"/>
</g>
<!-- N487386 -->
<g id="node25" class="node">
<title>N487386</title>
<ellipse fill="#d3d3d3" stroke="#000000" cx="615.4928" cy="-378" rx="54.4855" ry="18"/>
<text text-anchor="middle" x="615.4928" y="-373.8" font-family="Times,serif" font-size="14.00" fill="#000000">0.396588...</text>
</g>
<!-- N487384&#45;&gt;N487386 -->
<g id="edge24" class="edge">
<title>N487384&#45;&gt;N487386</title>
<path fill="none" stroke="#000000" d="M565.3798,-434.3771C573.5241,-425.2148 584.0023,-413.4268 593.2701,-403.0005"/>
<polygon fill="#000000" stroke="#000000" points="596.0349,-405.1583 600.0626,-395.3589 590.803,-400.5077 596.0349,-405.1583"/>
</g>
</g>
</svg>
