<?xml version="1.0" encoding="UTF-8" standalone="no"?>
<!DOCTYPE svg PUBLIC "-//W3C//DTD SVG 1.1//EN"
 "http://www.w3.org/Graphics/SVG/1.1/DTD/svg11.dtd">
<!-- Generated by graphviz version 2.40.1 (20161225.0304)
 -->
<!-- Title: G287296 Pages: 1 -->
<svg width="170pt" height="188pt"
 viewBox="0.00 0.00 169.56 188.00" xmlns="http://www.w3.org/2000/svg" xmlns:xlink="http://www.w3.org/1999/xlink">
<g id="graph0" class="graph" transform="scale(1 1) rotate(0) translate(4 184)">
<title>G287296</title>
<polygon fill="#ffffff" stroke="transparent" points="-4,4 -4,-184 165.5645,-184 165.5645,4 -4,4"/>
<!-- N287296 -->
<g id="node1" class="node">
<title>N287296</title>
<ellipse fill="#d3d3d3" stroke="#000000" cx="89.5645" cy="-162" rx="44.629" ry="18"/>
<text text-anchor="middle" x="89.5645" y="-157.8" font-family="Times,serif" font-size="14.00" fill="#000000">N2872...</text>
</g>
<!-- N287297 -->
<g id="node2" class="node">
<title>N287297</title>
<ellipse fill="#d3d3d3" stroke="#000000" cx="89.5645" cy="-90" rx="27" ry="18"/>
<text text-anchor="middle" x="89.5645" y="-85.8" font-family="Times,serif" font-size="14.00" fill="#000000">add</text>
</g>
<!-- N287296&#45;&gt;N287297 -->
<g id="edge1" class="edge">
<title>N287296&#45;&gt;N287297</title>
<path fill="none" stroke="#000000" d="M89.5645,-143.8314C89.5645,-136.131 89.5645,-126.9743 89.5645,-118.4166"/>
<polygon fill="#000000" stroke="#000000" points="93.0646,-118.4132 89.5645,-108.4133 86.0646,-118.4133 93.0646,-118.4132"/>
</g>
<!-- N287294 -->
<g id="node3" class="node">
<title>N287294</title>
<ellipse fill="#d3d3d3" stroke="#000000" cx="44.5645" cy="-18" rx="44.629" ry="18"/>
<text text-anchor="middle" x="44.5645" y="-13.8" font-family="Times,serif" font-size="14.00" fill="#000000">N2872...</text>
</g>
<!-- N287297&#45;&gt;N287294 -->
<g id="edge2" class="edge">
<title>N287297&#45;&gt;N287294</title>
<path fill="none" stroke="#000000" d="M79.1274,-73.3008C73.7205,-64.6496 66.994,-53.8873 60.9159,-44.1623"/>
<polygon fill="#000000" stroke="#000000" points="63.8407,-42.2382 55.5727,-35.6132 57.9047,-45.9482 63.8407,-42.2382"/>
</g>
<!-- N287295 -->
<g id="node4" class="node">
<title>N287295</title>
<ellipse fill="#d3d3d3" stroke="#000000" cx="134.5645" cy="-18" rx="27" ry="18"/>
<text text-anchor="middle" x="134.5645" y="-13.8" font-family="Times,serif" font-size="14.00" fill="#000000">x</text>
</g>
<!-- N287297&#45;&gt;N287295 -->
<g id="edge3" class="edge">
<title>N287297&#45;&gt;N287295</title>
<path fill="none" stroke="#000000" d="M100.0015,-73.3008C105.4879,-64.5224 112.333,-53.5703 118.4807,-43.7339"/>
<polygon fill="#000000" stroke="#000000" points="121.5395,-45.4436 123.8716,-35.1086 115.6035,-41.7336 121.5395,-45.4436"/>
</g>
</g>
</svg>
