<?xml version="1.0" encoding="UTF-8" standalone="no"?>
<!DOCTYPE svg PUBLIC "-//W3C//DTD SVG 1.1//EN"
 "http://www.w3.org/Graphics/SVG/1.1/DTD/svg11.dtd">
<!-- Generated by graphviz version 2.40.1 (20161225.0304)
 -->
<!-- Title: G16 Pages: 1 -->
<svg width="387pt" height="332pt"
 viewBox="0.00 0.00 386.99 332.00" xmlns="http://www.w3.org/2000/svg" xmlns:xlink="http://www.w3.org/1999/xlink">
<g id="graph0" class="graph" transform="scale(1 1) rotate(0) translate(4 328)">
<title>G16</title>
<polygon fill="#ffffff" stroke="transparent" points="-4,4 -4,-328 382.9855,-328 382.9855,4 -4,4"/>
<!-- N16 -->
<g id="node1" class="node">
<title>N16</title>
<ellipse fill="#d3d3d3" stroke="#000000" cx="139.4928" cy="-306" rx="27.8306" ry="18"/>
<text text-anchor="middle" x="139.4928" y="-301.8" font-family="Times,serif" font-size="14.00" fill="#000000">N16</text>
</g>
<!-- N17 -->
<g id="node2" class="node">
<title>N17</title>
<ellipse fill="#d3d3d3" stroke="#000000" cx="139.4928" cy="-234" rx="27" ry="18"/>
<text text-anchor="middle" x="139.4928" y="-229.8" font-family="Times,serif" font-size="14.00" fill="#000000">sub</text>
</g>
<!-- N16&#45;&gt;N17 -->
<g id="edge1" class="edge">
<title>N16&#45;&gt;N17</title>
<path fill="none" stroke="#000000" d="M139.4928,-287.8314C139.4928,-280.131 139.4928,-270.9743 139.4928,-262.4166"/>
<polygon fill="#000000" stroke="#000000" points="142.9929,-262.4132 139.4928,-252.4133 135.9929,-262.4133 142.9929,-262.4132"/>
</g>
<!-- N18 -->
<g id="node3" class="node">
<title>N18</title>
<ellipse fill="#d3d3d3" stroke="#000000" cx="90.4928" cy="-162" rx="54.4855" ry="18"/>
<text text-anchor="middle" x="90.4928" y="-157.8" font-family="Times,serif" font-size="14.00" fill="#000000">0.668051...</text>
</g>
<!-- N17&#45;&gt;N18 -->
<g id="edge2" class="edge">
<title>N17&#45;&gt;N18</title>
<path fill="none" stroke="#000000" d="M128.128,-217.3008C122.2404,-208.6496 114.916,-197.8873 108.2977,-188.1623"/>
<polygon fill="#000000" stroke="#000000" points="110.9993,-185.9111 102.4795,-179.6132 105.2123,-189.8495 110.9993,-185.9111"/>
</g>
<!-- N19 -->
<g id="node4" class="node">
<title>N19</title>
<ellipse fill="#d3d3d3" stroke="#000000" cx="189.4928" cy="-162" rx="27" ry="18"/>
<text text-anchor="middle" x="189.4928" y="-157.8" font-family="Times,serif" font-size="14.00" fill="#000000">mul</text>
</g>
<!-- N17&#45;&gt;N19 -->
<g id="edge3" class="edge">
<title>N17&#45;&gt;N19</title>
<path fill="none" stroke="#000000" d="M150.8385,-217.6621C157.0783,-208.6768 164.955,-197.3343 171.9676,-187.2362"/>
<polygon fill="#000000" stroke="#000000" points="175.0157,-188.983 177.8449,-178.7729 169.2661,-184.9902 175.0157,-188.983"/>
</g>
<!-- N20 -->
<g id="node5" class="node">
<title>N20</title>
<ellipse fill="#d3d3d3" stroke="#000000" cx="153.4928" cy="-90" rx="27" ry="18"/>
<text text-anchor="middle" x="153.4928" y="-85.8" font-family="Times,serif" font-size="14.00" fill="#000000">add</text>
</g>
<!-- N19&#45;&gt;N20 -->
<g id="edge4" class="edge">
<title>N19&#45;&gt;N20</title>
<path fill="none" stroke="#000000" d="M180.7782,-144.5708C176.5331,-136.0807 171.3392,-125.6929 166.6265,-116.2674"/>
<polygon fill="#000000" stroke="#000000" points="169.7298,-114.6477 162.1271,-107.2687 163.4688,-117.7782 169.7298,-114.6477"/>
</g>
<!-- N23 -->
<g id="node8" class="node">
<title>N23</title>
<ellipse fill="#d3d3d3" stroke="#000000" cx="225.4928" cy="-90" rx="27" ry="18"/>
<text text-anchor="middle" x="225.4928" y="-85.8" font-family="Times,serif" font-size="14.00" fill="#000000">sub</text>
</g>
<!-- N19&#45;&gt;N23 -->
<g id="edge7" class="edge">
<title>N19&#45;&gt;N23</title>
<path fill="none" stroke="#000000" d="M198.2074,-144.5708C202.4524,-136.0807 207.6463,-125.6929 212.3591,-116.2674"/>
<polygon fill="#000000" stroke="#000000" points="215.5167,-117.7782 216.8584,-107.2687 209.2557,-114.6477 215.5167,-117.7782"/>
</g>
<!-- N21 -->
<g id="node6" class="node">
<title>N21</title>
<ellipse fill="#d3d3d3" stroke="#000000" cx="54.4928" cy="-18" rx="54.4855" ry="18"/>
<text text-anchor="middle" x="54.4928" y="-13.8" font-family="Times,serif" font-size="14.00" fill="#000000">0.202446...</text>
</g>
<!-- N20&#45;&gt;N21 -->
<g id="edge5" class="edge">
<title>N20&#45;&gt;N21</title>
<path fill="none" stroke="#000000" d="M134.8716,-76.4574C120.944,-66.3282 101.5861,-52.2497 85.3575,-40.447"/>
<polygon fill="#000000" stroke="#000000" points="87.3475,-37.5666 77.2015,-34.5154 83.2302,-43.2278 87.3475,-37.5666"/>
</g>
<!-- N22 -->
<g id="node7" class="node">
<title>N22</title>
<ellipse fill="#d3d3d3" stroke="#000000" cx="153.4928" cy="-18" rx="27" ry="18"/>
<text text-anchor="middle" x="153.4928" y="-13.8" font-family="Times,serif" font-size="14.00" fill="#000000">y</text>
</g>
<!-- N20&#45;&gt;N22 -->
<g id="edge6" class="edge">
<title>N20&#45;&gt;N22</title>
<path fill="none" stroke="#000000" d="M153.4928,-71.8314C153.4928,-64.131 153.4928,-54.9743 153.4928,-46.4166"/>
<polygon fill="#000000" stroke="#000000" points="156.9929,-46.4132 153.4928,-36.4133 149.9929,-46.4133 156.9929,-46.4132"/>
</g>
<!-- N24 -->
<g id="node9" class="node">
<title>N24</title>
<ellipse fill="#d3d3d3" stroke="#000000" cx="225.4928" cy="-18" rx="27" ry="18"/>
<text text-anchor="middle" x="225.4928" y="-13.8" font-family="Times,serif" font-size="14.00" fill="#000000">y</text>
</g>
<!-- N23&#45;&gt;N24 -->
<g id="edge8" class="edge">
<title>N23&#45;&gt;N24</title>
<path fill="none" stroke="#000000" d="M225.4928,-71.8314C225.4928,-64.131 225.4928,-54.9743 225.4928,-46.4166"/>
<polygon fill="#000000" stroke="#000000" points="228.9929,-46.4132 225.4928,-36.4133 221.9929,-46.4133 228.9929,-46.4132"/>
</g>
<!-- N25 -->
<g id="node10" class="node">
<title>N25</title>
<ellipse fill="#d3d3d3" stroke="#000000" cx="324.4928" cy="-18" rx="54.4855" ry="18"/>
<text text-anchor="middle" x="324.4928" y="-13.8" font-family="Times,serif" font-size="14.00" fill="#000000">0.205625...</text>
</g>
<!-- N23&#45;&gt;N25 -->
<g id="edge9" class="edge">
<title>N23&#45;&gt;N25</title>
<path fill="none" stroke="#000000" d="M244.1139,-76.4574C258.0415,-66.3282 277.3994,-52.2497 293.6281,-40.447"/>
<polygon fill="#000000" stroke="#000000" points="295.7553,-43.2278 301.784,-34.5154 291.638,-37.5666 295.7553,-43.2278"/>
</g>
</g>
</svg>
