<?xml version="1.0" encoding="UTF-8" standalone="no"?>
<!DOCTYPE svg PUBLIC "-//W3C//DTD SVG 1.1//EN"
 "http://www.w3.org/Graphics/SVG/1.1/DTD/svg11.dtd">
<!-- Generated by graphviz version 2.40.1 (20161225.0304)
 -->
<!-- Title: G55 Pages: 1 -->
<svg width="382pt" height="260pt"
 viewBox="0.00 0.00 382.01 260.00" xmlns="http://www.w3.org/2000/svg" xmlns:xlink="http://www.w3.org/1999/xlink">
<g id="graph0" class="graph" transform="scale(1 1) rotate(0) translate(4 256)">
<title>G55</title>
<polygon fill="#ffffff" stroke="transparent" points="-4,4 -4,-256 378.0147,-256 378.0147,4 -4,4"/>
<!-- N55 -->
<g id="node1" class="node">
<title>N55</title>
<ellipse fill="#d3d3d3" stroke="#000000" cx="187.0073" cy="-234" rx="27.8306" ry="18"/>
<text text-anchor="middle" x="187.0073" y="-229.8" font-family="Times,serif" font-size="14.00" fill="#000000">N55</text>
</g>
<!-- N56 -->
<g id="node2" class="node">
<title>N56</title>
<ellipse fill="#d3d3d3" stroke="#000000" cx="187.0073" cy="-162" rx="27" ry="18"/>
<text text-anchor="middle" x="187.0073" y="-157.8" font-family="Times,serif" font-size="14.00" fill="#000000">div</text>
</g>
<!-- N55&#45;&gt;N56 -->
<g id="edge1" class="edge">
<title>N55&#45;&gt;N56</title>
<path fill="none" stroke="#000000" d="M187.0073,-215.8314C187.0073,-208.131 187.0073,-198.9743 187.0073,-190.4166"/>
<polygon fill="#000000" stroke="#000000" points="190.5074,-190.4132 187.0073,-180.4133 183.5074,-190.4133 190.5074,-190.4132"/>
</g>
<!-- N61 -->
<g id="node3" class="node">
<title>N61</title>
<ellipse fill="#d3d3d3" stroke="#000000" cx="138.0073" cy="-90" rx="27" ry="18"/>
<text text-anchor="middle" x="138.0073" y="-85.8" font-family="Times,serif" font-size="14.00" fill="#000000">sub</text>
</g>
<!-- N56&#45;&gt;N61 -->
<g id="edge2" class="edge">
<title>N56&#45;&gt;N61</title>
<path fill="none" stroke="#000000" d="M175.6426,-145.3008C169.52,-136.3043 161.8436,-125.0247 155.0232,-115.0029"/>
<polygon fill="#000000" stroke="#000000" points="157.8302,-112.9066 149.3105,-106.6087 152.0432,-116.845 157.8302,-112.9066"/>
</g>
<!-- N72 -->
<g id="node6" class="node">
<title>N72</title>
<ellipse fill="#d3d3d3" stroke="#000000" cx="236.0073" cy="-90" rx="27" ry="18"/>
<text text-anchor="middle" x="236.0073" y="-85.8" font-family="Times,serif" font-size="14.00" fill="#000000">div</text>
</g>
<!-- N56&#45;&gt;N72 -->
<g id="edge5" class="edge">
<title>N56&#45;&gt;N72</title>
<path fill="none" stroke="#000000" d="M198.3721,-145.3008C204.4947,-136.3043 212.1711,-125.0247 218.9915,-115.0029"/>
<polygon fill="#000000" stroke="#000000" points="221.9714,-116.845 224.7042,-106.6087 216.1844,-112.9066 221.9714,-116.845"/>
</g>
<!-- N64 -->
<g id="node4" class="node">
<title>N64</title>
<ellipse fill="#d3d3d3" stroke="#000000" cx="40.0073" cy="-18" rx="40.0147" ry="18"/>
<text text-anchor="middle" x="40.0073" y="-13.8" font-family="Times,serif" font-size="14.00" fill="#000000">0.077...</text>
</g>
<!-- N61&#45;&gt;N64 -->
<g id="edge3" class="edge">
<title>N61&#45;&gt;N64</title>
<path fill="none" stroke="#000000" d="M119.5743,-76.4574C105.4096,-66.0507 85.571,-51.4753 69.247,-39.4822"/>
<polygon fill="#000000" stroke="#000000" points="71.2108,-36.5819 61.0797,-33.4817 67.0663,-42.2231 71.2108,-36.5819"/>
</g>
<!-- N67 -->
<g id="node5" class="node">
<title>N67</title>
<ellipse fill="#d3d3d3" stroke="#000000" cx="138.0073" cy="-18" rx="40.0147" ry="18"/>
<text text-anchor="middle" x="138.0073" y="-13.8" font-family="Times,serif" font-size="14.00" fill="#000000">0.072...</text>
</g>
<!-- N61&#45;&gt;N67 -->
<g id="edge4" class="edge">
<title>N61&#45;&gt;N67</title>
<path fill="none" stroke="#000000" d="M138.0073,-71.8314C138.0073,-64.131 138.0073,-54.9743 138.0073,-46.4166"/>
<polygon fill="#000000" stroke="#000000" points="141.5074,-46.4132 138.0073,-36.4133 134.5074,-46.4133 141.5074,-46.4132"/>
</g>
<!-- N75 -->
<g id="node7" class="node">
<title>N75</title>
<ellipse fill="#d3d3d3" stroke="#000000" cx="236.0073" cy="-18" rx="40.0147" ry="18"/>
<text text-anchor="middle" x="236.0073" y="-13.8" font-family="Times,serif" font-size="14.00" fill="#000000">0.984...</text>
</g>
<!-- N72&#45;&gt;N75 -->
<g id="edge6" class="edge">
<title>N72&#45;&gt;N75</title>
<path fill="none" stroke="#000000" d="M236.0073,-71.8314C236.0073,-64.131 236.0073,-54.9743 236.0073,-46.4166"/>
<polygon fill="#000000" stroke="#000000" points="239.5074,-46.4132 236.0073,-36.4133 232.5074,-46.4133 239.5074,-46.4132"/>
</g>
<!-- N78 -->
<g id="node8" class="node">
<title>N78</title>
<ellipse fill="#d3d3d3" stroke="#000000" cx="334.0073" cy="-18" rx="40.0147" ry="18"/>
<text text-anchor="middle" x="334.0073" y="-13.8" font-family="Times,serif" font-size="14.00" fill="#000000">0.583...</text>
</g>
<!-- N72&#45;&gt;N78 -->
<g id="edge7" class="edge">
<title>N72&#45;&gt;N78</title>
<path fill="none" stroke="#000000" d="M254.4404,-76.4574C268.605,-66.0507 288.4437,-51.4753 304.7677,-39.4822"/>
<polygon fill="#000000" stroke="#000000" points="306.9484,-42.2231 312.935,-33.4817 302.8039,-36.5819 306.9484,-42.2231"/>
</g>
</g>
</svg>
