<?xml version="1.0" encoding="UTF-8" standalone="no"?>
<!DOCTYPE svg PUBLIC "-//W3C//DTD SVG 1.1//EN"
 "http://www.w3.org/Graphics/SVG/1.1/DTD/svg11.dtd">
<!-- Generated by graphviz version 2.40.1 (20161225.0304)
 -->
<!-- Title: G3 Pages: 1 -->
<svg width="1450pt" height="404pt"
 viewBox="0.00 0.00 1449.94 404.00" xmlns="http://www.w3.org/2000/svg" xmlns:xlink="http://www.w3.org/1999/xlink">
<g id="graph0" class="graph" transform="scale(1 1) rotate(0) translate(4 400)">
<title>G3</title>
<polygon fill="#ffffff" stroke="transparent" points="-4,4 -4,-400 1445.9362,-400 1445.9362,4 -4,4"/>
<!-- N3 -->
<g id="node1" class="node">
<title>N3</title>
<ellipse fill="#d3d3d3" stroke="#000000" cx="609" cy="-378" rx="27" ry="18"/>
<text text-anchor="middle" x="609" y="-373.8" font-family="Times,serif" font-size="14.00" fill="#000000">N3</text>
</g>
<!-- N14 -->
<g id="node2" class="node">
<title>N14</title>
<ellipse fill="#d3d3d3" stroke="#000000" cx="609" cy="-306" rx="27" ry="18"/>
<text text-anchor="middle" x="609" y="-301.8" font-family="Times,serif" font-size="14.00" fill="#000000">sub</text>
</g>
<!-- N3&#45;&gt;N14 -->
<g id="edge1" class="edge">
<title>N3&#45;&gt;N14</title>
<path fill="none" stroke="#000000" d="M609,-359.8314C609,-352.131 609,-342.9743 609,-334.4166"/>
<polygon fill="#000000" stroke="#000000" points="612.5001,-334.4132 609,-324.4133 605.5001,-334.4133 612.5001,-334.4132"/>
</g>
<!-- N25 -->
<g id="node3" class="node">
<title>N25</title>
<ellipse fill="#d3d3d3" stroke="#000000" cx="501" cy="-234" rx="27" ry="18"/>
<text text-anchor="middle" x="501" y="-229.8" font-family="Times,serif" font-size="14.00" fill="#000000">sub</text>
</g>
<!-- N14&#45;&gt;N25 -->
<g id="edge2" class="edge">
<title>N14&#45;&gt;N25</title>
<path fill="none" stroke="#000000" d="M589.6918,-293.1278C572.6445,-281.763 547.5981,-265.0654 528.4656,-252.3104"/>
<polygon fill="#000000" stroke="#000000" points="530.4031,-249.3956 520.1411,-246.7607 526.5201,-255.2199 530.4031,-249.3956"/>
</g>
<!-- N201 -->
<g id="node19" class="node">
<title>N201</title>
<ellipse fill="#d3d3d3" stroke="#000000" cx="811" cy="-234" rx="48.6501" ry="18"/>
<text text-anchor="middle" x="811" y="-229.8" font-family="Times,serif" font-size="14.00" fill="#000000">ifthenelse</text>
</g>
<!-- N14&#45;&gt;N201 -->
<g id="edge18" class="edge">
<title>N14&#45;&gt;N201</title>
<path fill="none" stroke="#000000" d="M632.9653,-297.4579C665.7638,-285.7673 725.2465,-264.5656 766.3768,-249.9053"/>
<polygon fill="#000000" stroke="#000000" points="767.6474,-253.1682 775.8918,-246.5138 765.2972,-246.5745 767.6474,-253.1682"/>
</g>
<!-- N36 -->
<g id="node4" class="node">
<title>N36</title>
<ellipse fill="#d3d3d3" stroke="#000000" cx="293" cy="-162" rx="27" ry="18"/>
<text text-anchor="middle" x="293" y="-157.8" font-family="Times,serif" font-size="14.00" fill="#000000">sub</text>
</g>
<!-- N25&#45;&gt;N36 -->
<g id="edge3" class="edge">
<title>N25&#45;&gt;N36</title>
<path fill="none" stroke="#000000" d="M476.7327,-225.5998C439.6279,-212.7558 368.683,-188.198 326.6359,-173.6432"/>
<polygon fill="#000000" stroke="#000000" points="327.7075,-170.3104 317.1128,-170.3467 325.4177,-176.9253 327.7075,-170.3104"/>
</g>
<!-- N124 -->
<g id="node12" class="node">
<title>N124</title>
<ellipse fill="#d3d3d3" stroke="#000000" cx="501" cy="-162" rx="27" ry="18"/>
<text text-anchor="middle" x="501" y="-157.8" font-family="Times,serif" font-size="14.00" fill="#000000">add</text>
</g>
<!-- N25&#45;&gt;N124 -->
<g id="edge11" class="edge">
<title>N25&#45;&gt;N124</title>
<path fill="none" stroke="#000000" d="M501,-215.8314C501,-208.131 501,-198.9743 501,-190.4166"/>
<polygon fill="#000000" stroke="#000000" points="504.5001,-190.4132 501,-180.4133 497.5001,-190.4133 504.5001,-190.4132"/>
</g>
<!-- N47 -->
<g id="node5" class="node">
<title>N47</title>
<ellipse fill="#d3d3d3" stroke="#000000" cx="137" cy="-90" rx="48.6501" ry="18"/>
<text text-anchor="middle" x="137" y="-85.8" font-family="Times,serif" font-size="14.00" fill="#000000">ifthenelse</text>
</g>
<!-- N36&#45;&gt;N47 -->
<g id="edge4" class="edge">
<title>N36&#45;&gt;N47</title>
<path fill="none" stroke="#000000" d="M270.649,-151.6842C246.2461,-140.4213 206.68,-122.16 176.9172,-108.4233"/>
<polygon fill="#000000" stroke="#000000" points="178.1764,-105.1497 167.6301,-104.137 175.243,-111.5055 178.1764,-105.1497"/>
</g>
<!-- N91 -->
<g id="node9" class="node">
<title>N91</title>
<ellipse fill="#d3d3d3" stroke="#000000" cx="293" cy="-90" rx="27" ry="18"/>
<text text-anchor="middle" x="293" y="-85.8" font-family="Times,serif" font-size="14.00" fill="#000000">sub</text>
</g>
<!-- N36&#45;&gt;N91 -->
<g id="edge8" class="edge">
<title>N36&#45;&gt;N91</title>
<path fill="none" stroke="#000000" d="M293,-143.8314C293,-136.131 293,-126.9743 293,-118.4166"/>
<polygon fill="#000000" stroke="#000000" points="296.5001,-118.4132 293,-108.4133 289.5001,-118.4133 296.5001,-118.4132"/>
</g>
<!-- N58 -->
<g id="node6" class="node">
<title>N58</title>
<ellipse fill="#d3d3d3" stroke="#000000" cx="27" cy="-18" rx="27" ry="18"/>
<text text-anchor="middle" x="27" y="-13.8" font-family="Times,serif" font-size="14.00" fill="#000000">b</text>
</g>
<!-- N47&#45;&gt;N58 -->
<g id="edge5" class="edge">
<title>N47&#45;&gt;N58</title>
<path fill="none" stroke="#000000" d="M112.86,-74.1993C95.8418,-63.0601 72.9953,-48.106 55.1478,-36.424"/>
<polygon fill="#000000" stroke="#000000" points="56.6116,-33.1991 46.3278,-30.6509 52.778,-39.056 56.6116,-33.1991"/>
</g>
<!-- N69 -->
<g id="node7" class="node">
<title>N69</title>
<ellipse fill="#d3d3d3" stroke="#000000" cx="100" cy="-18" rx="27.8725" ry="18"/>
<text text-anchor="middle" x="100" y="-13.8" font-family="Times,serif" font-size="14.00" fill="#000000">0.65</text>
</g>
<!-- N47&#45;&gt;N69 -->
<g id="edge6" class="edge">
<title>N47&#45;&gt;N69</title>
<path fill="none" stroke="#000000" d="M127.8539,-72.2022C123.4883,-63.7071 118.1797,-53.3767 113.3726,-44.0223"/>
<polygon fill="#000000" stroke="#000000" points="116.4698,-42.3918 108.7861,-35.0972 110.2438,-45.5913 116.4698,-42.3918"/>
</g>
<!-- N80 -->
<g id="node8" class="node">
<title>N80</title>
<ellipse fill="#d3d3d3" stroke="#000000" cx="173" cy="-18" rx="27" ry="18"/>
<text text-anchor="middle" x="173" y="-13.8" font-family="Times,serif" font-size="14.00" fill="#000000">x</text>
</g>
<!-- N47&#45;&gt;N80 -->
<g id="edge7" class="edge">
<title>N47&#45;&gt;N80</title>
<path fill="none" stroke="#000000" d="M145.8989,-72.2022C150.1022,-63.7955 155.2041,-53.5917 159.8425,-44.3149"/>
<polygon fill="#000000" stroke="#000000" points="163.1097,-45.6068 164.4514,-35.0972 156.8487,-42.4762 163.1097,-45.6068"/>
</g>
<!-- N102 -->
<g id="node10" class="node">
<title>N102</title>
<ellipse fill="#d3d3d3" stroke="#000000" cx="245" cy="-18" rx="27" ry="18"/>
<text text-anchor="middle" x="245" y="-13.8" font-family="Times,serif" font-size="14.00" fill="#000000">x</text>
</g>
<!-- N91&#45;&gt;N102 -->
<g id="edge9" class="edge">
<title>N91&#45;&gt;N102</title>
<path fill="none" stroke="#000000" d="M281.8672,-73.3008C275.8696,-64.3043 268.3498,-53.0247 261.6686,-43.0029"/>
<polygon fill="#000000" stroke="#000000" points="264.5317,-40.9877 256.0724,-34.6087 258.7073,-44.8706 264.5317,-40.9877"/>
</g>
<!-- N113 -->
<g id="node11" class="node">
<title>N113</title>
<ellipse fill="#d3d3d3" stroke="#000000" cx="318" cy="-18" rx="27.8725" ry="18"/>
<text text-anchor="middle" x="318" y="-13.8" font-family="Times,serif" font-size="14.00" fill="#000000">0.95</text>
</g>
<!-- N91&#45;&gt;N113 -->
<g id="edge10" class="edge">
<title>N91&#45;&gt;N113</title>
<path fill="none" stroke="#000000" d="M299.1798,-72.2022C301.9953,-64.0936 305.3913,-54.3129 308.5191,-45.3049"/>
<polygon fill="#000000" stroke="#000000" points="311.9175,-46.1878 311.8913,-35.593 305.3048,-43.8917 311.9175,-46.1878"/>
</g>
<!-- N135 -->
<g id="node13" class="node">
<title>N135</title>
<ellipse fill="#d3d3d3" stroke="#000000" cx="465" cy="-90" rx="27" ry="18"/>
<text text-anchor="middle" x="465" y="-85.8" font-family="Times,serif" font-size="14.00" fill="#000000">add</text>
</g>
<!-- N124&#45;&gt;N135 -->
<g id="edge12" class="edge">
<title>N124&#45;&gt;N135</title>
<path fill="none" stroke="#000000" d="M492.2854,-144.5708C488.0403,-136.0807 482.8464,-125.6929 478.1337,-116.2674"/>
<polygon fill="#000000" stroke="#000000" points="481.237,-114.6477 473.6343,-107.2687 474.976,-117.7782 481.237,-114.6477"/>
</g>
<!-- N168 -->
<g id="node16" class="node">
<title>N168</title>
<ellipse fill="#d3d3d3" stroke="#000000" cx="537" cy="-90" rx="27" ry="18"/>
<text text-anchor="middle" x="537" y="-85.8" font-family="Times,serif" font-size="14.00" fill="#000000">sub</text>
</g>
<!-- N124&#45;&gt;N168 -->
<g id="edge15" class="edge">
<title>N124&#45;&gt;N168</title>
<path fill="none" stroke="#000000" d="M509.7146,-144.5708C513.9597,-136.0807 519.1536,-125.6929 523.8663,-116.2674"/>
<polygon fill="#000000" stroke="#000000" points="527.024,-117.7782 528.3657,-107.2687 520.763,-114.6477 527.024,-117.7782"/>
</g>
<!-- N146 -->
<g id="node14" class="node">
<title>N146</title>
<ellipse fill="#d3d3d3" stroke="#000000" cx="392" cy="-18" rx="27.8725" ry="18"/>
<text text-anchor="middle" x="392" y="-13.8" font-family="Times,serif" font-size="14.00" fill="#000000">0.07</text>
</g>
<!-- N135&#45;&gt;N146 -->
<g id="edge13" class="edge">
<title>N135&#45;&gt;N146</title>
<path fill="none" stroke="#000000" d="M449.8744,-75.0816C439.6655,-65.0125 426.0122,-51.5463 414.5307,-40.2221"/>
<polygon fill="#000000" stroke="#000000" points="416.9349,-37.6773 407.3574,-33.147 412.0194,-42.6611 416.9349,-37.6773"/>
</g>
<!-- N157 -->
<g id="node15" class="node">
<title>N157</title>
<ellipse fill="#d3d3d3" stroke="#000000" cx="465" cy="-18" rx="27" ry="18"/>
<text text-anchor="middle" x="465" y="-13.8" font-family="Times,serif" font-size="14.00" fill="#000000">x</text>
</g>
<!-- N135&#45;&gt;N157 -->
<g id="edge14" class="edge">
<title>N135&#45;&gt;N157</title>
<path fill="none" stroke="#000000" d="M465,-71.8314C465,-64.131 465,-54.9743 465,-46.4166"/>
<polygon fill="#000000" stroke="#000000" points="468.5001,-46.4132 465,-36.4133 461.5001,-46.4133 468.5001,-46.4132"/>
</g>
<!-- N179 -->
<g id="node17" class="node">
<title>N179</title>
<ellipse fill="#d3d3d3" stroke="#000000" cx="537" cy="-18" rx="27" ry="18"/>
<text text-anchor="middle" x="537" y="-13.8" font-family="Times,serif" font-size="14.00" fill="#000000">x</text>
</g>
<!-- N168&#45;&gt;N179 -->
<g id="edge16" class="edge">
<title>N168&#45;&gt;N179</title>
<path fill="none" stroke="#000000" d="M537,-71.8314C537,-64.131 537,-54.9743 537,-46.4166"/>
<polygon fill="#000000" stroke="#000000" points="540.5001,-46.4132 537,-36.4133 533.5001,-46.4133 540.5001,-46.4132"/>
</g>
<!-- N190 -->
<g id="node18" class="node">
<title>N190</title>
<ellipse fill="#d3d3d3" stroke="#000000" cx="609" cy="-18" rx="27" ry="18"/>
<text text-anchor="middle" x="609" y="-13.8" font-family="Times,serif" font-size="14.00" fill="#000000">x</text>
</g>
<!-- N168&#45;&gt;N190 -->
<g id="edge17" class="edge">
<title>N168&#45;&gt;N190</title>
<path fill="none" stroke="#000000" d="M552.2693,-74.7307C562.197,-64.803 575.3153,-51.6847 586.4363,-40.5637"/>
<polygon fill="#000000" stroke="#000000" points="589.1564,-42.7933 593.7527,-33.2473 584.2067,-37.8436 589.1564,-42.7933"/>
</g>
<!-- N212 -->
<g id="node20" class="node">
<title>N212</title>
<ellipse fill="#d3d3d3" stroke="#000000" cx="738" cy="-162" rx="27" ry="18"/>
<text text-anchor="middle" x="738" y="-157.8" font-family="Times,serif" font-size="14.00" fill="#000000">not</text>
</g>
<!-- N201&#45;&gt;N212 -->
<g id="edge19" class="edge">
<title>N201&#45;&gt;N212</title>
<path fill="none" stroke="#000000" d="M793.7,-216.937C783.7932,-207.1659 771.2483,-194.7928 760.5732,-184.2639"/>
<polygon fill="#000000" stroke="#000000" points="762.7724,-181.517 753.1949,-176.9868 757.8569,-186.5008 762.7724,-181.517"/>
</g>
<!-- N245 -->
<g id="node23" class="node">
<title>N245</title>
<ellipse fill="#d3d3d3" stroke="#000000" cx="864" cy="-162" rx="48.6501" ry="18"/>
<text text-anchor="middle" x="864" y="-157.8" font-family="Times,serif" font-size="14.00" fill="#000000">ifthenelse</text>
</g>
<!-- N201&#45;&gt;N245 -->
<g id="edge22" class="edge">
<title>N201&#45;&gt;N245</title>
<path fill="none" stroke="#000000" d="M823.8298,-216.5708C830.2274,-207.8797 838.0888,-197.2001 845.1557,-187.5998"/>
<polygon fill="#000000" stroke="#000000" points="847.9951,-189.6465 851.1046,-179.5182 842.3577,-185.4968 847.9951,-189.6465"/>
</g>
<!-- N355 -->
<g id="node33" class="node">
<title>N355</title>
<ellipse fill="#d3d3d3" stroke="#000000" cx="1229" cy="-162" rx="27" ry="18"/>
<text text-anchor="middle" x="1229" y="-157.8" font-family="Times,serif" font-size="14.00" fill="#000000">add</text>
</g>
<!-- N201&#45;&gt;N355 -->
<g id="edge32" class="edge">
<title>N201&#45;&gt;N355</title>
<path fill="none" stroke="#000000" d="M855.3376,-226.3629C938.4164,-212.0527 1116.0294,-181.4591 1192.6164,-168.267"/>
<polygon fill="#000000" stroke="#000000" points="1193.4715,-171.6714 1202.7323,-166.5246 1192.2832,-164.773 1193.4715,-171.6714"/>
</g>
<!-- N223 -->
<g id="node21" class="node">
<title>N223</title>
<ellipse fill="#d3d3d3" stroke="#000000" cx="712" cy="-90" rx="27" ry="18"/>
<text text-anchor="middle" x="712" y="-85.8" font-family="Times,serif" font-size="14.00" fill="#000000">not</text>
</g>
<!-- N212&#45;&gt;N223 -->
<g id="edge20" class="edge">
<title>N212&#45;&gt;N223</title>
<path fill="none" stroke="#000000" d="M731.573,-144.2022C728.6134,-136.0064 725.037,-126.1024 721.7553,-117.0145"/>
<polygon fill="#000000" stroke="#000000" points="725.0415,-115.8098 718.353,-107.593 718.4576,-118.1874 725.0415,-115.8098"/>
</g>
<!-- N234 -->
<g id="node22" class="node">
<title>N234</title>
<ellipse fill="#d3d3d3" stroke="#000000" cx="681" cy="-18" rx="27" ry="18"/>
<text text-anchor="middle" x="681" y="-13.8" font-family="Times,serif" font-size="14.00" fill="#000000">b</text>
</g>
<!-- N223&#45;&gt;N234 -->
<g id="edge21" class="edge">
<title>N223&#45;&gt;N234</title>
<path fill="none" stroke="#000000" d="M704.4958,-72.5708C700.905,-64.2309 696.5258,-54.0598 692.5254,-44.7686"/>
<polygon fill="#000000" stroke="#000000" points="695.7119,-43.319 688.5426,-35.5182 689.2825,-46.0872 695.7119,-43.319"/>
</g>
<!-- N256 -->
<g id="node24" class="node">
<title>N256</title>
<ellipse fill="#d3d3d3" stroke="#000000" cx="828" cy="-90" rx="27" ry="18"/>
<text text-anchor="middle" x="828" y="-85.8" font-family="Times,serif" font-size="14.00" fill="#000000">lt</text>
</g>
<!-- N245&#45;&gt;N256 -->
<g id="edge23" class="edge">
<title>N245&#45;&gt;N256</title>
<path fill="none" stroke="#000000" d="M855.1011,-144.2022C850.8978,-135.7955 845.7959,-125.5917 841.1575,-116.3149"/>
<polygon fill="#000000" stroke="#000000" points="844.1513,-114.4762 836.5486,-107.0972 837.8903,-117.6068 844.1513,-114.4762"/>
</g>
<!-- N289 -->
<g id="node27" class="node">
<title>N289</title>
<ellipse fill="#d3d3d3" stroke="#000000" cx="901" cy="-90" rx="27" ry="18"/>
<text text-anchor="middle" x="901" y="-85.8" font-family="Times,serif" font-size="14.00" fill="#000000">sub</text>
</g>
<!-- N245&#45;&gt;N289 -->
<g id="edge26" class="edge">
<title>N245&#45;&gt;N289</title>
<path fill="none" stroke="#000000" d="M873.1461,-144.2022C877.5117,-135.7071 882.8203,-125.3767 887.6274,-116.0223"/>
<polygon fill="#000000" stroke="#000000" points="890.7562,-117.5913 892.2139,-107.0972 884.5302,-114.3918 890.7562,-117.5913"/>
</g>
<!-- N322 -->
<g id="node30" class="node">
<title>N322</title>
<ellipse fill="#d3d3d3" stroke="#000000" cx="1047" cy="-90" rx="27" ry="18"/>
<text text-anchor="middle" x="1047" y="-85.8" font-family="Times,serif" font-size="14.00" fill="#000000">mul</text>
</g>
<!-- N245&#45;&gt;N322 -->
<g id="edge29" class="edge">
<title>N245&#45;&gt;N322</title>
<path fill="none" stroke="#000000" d="M897.565,-148.7941C930.668,-135.77 980.957,-115.9841 1013.8984,-103.0236"/>
<polygon fill="#000000" stroke="#000000" points="1015.5022,-106.1538 1023.5264,-99.2355 1012.9393,-99.6398 1015.5022,-106.1538"/>
</g>
<!-- N267 -->
<g id="node25" class="node">
<title>N267</title>
<ellipse fill="#d3d3d3" stroke="#000000" cx="754" cy="-18" rx="27.8725" ry="18"/>
<text text-anchor="middle" x="754" y="-13.8" font-family="Times,serif" font-size="14.00" fill="#000000">0.79</text>
</g>
<!-- N256&#45;&gt;N267 -->
<g id="edge24" class="edge">
<title>N256&#45;&gt;N267</title>
<path fill="none" stroke="#000000" d="M812.6672,-75.0816C802.3185,-65.0125 788.4781,-51.5463 776.8394,-40.2221"/>
<polygon fill="#000000" stroke="#000000" points="779.1758,-37.6121 769.5678,-33.147 774.2943,-42.6292 779.1758,-37.6121"/>
</g>
<!-- N278 -->
<g id="node26" class="node">
<title>N278</title>
<ellipse fill="#d3d3d3" stroke="#000000" cx="828" cy="-18" rx="27.8725" ry="18"/>
<text text-anchor="middle" x="828" y="-13.8" font-family="Times,serif" font-size="14.00" fill="#000000">0.71</text>
</g>
<!-- N256&#45;&gt;N278 -->
<g id="edge25" class="edge">
<title>N256&#45;&gt;N278</title>
<path fill="none" stroke="#000000" d="M828,-71.8314C828,-64.131 828,-54.9743 828,-46.4166"/>
<polygon fill="#000000" stroke="#000000" points="831.5001,-46.4132 828,-36.4133 824.5001,-46.4133 831.5001,-46.4132"/>
</g>
<!-- N300 -->
<g id="node28" class="node">
<title>N300</title>
<ellipse fill="#d3d3d3" stroke="#000000" cx="901" cy="-18" rx="27" ry="18"/>
<text text-anchor="middle" x="901" y="-13.8" font-family="Times,serif" font-size="14.00" fill="#000000">x</text>
</g>
<!-- N289&#45;&gt;N300 -->
<g id="edge27" class="edge">
<title>N289&#45;&gt;N300</title>
<path fill="none" stroke="#000000" d="M901,-71.8314C901,-64.131 901,-54.9743 901,-46.4166"/>
<polygon fill="#000000" stroke="#000000" points="904.5001,-46.4132 901,-36.4133 897.5001,-46.4133 904.5001,-46.4132"/>
</g>
<!-- N311 -->
<g id="node29" class="node">
<title>N311</title>
<ellipse fill="#d3d3d3" stroke="#000000" cx="974" cy="-18" rx="27.8725" ry="18"/>
<text text-anchor="middle" x="974" y="-13.8" font-family="Times,serif" font-size="14.00" fill="#000000">0.36</text>
</g>
<!-- N289&#45;&gt;N311 -->
<g id="edge28" class="edge">
<title>N289&#45;&gt;N311</title>
<path fill="none" stroke="#000000" d="M916.1256,-75.0816C926.3345,-65.0125 939.9878,-51.5463 951.4693,-40.2221"/>
<polygon fill="#000000" stroke="#000000" points="953.9806,-42.6611 958.6426,-33.147 949.0651,-37.6773 953.9806,-42.6611"/>
</g>
<!-- N333 -->
<g id="node31" class="node">
<title>N333</title>
<ellipse fill="#d3d3d3" stroke="#000000" cx="1047" cy="-18" rx="27" ry="18"/>
<text text-anchor="middle" x="1047" y="-13.8" font-family="Times,serif" font-size="14.00" fill="#000000">x</text>
</g>
<!-- N322&#45;&gt;N333 -->
<g id="edge30" class="edge">
<title>N322&#45;&gt;N333</title>
<path fill="none" stroke="#000000" d="M1047,-71.8314C1047,-64.131 1047,-54.9743 1047,-46.4166"/>
<polygon fill="#000000" stroke="#000000" points="1050.5001,-46.4132 1047,-36.4133 1043.5001,-46.4133 1050.5001,-46.4132"/>
</g>
<!-- N344 -->
<g id="node32" class="node">
<title>N344</title>
<ellipse fill="#d3d3d3" stroke="#000000" cx="1120" cy="-18" rx="27.8725" ry="18"/>
<text text-anchor="middle" x="1120" y="-13.8" font-family="Times,serif" font-size="14.00" fill="#000000">0.96</text>
</g>
<!-- N322&#45;&gt;N344 -->
<g id="edge31" class="edge">
<title>N322&#45;&gt;N344</title>
<path fill="none" stroke="#000000" d="M1062.1256,-75.0816C1072.3345,-65.0125 1085.9878,-51.5463 1097.4693,-40.2221"/>
<polygon fill="#000000" stroke="#000000" points="1099.9806,-42.6611 1104.6426,-33.147 1095.0651,-37.6773 1099.9806,-42.6611"/>
</g>
<!-- N366 -->
<g id="node34" class="node">
<title>N366</title>
<ellipse fill="#d3d3d3" stroke="#000000" cx="1229" cy="-90" rx="27" ry="18"/>
<text text-anchor="middle" x="1229" y="-85.8" font-family="Times,serif" font-size="14.00" fill="#000000">div</text>
</g>
<!-- N355&#45;&gt;N366 -->
<g id="edge33" class="edge">
<title>N355&#45;&gt;N366</title>
<path fill="none" stroke="#000000" d="M1229,-143.8314C1229,-136.131 1229,-126.9743 1229,-118.4166"/>
<polygon fill="#000000" stroke="#000000" points="1232.5001,-118.4132 1229,-108.4133 1225.5001,-118.4133 1232.5001,-118.4132"/>
</g>
<!-- N399 -->
<g id="node37" class="node">
<title>N399</title>
<ellipse fill="#d3d3d3" stroke="#000000" cx="1340" cy="-90" rx="27" ry="18"/>
<text text-anchor="middle" x="1340" y="-85.8" font-family="Times,serif" font-size="14.00" fill="#000000">add</text>
</g>
<!-- N355&#45;&gt;N399 -->
<g id="edge36" class="edge">
<title>N355&#45;&gt;N399</title>
<path fill="none" stroke="#000000" d="M1248.5891,-149.2936C1266.184,-137.8807 1292.2175,-120.994 1312.0066,-108.1579"/>
<polygon fill="#000000" stroke="#000000" points="1314.1218,-110.9577 1320.6068,-102.5794 1310.3125,-105.085 1314.1218,-110.9577"/>
</g>
<!-- N377 -->
<g id="node35" class="node">
<title>N377</title>
<ellipse fill="#d3d3d3" stroke="#000000" cx="1193" cy="-18" rx="27" ry="18"/>
<text text-anchor="middle" x="1193" y="-13.8" font-family="Times,serif" font-size="14.00" fill="#000000">x</text>
</g>
<!-- N366&#45;&gt;N377 -->
<g id="edge34" class="edge">
<title>N366&#45;&gt;N377</title>
<path fill="none" stroke="#000000" d="M1220.2854,-72.5708C1216.0403,-64.0807 1210.8464,-53.6929 1206.1337,-44.2674"/>
<polygon fill="#000000" stroke="#000000" points="1209.237,-42.6477 1201.6343,-35.2687 1202.976,-45.7782 1209.237,-42.6477"/>
</g>
<!-- N388 -->
<g id="node36" class="node">
<title>N388</title>
<ellipse fill="#d3d3d3" stroke="#000000" cx="1266" cy="-18" rx="27.8725" ry="18"/>
<text text-anchor="middle" x="1266" y="-13.8" font-family="Times,serif" font-size="14.00" fill="#000000">0.52</text>
</g>
<!-- N366&#45;&gt;N388 -->
<g id="edge35" class="edge">
<title>N366&#45;&gt;N388</title>
<path fill="none" stroke="#000000" d="M1237.7685,-72.937C1242.1279,-64.4537 1247.4953,-54.0092 1252.3753,-44.513"/>
<polygon fill="#000000" stroke="#000000" points="1255.5797,-45.9348 1257.0374,-35.4407 1249.3537,-42.7352 1255.5797,-45.9348"/>
</g>
<!-- N410 -->
<g id="node38" class="node">
<title>N410</title>
<ellipse fill="#d3d3d3" stroke="#000000" cx="1340" cy="-18" rx="27.8725" ry="18"/>
<text text-anchor="middle" x="1340" y="-13.8" font-family="Times,serif" font-size="14.00" fill="#000000">0.18</text>
</g>
<!-- N399&#45;&gt;N410 -->
<g id="edge37" class="edge">
<title>N399&#45;&gt;N410</title>
<path fill="none" stroke="#000000" d="M1340,-71.8314C1340,-64.131 1340,-54.9743 1340,-46.4166"/>
<polygon fill="#000000" stroke="#000000" points="1343.5001,-46.4132 1340,-36.4133 1336.5001,-46.4133 1343.5001,-46.4132"/>
</g>
<!-- N421 -->
<g id="node39" class="node">
<title>N421</title>
<ellipse fill="#d3d3d3" stroke="#000000" cx="1414" cy="-18" rx="27.8725" ry="18"/>
<text text-anchor="middle" x="1414" y="-13.8" font-family="Times,serif" font-size="14.00" fill="#000000">0.85</text>
</g>
<!-- N399&#45;&gt;N421 -->
<g id="edge38" class="edge">
<title>N399&#45;&gt;N421</title>
<path fill="none" stroke="#000000" d="M1355.3328,-75.0816C1365.6815,-65.0125 1379.5219,-51.5463 1391.1606,-40.2221"/>
<polygon fill="#000000" stroke="#000000" points="1393.7057,-42.6292 1398.4322,-33.147 1388.8242,-37.6121 1393.7057,-42.6292"/>
</g>
</g>
</svg>
