<?xml version="1.0" encoding="UTF-8" standalone="no"?>
<!DOCTYPE svg PUBLIC "-//W3C//DTD SVG 1.1//EN"
 "http://www.w3.org/Graphics/SVG/1.1/DTD/svg11.dtd">
<!-- Generated by graphviz version 2.40.1 (20161225.0304)
 -->
<!-- Title: G3 Pages: 1 -->
<svg width="1368pt" height="404pt"
 viewBox="0.00 0.00 1368.00 404.00" xmlns="http://www.w3.org/2000/svg" xmlns:xlink="http://www.w3.org/1999/xlink">
<g id="graph0" class="graph" transform="scale(1 1) rotate(0) translate(4 400)">
<title>G3</title>
<polygon fill="#ffffff" stroke="transparent" points="-4,4 -4,-400 1364,-400 1364,4 -4,4"/>
<!-- N3 -->
<g id="node1" class="node">
<title>N3</title>
<ellipse fill="#d3d3d3" stroke="#000000" cx="645" cy="-378" rx="27" ry="18"/>
<text text-anchor="middle" x="645" y="-373.8" font-family="Times,serif" font-size="14.00" fill="#000000">N3</text>
</g>
<!-- N14 -->
<g id="node2" class="node">
<title>N14</title>
<ellipse fill="#d3d3d3" stroke="#000000" cx="645" cy="-306" rx="27" ry="18"/>
<text text-anchor="middle" x="645" y="-301.8" font-family="Times,serif" font-size="14.00" fill="#000000">div</text>
</g>
<!-- N3&#45;&gt;N14 -->
<g id="edge1" class="edge">
<title>N3&#45;&gt;N14</title>
<path fill="none" stroke="#000000" d="M645,-359.8314C645,-352.131 645,-342.9743 645,-334.4166"/>
<polygon fill="#000000" stroke="#000000" points="648.5001,-334.4132 645,-324.4133 641.5001,-334.4133 648.5001,-334.4132"/>
</g>
<!-- N25 -->
<g id="node3" class="node">
<title>N25</title>
<ellipse fill="#d3d3d3" stroke="#000000" cx="500" cy="-234" rx="27" ry="18"/>
<text text-anchor="middle" x="500" y="-229.8" font-family="Times,serif" font-size="14.00" fill="#000000">sub</text>
</g>
<!-- N14&#45;&gt;N25 -->
<g id="edge2" class="edge">
<title>N14&#45;&gt;N25</title>
<path fill="none" stroke="#000000" d="M623.292,-295.2209C598.8396,-283.079 558.896,-263.2449 531.1259,-249.4556"/>
<polygon fill="#000000" stroke="#000000" points="532.3696,-246.1655 521.8564,-244.8528 529.2564,-252.4351 532.3696,-246.1655"/>
</g>
<!-- N201 -->
<g id="node19" class="node">
<title>N201</title>
<ellipse fill="#d3d3d3" stroke="#000000" cx="852" cy="-234" rx="27" ry="18"/>
<text text-anchor="middle" x="852" y="-229.8" font-family="Times,serif" font-size="14.00" fill="#000000">add</text>
</g>
<!-- N14&#45;&gt;N201 -->
<g id="edge18" class="edge">
<title>N14&#45;&gt;N201</title>
<path fill="none" stroke="#000000" d="M669.1507,-297.5998C706.0771,-284.7558 776.6808,-260.198 818.5258,-245.6432"/>
<polygon fill="#000000" stroke="#000000" points="819.708,-248.9377 828.0032,-242.3467 817.4084,-242.3263 819.708,-248.9377"/>
</g>
<!-- N36 -->
<g id="node4" class="node">
<title>N36</title>
<ellipse fill="#d3d3d3" stroke="#000000" cx="293" cy="-162" rx="27" ry="18"/>
<text text-anchor="middle" x="293" y="-157.8" font-family="Times,serif" font-size="14.00" fill="#000000">add</text>
</g>
<!-- N25&#45;&gt;N36 -->
<g id="edge3" class="edge">
<title>N25&#45;&gt;N36</title>
<path fill="none" stroke="#000000" d="M475.8493,-225.5998C438.9229,-212.7558 368.3192,-188.198 326.4742,-173.6432"/>
<polygon fill="#000000" stroke="#000000" points="327.5916,-170.3263 316.9968,-170.3467 325.292,-176.9377 327.5916,-170.3263"/>
</g>
<!-- N124 -->
<g id="node12" class="node">
<title>N124</title>
<ellipse fill="#d3d3d3" stroke="#000000" cx="500" cy="-162" rx="27" ry="18"/>
<text text-anchor="middle" x="500" y="-157.8" font-family="Times,serif" font-size="14.00" fill="#000000">div</text>
</g>
<!-- N25&#45;&gt;N124 -->
<g id="edge11" class="edge">
<title>N25&#45;&gt;N124</title>
<path fill="none" stroke="#000000" d="M500,-215.8314C500,-208.131 500,-198.9743 500,-190.4166"/>
<polygon fill="#000000" stroke="#000000" points="503.5001,-190.4132 500,-180.4133 496.5001,-190.4133 503.5001,-190.4132"/>
</g>
<!-- N47 -->
<g id="node5" class="node">
<title>N47</title>
<ellipse fill="#d3d3d3" stroke="#000000" cx="137" cy="-90" rx="48.6501" ry="18"/>
<text text-anchor="middle" x="137" y="-85.8" font-family="Times,serif" font-size="14.00" fill="#000000">ifthenelse</text>
</g>
<!-- N36&#45;&gt;N47 -->
<g id="edge4" class="edge">
<title>N36&#45;&gt;N47</title>
<path fill="none" stroke="#000000" d="M270.649,-151.6842C246.2461,-140.4213 206.68,-122.16 176.9172,-108.4233"/>
<polygon fill="#000000" stroke="#000000" points="178.1764,-105.1497 167.6301,-104.137 175.243,-111.5055 178.1764,-105.1497"/>
</g>
<!-- N91 -->
<g id="node9" class="node">
<title>N91</title>
<ellipse fill="#d3d3d3" stroke="#000000" cx="293" cy="-90" rx="27" ry="18"/>
<text text-anchor="middle" x="293" y="-85.8" font-family="Times,serif" font-size="14.00" fill="#000000">mul</text>
</g>
<!-- N36&#45;&gt;N91 -->
<g id="edge8" class="edge">
<title>N36&#45;&gt;N91</title>
<path fill="none" stroke="#000000" d="M293,-143.8314C293,-136.131 293,-126.9743 293,-118.4166"/>
<polygon fill="#000000" stroke="#000000" points="296.5001,-118.4132 293,-108.4133 289.5001,-118.4133 296.5001,-118.4132"/>
</g>
<!-- N58 -->
<g id="node6" class="node">
<title>N58</title>
<ellipse fill="#d3d3d3" stroke="#000000" cx="27" cy="-18" rx="27" ry="18"/>
<text text-anchor="middle" x="27" y="-13.8" font-family="Times,serif" font-size="14.00" fill="#000000">b</text>
</g>
<!-- N47&#45;&gt;N58 -->
<g id="edge5" class="edge">
<title>N47&#45;&gt;N58</title>
<path fill="none" stroke="#000000" d="M112.86,-74.1993C95.8418,-63.0601 72.9953,-48.106 55.1478,-36.424"/>
<polygon fill="#000000" stroke="#000000" points="56.6116,-33.1991 46.3278,-30.6509 52.778,-39.056 56.6116,-33.1991"/>
</g>
<!-- N69 -->
<g id="node7" class="node">
<title>N69</title>
<ellipse fill="#d3d3d3" stroke="#000000" cx="100" cy="-18" rx="27.8725" ry="18"/>
<text text-anchor="middle" x="100" y="-13.8" font-family="Times,serif" font-size="14.00" fill="#000000">0.05</text>
</g>
<!-- N47&#45;&gt;N69 -->
<g id="edge6" class="edge">
<title>N47&#45;&gt;N69</title>
<path fill="none" stroke="#000000" d="M127.8539,-72.2022C123.4883,-63.7071 118.1797,-53.3767 113.3726,-44.0223"/>
<polygon fill="#000000" stroke="#000000" points="116.4698,-42.3918 108.7861,-35.0972 110.2438,-45.5913 116.4698,-42.3918"/>
</g>
<!-- N80 -->
<g id="node8" class="node">
<title>N80</title>
<ellipse fill="#d3d3d3" stroke="#000000" cx="173" cy="-18" rx="27" ry="18"/>
<text text-anchor="middle" x="173" y="-13.8" font-family="Times,serif" font-size="14.00" fill="#000000">x</text>
</g>
<!-- N47&#45;&gt;N80 -->
<g id="edge7" class="edge">
<title>N47&#45;&gt;N80</title>
<path fill="none" stroke="#000000" d="M145.8989,-72.2022C150.1022,-63.7955 155.2041,-53.5917 159.8425,-44.3149"/>
<polygon fill="#000000" stroke="#000000" points="163.1097,-45.6068 164.4514,-35.0972 156.8487,-42.4762 163.1097,-45.6068"/>
</g>
<!-- N102 -->
<g id="node10" class="node">
<title>N102</title>
<ellipse fill="#d3d3d3" stroke="#000000" cx="246" cy="-18" rx="27.8725" ry="18"/>
<text text-anchor="middle" x="246" y="-13.8" font-family="Times,serif" font-size="14.00" fill="#000000">0.36</text>
</g>
<!-- N91&#45;&gt;N102 -->
<g id="edge9" class="edge">
<title>N91&#45;&gt;N102</title>
<path fill="none" stroke="#000000" d="M282.0991,-73.3008C276.2264,-64.3043 268.8634,-53.0247 262.3213,-43.0029"/>
<polygon fill="#000000" stroke="#000000" points="265.2389,-41.0693 256.8418,-34.6087 259.3772,-44.8957 265.2389,-41.0693"/>
</g>
<!-- N113 -->
<g id="node11" class="node">
<title>N113</title>
<ellipse fill="#d3d3d3" stroke="#000000" cx="319" cy="-18" rx="27" ry="18"/>
<text text-anchor="middle" x="319" y="-13.8" font-family="Times,serif" font-size="14.00" fill="#000000">x</text>
</g>
<!-- N91&#45;&gt;N113 -->
<g id="edge10" class="edge">
<title>N91&#45;&gt;N113</title>
<path fill="none" stroke="#000000" d="M299.427,-72.2022C302.3866,-64.0064 305.963,-54.1024 309.2447,-45.0145"/>
<polygon fill="#000000" stroke="#000000" points="312.5424,-46.1874 312.647,-35.593 305.9585,-43.8098 312.5424,-46.1874"/>
</g>
<!-- N135 -->
<g id="node13" class="node">
<title>N135</title>
<ellipse fill="#d3d3d3" stroke="#000000" cx="464" cy="-90" rx="27" ry="18"/>
<text text-anchor="middle" x="464" y="-85.8" font-family="Times,serif" font-size="14.00" fill="#000000">add</text>
</g>
<!-- N124&#45;&gt;N135 -->
<g id="edge12" class="edge">
<title>N124&#45;&gt;N135</title>
<path fill="none" stroke="#000000" d="M491.2854,-144.5708C487.0403,-136.0807 481.8464,-125.6929 477.1337,-116.2674"/>
<polygon fill="#000000" stroke="#000000" points="480.237,-114.6477 472.6343,-107.2687 473.976,-117.7782 480.237,-114.6477"/>
</g>
<!-- N168 -->
<g id="node16" class="node">
<title>N168</title>
<ellipse fill="#d3d3d3" stroke="#000000" cx="537" cy="-90" rx="27" ry="18"/>
<text text-anchor="middle" x="537" y="-85.8" font-family="Times,serif" font-size="14.00" fill="#000000">div</text>
</g>
<!-- N124&#45;&gt;N168 -->
<g id="edge15" class="edge">
<title>N124&#45;&gt;N168</title>
<path fill="none" stroke="#000000" d="M508.7685,-144.937C513.1279,-136.4537 518.4953,-126.0092 523.3753,-116.513"/>
<polygon fill="#000000" stroke="#000000" points="526.5797,-117.9348 528.0374,-107.4407 520.3537,-114.7352 526.5797,-117.9348"/>
</g>
<!-- N146 -->
<g id="node14" class="node">
<title>N146</title>
<ellipse fill="#d3d3d3" stroke="#000000" cx="391" cy="-18" rx="27" ry="18"/>
<text text-anchor="middle" x="391" y="-13.8" font-family="Times,serif" font-size="14.00" fill="#000000">x</text>
</g>
<!-- N135&#45;&gt;N146 -->
<g id="edge13" class="edge">
<title>N135&#45;&gt;N146</title>
<path fill="none" stroke="#000000" d="M448.8744,-75.0816C438.6655,-65.0125 425.0122,-51.5463 413.5307,-40.2221"/>
<polygon fill="#000000" stroke="#000000" points="415.9349,-37.6773 406.3574,-33.147 411.0194,-42.6611 415.9349,-37.6773"/>
</g>
<!-- N157 -->
<g id="node15" class="node">
<title>N157</title>
<ellipse fill="#d3d3d3" stroke="#000000" cx="464" cy="-18" rx="27.8725" ry="18"/>
<text text-anchor="middle" x="464" y="-13.8" font-family="Times,serif" font-size="14.00" fill="#000000">0.68</text>
</g>
<!-- N135&#45;&gt;N157 -->
<g id="edge14" class="edge">
<title>N135&#45;&gt;N157</title>
<path fill="none" stroke="#000000" d="M464,-71.8314C464,-64.131 464,-54.9743 464,-46.4166"/>
<polygon fill="#000000" stroke="#000000" points="467.5001,-46.4132 464,-36.4133 460.5001,-46.4133 467.5001,-46.4132"/>
</g>
<!-- N179 -->
<g id="node17" class="node">
<title>N179</title>
<ellipse fill="#d3d3d3" stroke="#000000" cx="537" cy="-18" rx="27" ry="18"/>
<text text-anchor="middle" x="537" y="-13.8" font-family="Times,serif" font-size="14.00" fill="#000000">0.9</text>
</g>
<!-- N168&#45;&gt;N179 -->
<g id="edge16" class="edge">
<title>N168&#45;&gt;N179</title>
<path fill="none" stroke="#000000" d="M537,-71.8314C537,-64.131 537,-54.9743 537,-46.4166"/>
<polygon fill="#000000" stroke="#000000" points="540.5001,-46.4132 537,-36.4133 533.5001,-46.4133 540.5001,-46.4132"/>
</g>
<!-- N190 -->
<g id="node18" class="node">
<title>N190</title>
<ellipse fill="#d3d3d3" stroke="#000000" cx="610" cy="-18" rx="27.8725" ry="18"/>
<text text-anchor="middle" x="610" y="-13.8" font-family="Times,serif" font-size="14.00" fill="#000000">0.33</text>
</g>
<!-- N168&#45;&gt;N190 -->
<g id="edge17" class="edge">
<title>N168&#45;&gt;N190</title>
<path fill="none" stroke="#000000" d="M552.1256,-75.0816C562.3345,-65.0125 575.9878,-51.5463 587.4693,-40.2221"/>
<polygon fill="#000000" stroke="#000000" points="589.9806,-42.6611 594.6426,-33.147 585.0651,-37.6773 589.9806,-42.6611"/>
</g>
<!-- N212 -->
<g id="node20" class="node">
<title>N212</title>
<ellipse fill="#d3d3d3" stroke="#000000" cx="852" cy="-162" rx="27" ry="18"/>
<text text-anchor="middle" x="852" y="-157.8" font-family="Times,serif" font-size="14.00" fill="#000000">div</text>
</g>
<!-- N201&#45;&gt;N212 -->
<g id="edge19" class="edge">
<title>N201&#45;&gt;N212</title>
<path fill="none" stroke="#000000" d="M852,-215.8314C852,-208.131 852,-198.9743 852,-190.4166"/>
<polygon fill="#000000" stroke="#000000" points="855.5001,-190.4132 852,-180.4133 848.5001,-190.4133 855.5001,-190.4132"/>
</g>
<!-- N300 -->
<g id="node28" class="node">
<title>N300</title>
<ellipse fill="#d3d3d3" stroke="#000000" cx="1115" cy="-162" rx="27" ry="18"/>
<text text-anchor="middle" x="1115" y="-157.8" font-family="Times,serif" font-size="14.00" fill="#000000">div</text>
</g>
<!-- N201&#45;&gt;N300 -->
<g id="edge27" class="edge">
<title>N201&#45;&gt;N300</title>
<path fill="none" stroke="#000000" d="M877.2175,-227.0963C924.4439,-214.1674 1026.296,-186.284 1080.0852,-171.5584"/>
<polygon fill="#000000" stroke="#000000" points="1081.1379,-174.8991 1089.8588,-168.8828 1079.2895,-168.1475 1081.1379,-174.8991"/>
</g>
<!-- N223 -->
<g id="node21" class="node">
<title>N223</title>
<ellipse fill="#d3d3d3" stroke="#000000" cx="780" cy="-90" rx="48.6501" ry="18"/>
<text text-anchor="middle" x="780" y="-85.8" font-family="Times,serif" font-size="14.00" fill="#000000">ifthenelse</text>
</g>
<!-- N212&#45;&gt;N223 -->
<g id="edge20" class="edge">
<title>N212&#45;&gt;N223</title>
<path fill="none" stroke="#000000" d="M836.7307,-146.7307C827.2726,-137.2726 814.9185,-124.9185 804.1545,-114.1545"/>
<polygon fill="#000000" stroke="#000000" points="806.5577,-111.6079 797.0117,-107.0117 801.6079,-116.5577 806.5577,-111.6079"/>
</g>
<!-- N267 -->
<g id="node25" class="node">
<title>N267</title>
<ellipse fill="#d3d3d3" stroke="#000000" cx="899" cy="-90" rx="27" ry="18"/>
<text text-anchor="middle" x="899" y="-85.8" font-family="Times,serif" font-size="14.00" fill="#000000">mul</text>
</g>
<!-- N212&#45;&gt;N267 -->
<g id="edge24" class="edge">
<title>N212&#45;&gt;N267</title>
<path fill="none" stroke="#000000" d="M862.9009,-145.3008C868.7736,-136.3043 876.1366,-125.0247 882.6787,-115.0029"/>
<polygon fill="#000000" stroke="#000000" points="885.6228,-116.8957 888.1582,-106.6087 879.7611,-113.0693 885.6228,-116.8957"/>
</g>
<!-- N234 -->
<g id="node22" class="node">
<title>N234</title>
<ellipse fill="#d3d3d3" stroke="#000000" cx="683" cy="-18" rx="27" ry="18"/>
<text text-anchor="middle" x="683" y="-13.8" font-family="Times,serif" font-size="14.00" fill="#000000">b</text>
</g>
<!-- N223&#45;&gt;N234 -->
<g id="edge21" class="edge">
<title>N223&#45;&gt;N234</title>
<path fill="none" stroke="#000000" d="M757.9892,-73.6621C743.5574,-62.9498 724.6117,-48.887 709.3744,-37.5768"/>
<polygon fill="#000000" stroke="#000000" points="711.4587,-34.7652 701.3429,-31.6154 707.2866,-40.386 711.4587,-34.7652"/>
</g>
<!-- N245 -->
<g id="node23" class="node">
<title>N245</title>
<ellipse fill="#d3d3d3" stroke="#000000" cx="755" cy="-18" rx="27" ry="18"/>
<text text-anchor="middle" x="755" y="-13.8" font-family="Times,serif" font-size="14.00" fill="#000000">x</text>
</g>
<!-- N223&#45;&gt;N245 -->
<g id="edge22" class="edge">
<title>N223&#45;&gt;N245</title>
<path fill="none" stroke="#000000" d="M773.6914,-71.8314C770.9169,-63.8406 767.5979,-54.2819 764.5317,-45.4514"/>
<polygon fill="#000000" stroke="#000000" points="767.8065,-44.2121 761.2199,-35.9134 761.1938,-46.5082 767.8065,-44.2121"/>
</g>
<!-- N256 -->
<g id="node24" class="node">
<title>N256</title>
<ellipse fill="#d3d3d3" stroke="#000000" cx="827" cy="-18" rx="27" ry="18"/>
<text text-anchor="middle" x="827" y="-13.8" font-family="Times,serif" font-size="14.00" fill="#000000">x</text>
</g>
<!-- N223&#45;&gt;N256 -->
<g id="edge23" class="edge">
<title>N223&#45;&gt;N256</title>
<path fill="none" stroke="#000000" d="M791.618,-72.2022C797.3622,-63.4025 804.3918,-52.6338 810.6674,-43.0202"/>
<polygon fill="#000000" stroke="#000000" points="813.6246,-44.8928 816.1601,-34.6058 807.763,-41.0664 813.6246,-44.8928"/>
</g>
<!-- N278 -->
<g id="node26" class="node">
<title>N278</title>
<ellipse fill="#d3d3d3" stroke="#000000" cx="899" cy="-18" rx="27" ry="18"/>
<text text-anchor="middle" x="899" y="-13.8" font-family="Times,serif" font-size="14.00" fill="#000000">1</text>
</g>
<!-- N267&#45;&gt;N278 -->
<g id="edge25" class="edge">
<title>N267&#45;&gt;N278</title>
<path fill="none" stroke="#000000" d="M899,-71.8314C899,-64.131 899,-54.9743 899,-46.4166"/>
<polygon fill="#000000" stroke="#000000" points="902.5001,-46.4132 899,-36.4133 895.5001,-46.4133 902.5001,-46.4132"/>
</g>
<!-- N289 -->
<g id="node27" class="node">
<title>N289</title>
<ellipse fill="#d3d3d3" stroke="#000000" cx="971" cy="-18" rx="27" ry="18"/>
<text text-anchor="middle" x="971" y="-13.8" font-family="Times,serif" font-size="14.00" fill="#000000">x</text>
</g>
<!-- N267&#45;&gt;N289 -->
<g id="edge26" class="edge">
<title>N267&#45;&gt;N289</title>
<path fill="none" stroke="#000000" d="M914.2693,-74.7307C924.197,-64.803 937.3153,-51.6847 948.4363,-40.5637"/>
<polygon fill="#000000" stroke="#000000" points="951.1564,-42.7933 955.7527,-33.2473 946.2067,-37.8436 951.1564,-42.7933"/>
</g>
<!-- N311 -->
<g id="node29" class="node">
<title>N311</title>
<ellipse fill="#d3d3d3" stroke="#000000" cx="1115" cy="-90" rx="48.6501" ry="18"/>
<text text-anchor="middle" x="1115" y="-85.8" font-family="Times,serif" font-size="14.00" fill="#000000">ifthenelse</text>
</g>
<!-- N300&#45;&gt;N311 -->
<g id="edge28" class="edge">
<title>N300&#45;&gt;N311</title>
<path fill="none" stroke="#000000" d="M1115,-143.8314C1115,-136.131 1115,-126.9743 1115,-118.4166"/>
<polygon fill="#000000" stroke="#000000" points="1118.5001,-118.4132 1115,-108.4133 1111.5001,-118.4133 1118.5001,-118.4132"/>
</g>
<!-- N355 -->
<g id="node33" class="node">
<title>N355</title>
<ellipse fill="#d3d3d3" stroke="#000000" cx="1261" cy="-90" rx="27" ry="18"/>
<text text-anchor="middle" x="1261" y="-85.8" font-family="Times,serif" font-size="14.00" fill="#000000">mul</text>
</g>
<!-- N300&#45;&gt;N355 -->
<g id="edge32" class="edge">
<title>N300&#45;&gt;N355</title>
<path fill="none" stroke="#000000" d="M1136.8577,-151.2209C1161.4787,-139.079 1201.6978,-119.2449 1229.6594,-105.4556"/>
<polygon fill="#000000" stroke="#000000" points="1231.5722,-108.4148 1238.9929,-100.8528 1228.4761,-102.1367 1231.5722,-108.4148"/>
</g>
<!-- N322 -->
<g id="node30" class="node">
<title>N322</title>
<ellipse fill="#d3d3d3" stroke="#000000" cx="1043" cy="-18" rx="27" ry="18"/>
<text text-anchor="middle" x="1043" y="-13.8" font-family="Times,serif" font-size="14.00" fill="#000000">b</text>
</g>
<!-- N311&#45;&gt;N322 -->
<g id="edge29" class="edge">
<title>N311&#45;&gt;N322</title>
<path fill="none" stroke="#000000" d="M1097.937,-72.937C1088.1659,-63.1659 1075.7928,-50.7928 1065.2639,-40.2639"/>
<polygon fill="#000000" stroke="#000000" points="1067.5327,-37.583 1057.9868,-32.9868 1062.583,-42.5327 1067.5327,-37.583"/>
</g>
<!-- N333 -->
<g id="node31" class="node">
<title>N333</title>
<ellipse fill="#d3d3d3" stroke="#000000" cx="1115" cy="-18" rx="27" ry="18"/>
<text text-anchor="middle" x="1115" y="-13.8" font-family="Times,serif" font-size="14.00" fill="#000000">x</text>
</g>
<!-- N311&#45;&gt;N333 -->
<g id="edge30" class="edge">
<title>N311&#45;&gt;N333</title>
<path fill="none" stroke="#000000" d="M1115,-71.8314C1115,-64.131 1115,-54.9743 1115,-46.4166"/>
<polygon fill="#000000" stroke="#000000" points="1118.5001,-46.4132 1115,-36.4133 1111.5001,-46.4133 1118.5001,-46.4132"/>
</g>
<!-- N344 -->
<g id="node32" class="node">
<title>N344</title>
<ellipse fill="#d3d3d3" stroke="#000000" cx="1188" cy="-18" rx="27.8725" ry="18"/>
<text text-anchor="middle" x="1188" y="-13.8" font-family="Times,serif" font-size="14.00" fill="#000000">0.21</text>
</g>
<!-- N311&#45;&gt;N344 -->
<g id="edge31" class="edge">
<title>N311&#45;&gt;N344</title>
<path fill="none" stroke="#000000" d="M1132.3,-72.937C1142.0711,-63.2997 1154.4085,-51.1313 1164.9871,-40.6977"/>
<polygon fill="#000000" stroke="#000000" points="1167.6553,-42.982 1172.3173,-33.4679 1162.7398,-37.9982 1167.6553,-42.982"/>
</g>
<!-- N366 -->
<g id="node34" class="node">
<title>N366</title>
<ellipse fill="#d3d3d3" stroke="#000000" cx="1261" cy="-18" rx="27" ry="18"/>
<text text-anchor="middle" x="1261" y="-13.8" font-family="Times,serif" font-size="14.00" fill="#000000">x</text>
</g>
<!-- N355&#45;&gt;N366 -->
<g id="edge33" class="edge">
<title>N355&#45;&gt;N366</title>
<path fill="none" stroke="#000000" d="M1261,-71.8314C1261,-64.131 1261,-54.9743 1261,-46.4166"/>
<polygon fill="#000000" stroke="#000000" points="1264.5001,-46.4132 1261,-36.4133 1257.5001,-46.4133 1264.5001,-46.4132"/>
</g>
<!-- N377 -->
<g id="node35" class="node">
<title>N377</title>
<ellipse fill="#d3d3d3" stroke="#000000" cx="1333" cy="-18" rx="27" ry="18"/>
<text text-anchor="middle" x="1333" y="-13.8" font-family="Times,serif" font-size="14.00" fill="#000000">x</text>
</g>
<!-- N355&#45;&gt;N377 -->
<g id="edge34" class="edge">
<title>N355&#45;&gt;N377</title>
<path fill="none" stroke="#000000" d="M1276.2693,-74.7307C1286.197,-64.803 1299.3153,-51.6847 1310.4363,-40.5637"/>
<polygon fill="#000000" stroke="#000000" points="1313.1564,-42.7933 1317.7527,-33.2473 1308.2067,-37.8436 1313.1564,-42.7933"/>
</g>
</g>
</svg>
